<?xml version="1.0" encoding="utf-8"?>
<!-- Generator: Adobe Illustrator 18.0.0, SVG Export Plug-In . SVG Version: 6.00 Build 0)  -->
<!DOCTYPE svg PUBLIC "-//W3C//DTD SVG 1.1//EN" "http://www.w3.org/Graphics/SVG/1.1/DTD/svg11.dtd">
<svg version="1.1"
	 id="svg2" xmlns:dc="http://purl.org/dc/elements/1.1/" xmlns:svg="http://www.w3.org/2000/svg" xmlns:rdf="http://www.w3.org/1999/02/22-rdf-syntax-ns#" xmlns:cc="http://creativecommons.org/ns#"
	 xmlns="http://www.w3.org/2000/svg" xmlns:xlink="http://www.w3.org/1999/xlink" x="0px" y="0px" viewBox="104.3 104.3 50 50"
	 enable-background="new 104.3 104.3 50 50" xml:space="preserve">
<g id="g10" transform="matrix(1.3333333,0,0,-1.3333333,0,258.66667)">
	<g id="g12" transform="scale(0.1)">
		<path id="path14" fill="#FFFFFF" d="M783.4,783h374.1v374.1H783.4V783z"/>
		<path id="path16" fill="#231F20" d="M841.5,799.5h257.9v341.1H841.5V799.5z"/>
		<path id="path18" fill="#FFFFFF" d="M886.8,1118.8c1.9,1.5,4.7,2.8,7.6,2.2c3-0.6,3.6-1.6,4.1-2.4c0.2-0.2,0.4-0.7,0.4-0.7
			s1.5-0.1,2.6-0.1c0.8,0,3.2,0.2,6.1,0.1c2.6-0.1,5.6-0.5,8.2-0.5c5.6,0.1,15,1.1,19.9,2.7c4.9,1.6,10.7,3.9,12.7,4.5
			c1.9,0.6,5.6,1.4,5.6,1.4s-0.9-0.3-3.5-1.2c-1.5-0.5-2.8-0.9-5.3-2.1c-4.2-1.9-12.9-7.3-25.9-7.3c-6.3,0-13.3,1.7-16.3,1.6
			c-2.5,0-3.9-0.5-3.9-0.5s0-2.5-3-5c-3-2.5-6.1-4.1-7.7-2.4c-1.6,1.7,1.3,4.7,2.6,5.7c1.4,1,4.3,2.3,5.4,2.6
			c0.4,0.1,0.8,0.3,0.8,0.3s-0.5,0.9-0.9,1.2c-0.6,0.4-2.6,1.9-6.5,0c-2.1-1-4-3.3-4.5-3.9c-0.3-0.4-1.8-2-1.8-2s0.1,0.8,0.4,1.7
			C884.5,1116.9,886.8,1118.8,886.8,1118.8"/>
		<path id="path20" fill="#231F20" d="M892.2,1114.3c-2.6-2-3.1-3.7-2.2-4.2c1.6-0.8,3.5,1,4.9,2.1c2.9,2.2,2.7,4.4,2.7,4.4
			S894.9,1116.4,892.2,1114.3"/>
		<path id="path22" fill="#FFFFFF" d="M953.5,1129.5c3.6,0,6.5-0.5,8.3-1.1c1.8-0.6,4.7-1.9,5.6-2.5c0.4-0.3,1.2-1.3,1.2-1.3
			s-0.8,0.3-1.9,0.9c-2.1,1.1-5.3,2.4-10.2,2.4c-4.3,0-9.3-1.9-18.1-3.2c-4.6-0.7-10.5-1.1-17.2-1.1c-9.6,0-17.9,2.2-29.4,2.2
			c-6.5,0-15-1.8-18.9-3.6c-1.6-0.7-3.7-1.6-5.5-2.9c-3.8-2.7-7.2-6.6-7.2-10.3c0-2,0.9-3.2,2-4.1c1.8-1.6,4.1-2.1,4.8-2.1
			c0.4,0,1,0,1,0s0.8,0.6,1.3,1.4c0.8,1.3,3.2,4.4,4.8,5.8c1.5,1.4,4.5,3.7,6.2,2.5c1.7-1.3,0.1-3.9-2.7-6.3
			c-2.8-2.4-4.8-3.3-5.9-3.7c-1.1-0.4-1.9-0.8-1.9-0.8s-1.1-1.9-2.4-4.9c-1.2-2.8-2.4-6.5-3-8.4c-1.7-6-2.8-10.1-3.3-15.4
			c-0.2-2.8-0.2-4.1-0.1-5.4c0-0.8,0.5-3.2,0.5-3.2s1.1-0.5,1.7-0.9c1.5-0.9,3.3-4,1.6-5.4c-1-0.8-2.9,0.9-3.7,2.5
			c-0.4,0.8-0.6,1.9-0.6,1.9s-0.8-0.1-1.2-0.7c-0.2-0.3-0.7-1.1-0.7-1.1s0.1-0.6,0.2-0.9c0.1-0.6,0.6-2.1,1.1-3.8
			c0.5-1.7,2.7-9.8,3.5-14.7c0.8-4.8,2.6-12.5,1.3-24.2c-1.3-11.7-2.2-15.3-2.2-15.3s6.6,1.4,6.6-7.1c0-5.2-3.7-10.5-3.7-10.5
			s1.6-0.4,1.6-5.5c0-3.8-4.6-7.7-4.6-7.7s0,0,0.7-1.3c0.7-1.3,1.1-1.8,1.1-1.8s3.2-2.1,3.2-6.5c0-3-1.7-4.5-1.7-4.5
			s3.7-5.5,3.7-10.8c0-5.3-3.6-6.6-5.1-6.6c-1.5,0-1.6,0-1.6,0s2.5-10.6,2.5-21.6c0-11-1.5-18.6-2.7-23.1
			c-1.2-4.4-3.9-13.4-3.9-13.4s0.1-0.7,0.3-1.3c0.5-1.1,1.5-1.3,1.5-1.3s0.6,1.3,1.1,2.5c0.6,1.2,2,2.1,3,1.6c1-0.5,1.1-2,0.4-3.4
			c-1-2-3.6-2.7-3.6-2.7s-0.8-3.6-0.8-5.5c0-2,0.3-6.5,2.9-14.1c2.7-7.7,4.4-11.3,4.4-11.3s4.5-1.5,7.2-4.4c2.7-2.9,4.1-5.8,2.9-6.7
			c-1.2-0.9-3.6-0.4-7.1,3.4c-3.5,3.9-4.2,6-4.2,6s-0.7,0.8-1.8,0.6c-1.1-0.1-4.6-1-5.7-3c-1.1-1.9-2-4.1,0.2-8.5
			c2.2-4.4,10.5-12,31.3-12c12.9,0,15.5,1.5,27.1,1.5c5,0,12.6-0.3,20.6-2.1c8.1-1.8,9.8-3,15.9-3c6.1,0,11.3,3.1,11.3,3.1
			s-3.2-4.7-14-4.7c-10.8,0-23.1,5.9-34.1,5.9c-11,0-13.9-2.5-33.7-2.5c-19.9,0-27.1,11.8-27.1,18.5c0,6.8,8.3,7.9,8.3,7.9
			s-4.8,9-5.3,15.5c-0.9,10.9,0.3,15.5,0.3,15.5s-0.4,0.7-0.8,1c-0.3,0.3-1.1,0.8-1.4-0.9c-0.3-1.8-0.8-4.8-0.8-8s0.5-5.2,0.5-5.2
			s-1.6-0.4-1.6,9.9c0,2.9,1,7.1,1,7.1s-2.5,5.2-2.5,16.8c0,11.6,1.8,18.1,3,26.5c1.3,8.5,2,16.4,2,16.4s-2,2.1-3.1,3.8
			c-1.1,1.7-2.1,4-1,4.8c1.9,1.5,4.5-2.8,4.5-2.8s0.4,2,0.4,5.2s0,5.6,0,5.6s-2.8,2.1-2.8,3.8c0,1.7,1.8,1.4,1.8,1.4s0.1,1.4-0.2,3
			c-0.3,1.5-0.5,2.3-0.9,2.9c-0.4,0.6-2,1.6-2.6,2.5c-0.6,0.8,0.1,1.3,0.5,1.5c0.3,0.2,0.8,0.7,1.3,0.7c0.4,0,0.9-0.1,0.9-0.1
			s0.3,1.1,0.6,2.6c0.3,1.4,0.5,2.7,0.5,2.7s-1.9,0.8-1.9,1.9c0,1.2,0.8,1.8,1.2,2.2c0.5,0.4,1.2,0.6,1.4,1.8
			c0.1,1.2,0.1,3.9,0.1,5.5c0,1.6-0.1,4.2-0.1,4.2s-1-0.7-1.9-1.4c-0.9-0.7-3.3-1.7-3.3,0.6c0,1.2,1.1,3.5,2,4.4c0.9,1,2.7,3,2.7,3
			s-1.2,9.1-2.1,15.7c-0.9,6.6-2.5,17.5-2.5,24.8c0,13.1,2.1,19.7,2.1,19.7s-0.9,4.6-0.9,9c0,4.4,1.4,7.6,1.8,8.2
			c0.4,0.6,0.6,0.1,0.3-0.7c-0.3-0.8-1-4.4-1-6.8c0-3.9,1.1-7.6,1.1-7.6s0.4,0.4,0.9,0.6c0.5,0.3,1,0.4,1,0.4s-0.8,3.9-0.8,9.4
			c0,5.5,1,10.4,2.7,16.1c2,6.9,5.2,12.3,5.2,12.3s-8.3,0.2-8.3,7.4c0,7.2,8.4,18.5,27.8,18.5c12.6,0,21.4-3.4,33.9-3.4
			C932.2,1124.4,941,1129.5,953.5,1129.5"/>
		<path id="path24" fill="#231F20" d="M860.2,968.4c0.7,0.4,2.6,0.6,4-3.1c1.4-3.7,1.3-4.1,1.3-5.4c0-1.3-0.4-1.3-0.8-1.3
			c-0.4,0-1.2,1.2-1.9,1.9c-0.7,0.7-1.4,1-1.8,2.5c-0.4,1.5-0.8,2.9-1,4C859.7,968.1,859.8,968.2,860.2,968.4"/>
		<path id="path26" fill="#231F20" d="M862,942c0,0,0.9-1.6,2.4-1.6c2,0,2.7,2.2,2.7,3.9c0,1.2-0.9,8.3-2.6,11
			c-0.4,0.7-0.9,1.2-1.5,1.4c-1.1,0.3-1.1-0.8-1-1.3c0.1-0.7,0-4.1,0-6.7C862.1,947,862,942,862,942"/>
		<path id="path28" fill="#231F20" d="M862.6,983.5c0.2-0.1,0.2-0.4-0.1-0.8c-0.3-0.4-0.6-0.4-0.7-0.3c-0.1,0.1-0.1,0.6,0.1,0.8
			C862,983.4,862.3,983.6,862.6,983.5"/>
		<path id="path30" fill="#231F20" d="M858.5,980.9c-0.2-0.3,0-0.8,0.3-0.8s0.5,0.1,0.7,0.4c0.1,0.3,0,0.7-0.4,0.7
			C858.9,981.3,858.8,981.3,858.5,980.9"/>
		<path id="path32" fill="#231F20" d="M856.2,1044.8c0-8.4,2.9-24,3.5-26.8c0.6-2.9,1.8-11.7,1.8-11.7s0.9,1.2,1.4,8.4
			c0.4,5.2-0.1,10.4-1.1,21.2c-1,10.8-4.2,21.8-4.2,21.8S856.2,1053.2,856.2,1044.8"/>
		<path id="path34" fill="#231F20" d="M862.1,993c0-3.7-0.3-7.7-0.3-7.7s0.3-0.4,0.8-0.4c2.1,0,2.5,2.8,4,8.6
			c1.5,5.8-0.8,7.7-2.3,7.7c-1.5,0-2.3-1.1-2.3-1.1S862.1,996.7,862.1,993"/>
		<path id="path36" fill="#231F20" d="M856.5,994.1c0.6-0.6,1.3,0.3,2.2,1.5c0.9,1.2,1.2,2.4,0.8,2.7c-0.4,0.3-1.4-0.6-2-1.5
			C857,996.2,856.1,994.5,856.5,994.1"/>
		<path id="path38" fill="#231F20" d="M860.2,976.3c-0.4-1.7-0.8-3.2-0.8-3.2s0.5-0.1,0.9-0.2c0.4-0.1,1.1-0.2,1.1-0.2
			s0.8,0.4,1.9,2.5c1.1,2.1,1.9,3.8,2.1,5.9c0.2,2.1-0.8,2.1-0.8,2.1s-1.2-1.4-2-2.2c-0.8-0.8-1.8-1.9-1.8-1.9
			S860.6,978,860.2,976.3"/>
		<path id="path40" fill="#231F20" d="M858.9,970.3c0.2-0.2,0.7-0.7,1-0.4c0.4,0.3,0.2,0.6-0.1,1c-0.3,0.4-1,0.5-1.2,0.3
			C858.4,971,858.7,970.5,858.9,970.3"/>
		<path id="path42" fill="#231F20" d="M858.7,960.5c0.1-0.2,0.6-0.3,0.8-0.2c0.2,0.1,0.2,0.4-0.1,0.8c-0.3,0.4-0.6,0.3-0.8,0.2
			C858.4,961.2,858.6,960.7,858.7,960.5"/>
		<path id="path44" fill="#231F20" d="M861.7,958.8l0.6-0.8l0.5,0.5c0,0-0.2,0.3-0.3,0.5c-0.1,0.2-0.4,0.4-0.4,0.4L861.7,958.8
			L861.7,958.8"/>
		<path id="path46" fill="#231F20" d="M858.1,947.1c-1.2,1.6-2.1,0.8-1-1.4c1.1-2.2,2.3-2.8,2.3-2.8l0.2,1
			C859.6,943.9,859.5,945.3,858.1,947.1"/>
		<path id="path48" fill="#231F20" d="M861,930.7c-0.5-3.6-1.1-6.2-2.5-14.4c-1.4-8.2-1.8-9.2-2.2-13.3c-0.4-4.1,0-11.6,0.3-14
			c0.3-2.5,0.7-4.5,0.7-4.5s0.3,0.3,0.5,1.3c0.3,1,2.8,13.3,3.2,16.1c0.4,2.8,1.2,8.7,1.9,18.4c0.7,9.6-1.2,15.9-1.2,15.9
			S861.4,934.2,861,930.7"/>
		<path id="path50" fill="#231F20" d="M871.1,1103.8c0,0,1.6,2.9,3.5,4.9c1.9,2,3.6,3.4,4.6,2.6c1-0.8-1-2.8-2.1-3.9
			C874.9,1105.1,871.1,1103.8,871.1,1103.8"/>
		<path id="path52" fill="#231F20" d="M861.8,1063c0,0,1.3,0.1,2-1.2c0.6-1,0.5-1.8,0.3-2c-0.2-0.2-0.8-0.5-1.6,1.1
			C861.7,1062.3,861.8,1063,861.8,1063"/>
		<path id="path54" fill="#231F20" d="M861.5,878.5c0,0,0.6,1.7,0.9,2.3c0.3,0.5,0.8,1,1.4,0.9c0.5-0.2,0.3-1-0.3-1.7
			C862.8,879.2,861.5,878.5,861.5,878.5"/>
		<path id="path56" fill="#231F20" d="M868.9,844.2c0,0,2.8-0.8,5-3.2c2.3-2.4,3.4-3.8,2.7-4.8c-0.7-0.9-3.4,1.5-4.9,3
			C870.4,840.7,868.9,844.2,868.9,844.2"/>
		<path id="path58" fill="#FFFFFF" d="M881,835.9c0,0,1.6-5,4.7-7.1c3.1-2.1,5.9-1.6,6.9-1.2c1,0.4,2,2,2,2s-3,0.5-5.9,2.9
			c-2.9,2.4-4,4.3-2.8,5.8c1.2,1.5,4.9-0.4,6.1-1.5c3.2-2.6,4.2-6.4,4.2-6.4s0.8-1.2,9.6,0c8.8,1.2,7.6,1.1,11.4,1.1
			c3.8,0,8.9-0.6,12.7-2.2c3.8-1.6,5.6-2.8,10.3-5c4.7-2.2,11.2-4.1,11.2-4.1s0.1-1.4-18.1,5.7c-7,2.7-17.7,3.5-20.1,3.5
			c-2.4,0-8.4-0.4-11.8-0.4c-3.4,0-5.5,0.4-5.5,0.4s-0.8-2.9-5.8-2.9c-5,0-7.4,3.8-8.2,5.4C881.1,833.3,881,835.9,881,835.9"/>
		<path id="path60" fill="#231F20" d="M895.1,830.5c0,0-2.7,0.2-5.7,2.7c-2.5,2.2-2.3,3.4-2,3.8c0.3,0.4,1.8,0.6,4.4-1.6
			C895.1,832.6,895.1,830.5,895.1,830.5"/>
		<path id="path62" fill="#FFFFFF" d="M870.4,1086.1c2.7,1.7,3.2,1.8,3.8,2.1c0.6,0.3,0.6,0.1,0.5-0.5c-0.1-0.6,0-1.6,0.6-2.8
			c1.2-2,12.7-21.6,13.7-23.3c1-1.8,7-11.5-2.7-17.4c-4.1-2.5-8.9-2.2-12.1,0.2c-4.4,3.2-6.4,10-2.2,13.3c1.5,1.1,4.6,0.9,5.6-0.7
			c1-1.6,1-2.1-0.5-2.2c-1.5-0.1-2.5-3.6-1.1-6.3c1.4-2.8,5.9-5,8.9-2.7c1.5,1.1,2.1,3.1,1.8,5.1c-0.3,1.8-1.4,3.5-2.5,5.5
			c-0.6,1.1-14.1,23.7-14.7,24.7c-0.6,1-1.5,2-1.8,2.1c-0.4,0.1-1.6,0-0.3,0.9C868.6,1084.9,869.6,1085.5,870.4,1086.1"/>
		<path id="path64" fill="#FFFFFF" d="M887.7,1083.7c0.6,0.3,1.6,0.8,2.6,1.3c0.9,0.4,2,0.9,2.5,1c0.5,0.1,0.8,0.3,1.6-0.7
			c0.8-1,16.1-21.9,16.7-22.6c0.6-0.8,2-2.1,2.6-2.4c0.6-0.3,1.2-0.4,0.3-0.8c-0.9-0.4-7.8-3.4-8.4-3.6c-0.5-0.3-0.6,0.1-0.3,0.5
			c0.3,0.4,0.3,1.6-0.2,2.5c-0.5,0.8-2.4,3.5-2.7,3.8c-0.3,0.4-0.6,0.6-1.4,0.3c-0.8-0.3-3.8-1.8-4.1-2.1c-0.3-0.3-0.3-0.5-0.2-1
			c0.1-0.5,1.1-4.8,1.2-5.4c0.1-0.6,0.4-0.9,1-1.1s1.3-0.4,0.8-0.6c-0.5-0.2-3.9-2-4.1-2.1c-0.3-0.1-0.2,0.2,0,1
			c0.3,0.8,0.1,1.9,0,2.6c-0.2,0.6-5.7,24.9-5.8,25.6c-0.1,0.6-0.4,1.6-0.8,2c-0.3,0.4-0.8,0.9-1,1.1
			C887.7,1083.1,886.5,1083,887.7,1083.7z M893.7,1073.1c0.1-0.4,1.9-8.2,2.1-8.8c0.2-0.7,0.5-1,0.9-0.8c0.5,0.2,2.1,1.1,2.8,1.4
			c0.7,0.3,0.8,0.9,0.4,1.4c-0.4,0.6-5.4,7.2-5.4,7.2C894,1074.1,893.7,1073.4,893.7,1073.1"/>
		<path id="path66" fill="#FFFFFF" d="M913.1,1093.7c1,0,1.6,0,2,0.3c0.4,0.4,0.8,1.3,1.3,0.3c0.5-1,0.6-1.3,0.8-2
			c0.2-0.7,0.5-1.7,0.5-2.1c0-0.4,0-0.5-0.7,0.3c-0.7,0.8-2.7,2.7-4.7,2.1c-2-0.6-2.2-3.8-1.8-5.2c0.3-1.5,1.6-6.2,2.8-10.1
			c1.2-3.9,3.7-11.5,5.2-13.3c1.6-1.9,3.6-1.4,4.2-0.3c0.7,1.1,1,2.8,0.8,4.4c-0.2,1.6-0.8,3-1.2,3.6c-0.4,0.6-1.3,1.9,0.3,1
			c1.6-1,3.1-3.3,3.1-5.7c0-3-2.5-5.7-6.3-5.7c-3.8,0-9.8,4.1-12.9,14.2c-3.1,10.1-0.3,14.9,1.3,16.4
			C909.2,1093.2,910.9,1093.7,913.1,1093.7"/>
		<path id="path68" fill="#FFFFFF" d="M920.8,1096c0.6,0.2,2.4,0.6,3.3,0.8c0.9,0.2,3,0.5,3.4,0.5c1,0.2,0.4-0.5,0.4-1.1
			c-0.1-0.6,0-1.1,0.2-1.7c0.2-0.6,1.5-6.8,1.7-7.4c0.2-0.6,0.8-1.3,1.4,0.3c0.6,1.5,3.2,8.3,3.4,9c0.2,0.7-0.2,1.4-0.4,1.7
			c-0.3,0.3-0.7,0.6,0.3,0.9c0.4,0.1,0.8,0.3,1.6,0.4c0.8,0.2,2.3,0.4,2.7,0.4c0.3,0,0-0.5-0.4-0.7c-0.4-0.2-0.9-1.1-1-1.5
			c-0.2-0.3-4-10.7-4.2-11.1c-0.3-0.4-0.2-1.8,1.2-1.8c1.4,0,2.9,0,3.5,0c0.6,0,1.3-0.2,1.6-1.1c0.4-0.9,5.9-13.3,6.1-13.7
			c0.2-0.4,0.5-0.8,0.9-1c0.3-0.3,0.5-0.8-0.3-0.9c-0.9-0.1-3.1-0.5-3.8-0.6c-0.8-0.1-1.9-0.3-2.2-0.3c-0.3-0.1-0.9-0.1-1.2,1
			c-0.4,1.1-5.8,13.2-6.1,13.7c-0.2,0.5-0.7,0.9-1.1,0.8c-0.5-0.1-0.5-1.2-0.3-1.6c0.1-0.4,2.9-12.2,3-12.7c0.1-0.5,0.5-1.1,0.8-1.4
			c0.3-0.3,0.7-0.6-0.4-0.9c-1.1-0.3-5.9-1.7-6.4-1.8c-0.4-0.1-0.8,0-0.5,0.7c0.3,0.8,0,1.9-0.2,2.6c-0.2,0.8-6.2,25.6-6.4,26.4
			c-0.2,0.8-0.6,1.1-0.8,1.3C920.3,1095.6,920.2,1095.8,920.8,1096"/>
		<path id="path70" fill="#FFFFFF" d="M950.8,1111.7c1.1,0.1,6.3,0.7,7.7,0.7c1.4,0,12.7-1.3,13.1-20c0.4-18.8-6.1-22-11-22.6
			c-3.9-0.5-5.9-0.5-6.5-0.5c-0.6,0-1.8-0.3-1.5,0.4c0.3,0.6,0.5,2.2,0.4,3.2c-0.1,1.1-2.7,36-2.9,36.5c-0.1,0.6-0.1,1.1-0.4,1.4
			S948.9,1111.5,950.8,1111.7L950.8,1111.7z M960,1073.8c0.1-0.9,0.3-2.2,1.1-2c0.4,0.1,2.6,0.5,3.5,3c1,3,0.7,8.7,0.2,17.6
			c-0.4,6.6-0.7,12.1-2.1,15.2c-1.1,2.5-3.4,3.1-4.2,3c-1.5-0.1-1.2-2-1.1-2.4C957.4,1108.2,959.9,1075,960,1073.8"/>
		<path id="path72" fill="#FFFFFF" d="M979.3,1102.4c0.7,0,1.9-0.1,2.9-0.2s2.2-0.2,2.6-0.3c0.5-0.1,0.9-0.2,1.1-1.4
			c0.2-1.3,3.3-27,3.4-27.9c0.1-0.9,0.7-2.8,1.1-3.4c0.4-0.5,0.9-1-0.1-0.9c-1,0.1-8.5,0.9-9.1,1c-0.6,0.1-0.5,0.4,0,0.6
			c0.5,0.2,1.1,1.3,1,2.3c0,1-0.4,4.2-0.5,4.7c-0.1,0.5-0.2,0.8-1.1,1c-0.9,0.1-4.2,0.3-4.6,0.2c-0.4-0.1-0.5-0.3-0.7-0.7
			c-0.2-0.4-1.4-4.7-1.6-5.3c-0.2-0.6-0.1-1,0.3-1.5c0.4-0.5,0.9-1,0.3-0.9c-0.5,0.1-4.4,0.2-4.6,0.2c-0.3,0.1-0.1,0.3,0.5,0.8
			c0.6,0.5,1.1,1.6,1.2,2.3c0.2,0.6,7.4,24.5,7.6,25.1c0.2,0.6,0.4,1.6,0.3,2.1c-0.1,0.5-0.3,1.2-0.3,1.5
			C979,1101.9,977.9,1102.4,979.3,1102.4L979.3,1102.4z M979.3,1090.2c-0.1-0.4-2.4-8-2.5-8.7c-0.1-0.7-0.1-1.1,0.4-1.2
			c0.5,0,2.4-0.1,3.1-0.2c0.8,0,1.1,0.4,1,1.1c-0.1,0.7-1.1,9-1.1,9C980,1091,979.4,1090.6,979.3,1090.2"/>
		<path id="path74" fill="#FFFFFF" d="M999.2,1100c0.3,0,2.5-0.5,3-0.6c0.5-0.1,1.3-0.4,1.6-1.7c0.3-1.3,4-17.1,4.3-17.8
			c0.3-0.8,0.8-1,1.3,0.8c0.5,1.7,4.1,13.6,4.2,14.3c0.2,0.8-0.2,1.6-0.4,1.9c-0.3,0.3-0.3,0.8,0.4,0.6c0.8-0.2,3.5-0.9,3.9-1.1
			c0.4-0.3,0.4-0.4-0.1-0.7c-0.6-0.3-1.1-1-1.3-1.8c-0.2-0.8-7.8-28-7.9-28.5c-0.1-0.5-0.1-0.8-0.5-0.7c-0.4,0.1-2.5,0.4-2.8,0.6
			c-0.3,0.2-0.6,0.8-0.9,2.4c-0.3,1.6-3.4,16.4-3.6,16.9c-0.1,0.6-0.9,0.9-1.1,0.1c-0.2-0.8-2.9-14.9-3-15.5
			c-0.2-0.6,0.1-1.3,0.3-1.6c0.1-0.3,0.1-0.8-1-0.6c-1,0.3-1.9,0.4-2.3,0.6c-0.4,0.2-0.6,0.5-0.2,1.1c0.4,0.6,0.6,1.5,0.8,2.2
			c0.2,0.8,5.2,25.2,5.4,26.2c0.2,1-0.3,1.5-0.6,1.9C998.4,1099.5,998.3,1100.2,999.2,1100"/>
		<path id="path76" fill="#FFFFFF" d="M1026,1093.9c0.9-0.3,3-1,3.4-1.2c0.4-0.3,0.5-0.5,0-0.9c-0.5-0.4-0.9-0.8-1.3-1.8
			c-0.4-1-8.7-25.1-9-26c-0.3-0.9-0.1-1.6-0.1-2c0.1-0.4,0.3-1.1-0.8-0.8c-1,0.3-5.5,1.8-6,2c-0.5,0.2-0.8,0.7-0.3,1.1
			c0.5,0.4,0.8,1.5,1,2c0.2,0.5,8.4,24.5,8.8,25.6c0.3,1,0.4,2.1,0.2,2.5c-0.2,0.4,0.4,0.6,0.8,0.4
			C1023.2,1094.8,1025,1094.3,1026,1093.9"/>
		<path id="path78" fill="#FFFFFF" d="M1035.7,1090.4c0.8-0.3,9.7-3.9,10.4-4.3c0.7-0.4,0.9-0.9,0.8-1.6c-0.1-0.8-0.8-3.4-1-3.9
			c-0.2-0.5-0.6-1.1-0.8,0.6c-0.1,1.6-1.1,3.7-2.3,4.4c-1.1,0.7-2.1,1.3-2.9-0.4c-0.8-1.7-3.3-8.1-3.5-8.6c-0.2-0.5-0.5-1.5,0.6-1.9
			c1.1-0.4,2.4,0.1,2.9,0.5c0.4,0.4,1,1.1,1.1,1.6c0.2,0.4,0.8,1,0.3-0.4c-0.6-1.4-3.3-7.9-3.6-8.4c-0.3-0.5-0.6-0.1-0.3,0.7
			c0.3,0.8,0.1,2-0.1,2.4c-0.1,0.4-0.4,1.2-1.2,1.6c-0.8,0.4-1.3,0.2-1.6-0.7c-0.3-0.9-4.6-11.7-4.9-12.4c-0.4-0.8-0.1-1.3,0.6-1.6
			c0.8-0.3,1.7-0.4,2.5-0.2c0.8,0.2,2.1,0.6,2.3,0.8c0.2,0.1,0.9,0.1,0.5-0.5c-0.4-0.6-1.5-2.7-1.6-3c-0.2-0.4-0.8-0.1-1.4,0.3
			c-0.6,0.3-9.2,4.4-9.8,4.6c-1.1,0.4-0.2,0.4,0.2,1.2s11.3,27.8,11.5,28.3C1034.7,1089.8,1034,1091,1035.7,1090.4"/>
		<path id="path80" fill="#FFFFFF" d="M1055.1,1081.5c1.1-0.5,2.9-1.6,3.4-2c0.4-0.3,0.4-0.8-0.2-0.9c-0.6-0.1-1-1-1.4-1.6
			c-0.4-0.7-12.4-23.3-12.9-23.9c-0.4-0.6-0.8-2,1.1-2c1.9-0.1,3.6,0.3,4.4,0.4c0.4,0.1,1.2,0.3,1.2,0.3s0.1-0.3-1-1.2
			c-1-0.9-1.9-2-2.2-2.3c-0.3-0.3-1.4-0.3-2.2,0.3c-0.8,0.6-8.4,4.6-9.3,4.9c-0.9,0.4-1.3,0.7-0.4,1c1,0.3,1-0.1,1.9,1.3
			c0.9,1.5,13,24,13.4,24.7c0.4,0.8,0.3,1.5,0.2,2c-0.1,0.4,0,0.8,0.6,0.5C1052.5,1082.7,1053.8,1082.1,1055.1,1081.5"/>
		<path id="path82" fill="#FFFFFF" d="M1067.4,1086c1.1,0,2.7-0.6,2.7-2.5c0-2-1.6-3.2-2.9-3.9c-1.3-0.6-2-0.4-2.3-0.4
			s-0.1,0.4,0.4,0.8c0.5,0.4,0.4,0.8,0.4,1.2c0,0.4-0.9,1.1-0.9,2.5C1064.8,1085.2,1066,1086,1067.4,1086"/>
		<path id="path84" fill="#FFFFFF" d="M1067.4,1073.2c2.6,0,4.7-1.2,5.5-2.3s1.5-2.5,2.2-2.9c0.7-0.3,1.8,0,1.2-1.2
			c-0.6-1.2-1.8-3.1-2.2-3.6c-0.4-0.4-0.9-0.4-0.9,1.5c0.1,1.9-0.3,3.8-1.3,4.8c-0.5,0.5-1.3,1.5-2.9,1.5c-1.6,0-3.1-2.2-3-4.5
			c0.1-1.3,0.8-8.9,0.8-13.6c0-5.6-2.7-11.8-8.1-11.8c-3.9,0-6.2,3-6.5,3.6c-0.3,0.6-0.6,1.1-1,1.3c-0.4,0.3-1,0.3-1.3,0.2
			c-0.3-0.1-0.5,0.6-0.1,1.1c0.4,0.6,2,3.2,2.3,3.5c0.3,0.3,0.8,0.2,0.7-0.6s-0.3-6.6,4.2-6.6c3.7,0,3.6,4.7,3.6,5.7
			s-1.8,13.8-0.6,17.8C1061.4,1070.9,1065.1,1073.2,1067.4,1073.2"/>
		<path id="path86" fill="#FFFFFF" d="M890.7,933c0,2.4,1.7,8.1,10.7,8.1c1.9,0,7-1,11.6-1c4.6,0,5.1,0.1,6,0.3
			c0.9,0.1,1.9,0.4,0.7-0.8c-1.2-1.2-2.3-2.5-6.3-2.5c-2.3,0-2.2-2-2.3-2.9c-0.4-3.9,0.2-11.9,0.2-17.5c0-5.6-2.3-14.2-10.8-14.2
			c-8.5,0-10.9,6.3-10.9,10.1c0,3.8,2.5,6.7,5.5,6.7c3,0,3.6-2.5,3.6-3.1c0-0.6-0.3-2.3-2.3-2.3c-2,0-1.4,0.8-2.7,0.8
			c-1.3,0-2-2.4-2-3.6s1.1-6.4,7.9-6.4c6.8,0,6.1,9.3,6.1,10c0,0.8-0.5,7.6-0.5,11.2c0,3.5,0.3,7.2,1.3,8.4c1,1.1,1.8,2.2,2,2.5
			c0.2,0.3,0,0.5-1,0.6c-1,0.1-3.4,0.4-5.1,0.4c-0.9,0-4.1-0.2-6.1-1.6c-1.9-1.3-2.6-3.8-2.6-4.7c0-1.8,0.1-2,0.3-2.3
			c0.1-0.3-0.3-1.1-1.4,0C891.2,930.4,890.7,931.6,890.7,933"/>
		<path id="path88" fill="#FFFFFF" d="M912.5,904.2c0.3,0.4,1.3,1.6,1.8,2.4c0.6,0.8,1.6,2.8,1.6,2.8s-0.3,3.8-0.3,5.4
			c0,1.6,1.1,10.1,8.1,10.1c6.1,0,6.1-6.3,6.1-7.3c0-6.2-3.6-7-5.5-7s-2.2-0.3-2.1-1.5c0.1-1.1,0.6-2.2,0.8-2.6
			c0.1-0.4,1.3-1.5,2.5-1.5c1.3,0,1.8,0.3,3.1,1.1c1.3,0.8,4,2.9,4.4,3.5c0.4,0.6,0.8,1.6,0.8,3.6c0,2-0.1,6.5,0.2,8.1
			c0.3,1.6,1.1,3.2,3.1,3.2c1.4,0,2.7-1,2.7-1.7c0-1,1.2-0.2,1.5,0c0.7,0.5,2.7,1.7,4.1,1.7c1.4,0,3.2-1.5,3.2-4.4
			c0-2.9,0-9.6,0-10.7c0-1.1,0.4-2.2,1.6-2.2c0.8,0,1.9,1.1,2.5,2.3c0.5,0.9,0.6,1.9,0.6,2.5c0,0.8,0,8.6,0,9.6c0,1,0.4,2.9,2.9,2.9
			c1.3,0,2.3-0.8,2.7-1.3c0.3-0.6,0.6-0.9,1.4-0.4c0.8,0.6,2.3,1.7,4.1,1.7c1.7,0,3.8-1.8,3.8-4.9c0-3.2,0-7.7,0-9.9
			c0-2.2,1.3-2.6,1.9-2.6c1.6,0,2.9,2.5,2.9,2.5s-0.3,3-0.3,5.1c0,2.1,0.8,10.2,7.2,10.2c6.3,0,6.3-5.9,6.3-7.2c0-1.3-0.4-7.5-5-7.5
			c-1,0-2.3,0-2.1-1.1c0.2-1.1,1.1-3.9,3.2-3.9c2,0,5.1,2.4,6.8,5.1c1.6,2.7,3.7,6.2,4,7c0.4,1.3-0.5,2.7-0.5,5.6
			c0,2.9,1.3,3.6,2,3.6c1.5,0,1.1-1.3,1.1-2.5c0-1.1,1.6-2.4,3.5-4.8c1.9-2.3,2.8-2.6,3.1-4.8c0.3-2.2,0.8-3.6,1.8-2.4
			c1,1.2,2.2,3.4,2.5,4.1c0.3,0.7,0.5,1.1-0.3,3.2c-0.5,1.3,0.1,3.9,0.6,5.1c0.5,1.1,1.8,2.9,2.9,2.3c1-0.5,0.1-2.1,0.6-3.1
			c0.2-0.5,0.7-1.6,1.3-2.5c0.7-0.9,1.4-1.6,2.7-3.5c0.9-1.3,1.8-2.8,2.2-4.3c0.3-1.5,0.3-3.5,1.1-2.8c0.8,0.7,1.8,2.1,1.8,2.1
			s-0.2,11.9,7.7,11.9c5.9,0,6-6,6-7.2c0-1.2-0.3-7.7-4.9-7.7c-0.7,0-1.8,0.3-2.3,0.2c-0.5-0.1-0.4-0.8-0.4-1.1
			c0-0.7,0.7-3.9,3.8-3.9c1.8,0,4.3,2.3,4.9,2.9c0.6,0.6,2.7,3.6,2.7,3.6s-0.6,13.2,8.2,13.2c5.5,0,6.2-5.8,6.2-7
			c0-1.3-0.4-7.7-5.7-7.7c-1,0-2.3,0.3-2.3,0.3s-0.6-5.1,3.1-5.4c1.6-0.1,3.6,2.1,3.8,2.5c0.3,0.5,2.1,1.5,1.3-1.1
			c-0.8-2.6-5-3.9-6.8-3.9c-1.8,0-5.2,1.5-6.2,3.9c-1,2.3-1.8,1.2-2.3,0.8c-0.4-0.4-3.6-4.6-8.7-4.6c-5.1,0-6.8,5.9-7,6.4
			c-0.1,0.5-0.9,0.7-1.1,0.4c-0.3-0.3-3.4-3.6-5-4.7c-1.6-1.1-1.6-2-5.1-2c-2.7,0-3.3,2.7-3.3,3.3c0,0.6,0.3,2.2,1.5,2.2
			c1.1,0.1,1.6,0.2,1.4-1c-0.3-1.2,0-2.6,1.8-2.6c1.8,0,2.5,2,2.5,3.1c0,1.1-1,3.3-1.6,4.1s-1.7,2.7-2.8,2.7c-1.1,0-1.8-2.9-4.4-5.8
			c-2.5-3-4.8-5.5-8.3-5.5c-3.6,0-3.7,2.5-3.7,3.2c0,0.8,0.9,2.2,1.8,2.2c0.9,0,1.3-0.7,1.1-1.1c-0.1-0.4-0.4-2.1,1.6-2.1
			c1.4,0,1.8,2.3,1.8,2.5c0,0.3-0.7,3-1.1,3.9c-0.4,0.9-1.3,2.5-1.9,2.9c-0.6,0.4-1,0.7-1.7-0.4c-0.7-1.1-3.3-6-5.7-8
			c-2.4-2-3.9-3.2-7.9-3.2c-4,0-5.5,3.3-5.7,3.6c-0.3,0.3-0.6,0.1-1.1-0.3c-0.4-0.4-2.5-3.2-6.4-3.2c-3.9,0-4.1,3.8-4.1,5.3
			c0,1.5,0.1,9.4,0.1,10.1c0,0.7-0.6,1.5-1.5,1.5s-2.3-1.8-2.3-3.4c0-1.5-0.2-9.7-0.2-10.7c0-1,0.1-2.9-2.9-2.9
			c-2.2,0-2.5,1.8-2.5,2.3c-0.1,0.5-0.4,1.2-1.1,0.4c-0.8-0.8-2.3-3-5.3-3c-3,0-3.8,2.5-3.8,5.1c0,2.7-0.1,8.9-0.1,10.3
			c0,1.4-0.4,1.5-1.2,1.5c-0.8,0-2.5-1.6-2.5-3.6c0-2,0-8.4,0-9.6c0-1.2-0.2-3.8-3.2-3.8c-3,0-2.5,2.7-2.7,3.2
			c-0.3,0.5-0.8,0.4-1.5,0c-0.7-0.4-3.4-3.3-7.9-3.3c-4.6,0-5.5,3.4-6.4,3.7c-0.9,0.3-1.2-0.1-1.6-0.5c-0.4-0.4-1.7-2.2-2-2.5
			c-0.3-0.3-1.8,0-1.8,0S912,903.7,912.5,904.2"/>
		<path id="path90" fill="#231F20" d="M924.2,922.6c1,0,2.8-1,2.8-4.8c0-3.8-1.1-5.3-2.9-5.3c-1.8,0-2.6,2.9-2.3,5.3
			C922.2,920.3,922.2,922.6,924.2,922.6"/>
		<path id="path92" fill="#231F20" d="M980.6,922.7c1,0,2.6-1.4,2.6-5.1c0-3.7-1-5.5-2.7-5.5c-1.7,0-2.3,2.3-2.3,5.3
			C978.2,920.5,979.3,922.7,980.6,922.7"/>
		<path id="path94" fill="#231F20" d="M1027.5,922.6c1.3,0,2.6-1.1,2.6-4.8c0-3.7-1.1-5.5-2.9-5.5c-1.7,0-2.4,2.5-2.4,5.2
			C1024.8,920.1,1025.9,922.6,1027.5,922.6"/>
		<path id="path96" fill="#231F20" d="M1045.2,922.4c1.8,0,2.8-2.7,2.8-4.9c0-2.2-0.6-5.6-3.3-5.6c-2.7,0-2.3,3.7-2.3,5.3
			C1042.4,918.9,1043.1,922.4,1045.2,922.4"/>
		<path id="path98" fill="#FFFFFF" d="M879.9,881.5c0.5,0,9.4,0,9.9,0c0.5,0,1.1-0.3,0.3-0.8c-0.9-0.6-1.6-1.2-1.3-2.4
			c0.3-1.2,2.6-9.8,2.8-10.4c0.2-0.6,0.6-1.4,1.1,0c0.4,1.4,2.7,8.5,3,9.4c0.3,1-0.2,2.2-0.9,2.4c-1,0.4-2.1,1.8-0.4,1.8
			s9.8,0,10.4,0c0.6,0,1.5-0.8,0.3-1.5c-1.2-0.7-1.7-1.7-1.6-2.7c0.1-1,2.4-8.5,2.6-9.1c0.2-0.6,0.6-1.3,1.1,0.1
			c0.5,1.4,2.6,7.7,2.9,8.6c0.3,1,0.2,1.5-0.2,2c-0.4,0.5-0.7,0.9-1.3,1.1c-0.6,0.3-0.7,1.3,0.5,1.3c1.2,0,7,0,7.7,0
			c0.8,0,1.6-0.4-0.3-1.5c-1.8-1.1-1.5-1.4-1.7-2c-0.3-0.6-5.2-15.4-5.6-16.4c-0.4-1-0.2-2.7,0.3-3c0.5-0.3,1.6-0.9,1.6-1.3
			c0-0.4-0.1-0.6-1.1-0.6c-1,0-7.9,0-8.6,0c-0.7,0-1.1,0.1-1.1,0.5c0,0.4,0.2,0.8,0.7,1c0.5,0.2,1.2,0.8,1.2,1.3
			c0,0.6-0.3,1.1-0.4,1.6c-0.1,0.4-3.5,10.9-3.5,10.9s-3.9-11.5-4.1-12c-0.2-0.5-0.3-1.1,0.3-1.6c0.5-0.4,1.3-0.8,1.3-1.2
			c0-0.4-0.7-0.4-1-0.4c-0.3,0-7.7,0-8.2,0c-0.4,0-0.8,0.2-0.8,0.4c0,0.3,0.1,0.4,0.5,0.6c0.4,0.2,1.2,0.6,1,1.9
			c-0.2,1.3-4.6,17.7-4.8,18.3c-0.2,0.6-1.1,2-1.8,2.2C879.5,880.7,879.2,881.5,879.9,881.5"/>
		<path id="path100" fill="#FFFFFF" d="M920.4,881.5c0.8,0,7.6,0,8.3,0c0.7,0,1.3-0.3,1.3-0.8c0.1-0.5-0.8-0.6-1.2-0.9
			c-0.4-0.3-1.1-0.6-1.1-1.3c0-0.8,0-6,0-6.3c0-0.3,0.3-0.5,1.2-0.5c1,0,6.2,0,6.6,0c0.4,0,0.7,0.4,0.7,0.8c0,0.4,0,5.9,0,6.2
			c0,0.3-0.6,1.1-1.2,1.3c-0.6,0.2-1.3,0.4-1.3,0.8c0,0.4,0.4,0.7,1,0.7c0.6,0,8.3,0,9.1,0c0.4,0,0.7-0.3,0.7-0.5
			c0-0.3-0.1-0.7-0.8-0.8c-0.7-0.1-1.7-1.3-1.7-2c0-0.7,0-17.4,0-18.3c0-0.8,0.5-1.4,1-1.7c0.4-0.3,1.1-0.5,1.1-1
			c0-0.4-0.3-0.4-0.7-0.4c-0.4,0-8.8,0-9.1,0c-0.3,0-0.6,0.3-0.6,0.4c0,0.2,0.1,0.4,0.7,0.7c0.6,0.3,1.6,0.6,1.6,2.2
			c0,1.5,0,7.5,0,7.8c0,0.3-0.5,0.4-0.8,0.4c-0.3,0-6.5,0-6.8,0c-0.3,0-0.7-0.3-0.7-0.7s0-6.8,0-7.4c0-0.6,0.1-1.4,0.6-1.6
			c0.4-0.3,1-0.7,1.3-0.8c0.4-0.1,0.4-0.3,0.4-0.5c0-0.2-0.1-0.4-0.7-0.4c-0.6,0-8.9,0-9.3,0c-0.4,0-0.3,0.8,0.2,1
			c0.5,0.2,1.5,0.8,1.5,2c0,1.2,0,18.5,0,18.6c0,0.2-0.4,1.1-0.9,1.5c-0.5,0.4-1.3,0.6-1.3,1C919.4,881.1,919.6,881.5,920.4,881.5"
			/>
		<path id="path102" fill="#FFFFFF" d="M953.2,881.5c1.1,0,4.2-0.1,4.8-0.2c0.5-0.1,0.9-0.3,0.9-0.6c0-0.3-0.3-0.6-1-0.8
			c-0.6-0.3-1.6-0.8-1.6-2.5c0-1.7,0-16.1,0-17.2c0-1.1,0.6-2,1.1-2.2c0.5-0.2,1.4-0.5,1.4-0.8c0-0.3-0.2-0.4-0.8-0.4
			c-0.6,0-8.9,0-9.3,0c-0.3,0-0.7,0.4-0.2,0.8c0.5,0.4,1.2,0.7,1.5,1.6c0.3,1,0.3,1.1,0.3,1.4c0,0.3,0,15.9,0,16.8
			c0,0.9-0.3,2.3-1.2,2.7c-0.9,0.4-1.1,0.4-1.1,0.8c0,0.3,0.7,0.4,1.1,0.4C949.5,881.3,951.5,881.5,953.2,881.5"/>
		<path id="path104" fill="#FFFFFF" d="M971.6,881.5c1.5,0,4.6-0.7,5.8-0.7c1.2,0,1.8,1.1,2.4,1.1c0.6,0,0.9-0.1,1.1-2.7
			c0.2-2.6,0.3-3.6,0.4-4.4c0.1-0.8-0.8-2-2.2-0.1c-1.4,2-3.4,3.6-7.5,3.6c-2.9,0-3.6-2-3.6-2.9c0-0.8-0.4-3,5.8-4.2
			c6.3-1.2,8.5-2.1,8.5-7.8c0-5.7-4-7.3-9-7.3c-5,0-5.9,1.6-7.3,1.6c-1.4,0-1.5-1.5-2.7-1.5c-1.3,0-0.5,3.3-0.5,4.4
			c0,1.1-0.7,4.4,0.4,4.4c1.1,0,3-6.1,9.3-6.1c4.2,0,4.5,2.8,4.5,3.2c0,0.4,0.6,3.4-5.8,3.8c-6.4,0.4-8.5,3.4-8.5,8
			C962.6,878.7,966.1,881.5,971.6,881.5"/>
		<path id="path106" fill="#FFFFFF" d="M986.7,881.7c0,0,9.1,0,9.8,0c0.8,0,0.9-0.8,0.2-1.2c-0.7-0.4-2.2-1.2-2.2-2.7
			c0-1.5,0.1-5,0.1-5.3c0-0.3,0.8-0.4,1.5,0.3c0.8,0.6,6.4,5.5,6.8,6c0.4,0.4,0,0.9-0.3,1.2c-0.3,0.3-2.6,1.8-0.4,1.8s8.2,0,9.1,0
			c0.9,0,1.6-0.6,0.3-1.4c-1.4-0.8-2-1.1-3.2-2c-1.2-0.8-5.2-4.1-5.5-4.2c-0.3-0.2-0.5-1,0-1.7c0.5-0.8,7.2-11.9,7.7-12.6
			c0.6-0.7,1.3-1.4,1.8-1.8c0.5-0.4,1.6-1.5,0.1-1.5c-1.5-0.1-9.8,0-10.5,0c-0.7,0-1.1,0.5-0.4,1.1c0.7,0.6,1.6,1.3,1.6,2.2
			s-0.6,1.7-0.9,2.3c-0.3,0.6-4.1,6.7-4.4,7c-0.3,0.3-0.9,0.6-1.4,0.1c-0.5-0.5-1.1-1-1.5-1.1c-0.3-0.2-0.4-0.4-0.4-1.1
			c0-0.6,0-5.8,0-6.3c0-0.5,0.4-1.6,0.9-2c0.4-0.4,1.8-0.9,1.8-1.5c0-0.6-0.3-0.8-1.1-0.8c-0.8,0-8.8,0-9.3,0
			c-0.4,0-1.2,0.6-0.6,1.3c0.7,0.7,2.2,0.7,2.2,2.7c0,2-0.1,15.9-0.1,17.3c0,1.5-0.4,2.1-1.6,2.5
			C985.7,880.8,986.2,881.7,986.7,881.7"/>
		<path id="path108" fill="#FFFFFF" d="M1019.6,881.5c1.8,0,10.7,0,11.4,0c0.8,0,1.1-0.2,1.1-1c0.1-0.8,0.3-4.2,0.4-4.8
			c0.1-0.6,0.1-1.1-1.1,0.3c-1.2,1.4-1.6,2-3.6,2.2c-1.9,0.3-3.8,0.2-4.3,0.2c-0.5,0-0.9-0.3-0.9-1c0-0.6,0-4.6,0-5
			c0-0.4,0.2-0.9,1-0.9c1,0,3.7,0.1,4.4,0.1c0.8,0,1,0.3,1.5,0.6c0.5,0.3,1,0.8,0.9-0.6c-0.1-1.5-0.1-3.4-0.1-3.9
			c0-0.6,0-1.6-1.3-0.3c-0.8,0.8-1.6,0.7-2.2,0.7c-0.5,0-3,0.1-3.5,0.1c-0.4,0-0.7-0.4-0.7-0.8c0-0.3,0-5.6,0-6s0.2-1,1.1-1
			c1,0,4.1,0,5.1,0c1,0,1.8,0.6,2.3,0.9c0.5,0.3,1.9,2,1.6,0c-0.3-2-0.2-3.7-0.2-3.9c0-0.3,0.1-0.6-0.5-0.7c-0.6-0.1-16.5,0-17.1,0
			s-0.8,0.4,0,1.1c0.8,0.8,1.6,1.3,1.6,2.8c0,1.5,0.3,15.7,0.3,17.2c0,0.8-0.6,1.6-1,2c-0.4,0.3-1.9,1-1.9,1.4c0,0.4,0.6,0.6,2,0.5
			C1017.5,881.6,1018,881.5,1019.6,881.5"/>
		<path id="path110" fill="#FFFFFF" d="M1039.8,881.6c1.6,0,5.3,0.4,5.3-0.5c0-0.9-2.9-0.8-1.3-3c1.6-2.2,3.8-5.6,4.2-6.1
			c0.4-0.4,0.7-0.8,1.8,0.6c1.1,1.3,3.4,4.7,3.9,5.5c0.5,0.8-0.1,1.8-0.4,2.1c-0.4,0.3-2,1.4-0.3,1.4c1.7,0,6.2,0,7,0s1.8-0.6,0-1.4
			c-1.8-0.8-2.1-1.8-2.5-2.3c-0.4-0.5-6.7-9.4-7-9.9c-0.3-0.4-0.4-1.3-0.4-1.7c0-0.4,0-5.6,0-6.2c0-0.6,0.6-1.3,1.1-1.6
			c0.5-0.4,1.2-0.6,1.2-1c0-0.4-0.4-0.6-1.1-0.6s-7.9,0-8.4,0c-0.4,0-1.6,0.1-0.1,1.1c1.5,1,1.4,1.6,1.4,2.2c0,0.6,0,5.6,0,5.9
			s0.1,1.5-0.2,2c-0.3,0.5-7,10.8-7.4,11.3c-0.4,0.6-1.3,0.9-1.8,1.1c-0.4,0.2-1,1.1,0.1,1.1C1036,881.5,1038.1,881.6,1039.8,881.6"
			/>
		<path id="path112" fill="#FFFFFF" d="M872.7,960.8c0,0,1.7,1.5,2.8,2.5c1.1,1,2,1.8,2.4,1.9c0.3,0.1,0.7,0.4,2.4-0.9
			c1.6-1.3,3.1-1.9,4.4-2.5c1.3-0.5,3.5-1.1,3.5-1.7c0-0.7-3.7-1.7-5.6-2.4c-1.9-0.7-3.6-1.6-4-1.9c-0.5-0.3-1.1-0.6-1.9,0.4
			c-0.8,1-1.3,1.9-2,2.5C873.9,959.4,872.5,960.7,872.7,960.8"/>
		<path id="path114" fill="#231F20" d="M875,960.7c0,0.2,1.1,1,1.7,1.5c0.6,0.5,1.7,1.2,1.9,1.4c0.2,0.1,0.6-0.2,0.9-0.4
			c0.3-0.3,1.5-1.4,2.6-1.8c1.1-0.4,3-1.1,3-1.1s-2.6-0.8-3.9-1.2c-1.3-0.4-2.7-1.1-2.9-1.3c-0.2-0.2-0.4,0-0.8,0.4
			c-0.4,0.4-0.9,0.9-1.2,1.3C875.9,959.8,875,960.7,875,960.7"/>
		<path id="path116" fill="#FFFFFF" d="M1058,1114.9c0.3-1,0.4-1.7,0.4-1.7s-1.5,1.7-1.8,2c-0.4,0.6-2.3,2.9-4.5,3.9
			c-4,1.9-5.9,0.4-6.5,0c-0.4-0.3-0.9-1.2-0.9-1.2s0.5-0.2,0.8-0.3c1.1-0.3,4.1-1.6,5.4-2.6c1.4-1,4.2-4.1,2.6-5.7
			c-1.6-1.7-4.6-0.1-7.7,2.4c-3,2.5-3,5-3,5s-1.4,0.5-3.9,0.5c-3,0.1-9.9-1.6-16.3-1.6c-13,0-21.8,5.4-25.9,7.3
			c-2.5,1.1-3.8,1.6-5.3,2.1c-2.6,0.9-3.5,1.2-3.5,1.2s3.6-0.8,5.6-1.4c1.9-0.6,7.8-2.8,12.7-4.5c4.8-1.6,14.3-2.6,19.9-2.7
			c2.6,0,5.6,0.4,8.2,0.5c2.9,0.1,5.3,0,6.1-0.1c1-0.1,2.6,0.1,2.6,0.1s0.2,0.4,0.4,0.7c0.5,0.8,1.1,1.8,4.1,2.4
			c3,0.6,5.7-0.7,7.6-2.2C1055.1,1118.8,1057.4,1116.9,1058,1114.9"/>
		<path id="path118" fill="#231F20" d="M1044.3,1116.6c0,0-0.2-2.1,2.7-4.4c1.4-1.1,3.3-2.9,4.9-2.1c0.9,0.5,0.4,2.2-2.2,4.2
			C1046.9,1116.4,1044.3,1116.6,1044.3,1116.6"/>
		<path id="path120" fill="#FFFFFF" d="M1021.1,1124.4c12.6,0,21.4,3.4,33.9,3.4c19.3,0,27.8-11.3,27.8-18.5c0-7.2-8.3-7.4-8.3-7.4
			s3.2-5.4,5.2-12.3c1.6-5.7,2.7-10.6,2.7-16.1c0-5.5-0.8-9.4-0.8-9.4s0.5-0.2,1-0.4c0.5-0.3,0.9-0.6,0.9-0.6s1.1,3.7,1.1,7.6
			c0,2.5-0.6,6.1-1,6.8c-0.3,0.8-0.2,1.3,0.3,0.7c0.4-0.6,1.8-3.8,1.8-8.2c0-4.4-0.9-9-0.9-9s2.1-6.6,2.1-19.7
			c0-7.3-1.6-18.2-2.5-24.8c-0.9-6.6-2.1-15.7-2.1-15.7s1.8-2,2.7-3c0.9-1,2-3.2,2-4.4c0-2.3-2.3-1.3-3.3-0.6
			c-0.9,0.7-1.9,1.4-1.9,1.4s-0.1-2.6-0.1-4.2c0-1.6,0-4.4,0.1-5.5c0.1-1.2,0.9-1.4,1.4-1.8c0.5-0.4,1.2-1.1,1.2-2.2
			c0-1.2-1.9-1.9-1.9-1.9s0.2-1.2,0.5-2.7c0.3-1.4,0.6-2.6,0.6-2.6s0.5,0.1,0.9,0.1c0.4,0,0.9-0.5,1.3-0.7c0.3-0.2,1.1-0.7,0.5-1.5
			c-0.6-0.8-2.2-1.8-2.6-2.5c-0.4-0.6-0.6-1.4-0.9-2.9c-0.3-1.5-0.2-3-0.2-3s1.8,0.3,1.8-1.4c0-1.7-2.8-3.8-2.8-3.8s0-2.4,0-5.6
			s0.4-5.2,0.4-5.2s2.5,4.3,4.5,2.8c1.1-0.9,0.1-3.1-1-4.8c-1.1-1.7-3.1-3.8-3.1-3.8s0.8-7.9,2-16.4c1.3-8.5,3-15,3-26.5
			c0-11.6-2.5-16.8-2.5-16.8s1-4.2,1-7.1c0-10.3-1.6-9.9-1.6-9.9s0.5,2,0.5,5.2s-0.5,6.3-0.8,8c-0.3,1.8-1.1,1.3-1.4,0.9
			c-0.3-0.3-0.8-1-0.8-1s1.2-4.6,0.3-15.5c-0.6-6.5-5.3-15.5-5.3-15.5s8.3-1.1,8.3-7.9c0-6.8-7.2-18.5-27.1-18.5s-22.7,2.5-33.7,2.5
			c-11,0-23.2-5.9-34.1-5.9c-10.8,0-14,4.7-14,4.7s5.3-3.1,11.3-3.1c6.1,0,7.8,1.2,15.9,3c8.1,1.8,15.6,2.1,20.6,2.1
			c11.7,0,14.3-1.5,27.1-1.5c20.8,0,29,7.6,31.3,12c2.2,4.4,1.2,6.6,0.2,8.5c-1.1,2-4.6,2.9-5.7,3c-1.1,0.1-1.8-0.6-1.8-0.6
			s-0.7-2.2-4.2-6c-3.5-3.9-5.9-4.3-7.1-3.4c-1.2,0.9,0.2,3.7,2.9,6.7c2.7,2.9,7.2,4.4,7.2,4.4s1.8,3.7,4.4,11.3
			c2.7,7.7,2.9,12.2,2.9,14.1c0,2-0.8,5.5-0.8,5.5s-2.5,0.7-3.6,2.7c-0.7,1.3-0.6,2.9,0.4,3.4c1,0.5,2.4-0.4,3-1.6
			c0.6-1.2,1.1-2.5,1.1-2.5s1,0.2,1.5,1.3c0.2,0.5,0.3,1.3,0.3,1.3s-2.7,8.9-3.9,13.4c-1.2,4.4-2.7,12.1-2.7,23.1
			c0,11,2.5,21.6,2.5,21.6s-0.1,0-1.6,0c-1.5,0-5.1,1.3-5.1,6.6c0,5.3,3.7,10.8,3.7,10.8s-1.7,1.5-1.7,4.5c0,4.4,3.2,6.5,3.2,6.5
			s0.4,0.5,1.1,1.8c0.7,1.3,0.7,1.3,0.7,1.3s-4.6,3.9-4.6,7.7c0,5.1,1.6,5.5,1.6,5.5s-3.7,5.3-3.7,10.5c0,8.5,6.6,7.1,6.6,7.1
			s-0.9,3.7-2.2,15.3c-1.3,11.7,0.5,19.4,1.3,24.2c0.8,4.8,3,12.9,3.5,14.7c0.5,1.7,1,3.2,1.1,3.8c0.1,0.3,0.2,0.9,0.2,0.9
			s-0.5,0.7-0.7,1.1c-0.4,0.5-1.2,0.7-1.2,0.7s-0.2-1-0.6-1.9c-0.7-1.6-2.7-3.3-3.7-2.5c-1.6,1.4,0.2,4.5,1.6,5.4
			c0.6,0.3,1.7,0.9,1.7,0.9s0.5,2.4,0.5,3.2c0,1.3,0.1,2.6-0.1,5.4c-0.4,5.2-1.5,9.4-3.3,15.4c-0.6,1.9-1.8,5.7-3,8.4
			c-1.2,2.9-2.4,4.9-2.4,4.9s-0.9,0.5-1.9,0.8c-1.1,0.4-3.1,1.3-5.9,3.7c-2.8,2.4-4.4,5-2.7,6.3c1.7,1.3,4.7-1.1,6.2-2.5
			c1.5-1.4,3.9-4.5,4.8-5.8c0.5-0.8,1.3-1.4,1.3-1.4s0.6,0,1,0c0.7,0,3,0.5,4.8,2.1c1,0.9,2,2.1,2,4.1c0,3.7-3.4,7.6-7.2,10.3
			c-1.8,1.3-3.9,2.2-5.5,2.9c-3.9,1.9-12.4,3.6-18.9,3.6c-11.5,0-19.8-2.2-29.4-2.2c-6.7,0-12.6,0.4-17.2,1.1
			c-8.7,1.3-13.8,3.2-18.1,3.2c-4.8,0-8.1-1.3-10.2-2.4c-1.1-0.6-1.9-0.9-1.9-0.9s0.8,1,1.2,1.3c0.9,0.6,3.8,1.9,5.6,2.5
			c1.8,0.6,4.7,1.1,8.3,1.1C1000.9,1129.5,1009.7,1124.4,1021.1,1124.4"/>
		<path id="path122" fill="#231F20" d="M1081.9,967c-0.2-1.1-0.6-2.5-1-4c-0.4-1.5-1.1-1.9-1.8-2.5c-0.7-0.7-1.5-1.9-1.9-1.9
			c-0.4,0-0.8,0-0.8,1.3c0,1.3-0.1,1.6,1.3,5.4c1.4,3.7,3.3,3.5,4,3.1C1082,968.2,1082.1,968.1,1081.9,967"/>
		<path id="path124" fill="#231F20" d="M1079.8,948.7c0,2.6,0,6,0,6.7c0,0.5,0.1,1.7-1,1.3c-0.6-0.2-1-0.7-1.5-1.4
			c-1.6-2.7-2.6-9.8-2.6-11c0-1.7,0.7-3.9,2.7-3.9c1.5,0,2.4,1.6,2.4,1.6S1079.8,947,1079.8,948.7"/>
		<path id="path126" fill="#231F20" d="M1080,983.2c0.2-0.2,0.3-0.7,0.1-0.8c-0.1-0.1-0.4-0.1-0.7,0.3c-0.3,0.4-0.3,0.7-0.1,0.8
			C1079.5,983.6,1079.8,983.4,1080,983.2"/>
		<path id="path128" fill="#231F20" d="M1082.7,981.3c-0.4,0-0.5-0.4-0.4-0.7c0.1-0.3,0.3-0.4,0.7-0.4c0.3,0,0.5,0.5,0.3,0.8
			C1083.1,981.3,1082.9,981.3,1082.7,981.3"/>
		<path id="path130" fill="#231F20" d="M1084.3,1057.7c0,0-3.2-11-4.2-21.8c-1-10.8-1.4-16-1.1-21.2c0.5-7.2,1.4-8.4,1.4-8.4
			s1.3,8.8,1.8,11.7c0.6,2.9,3.5,18.5,3.5,26.8C1085.7,1053.2,1084.3,1057.7,1084.3,1057.7"/>
		<path id="path132" fill="#231F20" d="M1079.7,1000c0,0-0.8,1.1-2.3,1.1c-1.5,0-3.8-2-2.3-7.7c1.5-5.8,1.9-8.6,4-8.6
			c0.6,0,0.8,0.4,0.8,0.4s-0.3,4-0.3,7.7S1079.7,1000,1079.7,1000"/>
		<path id="path134" fill="#231F20" d="M1084.5,996.7c-0.7,0.9-1.6,1.7-2,1.5c-0.4-0.3-0.1-1.5,0.8-2.7c0.9-1.2,1.6-2.1,2.2-1.5
			C1085.8,994.5,1084.9,996.2,1084.5,996.7"/>
		<path id="path136" fill="#231F20" d="M1081,979.1c0,0-1.1,1.1-1.8,1.9c-0.8,0.8-2,2.2-2,2.2s-1,0-0.8-2.1c0.2-2,1-3.8,2.1-5.9
			c1.1-2.1,1.9-2.5,1.9-2.5s0.7,0.1,1.1,0.2c0.4,0.1,0.9,0.2,0.9,0.2s-0.4,1.5-0.8,3.2C1081.2,978,1081,979.1,1081,979.1"/>
		<path id="path138" fill="#231F20" d="M1083.2,971.3c-0.2,0.2-0.9,0-1.2-0.3c-0.3-0.4-0.5-0.7-0.1-1c0.4-0.3,0.8,0.2,1,0.4
			C1083.1,970.5,1083.5,971,1083.2,971.3"/>
		<path id="path140" fill="#231F20" d="M1083.2,961.3c-0.2,0.2-0.5,0.2-0.8-0.2c-0.3-0.4-0.3-0.6-0.1-0.8c0.2-0.1,0.7,0,0.8,0.2
			C1083.2,960.7,1083.4,961.2,1083.2,961.3"/>
		<path id="path142" fill="#231F20" d="M1080.1,958.9l-0.3,0.5c0,0-0.3-0.2-0.4-0.4c-0.1-0.2-0.3-0.5-0.3-0.5l0.5-0.5L1080.1,958.9
			L1080.1,958.9"/>
		<path id="path144" fill="#231F20" d="M1082.2,943.9l0.2-1c0,0,1.2,0.6,2.3,2.8c1.1,2.2,0.3,3-1,1.4
			C1082.3,945.3,1082.2,943.9,1082.2,943.9"/>
		<path id="path146" fill="#231F20" d="M1080.1,936c0,0-1.9-6.2-1.2-15.9c0.7-9.6,1.4-15.6,1.9-18.4c0.4-2.8,2.9-15.1,3.2-16.1
			c0.3-1,0.5-1.3,0.5-1.3s0.4,2.1,0.7,4.5c0.3,2.5,0.7,9.9,0.3,14c-0.4,4.1-0.8,5-2.2,13.3c-1.4,8.2-2,10.8-2.5,14.4
			C1080.4,934.2,1080.1,936,1080.1,936"/>
		<path id="path148" fill="#231F20" d="M1070.8,1103.8c0,0-1.6,2.9-3.5,4.9c-1.9,2-3.6,3.4-4.6,2.6c-1-0.8,1-2.8,2.1-3.9
			C1067,1105.1,1070.8,1103.8,1070.8,1103.8"/>
		<path id="path150" fill="#231F20" d="M1080.1,1063c0,0-1.3,0.1-2-1.2c-0.6-1-0.5-1.8-0.3-2c0.2-0.2,0.8-0.5,1.6,1.1
			C1080.1,1062.3,1080.1,1063,1080.1,1063"/>
		<path id="path152" fill="#231F20" d="M1080.4,878.5c0,0-0.6,1.7-0.9,2.3c-0.3,0.5-0.8,1-1.4,0.9c-0.5-0.2-0.3-1,0.3-1.7
			C1079.1,879.2,1080.4,878.5,1080.4,878.5"/>
		<path id="path154" fill="#231F20" d="M1072.9,844.2c0,0-2.8-0.8-5-3.2c-2.3-2.4-3.4-3.8-2.7-4.8c0.7-0.9,3.4,1.5,4.9,3
			C1071.5,840.7,1072.9,844.2,1072.9,844.2"/>
		<path id="path156" fill="#FFFFFF" d="M1060.8,835.9c0,0-1.6-5-4.7-7.1c-3.1-2.1-5.9-1.6-6.9-1.2c-1,0.4-2,2-2,2s3,0.5,5.9,2.9
			c2.9,2.4,4,4.3,2.8,5.8c-1.2,1.5-4.9-0.4-6.1-1.5c-3.2-2.6-4.2-6.4-4.2-6.4s-0.8-1.2-9.6,0c-8.8,1.2-7.6,1.1-11.4,1.1
			c-3.8,0-8.9-0.6-12.7-2.2c-3.8-1.6-5.6-2.8-10.3-5c-4.7-2.2-11.2-4.1-11.2-4.1s-0.1-1.4,18.1,5.7c7,2.7,17.7,3.5,20.1,3.5
			s8.4-0.4,11.8-0.4s5.5,0.4,5.5,0.4s0.8-2.9,5.8-2.9c5,0,7.4,3.8,8.2,5.4C1060.8,833.3,1060.8,835.9,1060.8,835.9"/>
		<path id="path158" fill="#231F20" d="M1046.8,830.5c0,0,2.7,0.2,5.7,2.7c2.5,2.2,2.3,3.4,2,3.8c-0.3,0.4-1.8,0.6-4.4-1.6
			C1046.7,832.6,1046.8,830.5,1046.8,830.5"/>
		<path id="path160" fill="#FFFFFF" d="M1069.1,960.8c0,0-1.7,1.5-2.8,2.5c-1.1,1-2,1.8-2.4,1.9c-0.3,0.1-0.7,0.4-2.4-0.9
			c-1.6-1.3-3.1-1.9-4.4-2.5c-1.3-0.5-3.5-1.1-3.5-1.7c0-0.7,3.7-1.7,5.6-2.4c1.9-0.7,3.6-1.6,4-1.9c0.5-0.3,1.1-0.6,1.9,0.4
			c0.8,1,1.3,1.9,2,2.5C1067.9,959.4,1069.4,960.7,1069.1,960.8"/>
		<path id="path162" fill="#231F20" d="M1066.8,960.7c0,0.2-1.1,1-1.7,1.5c-0.6,0.5-1.7,1.2-1.9,1.4c-0.2,0.1-0.5-0.2-0.9-0.4
			c-0.3-0.3-1.5-1.4-2.6-1.8c-1.1-0.4-3-1.1-3-1.1s2.6-0.8,3.9-1.2c1.3-0.4,2.7-1.1,2.9-1.3c0.2-0.2,0.4,0,0.8,0.4
			c0.4,0.4,0.9,0.9,1.2,1.3C1066,959.8,1066.8,960.7,1066.8,960.7"/>
		<path id="path164" fill="#FFFFFF" d="M970.9,1038.2c0,0,2.7-0.8,4.8,0.8c0.5,0.4,1.7,2.3,1.7,2.3s5.7-2.5,10.5-2.8
			c6-0.4,8.3,0.2,8.3,0.2s1.9-2,5.3-2.6c3.3-0.6,3.9-0.6,3.9-0.6s0.8-2,4.7-3.1c3.9-1.1,5.4-1.2,5.4-1.2s1.5-2,4.7-3.4
			c3.2-1.4,6.9-1.6,6.9-1.6s0.6-5.7,8.4-5.7c5.4,0,8,4.4,8,4.4s-3.2-3.4-8.4-3.4c-3.7,0-5.3,1.7-5.7,2.2c-0.8,0.8-0.8,2.4-0.8,2.4
			s1-0.3,5,1.1s4.8,3.1,4.4,4.2c-0.4,1.1-4.5,1.3-6.5,0.4c-3.8-1.7-4.3-4-4.3-4s-2.8-0.1-5.4,0.7c-4.3,1.4-5.1,2.8-5.1,2.8
			s2.5,0.4,4.5,1.6c2,1.1,3,4.1-0.9,4.1c-3.9,0-5.7-3.9-5.7-3.9s-1.6-0.3-4.2,0.4c-2.6,0.7-3.7,2-3.7,2s2.5,0.7,3.4,1.2
			c0.9,0.5,2.2,3.1-0.9,3.4c-3.2,0.3-4.3-3.1-4.3-3.1s-1.2,0-3.2,0.4c-3.7,0.8-4.1,1.6-4.1,1.6s2.9,3.2-0.8,3.7
			c-2.3,0.3-2.1-3.3-2.1-3.3s-3.8-0.7-6.9-0.3c-4.6,0.7-5.3,0.9-7.1,1.6c-1.7,0.6-3.8,1.6-3.8,1.6s-0.3-1.1-1-1.8
			c-0.7-0.7-1.5-1.4-2.6-1.6c-1.1-0.2-1.3,0-1.3,0s0.8,0.8,0.8,2c0,1.2-0.8,2.2-2,2.2h0c-1.1,0-2-1-2-2.2c0-1.2,0.8-2,0.8-2
			s-0.2-0.2-1.3,0c-1.1,0.2-1.9,0.9-2.6,1.6c-0.7,0.7-1,1.8-1,1.8s-2.1-0.9-3.8-1.6c-1.8-0.7-2.5-0.9-7.1-1.6
			c-3-0.4-6.9,0.3-6.9,0.3s0.2,3.6-2.1,3.3c-3.7-0.5-0.8-3.7-0.8-3.7s-0.4-0.8-4.1-1.6c-2-0.4-3.2-0.4-3.2-0.4s-1.1,3.4-4.3,3.1
			c-3.2-0.3-1.8-2.9-0.9-3.4c0.9-0.5,3.4-1.2,3.4-1.2s-1.1-1.3-3.7-2c-2.6-0.7-4.2-0.4-4.2-0.4s-1.8,3.9-5.7,3.9
			c-3.9,0-2.9-2.9-0.9-4.1c2-1.1,4.5-1.6,4.5-1.6s-0.8-1.5-5.1-2.8c-2.5-0.8-5.4-0.7-5.4-0.7s-0.5,2.3-4.3,4
			c-2.1,0.9-6.1,0.7-6.5-0.4c-0.4-1.1,0.3-2.8,4.4-4.2c4-1.4,5-1.1,5-1.1s0-1.6-0.8-2.4c-0.4-0.4-2-2.2-5.7-2.2
			c-5.1,0-8.4,3.4-8.4,3.4s2.6-4.4,8-4.4c7.7,0,8.4,5.7,8.4,5.7s3.7,0.3,6.9,1.6c3.2,1.4,4.7,3.4,4.7,3.4s1.5,0.1,5.4,1.2
			c3.9,1.1,4.7,3.1,4.7,3.1s0.6,0,3.9,0.6c3.3,0.6,5.3,2.6,5.3,2.6s2.3-0.6,8.3-0.2c4.8,0.3,10.5,2.8,10.5,2.8s1.2-1.9,1.7-2.3
			C968.2,1037.3,970.9,1038.2,970.9,1038.2L970.9,1038.2"/>
		<path id="path166" fill="#FFFFFF" d="M970.9,962.1c10.8,0,22.7,2.3,33.7,6.2c17,6,31.3,16.3,31.3,32.6c0,16.2-23.6,35.6-65.1,35.6
			h0c-41.5,0-65.1-19.4-65.1-35.6c0-16.3,14.4-26.6,31.3-32.6C948.3,964.4,960.2,962.1,970.9,962.1L970.9,962.1"/>
		<path id="path168" fill="#231F20" d="M970.9,965.1c0,0,12.4-0.8,28.8,3.9c17.9,5.1,24.6,11.3,27.8,14.2s7.4,10.1,7.4,17.6
			c0,1.9,0.1,4.8-2,8.6c-3.3,6.1-11.1,13.8-25.1,18.5c-18.4,6.2-36.8,5.7-36.8,5.7h0c0,0-18.4,0.5-36.8-5.7
			c-14-4.8-21.8-12.4-25.1-18.5c-2.1-3.8-2-6.8-2-8.6c0-7.5,4.2-14.7,7.4-17.6c3.2-2.9,9.8-9.1,27.8-14.2
			C958.5,964.3,970.9,965.1,970.9,965.1L970.9,965.1"/>
		<path id="path170" fill="#FFFFFF" d="M970.9,953.6c0,0,0.4,0.1,1.3,0c0.9-0.1,4.7-1.5,8.4-2c1.9-0.3,6.4-0.1,8.3,1.3
			c1.9,1.4,0.1,2.9-1.4,3.2c-1.5,0.3-2.9,0.4-2.9,0.8c0,0.4,1.6,0.6,2.8,0.7c1.2,0.1,3.4-0.3,5.1-0.7c1.7-0.4,5.6-2.5,7.5-3.4
			c1.9-0.9,5.6-0.9,6,1.1c0.4,2-2.3,2.9-3.7,3.4c-1.4,0.5-1.7,1.3,0.9,1.3c2.6-0.1,5.3-0.6,10.7-1.3c5.4-0.7,7.5,0.3,9.6,1.2
			c2.2,1,3.2,4.6,3.2,4.6s4.9-0.6,12.6,1.8c6.4,2,5.1,6.7,5.1,6.7s3.7,0.4,9.3,4.8c5.6,4.4,3.9,8,3.9,8s5.3,3.7,7.7,9.6
			c2.5,5.9-0.9,9.4-0.9,9.4s5.6,5.6,5.6,11.6c0,7.7-6.5,9-8.5,9c-2,0-3.7-0.8-3.7-0.8s-0.9,1.1-1.3,1.8c-0.4,0.8-0.3,1.4-0.3,1.4
			s0.2,0.4,1.3,0.8c1.1,0.4,2.4,0.8,2.4,0.8s-2.1,0.4-3.1,0.2c-1-0.3-2.6-1-2.6-1s-3.3,0.7-5.1-0.8c-1.8-1.5-1.7-3.7-3-5.1
			c-1.4-1.4-3.7-3.8-6.4-4.7c-2.7-0.8-3.6-1.2-4.8-1.3c-1.2-0.1-0.7-0.8,0-1.5c0.7-0.8,4.5-6,4.5-13c0-7-3.3-14.1-7.4-19.4
			c-4.1-5.2-19.6-15.4-32.4-18.4c-13.3-3.2-15.5-3.3-19.6-3.7c-4.1-0.4-6.4-0.8-9.2-0.8c-2.8,0-5.2,0.4-9.3,0.8
			c-4.1,0.4-6.2,0.6-19.6,3.7c-12.8,3-28.3,13.2-32.4,18.4c-4.1,5.2-7.4,12.3-7.4,19.4c0,7,3.8,12.3,4.5,13c0.7,0.8,1.2,1.4,0,1.5
			c-1.2,0.1-2.1,0.4-4.8,1.3c-2.7,0.8-5.1,3.3-6.4,4.7c-1.4,1.4-1.3,3.6-3,5.1c-1.8,1.5-5.1,0.8-5.1,0.8s-1.6,0.8-2.6,1
			c-1,0.3-3.1-0.2-3.1-0.2s1.3-0.4,2.4-0.8c1.1-0.4,1.3-0.8,1.3-0.8s0.1-0.6-0.3-1.4c-0.4-0.8-1.3-1.8-1.3-1.8s-1.6,0.8-3.7,0.8
			c-2,0-8.5-1.3-8.5-9c0-6,5.6-11.6,5.6-11.6s-3.4-3.5-0.9-9.4c2.5-5.9,7.7-9.6,7.7-9.6s-1.6-3.6,3.9-8c5.6-4.4,9.3-4.8,9.3-4.8
			s-1.3-4.6,5.1-6.7c7.7-2.5,12.6-1.8,12.6-1.8s1-3.7,3.2-4.6c2.2-1,4.2-1.9,9.6-1.2c5.4,0.7,8.1,1.2,10.7,1.3
			c2.6,0.1,2.3-0.8,0.9-1.3c-1.4-0.5-4.1-1.4-3.7-3.4c0.4-2,4.1-2,6-1.1c1.9,0.9,5.8,3,7.5,3.4c1.7,0.4,3.9,0.8,5.1,0.7
			c1.2-0.1,2.8-0.3,2.8-0.7c0-0.4-1.3-0.6-2.9-0.8c-1.5-0.3-3.3-1.8-1.4-3.2c1.9-1.4,6.4-1.6,8.3-1.3c3.7,0.6,7.5,2,8.4,2
			C970.5,953.7,970.9,953.6,970.9,953.6L970.9,953.6"/>
		<path id="path172" fill="#231F20" d="M1052.3,1027.1c0,0-0.6,1-1.9,0.1c-1.3-0.9-1.7-2.4-1.7-2.4s1.5,0.7,2.2,1.2
			S1052.3,1027.1,1052.3,1027.1"/>
		<path id="path174" fill="#231F20" d="M1056.1,1023.5c0,0-0.4,1.1-0.6,1.6c-0.2,0.4-0.7,1.1-0.7,1.1s-2.2-1.7-4-3
			c-1.9-1.3-3.8-2.5-3.8-4.3c0-0.8,0.3-1.5,0.3-1.5s2.7,2.2,4.4,3.5C1053.5,1022.2,1056.1,1023.5,1056.1,1023.5"/>
		<path id="path176" fill="#231F20" d="M1062.4,1023.9c-1.5,0-2.1-0.4-3.2-1c-1.1-0.6-1.2-1.1-1.2-1.1s-0.2-1.5-0.4-2.9
			c-0.3-1.5-0.7-2.5-0.7-2.5s1.1-1,1.8-2c0.6-1,0.6-2.5,0.5-3.6c-0.2-1.5-0.4-2.5-0.4-2.5s0.6-0.3,1.3-1.3c0.7-1,1.1-1.7,1.1-1.7
			s1-0.2,1.6-0.2c0.6,0,1.3,0.4,1.8,1.3c0.6,0.9,3.5,4.9,3.5,10.4C1068.1,1022.3,1064.6,1023.9,1062.4,1023.9"/>
		<path id="path178" fill="#231F20" d="M1062.8,1004.1c0,0-2.2,0.4-1.9-0.7C1061.3,1002.3,1062.8,1004.1,1062.8,1004.1"/>
		<path id="path180" fill="#231F20" d="M1059.5,1003.8c-0.4,0.4-1.1,0-1.6-0.4c-0.5-0.4-0.9-1.1-0.2-1.7c0.7-0.6,1.4,0.1,1.6,0.4
			C1059.6,1002.4,1059.9,1003.4,1059.5,1003.8"/>
		<path id="path182" fill="#231F20" d="M1056,1006.5l-0.4,0.5c0,0-1.6-1.1-2.2-2c-0.5-0.9-0.9-1.9-0.6-2.3c0.3-0.4,1,0,1.4,0.6
			C1054.7,1003.9,1056,1006.5,1056,1006.5"/>
		<path id="path184" fill="#231F20" d="M1054.5,1014.6c0,0-1.9-1.1-2.5-2.2c-0.7-1.1-1-2.2-0.6-2.5c0.4-0.3,1.3-0.2,2.2,2
			C1054.4,1014.1,1054.5,1014.6,1054.5,1014.6"/>
		<path id="path186" fill="#231F20" d="M982.6,957.6c5.5,0.9,5.2,0.4,17.3,3c12.1,2.5,18.5,4.7,18.5,4.7s-0.3,0.8,1,1.6
			c1.4,0.8,3.6,0,3.6,0s3.8,1.6,6.2,2.8c2.4,1.2,4.2,2.5,4.2,2.5s-0.2,0.9,0.5,1.9c0.7,0.9,3.9,0.8,3.9,0.8s2.9,2.1,5.3,4.1
			c2.5,1.9,4.1,3.4,4.1,3.4s-0.3,1,0.7,2.5c1,1.5,3.6,1.9,3.6,1.9s3.6,4.9,5.5,8c1.9,3.1,2.1,5.9,2.1,5.9s-1.7-0.8-2.5,0.6
			c-1.1,1.8,1.8,3.2,2.3,3.6c0.5,0.3,0.5,0.9,0.1,1.4c-0.4,0.4-1,0.6-1,0.6s-1.4-2.4-2-3.1c-0.6-0.8-2.3-2.8-3.2-2.2
			c-1.8,1.2-0.2,3.6,0.9,4.9c1.1,1.3,3.5,2.5,3.5,2.5s0.2,1.4,0.4,3.3c0.3,1.9-0.9,2.6-0.9,2.6s-1-1.8-2.2-3.9
			c-1.2-2.1-3.6-3.2-3.8-0.6c-0.3,2.6,2.9,4.6,3.7,5.3c0.8,0.8,1,1.5,1.3,2.8c0.3,1.3,0.3,2.5,0.3,2.5s-3-2.1-4.6-3.2
			c-1.6-1.1-2.7-2-3.3-2.4c-0.5-0.3-1-0.8-0.9-1.6c0.1-0.8,0.8-5.6,1-9.3c0.1-3.6-1.1-10.8-4.8-17.4c-6.7-11.6-17.6-16-17.6-16
			s12,8.8,15.3,16.4c3.3,7.7,5.3,11.4,5.3,22.7c0,2.3-0.1,4.1-0.1,4.1s-0.5,0.1-1.1-0.2c-0.6-0.3-1.3-0.4-1.5-0.4
			c-0.2,0-0.3,0.6,0.1,0.8c0.4,0.1,1.7,0.8,1.9,1.1c0.2,0.3,0.5,0.7,0.5,0.7s0.1,0.8,0.1,1.3c0.1,0.6-0.2,1.7-0.2,1.7
			s-2.7-1.9-4.6-2.4c-1.9-0.6-3.6-1-4.4-1s-1.1-0.2-0.3-1.6c0.8-1.5,3.8-4.7,3.8-13c0-8.3-3.6-14.2-8.4-20
			c-4.8-5.8-14.3-10.7-20.5-13.7c-2.7-1.3-15.2-6-31.4-7.9c-2.2-0.3-6.3-0.8-9.2-0.8c-2.9,0-7,0.6-9.2,0.8
			c-16.2,1.9-28.7,6.6-31.4,7.9c-6.3,3-15.8,7.9-20.5,13.7c-4.8,5.8-8.4,11.7-8.4,20c0,8.3,3,11.5,3.8,13c0.8,1.5,0.4,1.6-0.3,1.6
			s-2.5,0.5-4.4,1c-1.9,0.5-4.6,2.4-4.6,2.4s-0.2-1.1-0.2-1.7c0.1-0.6,0.1-1.3,0.1-1.3s0.3-0.4,0.5-0.7c0.2-0.3,1.5-1,1.9-1.1
			c0.4-0.1,0.3-0.8,0.1-0.8c-0.2,0-0.9,0.2-1.5,0.4c-0.6,0.3-1.1,0.2-1.1,0.2s-0.1-1.8-0.1-4.1c0-11.3,2-15,5.3-22.7
			c3.3-7.7,15.3-16.4,15.3-16.4s-11,4.4-17.6,16c-3.8,6.6-5,13.8-4.8,17.4c0.1,3.6,0.8,8.4,1,9.3c0.1,0.8-0.3,1.3-0.9,1.6
			c-0.6,0.3-1.6,1.2-3.3,2.4c-1.6,1.1-4.6,3.2-4.6,3.2s0.1-1.3,0.3-2.5c0.3-1.3,0.4-2,1.3-2.8c0.8-0.8,4-2.7,3.7-5.3
			c-0.3-2.6-2.6-1.5-3.8,0.6c-1.2,2.1-2.2,3.9-2.2,3.9s-1.2-0.8-0.9-2.6c0.3-1.9,0.4-3.3,0.4-3.3s2.4-1.3,3.5-2.5
			c1.1-1.3,2.7-3.7,0.9-4.9c-0.9-0.6-2.6,1.4-3.2,2.2c-0.6,0.8-2,3.1-2,3.1s-0.6-0.2-1-0.6c-0.4-0.4-0.4-1,0.1-1.4
			c0.5-0.3,3.4-1.8,2.3-3.6c-0.8-1.4-2.5-0.6-2.5-0.6s0.3-2.8,2.1-5.9c1.9-3.1,5.5-8,5.5-8s2.6-0.4,3.6-1.9c1-1.5,0.7-2.5,0.7-2.5
			s1.6-1.4,4.1-3.4c2.5-1.9,5.3-4.1,5.3-4.1s3.2,0.1,3.9-0.8c0.7-0.9,0.5-1.9,0.5-1.9s1.9-1.4,4.2-2.5c2.4-1.2,6.2-2.8,6.2-2.8
			s2.2,0.8,3.5,0c1.4-0.8,1-1.6,1-1.6s6.4-2.1,18.5-4.7c12.1-2.5,11.8-2,17.3-3c5.5-0.9,10.8-3,11.6-3
			C971.8,954.7,977.1,956.7,982.6,957.6"/>
		<path id="path188" fill="#231F20" d="M988.5,954.4c0,0.5-1.9,1.8-6.6,1.8s-7.6-1.6-7.6-1.6s3.8-1.9,9.3-1.5
			C989.1,953.3,988.5,954.2,988.5,954.4"/>
		<path id="path190" fill="#231F20" d="M999.9,958.5c0,0,0.5,1.5-1.9,1c-2.4-0.5-4.4-1.1-5-1.1c-0.6,0-0.9-0.8,1.4-1.2
			c2.3-0.4,4.1-1,6.5-2c3.7-1.5,5.9-0.1,3.1,1.6C1003.4,957.2,999.9,958.5,999.9,958.5"/>
		<path id="path192" fill="#231F20" d="M1023.5,964.9c0.4,0.1,0.2,1-0.8,0.9C1021.7,965.7,1022.8,964.8,1023.5,964.9"/>
		<path id="path194" fill="#231F20" d="M1025.4,963c0.1,0.5,0,0.8-0.8,1c-0.8,0.2-3.1,0.4-3.7,0.5c-0.6,0.1-2.3-0.2-3.3-0.5
			c-1.1-0.3-3.7-1.1-6.6-1.7c-2.9-0.6-8.2-1.9-8.2-1.9s5.5-0.6,9-1c3.6-0.4,9.3,0.2,11.1,1.2C1024.6,961.6,1025.2,962.1,1025.4,963"
			/>
		<path id="path196" fill="#231F20" d="M1043.6,971.5c0,0.5-3.6-0.3-5.1-0.2c-1.5,0.1-4.6,0-4.6,0s-1.7-1.1-4.1-2.2
			c-2.4-1.1-5.4-2.2-4.8-3.1c0.6-0.9,3.4-1.6,11.9,1C1044.1,969.1,1043.6,971.2,1043.6,971.5"/>
		<path id="path198" fill="#231F20" d="M1041.6,972.9c0,0.5-2,1-2.7,1c-0.7,0-2.4-0.7-2.3-1.4c0.1-0.7,1.7-0.5,2.7-0.3
			C1040.2,972.4,1041.6,972.4,1041.6,972.9"/>
		<path id="path200" fill="#231F20" d="M1056.7,984.2c0,0-2.3-1.5-3.8-1.9c-1.6-0.4-4.4-0.5-4.4-0.5s-3.3-2.3-4.6-3.6
			c-1.4-1.3-3.9-3.3-3.9-3.3s0.5-0.7,1.5-0.8c1-0.2,2.3-0.3,2.3-0.3s5,1.8,8.3,4.2C1058.1,982.3,1056.7,984.2,1056.7,984.2"/>
		<path id="path202" fill="#231F20" d="M1053.7,986.2c-1.3,0-2.2-0.7-3-1.6c-0.8-0.8-1.2-1.4-1.2-1.4s0.7-1,3.4,0.3
			C1055.6,984.8,1056.4,986.2,1053.7,986.2"/>
		<path id="path204" fill="#231F20" d="M1063.4,1003c-1,0.1-2.5-1.4-2.7-1.9c-0.3-0.8-1.8-4.9-3-7.2c-1.3-2.3-3.5-5.6-3.8-6.1
			c-0.4-0.5-0.1-0.6,0.7-0.8c0.8-0.3,2.2-0.6,2.2-0.6s7.9,7.2,7.9,13.8C1064.6,1001.3,1064.2,1002.9,1063.4,1003"/>
		<path id="path206" fill="#FFFFFF" d="M954.8,1027.4c2.3,0,9.3-0.9,9.3-10.3s-8.3-9.4-9.6-9.4c-1.3,0-9.6,0.4-9.6,9.8
			C944.9,1026.9,953.2,1027.4,954.8,1027.4z M951.7,1022.8c0-1,0-9.4,0-10.9c0-1.5,1.3-3,3.1-3c1.8,0,2.7,1.5,2.7,2.9
			c0,1.4,0,8.7,0,10.8c0,2.2-1.6,3.4-2.7,3.4C952.7,1026,951.7,1023.8,951.7,1022.8"/>
		<path id="path208" fill="#FFFFFF" d="M967.8,1026.8c0,0,4.9,0,5.5,0c0.6,0,0.9-0.3,0.9-1.3s0-14.4,0-15.2s0.5-1.4,1.1-1.5
			c0.6-0.1,0.7-0.7,0-0.7c-0.7,0-7.3,0-7.8,0c-0.5,0-0.6,0.6-0.1,0.8c0.5,0.2,0.9,1,0.9,2c0,0.9,0,12.7,0,13.3
			c0,0.6-0.2,1.2-0.6,1.5C967.2,1025.9,966,1026.8,967.8,1026.8"/>
		<path id="path210" fill="#FFFFFF" d="M991.7,1026.7c1.6,0,1.9-0.1,2.4-0.1c0.5,0,0.8-0.4,0.8-1.1s0-13.2,0-14s0.4-1.9,1-2.3
			c0.6-0.4,2.1-1.3,0-1.3c-2.1,0-5.8,0-5.8,0l-1.2,1c0,0-0.7-1.3-4.2-1.3c-3.5,0-6.8,2.5-6.8,7.5c0,5,5.3,7,7.9,7
			c2.6,0,2.7-0.3,3-0.4c0.3-0.1,0.7,0.2,0.7,0.6c0,0.4,0,1.3,0,1.7c0,0.4-0.7,1.2-1.1,1.5c-0.4,0.3-2.5,0.9-0.5,1.1
			C989.6,1026.7,991.7,1026.7,991.7,1026.7L991.7,1026.7z M984.4,1018.2c0-0.6,0-5.1,0-6s0.4-3,2.3-3s2.5,2.2,2.5,2.9
			c0,0.7,0,4,0,6.1c0,2.2-1.6,2.5-2.4,2.5C984.4,1020.7,984.4,1018.9,984.4,1018.2"/>
		<path id="path212" fill="#FFFFFF" d="M943.1,1005.1c1.6-0.1,3.4-0.1,3.4-0.1s3-3.4,4.9-6c1.9-2.5,3-4.1,3.7-4.7
			c0.6-0.6,1.6-0.8,1.6-0.8s0.2,4.8,0.1,6.4c-0.1,1.6-0.6,3.2-0.8,3.5c-0.3,0.3-3.6,1.6,1.3,1.6c4.9,0,2-1.4,1.6-1.7
			c-0.3-0.3-0.8-1.3-0.8-2c0-0.7-0.3-11.2-0.3-11.9c0-0.7,0.3-1.7-0.6-1.7c-1,0-2.9-0.2-3.5,0.1c-0.6,0.3-1.1,0.8-1.7,1.5
			c-0.6,0.8-6.6,8.5-7,8.7c-0.4,0.3-1,0.2-1-0.8c0-1,0-6.1,0-6.8c0-0.7,0.8-1.3,1.2-1.5c0.4-0.2,1.6-1.1,0-1.1c-1.6,0-3,0-3.8,0
			c-0.8,0-0.8,0.6,0.1,1.3c0.8,0.7,1.3,1.5,1.3,2.4c0,0.9,0.1,7.7,0.1,8.2c0,0.5-0.4,1.5-1.2,2.3c-0.8,0.9-1.7,1.8-2.3,1.9
			c-0.6,0.1-1.1,1.1,0.1,1.1C940.8,1005.1,941.8,1005.1,943.1,1005.1"/>
		<path id="path214" fill="#FFFFFF" d="M969.7,1002.1c3.7,0,9.3-1.5,9.3-7c0-5.5-3.2-8.3-8.8-8.3c-5.6,0-8.8,3.2-8.8,7.9
			S965.3,1002.1,969.7,1002.1z M967.3,997.4c0-0.7,0.1-5.8,0.1-6.7c0-0.8,0.8-2.7,2.7-2.7s2.7,2,2.7,2.7c0,0.8,0,4.6,0,6.7
			c0,2.2-1.8,3.4-2.7,3.4C967.6,1000.9,967.3,998.1,967.3,997.4"/>
		<path id="path216" fill="#FFFFFF" d="M982.2,987.4c1.3,0,2.4,1.1,2.4,2.4c0,1.3-1.1,2.4-2.4,2.4c-1.3,0-2.4-1.1-2.4-2.4
			C979.8,988.5,980.9,987.4,982.2,987.4"/>
		<path id="path218" fill="#FFFFFF" d="M994.6,1004.7c2.1,0,4.3-0.7,4.7-0.7c1.2,0,2,0.4,2.5,0.8c0.5,0.4,2,0.1,1.2-1.6
			c-0.8-1.8-5.4-5.8-5.4-9.5c0-1.8,1.3-2.6,2-2.6c0.6,0,1.5,1.1,2.3,0.4c0.3-0.2,0.4-0.8-0.1-1.6c-0.9-1.6-3.4-3.7-6.2-3.7
			c-2.2,0-4.9,2.1-4.9,4.9c0,2.8,2.7,5.9,4.8,6.9c1.2,0.6,1.7,1.3,1.4,1.5c-0.2,0.1-0.8-0.1-1.8-0.1c-1.8,0-3.7,1.1-4.9,1.1
			c-1.3,0-1.9-1.3-2.2-1.9c-0.3-0.6-1.6-1-1.2,0.4c0.2,0.6,1,4,1.4,4.8c0.4,0.8,1,1.8,1.8,1.3c0.8-0.6,1.3-0.6,2.2-0.4
			C992.9,1004.7,993.3,1004.7,994.6,1004.7"/>
		<path id="path220" fill="#FFFFFF" d="M1019,1004.5c1,0,1.8,0.8,1.8,1.8c0,1-0.8,1.8-1.8,1.8s-1.8-0.8-1.8-1.8
			C1017.2,1005.3,1018,1004.5,1019,1004.5"/>
		<path id="path222" fill="#FFFFFF" d="M923.4,1004.8c1,0,1.8,0.8,1.8,1.8c0,1-0.8,1.8-1.8,1.8c-1,0-1.8-0.8-1.8-1.8
			C921.6,1005.6,922.4,1004.8,923.4,1004.8"/>
		<path id="path224" fill="#FFFFFF" d="M950,979.7c1-0.2,1.3-0.3,1.8-0.6c1-0.5,1.5-1.3,1.3-2.1c-0.2-0.6-0.8-1-1.6-1.1
			c1.2-0.6,1.7-1.4,1.5-2.3c-0.2-0.9-1.1-1.4-2.3-1.4c-0.5,0-1,0.1-1.8,0.3l-4.1,1c-0.1,0-0.2,0.1-0.1,0.2l1.7,6.8
			c0,0.1,0.1,0.2,0.2,0.1L950,979.7z M948.2,977.4c0-0.1,0-0.2,0.1-0.2l0.5-0.1c0.1,0,0.3-0.1,0.4-0.1c0,0,1.4-0.2,1.6,0.4
			c0.1,0.5-0.3,0.9-1.3,1.2l-0.7,0.2c-0.1,0-0.2,0-0.2-0.1L948.2,977.4l-0.8-3c0-0.1,0-0.2,0.1-0.2l0.8-0.2c0.1,0,0.3-0.1,0.4-0.1
			c0,0,1.8-0.3,2,0.4c0.2,0.7-0.3,1-1.8,1.4l-0.9,0.2c-0.1,0-0.2,0-0.2-0.1l-0.3-1.4L948.2,977.4"/>
		<path id="path226" fill="#FFFFFF" d="M959.8,977.8c1.4-0.2,1.9-0.3,2.4-0.7c0.7-0.5,1.1-1.2,1-1.9c-0.1-0.5-0.4-1-1-1.3
			c-0.3-0.1-0.4-0.2-0.9-0.3c0.5-0.3,0.8-0.7,1.2-1.6l0.2-0.5c0-0.1,0.1-0.2,0.1-0.3l0-0.1c0-0.1,0.1-0.2,0.1-0.3l0.1-0.2
			c0-0.1,0.1-0.2,0.1-0.3l0-0.1c0-0.1,0.1-0.2,0.1-0.2c0,0-0.1-0.1-0.2,0l-2.2,0.3c-0.1,0-0.2,0-0.2,0.1c0,0-0.1,0.1-0.1,0.2
			c0,0.1-0.1,0.2-0.1,0.3l0,0c0,0.1-0.1,0.2-0.1,0.3l-0.1,0.2c0,0.1-0.1,0.2-0.1,0.3l-0.1,0.3c0,0.1-0.1,0.2-0.2,0.3
			c0,0-0.6,1-1,1.2c-0.2,0.1-0.3,0.1-0.7,0.1l-0.2,0c-0.1,0-0.2-0.1-0.2-0.2l-0.4-2.6c0-0.1-0.1-0.2-0.2-0.2l-2,0.3
			c-0.1,0-0.2,0.1-0.2,0.2l1,6.9c0,0.1,0.1,0.2,0.2,0.2L959.8,977.8z M958.1,975.2c0-0.1,0.1-0.2,0.2-0.2l0.6-0.1c0.1,0,0.2,0,0.3,0
			c0.1,0,0.2,0,0.2,0c0.1,0,0.2,0,0.3,0c0,0,0.9,0.2,1,0.6c0.1,0.6-0.3,0.9-1.2,1l-1,0.1c-0.1,0-0.2-0.1-0.2-0.2L958.1,975.2"/>
		<path id="path228" fill="#FFFFFF" d="M975.2,969.6c0-0.1,0-0.2-0.1-0.2l-2.2,0.1c-0.1,0-0.2,0.1-0.3,0.2l-0.6,1.2
			c0,0.1-0.2,0.2-0.3,0.2l-3.9,0.1c-0.1,0-0.2-0.1-0.3-0.2l-0.6-1.1c0-0.1-0.2-0.2-0.3-0.2l-2.2,0.1c-0.1,0-0.1,0.1-0.1,0.2l3.9,6.9
			c0,0.1,0.2,0.2,0.3,0.2l2.4-0.1c0.1,0,0.2-0.1,0.3-0.2L975.2,969.6z M968.5,972.5c0-0.1,0-0.2,0.1-0.2l2.6-0.1
			c0.1,0,0.1,0.1,0.1,0.2l-1.3,2.6c0,0.1-0.1,0.1-0.2,0L968.5,972.5"/>
		<path id="path230" fill="#FFFFFF" d="M987,970.7c0-0.1-0.1-0.2-0.2-0.2l-1.6-0.2c-0.1,0-0.2,0-0.3,0.1l-5.4,3.8
			c-0.1,0.1-0.1,0-0.1-0.1l0.4-4.2c0-0.1-0.1-0.2-0.2-0.2l-2-0.2c-0.1,0-0.2,0.1-0.2,0.2l-0.7,7c0,0.1,0.1,0.2,0.2,0.2l1.8,0.2
			c0.1,0,0.2,0,0.3-0.1l5.2-3.6c0.1-0.1,0.1,0,0.1,0.1l-0.4,4c0,0.1,0.1,0.2,0.2,0.2l2,0.2c0.1,0,0.2-0.1,0.2-0.2L987,970.7"/>
		<path id="path232" fill="#FFFFFF" d="M992.3,979.1c0.5,0.1,0.8,0.2,1.1,0.2c0.7,0.1,1.4,0.1,2,0c1-0.1,2-0.6,2.6-1.2
			c0.3-0.4,0.6-0.8,0.7-1.4c0.4-1.7-0.7-3.3-2.8-4.2c-0.5-0.2-1.3-0.5-2.1-0.6l-3.5-0.8c-0.1,0-0.2,0-0.2,0.1l-1.5,6.8
			c0,0.1,0,0.2,0.1,0.2L992.3,979.1z M992.1,973.1c0-0.1,0.1-0.2,0.2-0.1l0.6,0.1c0.1,0,0.3,0.1,0.4,0.1c0,0,1.4,0.4,1.8,0.6
			c0.9,0.5,1.3,1.4,1.1,2.4c-0.2,1-0.9,1.6-2,1.7c-0.5,0.1-0.9,0-1.8-0.2l-1-0.2c-0.1,0-0.2-0.1-0.1-0.2L992.1,973.1"/>
		<path id="path234" fill="#231F20" d="M889.6,1027.1c0,0,0.6,1,1.9,0.1c1.3-0.9,1.7-2.4,1.7-2.4s-1.5,0.7-2.2,1.2
			C890.4,1026.5,889.6,1027.1,889.6,1027.1"/>
		<path id="path236" fill="#231F20" d="M885.7,1023.5c0,0,0.4,1.1,0.6,1.6c0.2,0.4,0.7,1.1,0.7,1.1s2.2-1.7,4-3
			c1.9-1.3,3.8-2.5,3.8-4.3c0-0.8-0.3-1.5-0.3-1.5s-2.7,2.2-4.4,3.5C888.4,1022.2,885.7,1023.5,885.7,1023.5"/>
		<path id="path238" fill="#231F20" d="M879.4,1023.9c1.5,0,2.1-0.4,3.2-1c1.1-0.6,1.2-1.1,1.2-1.1s0.2-1.5,0.4-2.9
			c0.3-1.5,0.7-2.5,0.7-2.5s-1.1-1-1.8-2c-0.6-1-0.6-2.5-0.5-3.6c0.2-1.5,0.4-2.5,0.4-2.5s-0.6-0.3-1.3-1.3c-0.7-1-1.1-1.7-1.1-1.7
			s-1-0.2-1.6-0.2c-0.6,0-1.3,0.4-1.8,1.3c-0.6,0.9-3.5,4.9-3.5,10.4C873.7,1022.3,877.3,1023.9,879.4,1023.9"/>
		<path id="path240" fill="#231F20" d="M879.1,1004.1c0,0,2.2,0.4,1.9-0.7C880.6,1002.3,879.1,1004.1,879.1,1004.1"/>
		<path id="path242" fill="#231F20" d="M882.4,1003.8c0.4,0.4,1.1,0,1.6-0.4c0.5-0.4,0.9-1.1,0.2-1.7c-0.7-0.6-1.4,0.1-1.6,0.4
			C882.3,1002.4,881.9,1003.4,882.4,1003.8"/>
		<path id="path244" fill="#231F20" d="M885.8,1006.5l0.4,0.5c0,0,1.6-1.1,2.2-2c0.5-0.9,0.9-1.9,0.6-2.3c-0.3-0.4-1,0-1.4,0.6
			C887.1,1003.9,885.8,1006.5,885.8,1006.5"/>
		<path id="path246" fill="#231F20" d="M887.3,1014.6c0,0,1.9-1.1,2.5-2.2c0.7-1.1,1-2.2,0.6-2.5c-0.4-0.3-1.3-0.2-2.2,2
			C887.4,1014.1,887.3,1014.6,887.3,1014.6"/>
		<path id="path248" fill="#231F20" d="M953.4,954.4c0,0.5,1.9,1.8,6.6,1.8s7.6-1.6,7.6-1.6s-3.8-1.9-9.3-1.5
			C952.8,953.3,953.4,954.2,953.4,954.4"/>
		<path id="path250" fill="#231F20" d="M941.9,958.5c0,0-0.5,1.5,1.9,1c2.4-0.5,4.4-1.1,5-1.1c0.6,0,0.9-0.8-1.4-1.2
			c-2.3-0.4-4.1-1-6.5-2c-3.7-1.5-5.9-0.1-3.1,1.6C938.5,957.2,941.9,958.5,941.9,958.5"/>
		<path id="path252" fill="#231F20" d="M918.4,964.9c-0.4,0.1-0.2,1,0.8,0.9C920.2,965.7,919.1,964.8,918.4,964.9"/>
		<path id="path254" fill="#231F20" d="M916.5,963c-0.1,0.5,0,0.8,0.8,1c0.8,0.2,3.1,0.4,3.7,0.5c0.6,0.1,2.3-0.2,3.3-0.5
			c1.1-0.3,3.7-1.1,6.6-1.7c2.9-0.6,8.2-1.9,8.2-1.9s-5.5-0.6-9-1c-3.6-0.4-9.3,0.2-11.1,1.2C917.3,961.6,916.7,962.1,916.5,963"/>
		<path id="path256" fill="#231F20" d="M898.2,971.5c0,0.5,3.6-0.3,5.1-0.2c1.5,0.1,4.6,0,4.6,0s1.7-1.1,4.1-2.2
			c2.4-1.1,5.4-2.2,4.8-3.1c-0.6-0.9-3.4-1.6-11.9,1C897.7,969.1,898.2,971.2,898.2,971.5"/>
		<path id="path258" fill="#231F20" d="M900.2,972.9c0,0.5,2,1,2.7,1c0.7,0,2.4-0.7,2.3-1.4c-0.1-0.7-1.7-0.5-2.7-0.3
			C901.6,972.4,900.2,972.4,900.2,972.9"/>
		<path id="path260" fill="#231F20" d="M885.2,984.2c0,0,2.3-1.5,3.8-1.9c1.6-0.4,4.4-0.5,4.4-0.5s3.3-2.3,4.6-3.6
			c1.4-1.3,3.9-3.3,3.9-3.3s-0.5-0.7-1.5-0.8c-1-0.2-2.3-0.3-2.3-0.3s-5,1.8-8.3,4.2C883.8,982.3,885.2,984.2,885.2,984.2"/>
		<path id="path262" fill="#231F20" d="M888.1,986.2c1.3,0,2.2-0.7,3-1.6c0.8-0.8,1.2-1.4,1.2-1.4s-0.7-1-3.4,0.3
			C886.2,984.8,885.5,986.2,888.1,986.2"/>
		<path id="path264" fill="#231F20" d="M878.4,1003c1,0.1,2.5-1.4,2.7-1.9c0.3-0.8,1.8-4.9,3-7.2c1.3-2.3,3.5-5.6,3.8-6.1
			c0.4-0.5,0.1-0.6-0.7-0.8c-0.8-0.3-2.2-0.6-2.2-0.6s-7.9,7.2-7.9,13.8C877.3,1001.3,877.6,1002.9,878.4,1003"/>
		<path id="path266" fill="#231F20" d="M911.9,1029.8c1-1.1,1.1-2.2,1.1-2.2s-2.5,0-5.3,1c-2.7,1-4.7,3.2-1.1,3.3
			C908.6,1031.9,910.8,1031,911.9,1029.8"/>
		<path id="path268" fill="#231F20" d="M925.7,1033c0,0-3.5,0.2-4.6,0.8c-1.1,0.6-2.1,2.5,0.8,2.5c0.8,0,2.7-0.8,3.3-1.5
			C925.7,1034.1,925.7,1033,925.7,1033"/>
		<path id="path270" fill="#231F20" d="M935.4,1036.8c0,0-1.4,0.2-2.4,0.6c-1.1,0.5-1.5,0.9-1.1,1.4c0.4,0.5,1.1,0.5,1.9,0.1
			c0.8-0.4,1.4-1,1.6-1.2C935.6,1037.4,935.4,1036.8,935.4,1036.8"/>
		<path id="path272" fill="#231F20" d="M944.7,1041.6c0.3,0.2,0.8-0.1,1-0.4c0.1-0.3,0.2-0.7-0.2-0.9c-0.4-0.2-0.5,0-0.8,0.4
			C944.4,1040.9,944.4,1041.4,944.7,1041.6"/>
		<path id="path274" fill="#231F20" d="M970.9,1039.3c0.5,0,1.1,0.6,1.1,1.4c0,1.5-1.1,1.5-1.1,1.5h0c0,0-1.1,0-1.1-1.5
			C969.8,1039.9,970.4,1039.3,970.9,1039.3L970.9,1039.3"/>
		<path id="path276" fill="#231F20" d="M1029.9,1029.8c-1-1.1-1.1-2.2-1.1-2.2s2.5,0,5.3,1c2.7,1,4.7,3.2,1.1,3.3
			C1033.2,1031.9,1031.1,1031,1029.9,1029.8"/>
		<path id="path278" fill="#231F20" d="M1016.2,1033c0,0,3.5,0.2,4.6,0.8c1.1,0.6,2.1,2.5-0.8,2.5c-0.8,0-2.7-0.8-3.3-1.5
			C1016.2,1034.1,1016.2,1033,1016.2,1033"/>
		<path id="path280" fill="#231F20" d="M1006.4,1036.8c0,0,1.4,0.2,2.4,0.6c1.1,0.5,1.5,0.9,1.1,1.4c-0.4,0.5-1.1,0.5-1.9,0.1
			c-0.8-0.4-1.4-1-1.6-1.2C1006.3,1037.4,1006.4,1036.8,1006.4,1036.8"/>
		<path id="path282" fill="#231F20" d="M997.1,1041.6c-0.3,0.2-0.8-0.1-1-0.4c-0.1-0.3-0.2-0.7,0.2-0.9c0.4-0.2,0.5,0,0.8,0.4
			C997.5,1040.9,997.4,1041.4,997.1,1041.6"/>
	</g>
</g>
</svg>
