<?xml version="1.0" encoding="utf-8"?>
<!-- Generator: Adobe Illustrator 18.0.0, SVG Export Plug-In . SVG Version: 6.00 Build 0)  -->
<!DOCTYPE svg PUBLIC "-//W3C//DTD SVG 1.1//EN" "http://www.w3.org/Graphics/SVG/1.1/DTD/svg11.dtd">
<svg version="1.1"
	 id="svg2" xmlns:dc="http://purl.org/dc/elements/1.1/" xmlns:svg="http://www.w3.org/2000/svg" xmlns:rdf="http://www.w3.org/1999/02/22-rdf-syntax-ns#" xmlns:cc="http://creativecommons.org/ns#"
	 xmlns="http://www.w3.org/2000/svg" xmlns:xlink="http://www.w3.org/1999/xlink" x="0px" y="0px" viewBox="113.7 113.7 50 50"
	 enable-background="new 113.7 113.7 50 50" xml:space="preserve">
<g id="g10" transform="matrix(1.3333333,0,0,-1.3333333,0,277.33333)">
	<g id="g12" transform="scale(0.1)">
		<path fill="#FFFFFF" d="M680.2,1358.8V651.3h707.5v707.5H680.2z"/>
		<path fill="#FFFFFF" d="M1151.4,823.7c-0.1-0.8-0.2-1.6-0.3-2.3c0.3,0.3,0.7,0.6,1,0.9c3.9,3.3,8.2,4.1,11.9,3.1
			c0.2,1.6,0.3,3.2,0.3,4.7c-0.1-0.1-0.2-0.1-0.4-0.1C1160.7,828.3,1156,826.2,1151.4,823.7z"/>
		<path id="path16" fill="#937B41" d="M946.9,1038.7c0,63.8,42.6,115.6,94.8,115.6c52.3,0,94.9-51.9,94.9-115.6
			c0-63.8-42.6-115.7-94.9-115.7C989.5,923,946.9,974.9,946.9,1038.7z M942.4,1038.7c0-66.3,44.6-120.2,99.4-120.2
			c54.8,0,99.4,53.9,99.4,120.2c0,66.3-44.6,120.2-99.4,120.2C987,1158.9,942.4,1104.9,942.4,1038.7"/>
		<path id="path18" fill="#937B41" d="M883.4,1038.7c0,99,71,179.6,158.3,179.6c87.3,0,158.3-80.6,158.3-179.6
			c0-99.1-71-179.6-158.3-179.6C954.5,859,883.4,939.6,883.4,1038.7z M879,1038.7c0-101.5,73-184.1,162.8-184.1
			c89.8,0,162.8,82.6,162.8,184.1c0,101.5-73,184.1-162.8,184.1C952,1222.8,879,1140.2,879,1038.7"/>
		<path id="path20" fill="#937B41" d="M1169.9,967.9l-0.5,1.8h-24.8l-0.2-1.8H1169.9"/>
		<path id="path22" fill="#937B41" d="M1158.3,996.5v-1.9h0.9v-2.2h-1.1v-1.6c3.6-0.1,2.8-5.3,2.8-5.3c3.7-0.7,3.2-4.1,3.2-4.1
			c0-4.3-4.5-4-4.5-4c0.8-3.4,4.7-2.9,4.7-2.9c3.5,0,3.6,2.5,3.6,2.5c-3.1,2.1-1.7,4.9-1.7,4.9c1.2,3.2,4.3,2.5,4.3,2.5
			c0.1,1.9,2.5,3.4,2.5,3.4c3.5,1.2,2.8-1.3,2.8-1.3l-6.3-15.9l-25.4,0l-6.3,15.9c0,0-0.7,2.5,2.8,1.3c0,0,2.4-1.4,2.5-3.4
			c0,0,3.1,0.7,4.3-2.5c0,0,1.4-2.8-1.7-4.9c0,0,0.1-2.5,3.6-2.5c0,0,3.9-0.4,4.7,2.9c0,0-4.4-0.3-4.4,4.1c0,0-0.4,3.3,3.2,4
			c0,0-0.7,5.2,2.8,5.3v1.6h-1.9v2.2h1.7v1.9L1158.3,996.5"/>
		<path id="path24" fill="#937B41" d="M937.4,967.9l-0.5,1.8h-24.8l-0.2-1.8H937.4"/>
		<path id="path26" fill="#937B41" d="M925.9,996.5v-1.9h1v-2.2h-1.2v-1.6c3.6-0.1,2.8-5.3,2.8-5.3c3.6-0.7,3.2-4.1,3.2-4.1
			c0-4.3-4.5-4-4.5-4c0.9-3.4,4.8-2.9,4.8-2.9c3.5,0,3.6,2.5,3.6,2.5c-3.1,2.1-1.7,4.9-1.7,4.9c1.3,3.2,4.3,2.5,4.3,2.5
			c0.1,1.9,2.5,3.4,2.5,3.4c3.5,1.2,2.8-1.3,2.8-1.3l-6.3-15.9l-25.4,0l-6.3,15.9c0,0-0.7,2.5,2.8,1.3c0,0,2.4-1.4,2.5-3.4
			c0,0,3.1,0.7,4.4-2.5c0,0,1.4-2.8-1.7-4.9c0,0,0.1-2.5,3.6-2.5c0,0,3.9-0.4,4.7,2.9c0,0-4.5-0.3-4.5,4.1c0,0-0.4,3.3,3.2,4
			c0,0-0.7,5.2,2.8,5.3v1.6h-1.9v2.2h1.7v1.9L925.9,996.5"/>
		<path id="path28" fill="#937B41" d="M1052.6,1101.6c0,0-18.1,5-33.4-1.9v-7.8c0,0,4,3.6,11.2,3.4c0,0,5.4,0,5.4-5.9v-61.2
			c0,0,7.9-2.1,12.3,0.5v66.9C1048.1,1095.7,1047.8,1100.5,1052.6,1101.6"/>
		<path id="path30" fill="#937B41" d="M1061.9,1100.6c0,0,13.4-4.2,19.4-10.6c0,0-2.9-3-2.9-4.7v-72.5c0,0,7.7,2.2,19.9,18.8v42.7
			c0,0,0,1.5-1.2,2.9c0,0,3.9-2.2,12.1-17.6c0,0,1.8-4,4.9-5c0,0-4.9-1.5-4.9-6.2V997c0,0-0.5-5.2,4.9-3.2c0,0-3-14.4-18.8-32
			c0,0,2.8,6.7,2.8,14.7v43.2c0,0-10.4-12.9-19.9-17.1v-45.4c0,0,0.3-6.2,7-5.3c0,0-7.9-7.5-24.1-13.1c0,0,5.2,6.9,5.2,11.1v140
			C1066.4,1089.9,1068.1,1093.8,1061.9,1100.6"/>
		<path id="path32" fill="#937B41" d="M1004.3,999.3c0,0,3.7-2.8,11.4-5v-45.4c0,0-0.5-5.5,5.2-9.7c0,0-13.1,3-23.4,12.1
			c0,0,6.4-1.5,6.9,5.2V999.3"/>
		<path id="path34" fill="#937B41" d="M1081.9,1054.4v-15.1c14.6,11.9,12.9,41.9,12.9,41.9c-3.7,59.6-50.9,58.4-50.9,58.4
			c-34.3,0.1-46-14.2-46-14.2c7.9-1.7,6.9-2.2,6.9-2.2v-107c3.8-3.7,11.4-5.9,11.4-5.9v13.9c13.7-7.4,24.9-6.5,24.9-6.5
			c14.1-0.3,23,4.9,23,4.9v8.2c0,0-8-5.9-21.9-5.9c0,0-16.1-1.3-26,10.1v87.7c0,0,1.2,11,26.8,10.3c0,0,42.7,1.8,43.5-53.6
			C1086.5,1079.5,1087.3,1059.8,1081.9,1054.4"/>
		<path id="path36" fill="#937B41" d="M1035.7,1015.4c0,0,7.7-1.2,12.2,0.3v-69.3c0,0-0.8-7.1,6.4-9.1c0,0-11.4-3.8-25.3,0.2
			c0,0,6.7,2.9,6.7,7.1v49.1c0,0-32.1,1-51.3,25.1v-45.5c0,0-0.4-6.1,2.2-11.9c0,0-13.2,13.2-19.6,32.3c0,0,4.7,0,4.7,5v51.9
			c0,0,0.3,2-2.9,3.7c0,0,7.7,22.6,31.8,37.2v-7.9c0,0-13-6.7-15.6-19.9v-31.3c0,0,11.7-25.8,50.6-30.8L1035.7,1015.4"/>
		<path id="path38" fill="#554932" d="M971.2,898.1c-4.5-4.9,0.7-7-0.6-8.5c-0.5-0.5-0.7-0.2-1.2,0.3c-1.2,1.1-3.3,3.3-4.8,4.7
			c-1.4,1.2-3,2.4-4.9,4.1c-0.5,0.5-0.6,0.9-0.4,1.1c1.2,1.4,3-2.2,6.4,1.6l6.3,7c1.5,1.6,2,2,0.3,3.5l-10,9.1
			c-1.7,1.6-2.2,1.3-3.7-0.4l-5.5-6.1c-4.4-4.8,1.6-7.6,0.3-9c-0.2-0.2-0.4-0.6-1.6,0.5c-1.5,1.4-2.6,2.7-5.3,5.1
			c-1.6,1.4-3.3,2.7-5.2,4.4c-0.5,0.4-0.8,0.8-0.3,1.3c1.4,1.5,3.3-2.8,7.7,2l15.7,17.2c3.8,4.2-1.9,6.4-0.6,7.8
			c0.5,0.6,1.7-0.4,2.4-1c1.1-1,2.1-2.2,4.1-4c2.2-2,3.9-3.3,5-4.3c0.5-0.5,0.7-1,0.3-1.4c-1.1-1.2-2.9,2.6-6.1-0.9l-5.6-6.1
			c-0.9-1-1.3-1.7-0.5-2.4l11.1-10.1c1.1-1,2.1-0.3,2.9,0.6l5,5.4c3.8,4.2-1.5,6.6-0.5,7.7c0.6,0.7,0.9,0.3,1.4-0.1
			c1.5-1.4,2.4-2.4,4.7-4.6c1.9-1.8,3.5-2.9,5.1-4.4c0.6-0.6,0.7-0.8,0.4-1.2c-1.3-1.5-2.5,2.7-6-1.1L971.2,898.1"/>
		<path id="path40" fill="#554932" d="M999,879.4c8.1-3.1,13.4,2.3,16.7,10.3c4.4,10.7,0.9,18.6-5.2,21c-8,3.1-13-2.6-15.9-9.7
			C991.7,894,990.6,882.7,999,879.4z M1012.8,912.2c9.2-3.6,13.6-12.7,9.5-22.9c-2.8-6.8-10.4-17.5-25.4-11.4
			c-9.4,3.8-13.1,12.9-9.1,22.8C992,911.3,1001.5,916.7,1012.8,912.2"/>
		<path id="path42" fill="#554932" d="M1041.9,901.9c-0.1,2.5-0.6,2.8-2.7,2.7l-4.3-0.1c-5.7-0.2-4-7-6.3-7.1
			c-1.1,0-0.8,1.1-0.7,1.8l0.6,6.9c0,0.5,0,1.3,0.8,1.2c4.7,0.2,8.1,0.1,15.5,0.3c7.4,0.2,10.8,0.6,15.5,0.7c0.8,0,0.8-0.7,0.9-1.2
			l0.7-4.8c0.1-0.6,0.8-2.6-0.6-2.7c-2-0.1-0.6,5.8-6.4,5.4l-4.3-0.1c-2.1-0.1-2.6-0.4-2.5-2.9l0.8-23.6c0.2-6.4,6.6-4.7,6.7-6.1
			c0-1.3-1-1.1-2.4-1.2c-2-0.1-3.7,0.1-7.1,0c-3.4-0.1-5.1-0.4-7.1-0.4c-0.9,0-1.7-0.1-1.8,1c-0.1,2,5.7-0.3,5.5,5.9L1041.9,901.9"
			/>
		<path id="path44" fill="#554932" d="M1079,901.8c0.8-2.1,1-2.4,3-1.7l2.9,1.2c4.1,1.6,2.5,6.1,3.4,6.5c0.3,0.1,0.8,0.4,1.4-0.9
			l3.7-8.5c0.3-0.6,1.3-2.3,0.1-2.7c-1.5-0.6-2.2,5.1-7.1,3.2l-3.5-1.3c-2.2-0.9-1.8-1.4-0.7-4.2l2.4-6.2c1.2-3,1.7-4.9,5.1-3.5
			c11.7,4.5,8.6,10.6,10.4,11.3c0.2,0.1,0.6,0.1,0.9-0.9c1.5-3.8,0.2-8.9-3.7-10.4c-7.2-2.8-10.1-3.7-12.4-4.6
			c-1.5-0.5-3.4-1.5-6-2.5c-0.6-0.2-1-0.1-1.1,0.2c-0.9,2.3,3.7,1,1.4,6.9l-8.8,22.8c-1.7,4.4-6.4,0.8-7.2,2.7c-0.2,0.4,0,1,0.7,1.2
			c1.9,0.7,5.4,1.9,12.7,4.7c3.3,1.3,6.5,2.7,10.7,4.3c0.6,0.2,1.1-0.1,1.3-0.6l2.1-4.8c0.3-0.6,1.1-2.1,0-2.6
			c-2.2-0.9-0.7,6.3-9.8,2.7c-5.7-2.2-5.9-2.3-4.6-5.7L1079,901.8"/>
		<path id="path46" fill="#554932" d="M1118.1,906c2-2.6,3-4.2,5.9-2c9.9,7.7,5.2,12.7,6.7,13.8c0.2,0.1,0.5,0.2,1.1-0.6
			c2.5-3.2,2.7-8.4-0.6-11c-6.1-4.7-8.7-6.4-10.6-7.9c-1.3-1-2.8-2.4-5-4.1c-0.5-0.4-0.9-0.4-1.1-0.1c-1.5,1.9,3.3,2-0.6,7.1
			l-15,19.6c-2.7,3.5-6.4-1.1-7.5,0.4c-0.3,0.4-0.1,1,0.8,1.7c1.6,1.2,4,2.9,5.6,4c3.4,2.6,3.8,3.2,4.4,3.7c0.9,0.7,1.1,0.8,1.4,0.3
			c1.2-1.6-2.8-2.2-0.4-5.4L1118.1,906"/>
		<path id="path48" fill="#554932" d="M917.7,1047.1c0,0.9,0.1,1.6-0.4,1.6c-0.7,0-1.3-0.3-1.9-0.5l-9.4-3.8
			c-0.4-0.3-0.4-0.2-0.4-0.4c0-0.1,0.1-0.3,0.6-0.6l9-4.2c0.6-0.3,1.2-0.6,1.9-0.6c0.5,0,0.5,0.7,0.5,1.6L917.7,1047.1z
			 M920.3,1038.7c0-0.9,0.2-1.9,3.5-3.2c1-0.4,2.8-1.2,4-1.2c3.7-0.1,3,5.3,4.4,5.3c1.1,0,0.7-1.6,0.6-2.7c0-1.6-0.3-3.1-0.4-4.7
			c-0.1-1.5,0.1-3,0.1-4.4c0-0.7,0.1-1.5-0.6-1.5c-1.2,0-0.8,2.6-3.6,3.9l-30.6,14.6c-0.8,0.4-1.8,0.7-1.7,1.3
			c0,0.4,0.1,0.5,1.7,1.2l31.8,12.5c3.7,1.5,1.8,4.3,3.5,4.2c0.9,0,0.8-0.5,0.7-1.9c-0.1-1.8-0.3-3.2-0.4-6.5
			c-0.1-2.2,0.1-4.1,0-5.5c0-0.9,0.1-1.6-0.7-1.5c-1.5,0-0.8,3.6-3.9,3.7c-1.1,0-2.1-0.3-3.5-0.8c-4-1.5-4.6-1.7-4.6-3.1
			L920.3,1038.7"/>
		<path id="path50" fill="#554932" d="M979.7,1166.3c0.8,0.5,1.4,0.8,1.1,1.3c-0.4,0.6-1,0.9-1.5,1.3l-8.5,5.4
			c-0.5,0.2-0.4,0.3-0.6,0.1c-0.1-0.1-0.2-0.2-0.1-0.8l1.8-9.7c0.1-0.6,0.2-1.3,0.6-1.9c0.3-0.4,0.8,0,1.6,0.5L979.7,1166.3z
			 M974.3,1159.4c-0.7-0.5-1.5-1.2-0.6-4.7c0.3-1.1,0.7-2.9,1.4-4c2.1-3.1,6.1,0.6,6.9-0.5c0.6-0.9-0.9-1.5-1.8-2
			c-1.4-0.9-2.7-1.6-4.1-2.4c-1.3-0.8-2.4-1.8-3.5-2.6c-0.6-0.4-1.2-0.9-1.6-0.4c-0.7,1,1.7,2.1,1.1,5.2l-5.9,33.3
			c-0.2,0.9-0.5,1.8,0.1,2.2c0.4,0.2,0.5,0.2,1.9-0.7l28.7-18.6c3.3-2.1,4.5,1,5.4-0.4c0.5-0.7,0-0.9-1.1-1.6
			c-1.5-1-2.7-1.6-5.5-3.4c-1.8-1.2-3.3-2.4-4.5-3.2c-0.8-0.5-1.2-0.9-1.6-0.3c-0.8,1.2,2.4,2.7,0.7,5.3c-0.6,0.9-1.4,1.5-2.7,2.4
			c-3.6,2.4-4.1,2.7-5.2,2L974.3,1159.4"/>
		<path id="path52" fill="#554932" d="M1098.3,1168.8c0.8-0.5,1.4-0.9,1.6-0.4c0.4,0.6,0.4,1.2,0.5,1.9l1.4,10.1
			c0,0.5,0.1,0.4-0.1,0.6c-0.1,0.1-0.3,0.1-0.8-0.2l-8.1-5.7c-0.5-0.4-1.1-0.7-1.5-1.3c-0.3-0.4,0.4-0.8,1.1-1.2L1098.3,1168.8z
			 M1089.8,1170.9c-0.7,0.5-1.7,0.8-4.5-1.4c-0.8-0.7-2.4-1.8-3-2.9c-2-3.1,3.1-5.3,2.4-6.5c-0.6-0.9-1.7,0.2-2.6,0.8
			c-1.4,0.9-2.5,1.8-3.9,2.7c-1.3,0.8-2.6,1.4-3.9,2.1c-0.6,0.4-1.3,0.7-1,1.3c0.6,1,2.6-0.6,5.2,1.2l27.9,19.2
			c0.7,0.5,1.5,1.2,2,0.9c0.4-0.2,0.4-0.4,0.2-2l-5-33.8c-0.6-3.9,2.8-3.7,1.9-5.1c-0.5-0.8-0.8-0.4-1.9,0.3c-1.5,1-2.6,1.8-5.4,3.6
			c-1.9,1.2-3.6,2-4.8,2.7c-0.8,0.5-1.4,0.7-1,1.3c0.8,1.3,3.5-1.1,5.2,1.6c0.6,1,0.8,1.9,1,3.4c0.7,4.3,0.8,4.8-0.4,5.5
			L1089.8,1170.9"/>
		<path id="path54" fill="#554932" d="M1148.6,1113.3c0.4-0.8,0.7-1.4,1.2-1.2c0.6,0.3,1,0.9,1.4,1.4l6.3,8c0.2,0.5,0.3,0.3,0.2,0.5
			c0,0.1-0.2,0.3-0.8,0.2l-9.8-0.8c-0.7-0.1-1.3-0.1-1.9-0.4c-0.4-0.2-0.1-0.8,0.3-1.6L1148.6,1113.3z M1142.3,1119.4
			c-0.4,0.7-1.1,1.6-4.6,1c-1.1-0.2-3-0.4-4.1-1c-3.3-1.7,0-6.1-1.2-6.8c-0.9-0.5-1.4,1-1.9,2c-0.8,1.4-1.3,2.9-2,4.3
			c-0.7,1.3-1.6,2.5-2.3,3.8c-0.3,0.6-0.8,1.3-0.2,1.6c1,0.6,1.9-1.9,5.1-1.6l33.7,2.5c0.9,0.1,1.8,0.3,2.2-0.3
			c0.2-0.4,0.2-0.5-0.9-1.8l-21.3-26.6c-2.5-3.1,0.6-4.6-0.9-5.4c-0.8-0.4-0.9,0.1-1.5,1.3c-0.9,1.6-1.3,2.9-2.9,5.8
			c-1,2-2.1,3.5-2.7,4.8c-0.4,0.8-0.8,1.3-0.2,1.7c1.3,0.7,2.5-2.7,5.2-1.3c1,0.5,1.7,1.3,2.6,2.4c2.7,3.3,3.1,3.8,2.5,4.9
			L1142.3,1119.4"/>
		<path id="path56" fill="#554932" d="M928.6,1079.4c3-0.9,4.8-1.6,5.8,1.8c3.6,11.9-3.1,13.2-2.5,15c0,0.2,0.3,0.5,1.2,0.2
			c3.8-1.1,7-5.2,5.8-9.1c-2.2-7.3-3.2-10.1-3.9-12.5c-0.4-1.5-0.9-3.6-1.6-6.2c-0.2-0.6-0.5-0.8-0.8-0.7c-2.3,0.7,1.5,3.5-4.5,5.3
			l-23.2,7c-4.2,1.3-4.5-4.6-6.2-4.1c-0.4,0.1-0.7,0.8-0.4,1.8c0.6,1.9,1.6,4.7,2.2,6.5c1.2,4.1,1.2,4.7,1.4,5.5
			c0.3,1,0.4,1.2,1,1.1c1.9-0.6-1-3.4,2.8-4.6L928.6,1079.4"/>
		<path id="path58" fill="#554932" d="M1118.1,1142.9c-2.4-2-4-3-1.7-5.8c7.9-9.6,12.6-4.8,13.8-6.3c0.1-0.1,0.2-0.5-0.5-1.1
			c-3.1-2.5-8.2-2.9-10.8,0.2c-4.8,5.9-6.6,8.4-8.2,10.3c-1,1.2-2.5,2.7-4.3,4.8c-0.4,0.5-0.4,0.9-0.2,1.1c1.8,1.5,2.1-3.2,7,0.8
			l18.7,15.4c3.4,2.8-1.3,6.3,0.1,7.4c0.4,0.3,1,0.1,1.7-0.7c1.3-1.5,3-3.9,4.2-5.4c2.7-3.3,3.3-3.6,3.8-4.2c0.7-0.8,0.8-1,0.3-1.4
			c-1.5-1.2-2.3,2.7-5.3,0.2L1118.1,1142.9"/>
		<path id="path60" fill="#554932" d="M946.9,1104.7c0.9-1.1,1.1-1.5,0.9-2c-0.2-0.4-0.9-0.7-3.2-0.5l-32.3,2.1
			c-2.2,0.1-3-0.2-4.4-1.9c-0.1-0.1-0.7-0.6-1-0.4c-1.1,0.5-0.1,1.7,0.3,2.4c0.7,1.5,1.7,2.9,2.4,4.4c1.4,2.9,1.9,4.3,2.3,5
			c0.7,1.4,0.8,1.7,1.5,1.3c1.3-0.6-0.8-3,1.1-3.9c1.4-0.7,3.8-1.2,7.2-1.4l17.7-1.5c0.4,0,1.1-0.1,1.3,0.2c0.1,0.3-0.4,0.8-0.7,1.1
			l-10.9,13.1c-2.4,2.9-4,3.8-4.7,4.1c-4.3,2.1-4.8-3.2-6.5-2.5c-0.9,0.4-0.1,1.7,0.2,2.2c0.6,1.3,1.4,2.5,2.1,3.8
			c0.6,1.3,1.1,2.6,1.7,3.9c0.5,0.9,0.7,1.7,1.4,1.3c1.1-0.5-0.1-2.3,2-4.8L946.9,1104.7"/>
		<path id="path62" fill="#554932" d="M941.4,1141.5c1.7-1.4,2-1.7,3.4,0l2,2.4c2.8,3.3-0.7,6.5-0.1,7.2c0.2,0.3,0.5,0.8,1.6-0.1
			l7.2-5.6c0.5-0.4,2.2-1.3,1.4-2.3c-1-1.2-4.3,3.3-7.6-0.7l-2.4-2.9c-1.5-1.8-0.9-2,1.4-3.9l5-4.2c2.5-2,3.7-3.4,6.1-0.6
			c8,9.6,2.4,13.3,3.6,14.8c0.1,0.2,0.5,0.3,1.2-0.3c3.1-2.6,4.4-7.5,1.8-10.7c-4.9-5.9-7-8-8.6-10c-1-1.2-2.2-2.9-3.9-5.1
			c-0.4-0.5-0.8-0.6-1-0.4c-1.8,1.5,2.8,2.7-2,6.7l-18.4,15.4c-3.5,2.9-5.9-2.5-7.5-1.2c-0.4,0.3-0.4,0.9,0,1.4
			c1.3,1.6,3.8,4.2,8.7,10.1c2.3,2.7,4.3,5.5,7.2,8.9c0.4,0.5,1,0.4,1.4,0.1l4-3.1c0.5-0.4,2-1.3,1.3-2.2c-1.5-1.8-3.6,5-9.8-2.4
			c-3.9-4.7-4-4.8-1.3-7.1L941.4,1141.5"/>
		<path id="path64" fill="#554932" d="M1174.2,1048c-2.2,0-2.6,0-2.6-2.2v-3.2c0-4.3,4.7-4.5,4.7-5.5c0-0.3,0.1-0.9-1.3-1l-9.1-0.3
			c-0.7,0-2.5-0.3-2.5,0.9c0,1.6,5.5,0.2,5.5,5.4l0,3.7c0,2.3-0.6,2.1-3.6,2.1l-6.5,0c-3.2,0-5,0.2-5.1-3.4
			c0-12.5,6.7-11.8,6.7-13.7c0-0.2-0.2-0.6-1.1-0.5c-4,0-8.2,3-8.2,7.1c0,7.6,0.2,10.7,0.2,13.2c0,1.6-0.2,3.7-0.2,6.4
			c0,0.7,0.2,1,0.6,1c2.3,0-0.4-3.8,5.8-3.8l24,0c4.6,0,3,5.7,5,5.7c0.4,0,0.9-0.4,0.9-1.1c0-2.1-0.2-5.7-0.2-13.4
			c0-3.6,0.2-7,0.2-11.5c0-0.6-0.5-1-1-1l-5.1-0.2c-0.7,0-2.4-0.3-2.4,0.9c0,2.4,6-1.6,6,8.1c0,6.1-0.1,6.3-3.6,6.3L1174.2,1048"/>
		<path id="path66" fill="#554932" d="M1010,1187c0.3-1.3,2.1-0.8,3.6-0.5c7.4,1.7,7.1,4.6,6.4,7.5c-1.1,4.9-4.7,8-9.6,6.8
			c-1.8-0.4-3.3-0.8-2.6-3.8L1010,1187z M1001.9,1194.6c-1.3,5.6-6.2,2.5-6.6,4.3c-0.1,0.5,0.3,0.9,0.9,1c2.2,0.5,2.7,0.4,5.8,1.1
			c3.3,0.8,6.6,1.7,9.8,2.4c10.7,2.5,13.3-4.4,13.8-6.7c0.7-3.2-0.3-5.4-1.4-6.9c-1.2-1.5-2.5-2.2-2.4-2.7
			c0.1-0.3,5.9-6.6,10.9-12.1c0.6-0.7,1.6-0.5,2-0.4c0.5,0.1,0.9,0.5,1.4,0.6c0.4,0.1,0.8-0.1,0.9-0.5c0.4-1.6-2.6-3.4-4.6-3.8
			c-3.9-0.9-6.1,1.9-8.3,4.5l-5.9,6.9c-1.6,1.9-2.6,2.2-5.1,1.6c-2.6-0.6-2.2-0.9-1.8-2.6l2-8.6c1.2-5.3,5.6-2.2,6-4
			c0.1-0.5-0.2-0.8-1.3-1.1c-0.8-0.2-2.2-0.3-4.3-0.8c-2.6-0.6-5-1.4-7.5-1.9c-0.6-0.1-1.5-0.5-1.8,0.5c-0.4,1.6,4,0.9,2.5,7.2
			L1001.9,1194.6"/>
		<path id="path68" fill="#554932" d="M1065.6,1176c-1.5-6.2,3.9-5.5,3.5-7.2c-0.2-0.8-0.6-0.6-1.3-0.5c-3.4,0.8-5.5,1.5-6.6,1.8
			c-2,0.5-5.8,1.1-6.1,1.2c-0.1,0-1,0.1-0.9,1c0.3,1.4,4-0.6,5.5,5.7l5.1,21.9c1.2,5.3-4.3,4.4-3.9,6.3c0.1,0.3,0.4,0.9,1.6,0.6
			c0.3-0.1,3-0.9,6.7-1.8c0.7-0.2,4.2-0.8,7.7-1.6c6.3-1.4,11.8-5.3,10.1-12.5c-1.4-6.2-6.9-9-12.7-7.6c-4.8,1.1-4.8,2.4-4.7,2.6
			c0.1,0.4,0.3,0.9,0.9,0.8c0.4-0.1,1.2-0.6,2.2-0.8c5.9-1.4,7.7,4.2,8,5.5c0.4,1.3,1.6,8.7-6,10.4c-2.2,0.5-3.2-0.3-3.7-2.5
			L1065.6,1176"/>
		<path id="path70" fill="#554932" d="M1172.5,1065.2c-0.5-0.1-1.6-0.6-1.8,0.3c-0.1,0.8,0.9,1.3,1.4,1.8c4.4,3.4,7.9,8.6,6.9,14.4
			c-1.4,7.3-9.2,10.1-15.9,8.8c-7.1-1.3-16.4-7.2-14.6-16.7c1.4-7.7,8.7-9.9,8.9-11.2c0-0.2-0.1-0.7-0.4-0.8
			c-2-0.4-10.6,3.5-12.6,14.1c-2.7,14.6,9.8,19.2,13.8,20c8.4,1.6,20.5-1.5,22.9-14.1c1.1-6-1.2-10.4-1-11.9c0.2-0.9,1.9-0.7,2-1.4
			c0.1-0.3,0.1-0.6-0.2-0.6L1172.5,1065.2"/>
	</g>
</g>
</svg>
