<?xml version="1.0" encoding="utf-8"?>
<!-- Generator: Adobe Illustrator 18.0.0, SVG Export Plug-In . SVG Version: 6.00 Build 0)  -->
<!DOCTYPE svg PUBLIC "-//W3C//DTD SVG 1.1//EN" "http://www.w3.org/Graphics/SVG/1.1/DTD/svg11.dtd">
<svg version="1.1"
	 id="svg2" xmlns:dc="http://purl.org/dc/elements/1.1/" xmlns:svg="http://www.w3.org/2000/svg" xmlns:rdf="http://www.w3.org/1999/02/22-rdf-syntax-ns#" xmlns:cc="http://creativecommons.org/ns#"
	 xmlns="http://www.w3.org/2000/svg" xmlns:xlink="http://www.w3.org/1999/xlink" x="0px" y="0px" viewBox="383 503 50 50"
	 enable-background="new 383 503 50 50" xml:space="preserve">
<g id="g10" transform="matrix(1.3333333,0,0,-1.3333333,0,1056)">
	<g id="g12">
		<g>
			<defs>
				<rect id="SVGID_1_" x="280.1" y="363.1" width="51.8" height="67.1"/>
			</defs>
			<clipPath id="SVGID_2_">
				<use xlink:href="#SVGID_1_"  overflow="visible"/>
			</clipPath>
			<g id="g14" clip-path="url(#SVGID_2_)">
				<g id="g20" transform="translate(587.5938,461.9053)">
					<path id="path22" fill="#0F7DC2" d="M-263.7-61.1c-1.7,8.3-17.8,8.8-28.1,2.5v-0.7c10.4,5.3,25,5.3,26.4-2.3
						c0.4-2.5-1-5.2-3.5-6.7v-2C-265.9-69.2-262.8-65.5-263.7-61.1 M-282.5-75.6c-7.1-0.7-14.6,0.4-15.6,6c-0.5,2.8,0.7,5.7,2.4,7.5
						v1c-3-2.6-4.6-6-3.7-9.9c1.2-5,7.6-7.9,17.4-6.9c3.9,0.4,8.9,1.6,12.4,3.5v2.7C-272.9-73.6-278.1-75.2-282.5-75.6"/>
				</g>
				<g id="g24" transform="translate(484.4795,480.8857)">
					<path id="path26" fill="#0F7DC2" d="M-167.1-78.9h-1.9v-8.3c0-1,0.5-1.8,1.9-2V-78.9z"/>
				</g>
				<g id="g28" transform="translate(133.1001,432.8975)">
					<path id="path30" fill="#0F7DC2" d="M161.9-33.9H160l0-5.5c0-1,0.5-1.8,1.9-2V-33.9z"/>
				</g>
				<path id="path32" fill="#0F7DC2" d="M293.1,400h1.9v1.8h-1.9V400z"/>
				<g id="g34" transform="translate(309.8301,317.4502)">
					<path id="path36" fill="#0F7DC2" d="M-3.6,74.2c-1.5,0-2.2,1.1-2.2,2.1v7.2h1.9v-2h1.4V80h-1.4v-3.6c0-0.4,0.2-0.7,0.6-0.7h0.8
						v-1.5H-3.6"/>
				</g>
				<g id="g38" transform="translate(387.4375,410.6606)">
					<path id="path40" fill="#0F7DC2" d="M-76.3-13.1c-0.6,0-1.1-0.3-1.3-0.8c-0.1-0.3-0.2-0.5-0.2-0.8h2.9
						C-74.9-13.9-75.3-13.1-76.3-13.1 M-77.8-15.9c0-1,0.6-1.6,1.6-1.6c0.8,0,1.2,0.2,1.7,0.7l1.1-1.1c-0.7-0.7-1.5-1.2-2.9-1.2
						c-1.8,0-3.5,1-3.5,3.8c0,2.4,1.5,3.8,3.4,3.8c2,0,3.1-1.6,3.1-3.7v-0.7H-77.8"/>
				</g>
				<g id="g42" transform="translate(212.5522,409.2695)">
					<path id="path44" fill="#0F7DC2" d="M87.5-11.8c0.5,0,0.8-0.3,0.8-0.7v-5.1h1.9v5.1c0,1-0.6,2.2-2.2,2.2l-3.8,0v-7.3H86v5.8
						H87.5z"/>
				</g>
				<g id="g46" transform="translate(518.5938,472.168)">
					<path id="path48" fill="#0F7DC2" d="M-199.1-70.7c0,0.1-0.1,0.1-0.2,0.1h-0.1h0v-0.3c0,0,0.1,0,0.1,0
						C-199.1-70.8-199.1-70.8-199.1-70.7L-199.1-70.7z M-198.9-71.3h-0.1c0,0,0,0,0,0l-0.2,0.3c0,0,0,0,0,0h-0.1h0v-0.3c0,0,0,0,0,0
						h-0.1c0,0,0,0,0,0v0.8c0,0,0,0.1,0.1,0.1c0,0,0.2,0,0.2,0c0.2,0,0.4-0.1,0.4-0.3v0c0-0.1-0.1-0.2-0.2-0.2L-198.9-71.3
						C-198.9-71.3-198.9-71.3-198.9-71.3C-198.9-71.3-198.9-71.3-198.9-71.3 M-199.2-70.3c-0.3,0-0.6-0.3-0.6-0.6
						c0-0.3,0.3-0.6,0.6-0.6c0.3,0,0.6,0.3,0.6,0.6C-198.6-70.6-198.9-70.3-199.2-70.3 M-199.2-71.6c-0.4,0-0.7,0.3-0.7,0.7
						c0,0.4,0.3,0.7,0.7,0.7c0.4,0,0.7-0.3,0.7-0.7C-198.5-71.3-198.8-71.6-199.2-71.6"/>
				</g>
			</g>
		</g>
	</g>
</g>
</svg>
