<?xml version="1.0" encoding="utf-8"?>
<!-- Generator: Adobe Illustrator 18.0.0, SVG Export Plug-In . SVG Version: 6.00 Build 0)  -->
<!DOCTYPE svg PUBLIC "-//W3C//DTD SVG 1.1//EN" "http://www.w3.org/Graphics/SVG/1.1/DTD/svg11.dtd">
<svg version="1.1"
	 id="svg2" xmlns:dc="http://purl.org/dc/elements/1.1/" xmlns:svg="http://www.w3.org/2000/svg" xmlns:rdf="http://www.w3.org/1999/02/22-rdf-syntax-ns#" xmlns:cc="http://creativecommons.org/ns#"
	 xmlns="http://www.w3.org/2000/svg" xmlns:xlink="http://www.w3.org/1999/xlink" x="0px" y="0px" viewBox="92.3 53 50 50"
	 enable-background="new 92.3 53 50 50" xml:space="preserve">
<g id="g10" transform="matrix(1.3333333,0,0,-1.3333333,0,156)">
	<g id="g12" transform="scale(0.1)">
		<path id="path14" fill="#5B1808" d="M778,595c0-3,0.6-6,1.6-8.2c1.2-2.8,4.2-6.3,7.7-8.1c2.4-1.3,5.5-2.1,8.9-2.4
			c8.8-0.7,24.6,3.7,30.9,4.3c9.8,1,15.6,0.8,21.8,1.9c6.8,1.3,9.3,3.7,11.4,6.6c4,5.7,4.6,10.4,5.7,14.9c1.2,5,1.5,13.4,1.5,21.8
			c0,6.2-0.2,12.5-0.4,17.8c-0.8,11.7-2.4,22.9-5.3,34.3c-0.8,3.1-2,5.9-3.3,8.4c-1.3,2.5-3,4.8-4.7,6.7c-4.3,4.8-9.8,8-15.6,9.9
			c-5.6,1.9-12,2.3-17.8,2.1c-4.9-0.1-10.8-0.9-15.4-1.8c-6.9-1.4-12.9-3.6-17.2-5.9c-2.8-1.5-6.1-4.2-8.8-7.7
			c-2.7-3.5-5.2-7.8-6.6-12.6c-1.3-4.8-1.6-10.2-0.5-15.7c1.3-6.9,4.3-11.4,9.3-17.1c4.9-4.2,13.6-8.1,20.3-9.5
			c7.8-1.6,16.9-0.9,24.6,1.1c6.7,1.8,13.2,5,19.2,9.1c1.1-5.7,1.5-11.9,1.1-20.1c-0.1-2.8,0.3-9.5-1.9-13.8
			c-3.6-7.1-6.3-8.5-15.2-10.1c-4.1-0.7-8-1.5-16.5-2.1c-4.4-0.3-12.7-2-14.9-1.2c-2.6,0.8-4.4,3.6-4.3,6.7c0,1.3,0.2,2,0.8,3.4
			c0.4,1,0.7,1.3,1.6,1.9c0.8,0.5,1.2,0.9,0.9,2.1c-0.3,1.2-3.2,1.1-6.1,0.4c-1.9-0.4-3.9-1.2-5.7-2.3c-1.6-1-3.3-2.4-4.6-4.7
			C778.6,601.6,778,599.5,778,595z M846.2,670.5c0.8-7.7-2.5-13.2-5.8-16.7c-3.6-3.7-10-7-16.9-7.8c-6.9-0.7-16.3,0.5-19.7,2.3
			c-3.4,1.8-6.3,4.3-8.3,6.9c-2,2.5-3.9,7.6-4.2,11.6c-0.4,4-0.1,7.4,1.4,11c1.5,3.6,6.7,8.7,12.2,11.3c5.4,2.6,13.9,4,23.3,3.1
			c5.3-0.6,9.2-2.7,13.2-7.5C844.6,680.9,845.6,676.8,846.2,670.5"/>
		<path id="path16" fill="#5B1808" d="M882.9,504.6c0.9,1.4,0.9,3.6,0.6,4.9c-0.2,1.3-1,2.9-3.3,2.9H857c-2.9-0.2-4.5-1.3-5.4-2.2
			c-0.6-0.6-1.1-1.5-1.3-2.5c-0.2-0.6,0.1-1.3,0.4-2c0.4-0.7,1-1.5,1.7-2.2c0.9-0.9,1.8-1.9,2.5-2.6c0.6-0.7,1-1.3,1.1-1.6
			c0.7-1.6-2.7-1.7-2.3-4.7c0.5,1.9,3.2,2.1,4.1,2.8s0.9,2.1,0.6,3.1c-0.2,0.7-2.5,2.7-2.9,3.8c-0.6,1.5,0,2.5,0.9,2.9
			c1.2,0.6,3.1,0.6,3.1,0.6h9.8c4.2,0,4.3-0.6,1.5-4.3l-21.5-28c-3.4-4.4-2.9-10.3,1.6-11.9h33.5c5.9,0.3,7,2.5,7,5.2
			c0,5.7-4.7,7.6-9,11c-1.4,1.1-2.8,2.5-3.9,4.1c-1,1.5,0.2,2.6,1.1,3.3c0.7,0.5,1.4,1.3,0.9,2.7c-0.5,1.3-1.2,3.3-1.2,4.7
			c-1.4-1.6-0.4-2.9-0.7-3.8c-0.4-1.6-0.7-1.6-1.7-2.4c-0.9-0.9-2.2-1.5-2.8-3.4c-0.6-1.9-0.2-3.2,0.8-5c0.6-1,1.4-1.9,2.1-2.7
			c2.2-2.5,4.3-4.2,1.2-4.4h-10.3c-1.9,0-5.4,0.3-3.3,3.4L882.9,504.6"/>
		<path id="path18" fill="#5B1808" d="M782.3,493.5c0,3.2,0,3.9,1.1,5.2c1.7,2.6,3.8,4.3,4.7,6.6c0.6,1.5,0.1,2.9-0.9,4.2
			c-0.4,0.5-1.7,1.2-2.5,1.6c-2.4,1-6.3,1.4-9.6,1.4c-3.3,0-5.4-0.5-7.3-1.2c-1.9-0.7-3.3-1.4-3.9-2.8c-1.2-2.6,1.8-4.5,3.7-6.4
			c1-1-1.6-1.1-1-3.5c0,2,2.2,1.8,2.6,2.9c0.3,0.9-0.2,1.6-1.3,2.7c-2.1,2.2-0.7,3.3,0.3,3.7c4.4,1.9,8.5,2.1,13.4,0.5
			c1.2-0.4,2.5-1.1,2.7-2.6c0.1-0.6-1.2-2.2-2.2-2.9c-2.7-2-7.5-3.6-11.6-6.4c-0.7-1.6,1.9-1.9,2-5l0-22c0-1-2.2-1.5-2.9-2.6
			c-0.6-1-0.7-2.4,1.7-2.7c2.1-0.3,3.5,0.4,6,0.4c2.5,0,4.7-0.9,6.6-0.2c1.9,0.7,1.3,2,0.7,2.7c-0.8,0.9-2.4,1.4-2.4,1.9V493.5"/>
		<path id="path20" fill="#5B1808" d="M1006.3,493.5c0,3.2,0,3.9,1.1,5.2c1.7,2.6,3.8,4.3,4.7,6.6c0.6,1.5,0.1,2.9-0.9,4.2
			c-0.4,0.5-1.7,1.2-2.5,1.6c-2.4,1-6.3,1.4-9.6,1.4c-3.3,0-5.4-0.5-7.3-1.2c-1.9-0.7-3.3-1.4-3.9-2.8c-1.2-2.6,1.8-4.5,3.7-6.4
			c1-1-1.6-1.1-1-3.5c0,2,2.2,1.8,2.6,2.9c0.3,0.9-0.2,1.6-1.3,2.7c-2.1,2.2-0.7,3.3,0.3,3.7c4.4,1.9,8.5,2.1,13.4,0.5
			c1.2-0.4,2.4-1.1,2.7-2.6c0.1-0.6-1.2-2.2-2.2-2.9c-2.7-2-7.5-3.6-11.6-6.4c-0.7-1.6,1.9-1.9,2-5l0-22c0-1-2.3-1.5-2.9-2.6
			c-0.6-1-0.7-2.4,1.7-2.7c2.1-0.3,3.5,0.4,6,0.4c2.5,0,4.7-0.9,6.6-0.2c1.9,0.7,1.3,2,0.7,2.7c-0.8,0.9-2.4,1.4-2.4,1.9V493.5"/>
		<path id="path22" fill="#5B1808" d="M735.5,484.3c-2.2,4.2-0.5,5.9,0,8.2l0,8v3.6c-0.2,3.4,2.2,4.9,3.2,5.3c3.4,0,6.6-1.1,8.7-3.3
			c1.1-1.1,2.1-2.5,2.9-3.8c1.6-2.7,2.2-3.6,2-7.1c-0.2-3.1-1-3.7-1.8-4.6c-1.3-1.6-3.1-1.5-4.4-1.4c-1.3,0-2.4,0.6-3.5,1.9
			c-1.1,1.3-2.3,3.4-3.1,6c0-2.9-2.5-3.8-3.4-6.9c-0.2-0.9-0.6-2.1,0-4.1c0.6-2,1.7-2.5,3.3-3.6c2.6-0.8,5.4-1.1,8.1-1
			c3.5,0.2,6.7,1.3,8.9,3.2c2.4,2.2,3.6,5.1,3.9,7.8c0.2,3.1-0.3,4.7-1.6,7.7c-0.9,2-2,4-3.1,5.6c-0.9,1.1-2.9,2.8-4.8,4.1
			c-2,1.3-4.2,2.5-5.9,2.5h-24.1c-2.6-0.2-0.3-1.5,0.3-2.4c1.2-1.6,2.3-3.5,2.7-5.5v-35c0-2.2-1.4-1.8-2-2.4
			c-0.4-0.3-1.1-0.8-1.1-1.8c0-1.3,1.8-1.5,3.1-1.5c2.3,0,4.2,0.7,5.9,0.6c1.6,0,4.2-0.8,5.8-0.7c1.6,0.1,2.6,0.2,2.9,1.2
			c0.3,1,0,1.2-0.6,2.1c-0.6,0.9-2.4,0-2.4,2.5L735.5,484.3"/>
		<path id="path24" fill="#5B1808" d="M914.8,507.7l11.4,0c1.6,0,1.3-0.8,0.9-1.4c-0.6-0.7-1.3-1-2.1-1.7c-1.4-1.1-3.6-2.5-4.8-3.6
			c-1.9-1.6-4-3.6-5.6-5.3c-1.6-1.8-3.2-3.2-3.2-5.1c0-1.9,0.7-1.8,1.4-2.5c0.8-0.7,1.9-0.8,3.1-0.8c2.4,0.1,5.5,0.5,8.2,0.9
			c2.6,0.3,5.3,1.4,6.7-0.4c0.2,3-0.3,2.9-1.4,4.1c-3.3,3.4-10.7,0.2-11.1,1.5c-0.3,1.2,4.7,5.9,9.3,8.6c1.8,1.1,4,2.4,4.9,3.3
			c0.6,0.6,1.6,2.2,1.6,3.5c0.1,1.6-0.9,3.9-3.3,3.9h-31.9c0,0-1-0.6-1.1-0.7c-3.6-1.7-0.9-2.5,1.6-5.4c0.4-0.4,0.9-1,1.1-1.5
			c0.2-0.4,0.5-1,0.5-2v-30.9c-0.1-1.8-0.9-3-3-4.5c-0.5-0.3-0.4-1.7,0-2.6c0.5-0.9,1.4-1.3,2.5-1.3h29.8c2.9,0.6,6.8,1.6,6.5,6.5
			c-0.2,2.5-2.8,7.8-3.7,5.6c-0.4-1.1-1.1-1.7-2-2.2c-0.8-0.4-1.5-0.6-2.6-0.6h-11c-2.6,0.1-4.8,1.3-4.8,3.8v7.9c0,0,0,0.1,0,0.1
			v0.1c0,1.1-0.8,1.3-1.5,1.6c-0.6,0.3-1.8,1.5-2,3c-0.1,1.5,0.7,3.1,1.4,3.8c0.9,1,2.2,1.6,2.2,3.8l0,7.9
			C912.7,506,913.7,507.3,914.8,507.7"/>
		<path id="path26" fill="#5B1808" d="M971.4,512.5h-27.5c-4.5-0.4-6.2-4.4-5.9-7.1c0.1-1.5,1.1-2.7,2.2-3.4l3-2l11.2-7.5
			c2.7-1.8,5.8-4.3,8.7-6.3c5.1-3.6,5.4-9.2,6.9-14c1.1-3.6,2-5.6,4.2-6.7c1.7-0.9,4-1.7,5.9-1.7h5.6c1.5,0,1.3,0.9,1.2,1.7
			c-0.3,1.2-2.5,2.1-3.2,2.4c-1.2,0.4-2.3,1.9-2.7,2.4c-1.1,1.7-1.8,5.2-2,7.1c-0.1,1.9-0.9,4.6-2.2,6.5c-1.5,2.2-3,3.8-5,5.6
			c-1.8,1.6,1.9,3.4,3.4,5c1.9,2,3.4,3.5,4,6.2c0.6,2.7,0.3,6-0.7,7.7C977.4,510,974.4,512.5,971.4,512.5L971.4,512.5z M956.6,488.5
			l-10.6,6.9l0-26.1c0-2.9-2.4-1.7-2.4-4c0-1.5,1.5-1.6,3.1-1.6c1.3,0,3,0.3,4.7,0.3c2.2,0,4.2-0.3,5.6-0.3c1.1,0,3,0,2.7,2.2
			c-0.3,1.9-3,1.3-3,3.6L956.6,488.5z M956.6,506.3c0,3.2,8.4,2,12.4,1.9c3.7-0.1,5.7-3.9,3.6-8.2c-1-2-2.6-5.1-6.1-6.3
			c-1.6-0.5-9.9,0.6-9.9,4.6V506.3z M941.3,506.5c-0.1,1.6,1.2,2,2.5,2c1.2,0,2.3,0.2,2.3-1.1l0-2.4c0-0.5,0-2.2-0.5-2.2
			c-1.2,0-2.6,0.6-3.5,1.5C941.4,505,941.4,505.8,941.3,506.5"/>
		<path id="path28" fill="#5B1808" d="M1049.9,497.6c4.8,3,5.7,5.7,6,8.9c0.5,4.8-2.4,5.9-4.4,5.9h-25.9c-3.5,0-3.5-2.4-3.5-4.7
			c0.1-2.9,3-5.4,5.1-8l-5.8-12.4c-2.5-5.4-4.8-10.9-4.8-13.9c0-3.3,0-6.1,4.2-8.1c3.9-1.6,5-0.5,6.3,0.1c3.2,1.5,1.1,4,3.5,5.1
			c-1,1.3-2.5,1.8-3.8,1.4c-1.6-0.4-2.2-2.1-3.8-1.8c-1.7,0.3-1.9,1.5-1.9,4.7c2.1,11,15.5,12.2,22.4,17l3.2-17
			c0.8-4.3,1.2-6.6-0.2-7.2c-1-0.5-3.5-3.6,2-3.6h8c1.3,0,1.9,0.5,1.9,1.5s-2.2,2.3-2.4,3.2L1049.9,497.6z M1038.6,506.5
			c2,0.1,3-2,3.4-4.3c0.6-3.3,0.9-5.1-0.6-6.9c-1.3-1.6-6.4-3.5-16.1-7.8C1029,494.1,1034.2,508.3,1038.6,506.5z M1030.5,508.5
			c1.2,0,2.3-0.1,1.9-1.1c-0.4-1.1-0.8-2-1.4-2.8c-0.6-0.8-1.1-2.3-2-2.2c-1.2,0.2-2.1,1.4-2.8,3.6c-0.3,0.7-0.9,1.6,0,2.4
			C1027.2,508.4,1029.3,508.5,1030.5,508.5z M1047.7,508.1c-1.1-0.4-0.5-1.6-0.4-2.2l1.4-6.3c1.3,0.4,3.3,2.5,3.8,3.8
			c1,2.8,1.2,4.5-0.2,4.8C1051.1,508.4,1049.2,508.7,1047.7,508.1"/>
		<path id="path30" fill="#5B1808" d="M831,504.6c0.9,1.4,0.9,3.6,0.6,4.9c-0.2,1.3-1,2.9-3.3,2.9h-23.3c-2.9-0.2-4.5-1.3-5.4-2.2
			c-0.6-0.6-1.1-1.5-1.3-2.5c-0.2-0.6,0.1-1.3,0.4-2c0.4-0.7,1-1.5,1.7-2.2c0.9-0.9,1.8-1.9,2.5-2.6c0.6-0.7,1-1.3,1.1-1.6
			c0.7-1.6-2.7-1.7-2.3-4.7c0.5,1.9,3.2,2.1,4.1,2.8c0.9,0.7,0.9,2.1,0.6,3.1c-0.2,0.7-2.5,2.7-2.9,3.8c-0.6,1.5,0,2.5,0.9,2.9
			c1.2,0.6,3.1,0.6,3.1,0.6h9.8c4.2,0,4.3-0.6,1.5-4.3l-21.5-28c-3.4-4.4-2.9-10.3,1.6-11.9h33.5c5.9,0.3,7,2.5,7,5.2
			c0,5.7-4.7,7.6-9,11c-1.4,1.1-2.8,2.5-3.9,4.1c-1,1.5,0.2,2.6,1.1,3.3c0.7,0.5,1.4,1.3,0.9,2.7c-0.5,1.3-1.2,3.3-1.2,4.7
			c-1.4-1.6-0.4-2.9-0.7-3.8c-0.4-1.6-0.7-1.6-1.7-2.4c-0.9-0.9-2.2-1.5-2.8-3.4c-0.6-1.9-0.2-3.2,0.8-5c0.6-1,1.4-1.9,2.1-2.7
			c2.2-2.5,4.3-4.2,1.2-4.4h-10.3c-1.9,0-5.4,0.3-3.3,3.4L831,504.6"/>
		<path id="path32" fill="#5B1808" d="M774,538.8c2.4,2.8,4.9,4.2,7.1,4.2c1,0,2-0.4,2.6-1c0.7-0.6,1.2-1.7,1.3-3c2.6,2.6,5.1,4,7,4
			c1.2,0,2.3-0.5,2.9-1.4c0.6-0.9,1-2.3,1-3.8v-9c0-2,0.7-3.1,2-3.1v-0.4h-7.2v0.4c1.2,0.1,1.9,1.3,1.9,3.3v7.7
			c0,2.6-0.9,3.8-2.7,3.8c-1.1,0-2.3-0.7-3.2-1.9c-1-1.2-1.6-2.8-1.6-4.4v-5.3c0-1,0.2-1.8,0.5-2.3c0.4-0.5,1-0.8,1.5-0.8v-0.4h-7.3
			v0.4c1.2,0,1.9,1.2,1.9,3.3v7.7c0,2.6-0.9,3.8-2.6,3.8c-1.3,0-2.4-0.7-3.4-1.9c-1-1.2-1.5-2.8-1.5-4.4v-5.3c0-1.9,0.7-3.1,1.9-3.1
			v-0.4h-7.3v0.4c0.8,0,1.5,0.4,1.7,1.1c0.2,0.6,0.4,1.7,0.4,2.8v8.2c0,1.7-0.2,2.8-0.5,3.1c-0.3,0.4-0.9,0.7-1.5,0.8v0.3l4.4,0.5
			c0.2-0.4,0.5-1,0.7-1.8C773.9,540.1,774,539.3,774,538.8z M801.1,547.5c0,0.8,0.2,1.5,0.6,1.9c0.4,0.5,1,0.8,1.6,0.8
			c0.6,0,1.2-0.3,1.6-0.8c0.4-0.5,0.6-1.2,0.6-2.1c0-0.9-0.3-1.5-0.6-1.8c-0.5-0.5-1.1-0.6-1.6-0.6c-0.6,0-1.2,0.2-1.6,0.6
			C801.3,546,801.1,546.7,801.1,547.5L801.1,547.5z M805.1,542.6v-13.7c0-2.1,0.7-3.2,2-3.2v-0.4h-7.5v0.4c0.7,0,1.3,0.3,1.6,0.8
			c0.3,0.4,0.5,1.5,0.5,3v8.3c0,1.7-0.2,2.8-0.5,3.1c-0.3,0.4-0.9,0.7-1.6,0.8v0.3L805.1,542.6z M808.9,548.4l5.3,1v-20.5
			c0-1.1,0.2-1.9,0.5-2.3c0.4-0.5,0.9-0.8,1.5-0.8v-0.4h-7.5v0.4c0.6,0,1.1,0.3,1.5,0.8c0.5,0.5,0.6,1.4,0.6,2.3v16
			c0,2.1-0.7,3.3-2.1,3.3L808.9,548.4z M818.1,548.4l5.3,1v-20.5c0-1.1,0.2-1.9,0.5-2.3c0.4-0.5,0.9-0.8,1.5-0.8v-0.4h-7.4v0.4
			c0.6,0,1.1,0.3,1.5,0.8c0.4,0.5,0.6,1.4,0.6,2.3v16c0,2.1-0.7,3.3-2.1,3.3L818.1,548.4z M831.5,534.8l8.8,2.6
			c-0.8,2.5-2.3,3.9-4.1,3.9c-1.5,0-2.7-0.7-3.5-2C831.9,538.1,831.5,536.5,831.5,534.8L831.5,534.8z M831.7,533.5
			c0.3-2.1,1.1-3.8,2.3-4.9c1.2-1.1,2.6-1.7,4.2-1.7c1.3,0,2.6,0.4,3.6,1c1,0.7,1.9,1.9,2.4,3.2l0.4-0.2l-1.8-5.7
			c-0.3,0.1-0.6,0.2-0.8,0.2c-2-0.2-3.5-0.5-4.5-0.5c-2.4,0-4.6,0.8-6.4,2.3c-1.9,1.4-3,3.5-3.2,6c-0.1,1.8,0.2,3.5,0.9,5
			c0.6,1.5,1.7,2.6,3.2,3.5c1.4,0.8,3,1.4,4.6,1.4c1.7,0,3.3-0.5,4.8-1.4c1.4-1.1,2.4-2.6,2.9-4.6L831.7,533.5z M863,528.9
			c0-1.1,0.1-1.9,0.3-2.3c0.2-0.5,0.9-0.8,1.7-0.8v-0.4h-7.3v0.4c1.2,0,1.9,1.2,1.9,3.3v7.7c0,1.3-0.3,2.3-0.6,2.9
			c-0.5,0.6-1.1,0.9-1.9,0.9c-0.8,0-1.7-0.4-2.4-0.8c-0.8-0.5-1.5-1.4-1.9-2.2c-0.4-1-0.7-2.1-0.7-3.3v-5.3c0-1.9,0.7-3.1,1.9-3.1
			v-0.4h-7.4v0.4c0.9,0,1.5,0.4,1.7,1.1c0.2,0.6,0.4,1.7,0.4,2.8v8.2c0,1.7-0.2,2.8-0.5,3.1c-0.3,0.4-0.9,0.7-1.6,0.8v0.3l4.6,0.5
			c0.2-0.4,0.5-1,0.6-1.7c0.2-0.8,0.3-1.5,0.3-2.1c2.3,2.8,4.6,4.2,6.7,4.2c2.8,0,4.2-1.7,4.2-5.1V528.9z M867.2,533.8
			c0,1.7,0.4,3.5,1.2,4.8c0.8,1.4,1.9,2.5,3.2,3.2c1.4,0.8,3,1.2,4.8,1.2c1.6,0,3.1-0.3,4.4-0.9c1.4-0.6,2.5-1.7,3.3-3
			c0.8-1.3,1.3-3,1.3-5c0-3-1-5.3-2.8-6.8c-1.9-1.6-4.1-2.4-6.4-2.4c-1.4,0-2.9,0.3-4.2,0.8c-1.3,0.6-2.5,1.7-3.3,3
			c-0.9,1.3-1.4,3.1-1.4,5V533.8z M881.4,533.8c0,2.1-0.5,3.9-1.4,5.3c-0.9,1.5-2.3,2.2-4,2.2c-1.4,0-2.6-0.5-3.7-1.5
			c-1-1.1-1.5-2.8-1.5-5.1c0-2.5,0.5-4.5,1.5-5.9c1-1.5,2.3-2.3,3.8-2.3c1.4,0,2.6,0.6,3.7,1.8c1,1.3,1.5,3.1,1.5,5.3L881.4,533.8z
			 M895.8,528.3l4.4,12c0,0.3,0.1,0.6,0.1,0.7c0,0.8-0.4,1.2-1,1.2v0.4h4.8v-0.4c-0.8,0-1.5-0.7-2-2.1l-4.4-11.5
			c0,0-0.2-0.4-0.3-0.8c-0.3-0.5-0.4-1-0.4-1.2c0.1-0.5,0.4-0.8,0.8-0.8v-0.4h-5.7v0.4c0.5,0,0.8,0.3,0.8,0.6c0,0.2-0.1,0.5-0.1,0.8
			c-0.1,0.3-0.2,0.4-0.2,0.4l-4.6,13.1c-0.4,1-0.9,1.5-1.5,1.5v0.4h6.5v-0.4c-0.8,0-1.3-0.5-1.4-1.4c0,0,0.1-0.2,0.1-0.3
			c0-0.2,0.1-0.4,0.1-0.4L895.8,528.3z M909.3,534.8l8.9,2.6c-0.8,2.5-2.3,3.9-4.2,3.9c-1.5,0-2.7-0.7-3.5-2
			C909.7,538.1,909.2,536.5,909.3,534.8L909.3,534.8z M909.5,533.5c0.3-2.1,1.1-3.8,2.3-4.9c1.2-1.1,2.7-1.7,4.2-1.7
			c1.3,0,2.6,0.4,3.6,1c1.1,0.7,2,1.9,2.4,3.2l0.4-0.2l-1.8-5.7c-0.3,0.1-0.6,0.2-0.8,0.2c-2-0.2-3.5-0.5-4.5-0.5
			c-2.4,0-4.6,0.8-6.4,2.3c-1.9,1.4-3,3.5-3.2,6c-0.1,1.8,0.2,3.5,0.9,5c0.7,1.5,1.8,2.6,3.2,3.5c1.4,0.8,3,1.4,4.6,1.4
			c1.7,0,3.3-0.5,4.8-1.4c1.4-1.1,2.5-2.6,2.9-4.6L909.5,533.5z M938.2,543l0.9-5.5h-0.2c-0.2,0.6-0.6,1.4-1.1,1.9
			c-0.6,0.5-1.3,1-2.1,1.4c-0.8,0.3-1.6,0.5-2.3,0.5c-1.4,0-2.7-0.6-3.7-1.7c-1-1.3-1.5-3.2-1.5-5.6c0-2,0.7-3.8,2-5.1
			c1.3-1.4,3-2.1,4.6-2.1c2.4,0,4.2,1.2,5.5,3.3l0.2-0.2l-1.7-4.8l-0.8,0.2c-1.5-0.2-2.7-0.5-3.5-0.5c-3.3,0-5.9,1.1-7.7,3.2
			c-1.5,1.9-2.3,3.9-2.3,6c0,1.4,0.3,3,0.8,4.3c0.5,1.4,1.4,2.5,2.6,3.3c1.2,0.8,2.8,1.2,4.6,1.2c1,0,2.5-0.2,4.2-0.4
			C937.4,542.6,937.8,542.8,938.2,543L938.2,543z M946.2,534.8l8.8,2.6c-0.8,2.5-2.3,3.9-4.2,3.9c-1.5,0-2.6-0.7-3.5-2
			c-0.8-1.2-1.3-2.8-1.3-4.5H946.2z M946.4,533.5c0.3-2.1,1.1-3.8,2.3-4.9c1.2-1.1,2.7-1.7,4.3-1.7c1.3,0,2.6,0.4,3.5,1
			c1.1,0.7,2,1.9,2.4,3.2l0.4-0.2l-1.8-5.7c-0.3,0.1-0.6,0.2-0.8,0.2c-2-0.2-3.5-0.5-4.4-0.5c-2.4,0-4.7,0.8-6.4,2.3
			c-1.9,1.4-3,3.5-3.2,6c-0.1,1.8,0.2,3.5,0.9,5c0.7,1.5,1.8,2.6,3.2,3.5c1.4,0.8,3,1.4,4.6,1.4c1.7,0,3.4-0.5,4.8-1.4
			c1.4-1.1,2.5-2.6,2.9-4.6L946.4,533.5z M977.6,528.9c0-1.1,0.1-1.9,0.3-2.3c0.2-0.5,0.9-0.8,1.7-0.8v-0.4h-7.2v0.4
			c1.2,0,1.9,1.2,1.9,3.3v7.7c0,1.3-0.3,2.3-0.7,2.9c-0.4,0.6-1.1,0.9-1.9,0.9c-0.8,0-1.7-0.4-2.4-0.8c-0.8-0.5-1.5-1.4-1.9-2.2
			c-0.5-1-0.7-2.1-0.7-3.3v-5.3c0-1.9,0.7-3.1,1.9-3.1v-0.4h-7.3v0.4c0.9,0,1.5,0.4,1.7,1.1c0.2,0.6,0.4,1.7,0.4,2.8v8.2
			c0,1.7-0.2,2.8-0.5,3.1c-0.3,0.4-0.9,0.7-1.6,0.8v0.3l4.6,0.5c0.2-0.4,0.5-1,0.6-1.7c0.2-0.8,0.3-1.5,0.3-2.1
			c2.3,2.8,4.6,4.2,6.6,4.2c2.8,0,4.2-1.7,4.2-5.1L977.6,528.9z M986.4,542.4h3.2c0.6,0,1.2,0.2,1.5,0.6l-0.9-2.4
			c-0.2,0.2-0.6,0.3-1,0.3h-2.7v-10.9c0-1.9,0.8-3,2.2-3c0.6,0,1.4,0.2,2,0.5c0.6,0.5,1.2,0.8,1.3,1.2l0.2-0.1l-1.2-3
			c-1.5-0.4-2.8-0.6-3.9-0.6c-1.6,0-2.7,0.5-3.2,1.3c-0.6,0.8-0.9,2-0.9,3.5V541h-2.1v0.3c0.8,0.2,1.7,0.7,2.1,1.5
			c0.4,0.8,0.7,1.8,0.7,2.8c0,0.5-0.1,1.1-0.2,1.6l3.2,1.5L986.4,542.4z M993,533.8c0,1.7,0.4,3.5,1.2,4.8c0.8,1.4,1.9,2.5,3.2,3.2
			c1.4,0.8,3,1.2,4.8,1.2c1.6,0,3.1-0.3,4.4-0.9c1.4-0.6,2.4-1.7,3.3-3c0.8-1.3,1.3-3,1.3-5c0-3-1-5.3-2.8-6.8
			c-1.9-1.6-4.1-2.4-6.5-2.4c-1.4,0-2.8,0.3-4.1,0.8c-1.3,0.6-2.5,1.7-3.3,3c-0.9,1.3-1.4,3.1-1.4,5L993,533.8z M1007.3,533.8
			c0,2.1-0.5,3.9-1.4,5.3c-0.9,1.5-2.3,2.2-4,2.2c-1.4,0-2.7-0.5-3.7-1.5c-1-1.1-1.5-2.8-1.5-5.1c0-2.5,0.5-4.5,1.5-5.9
			c1-1.5,2.3-2.3,3.7-2.3c1.4,0,2.7,0.6,3.7,1.8c1,1.3,1.6,3.1,1.6,5.3V533.8"/>
		<path id="path34" fill="#5B1808" d="M1030.5,560.7c1,0.6,2.3,1.7,3.6,3.1c1.3,1.3,2.8,3.2,4.2,5.1c2.1,2.8,4.2,6.1,6.2,9.4
			c1.9,3.4,3.8,6.9,5.2,10.1c2.3,6.2,4.5,12.3,6.4,18.4c0.8,3.1,1.6,5.8,2.3,8.4c0.7,2.6,1.3,4.8,1.9,7.2c0.8,3.2,1.4,6.4,2,9.7
			c0.7,3.4,1.2,7.1,1.8,11.5c0.1,2.1,0.6,5.5-0.6,8.8c-0.7,1.8-1.8,3.6-3.6,5.3c-1.6,1.2-3.7,2.6-6.6,3.6c-1.5,0.3-2.1,0.1-3.4-0.1
			c-1-0.2-2.4-0.7-2.6-0.4c-0.3,0.2,0.8,1.3,1.3,1.8c0.7,0.7,1.3,2.1,1.5,3.7c0.3,4.1,0.4,4.1-0.4,6.7c-0.8,3.2-2.7,6.1-5.3,8.1
			c-5.3,4.3-14,6.5-24.4,7.2c-6.4,0.4-10-0.7-14.4-2.3c-3.9-1.4-8-4.2-10.8-6.6c-3.5-3.1-7-6.9-9.1-10.2c-2.6-3.9-4.7-8.5-6.9-14.1
			c-1.5-3.7-2.6-6.9-3.5-9.9c-0.9-3.1-1.9-6.1-2.5-9.3c-0.6-3.2-0.9-5.7-1.5-9.5c-0.7-3.8-1.3-11.1-1.6-15.4
			c-0.3-4.2-0.2-7.2-0.2-10.8c0-3.6,0.4-6.5,0.7-8.5c0.3-2.1,1.3-6,2.2-8.5c1-2.5,1.5-5.1,4.1-8.5c4-4.3,5.6-5.5,10.3-6.4
			c5.9-1.2,11.3-1.6,16.6-3.1c4.1-1.1,10-3.1,14.9-4.5C1024.9,558.9,1027.3,558.3,1030.5,560.7L1030.5,560.7z M1055.4,626.8
			c-1.7-6.4-3.4-12-5.2-17.6c-1.5-4.1-3.4-8.3-6.5-12.6c-3.8-5.4-8.9-9.9-13.7-11.1c-7-1.9-11.4-0.9-17.6,0.2
			c-6.3,1.2-10.6,3.9-13.9,7c-3.3,3.1-6.1,7.4-7.4,11.8c-1.4,4.4-2.4,8.7-2.8,13.9c-0.3,5.2,0,8.8,0.5,12.1c0.5,3.3,1.2,7.1,1.5,8.9
			c0.4,1.8,1.7,6.8,2.6,9.2c0.7,1.8,1.5,3.6,2.6,6.6c1.1,3,2,5.5,3.6,9c1.6,3.7,4.1,6.1,6.1,8.3c1.6,1.7,3.1,3.2,5.2,4.2
			c2.2,1.1,4.6,1.8,7.2,2.2c2.6,0.3,5.5,1.6,8.7,1.3c3.2-0.4,5.6-0.4,9.6-1.3c1.3-0.3,4-1.6,6.4-3c2.2-1.4,3.5-2.8,3.9-5.7
			c0.3-1.7-0.1-2.7-1.3-4.3c-0.5-0.8-0.7-1.6-2.2-3.2c-1.5-1.4-3.4-3-3.2-3.5c0.1-0.4,0.2-0.4,0.3-0.6l1.6-2l1.5-1.8
			c0.1-0.1,0.8-0.6,1.8-0.4c0.9,0.2,2.5,0.9,4.6,0.9c2.1,0,4.7-1,6-2c1.3-0.8,2.6-2.4,3.1-3.5c0.5-1.2,0.8-3.4,0.6-4.7
			c-0.2-1.9-0.4-3.9-0.6-5.8C1057.7,635.2,1056.6,630.9,1055.4,626.8"/>
		<path id="path36" fill="#5B1808" d="M945.9,581.2c0.9,0.8,2,2,3.1,3.6c1.1,1.5,2.4,3.6,3.5,5.7c1.7,3.1,3.4,6.7,4.8,10.3
			c1.5,3.6,2.8,7.4,3.8,10.7c1.5,6.5,2.9,12.9,3.9,19.3c0.4,3.2,0.8,6,1.2,8.6c0.3,2.6,0.7,5,0.9,7.4c0.4,3.2,0.6,6.5,0.8,9.9
			c0.3,3.4,0.3,7.2,0.3,11.6c-0.2,2.1-0.1,5.4-1.7,8.6c-0.9,1.7-2.3,3.4-4.3,4.7c-1.8,1-4,2-7,2.7c-1.5,0-2-0.1-3.3-0.6
			c-1-0.3-2.3-1-2.5-0.8c-0.3,0.2,0.7,1.4,1.1,2c0.5,0.8,1.1,2.3,0.9,3.9c-0.3,4.1-0.2,4.1-1.2,6.6c-1.2,3-3.5,5.6-6.3,7.3
			c-5.8,3.5-14.8,4.4-25.1,3.5c-6.4-0.5-9.9-2.2-14-4.3c-3.7-2-7.4-5.4-9.8-8.2c-3.1-3.6-6-7.8-7.7-11.4c-2-4.2-3.6-9.2-5-15
			c-0.9-3.9-1.6-7.2-2.2-10.3c-0.5-3.2-1.1-6.2-1.2-9.6c-0.1-3.2-0.1-5.8-0.3-9.6c-0.1-3.9,0.1-11.2,0.4-15.5
			c0.3-4.2,0.7-7.2,1.2-10.7c0.5-3.6,1.3-6.3,1.9-8.3c0.6-2,2.1-5.8,3.4-8.1c1.3-2.4,2.2-4.8,5.1-7.9c4.6-3.7,6.3-4.6,11.1-4.8
			c6.1-0.3,11.3,0,16.8-0.6c4.2-0.5,10.2-1.6,15.4-2.3C940.6,578.6,943.1,578.4,945.9,581.2L945.9,581.2z M961.9,650.4
			c-0.8-6.6-1.7-12.4-2.8-18.2c-0.9-4.3-2.3-8.8-4.7-13.5c-3.1-5.9-7.5-11.2-12.1-13.1c-6.7-2.9-11.2-2.6-17.5-2.4
			c-6.3,0.2-11,2.3-14.7,4.8c-3.7,2.6-6.9,6.5-8.9,10.6c-2,4.1-3.6,8.3-4.6,13.4c-1,5.1-1.2,8.7-1.1,12.1c0.1,3.4,0.3,7.3,0.4,9.1
			c0.2,1.9,0.8,7,1.3,9.5c0.4,1.9,1,3.8,1.7,7c0.7,3.2,1.3,5.7,2.4,9.5c1.1,3.9,3.2,6.7,5,9.2c1.4,2,2.6,3.6,4.6,5
			c2,1.4,4.3,2.5,6.8,3.3c2.5,0.7,5.3,2.4,8.5,2.6c3.2,0.1,5.6,0.5,9.6,0.1c1.3-0.1,4.2-1,6.7-2.1c2.4-1,3.8-2.3,4.6-5.1
			c0.5-1.6,0.2-2.6-0.7-4.5c-0.4-0.8-0.4-1.7-1.8-3.4c-1.3-1.6-3-3.5-2.7-3.9c0.2-0.4,0.3-0.4,0.4-0.5l1.8-1.8l1.7-1.6
			c0.1-0.1,0.9-0.5,1.8-0.1c0.9,0.4,2.4,1.3,4.4,1.6c2,0.3,4.8-0.3,6.2-1.1c1.4-0.7,2.8-2,3.5-3.1c0.7-1.1,1.2-3.2,1.2-4.6
			c0.1-2,0.2-3.9,0.2-5.8C963.1,659,962.6,654.6,961.9,650.4"/>
		<path id="path38" fill="#5B1808" d="M696.6,647.8c-0.7,0.1-0.9-0.4-0.8-1.1c0.1-0.9,0.4-1.5,0.8-2.3c0.4-0.9,0.9-1.6,1.6-2.4
			c0.9-1.1,3.6-2.8,5.6-3c2-0.3,4.2,0.2,7.3,1.5c3.2,1.3,6.9,4.6,9.7,6.8c2,1.5,4.4,3.1,6,5.2c0.4,0.4,0.8,2.7,1.3,0.5l0.4-1.5
			l15.8-70.7c1.3-6-4.8-9-5-12.1c-0.3-3.7,2.8-3.4,5.2-3.7c5.6-0.1,10,3.7,16,5.2c6,1.5,14.2,1.1,16.9,3.3c3.4,2.9,0.7,5.3-0.6,6
			c-3.6,2-8.7,0.9-10.1,7.8l-18.1,86.5c-3.9,18.8-4.5,16.3-7,17.1c-1.7,0.5-4.6-1.3-6.7-5.2c-1.6-3.1-4.5-8.4-6.2-11.3
			c-2.2-3.9-5.4-9-7.9-12.4c-3.1-4.2-5.3-7.8-8.2-10.2c-3.8-3.2-9.6-3.8-11.6-3.9C699,647.6,697.3,647.6,696.6,647.8"/>
	</g>
</g>
</svg>
