<?xml version="1.0" encoding="utf-8"?>
<!-- Generator: Adobe Illustrator 18.0.0, SVG Export Plug-In . SVG Version: 6.00 Build 0)  -->
<!DOCTYPE svg PUBLIC "-//W3C//DTD SVG 1.1//EN" "http://www.w3.org/Graphics/SVG/1.1/DTD/svg11.dtd">
<svg version="1.1"
	 id="svg2" xmlns:dc="http://purl.org/dc/elements/1.1/" xmlns:svg="http://www.w3.org/2000/svg" xmlns:rdf="http://www.w3.org/1999/02/22-rdf-syntax-ns#" xmlns:cc="http://creativecommons.org/ns#"
	 xmlns="http://www.w3.org/2000/svg" xmlns:xlink="http://www.w3.org/1999/xlink" x="0px" y="0px" viewBox="0 0 350 400"
	 enable-background="new 0 0 350 400" xml:space="preserve">
<g id="g3854" transform="translate(-2.3121387,3.8535645)">
	<path id="path3040" fill="#F7DE9F" d="M167.4,388c-5.5-3.1-21.2-15.2-33.7-25.9c-20.7-17.8-38.9-37.5-55.2-59.6
		c-35-47.6-56.6-103.1-66.1-169.3C7.9,101.6,6.2,57.5,9,47.7c1.8-6.2,6-12,11.2-15.7c5.7-4,23.7-11.1,39.9-15.7
		C94.4,6.3,132.3,1.6,177.3,1.6c57.3,0,104.2,7.6,143.8,23.5c14.1,5.7,19.4,9.7,23.4,18.2l2.7,5.6l-0.1,24.3
		c-0.2,67.6-15.4,133.3-43.2,186.4c-7.1,13.5-23.8,39.7-32.1,50.1c-15.3,19.4-33.1,38-50.7,53.1c-11.9,10.2-29.5,23.6-34.3,26.1
		C180.8,391.9,173.7,391.6,167.4,388L167.4,388z M179.3,386.3c-0.9-0.2-2.4-0.2-3.3,0c-0.9,0.2-0.2,0.4,1.7,0.4
		C179.5,386.8,180.3,386.6,179.3,386.3z M141.4,362.3c0-0.2-0.8-1-1.7-1.7c-1.5-1.2-1.5-1.2-0.4,0.4
		C140.6,362.6,141.4,363.1,141.4,362.3L141.4,362.3z M135.6,357.5c0-0.2-1.2-1.4-2.6-2.7l-2.6-2.4l2.3,2.7
		C134.9,357.6,135.6,358.2,135.6,357.5z M122.3,344.6c-3.4-3.5-6.4-6.3-6.6-6.3c-0.3,0,2.3,2.8,5.7,6.3s6.4,6.3,6.6,6.3
		C128.2,351,125.6,348.1,122.3,344.6z M107.9,330c-3.4-3.5-6.4-6.3-6.6-6.3c-0.3,0,2.3,2.8,5.7,6.3c3.4,3.5,6.4,6.3,6.6,6.3
		C113.9,336.4,111.3,333.5,107.9,330z M99.3,320.5c0-0.2-1.2-1.4-2.6-2.7l-2.6-2.4l2.3,2.7C98.6,320.6,99.3,321.2,99.3,320.5z
		 M93.6,313.7c0-0.2-1-1.2-2.1-2.2l-2.1-1.9l1.8,2.2C92.8,313.9,93.6,314.4,93.6,313.7z M89.8,308.8c0-0.2-1-1.2-2.1-2.2l-2.1-1.9
		l1.8,2.2C89,309,89.8,309.6,89.8,308.8L89.8,308.8z M86,303.9c0-0.2-0.8-1-1.7-1.7c-1.5-1.2-1.5-1.2-0.4,0.4
		C85.2,304.2,86,304.7,86,303.9z M83.1,300c0-0.2-0.8-1-1.7-1.7c-1.5-1.2-1.5-1.2-0.4,0.4C82.3,300.3,83.1,300.8,83.1,300L83.1,300z
		 M80.2,296.1c0-0.2-0.8-1-1.7-1.7c-1.5-1.2-1.5-1.2-0.4,0.4C79.4,296.4,80.2,296.9,80.2,296.1L80.2,296.1z M66.8,276
		c-0.6-1.1-1.2-1.9-1.5-1.9s0,0.9,0.5,1.9c0.6,1.1,1.2,1.9,1.5,1.9S67.4,277.1,66.8,276z M64,271.2c-0.6-1.1-1.2-1.9-1.5-1.9
		s0,0.9,0.5,1.9c0.6,1.1,1.2,1.9,1.5,1.9C64.8,273.1,64.5,272.2,64,271.2z M61.1,266.3c-0.6-1.1-1.2-1.9-1.5-1.9s0,0.9,0.5,1.9
		c0.6,1.1,1.2,1.9,1.5,1.9S61.7,267.4,61.1,266.3z M52.3,249.3c-2.7-5.6-5.1-10-5.3-9.8c-0.4,0.4,9.2,20,9.8,20
		C57.1,259.5,55,254.9,52.3,249.3z M44,231.6c-1.1-2-1.4-1.3-0.5,1.1c0.3,0.9,0.8,1.4,1,1.1C44.8,233.6,44.6,232.6,44,231.6z
		 M135.8,63.2c-0.7-0.3-1.5-0.2-1.8,0.1c-0.3,0.3,0.2,0.6,1.3,0.5C136.4,63.7,136.6,63.5,135.8,63.2z M15.6,44.8
		c0.3-0.9,0.2-1.3-0.4-0.9c-0.5,0.3-0.9,1-0.9,1.5C14.3,46.8,15,46.5,15.6,44.8z M341,45.5c0-0.5-0.9-1.9-2-3.2l-2-2.3l1.7,3.2
		C340.6,46.5,341,46.9,341,45.5z M114.8,31.1c-0.7-0.3-1.5-0.2-1.8,0.1c-0.3,0.3,0.2,0.6,1.3,0.5C115.3,31.6,115.6,31.4,114.8,31.1z
		 M156.2,29.8c1-1.1,1.5-1.9,1.3-1.9s-1.3,0.9-2.2,1.9s-1.5,1.9-1.3,1.9C154.2,31.7,155.2,30.9,156.2,29.8z M132,29.1
		c-0.7-0.3-1.5-0.2-1.8,0.1c-0.3,0.3,0.2,0.6,1.3,0.5C132.5,29.7,132.8,29.4,132,29.1z M246.6,10.6c-0.7-0.3-1.5-0.2-1.8,0.1
		c-0.3,0.3,0.2,0.6,1.3,0.5C247.2,11.2,247.4,11,246.6,10.6z M239,9.7c-0.7-0.3-1.5-0.2-1.8,0.1c-0.3,0.3,0.2,0.6,1.3,0.5
		C239.5,10.2,239.8,10,239,9.7z M231.4,8.7c-0.7-0.3-1.7-0.3-2.4,0c-0.7,0.3-0.1,0.5,1.2,0.5C231.5,9.2,232.1,9,231.4,8.7z
		 M136.8,7.7c-0.7-0.3-1.5-0.2-1.8,0.1c-0.3,0.3,0.2,0.6,1.3,0.5C137.3,8.3,137.5,8,136.8,7.7z M220.4,7.7c-0.9-0.2-2.2-0.2-2.9,0
		c-0.6,0.3,0.1,0.5,1.7,0.4C220.8,8.2,221.3,8,220.4,7.7z M155,6.7c-1.7-0.2-4.3-0.2-5.7,0c-1.4,0.2,0,0.4,3.1,0.4
		C155.5,7.1,156.7,6.9,155,6.7z M205.6,6.7c-1.7-0.2-4.3-0.2-5.7,0c-1.4,0.2,0,0.4,3.1,0.4C206.1,7.1,207.3,6.9,205.6,6.7L205.6,6.7
		z"/>
	<path id="path3038" fill="#F9CE5C" d="M168.7,388.4c-17.1-9.2-57.1-45.4-77.9-70.6C37.9,253.8,11.6,176.3,8,74.7
		C7.1,49.5,8.7,43,18.1,34.4c12-11,59.2-24.6,101.3-29.3c78.1-8.6,153-0.5,206.6,22.3c15,6.4,20.8,14.9,21.6,31.6
		c0.5,10.9-1.2,43.6-3.2,61.2c-12.3,108.2-56.7,190.1-137.9,254.2c-17,13.4-21.1,15.8-27.6,16.2
		C174.4,390.9,172.5,390.5,168.7,388.4z M190.8,381.2c30.9-21.4,62.7-53,85.8-85.2c30.5-42.6,50.6-93.1,60.6-152.3
		c5.9-34.7,8.4-84.8,4.8-96.8c-2.1-7.1-8.5-12.2-22.6-17.8C278.6,12.6,222.7,4.2,165.7,5.8C113.9,7.3,72,14.7,36.1,29
		c-10.3,4.1-12.9,5.5-17.3,9.9c-5.1,5-5.3,5.2-6.5,12.9c-1.4,9-0.1,43.9,2.5,66.6C27.2,228.6,72.5,310.7,156.2,375
		c13.1,10.1,16.5,11.9,21.6,11.9C181.8,387,183.4,386.3,190.8,381.2z M168.1,382c-4.5-2.8-17-12.5-26.7-20.6
		c-52-43.8-87.8-97.1-108.4-161.3c-7.9-24.7-13.9-53.7-17.2-83.7c-1.6-14.5-3.5-56.1-2.8-60.8c1.2-7.3,1.2-7.4,3.3-6.3
		c3,1.7,4.4-0.3,2.4-3.4c-1.2-1.9-1.4-2.9-0.6-4.5c5.2-10,53.1-25.2,96-30.5c20.7-2.6,37-3.5,63.6-3.5c51.4,0,90.3,5.5,127.4,18
		c16.8,5.6,26.9,10.2,29.7,13.2c1.7,1.9,1.7,2.1,0.1,4.9c-2.1,3.6-1.4,4.8,2.8,4.8c3.5,0,3.4-0.1,4.7,7.6c0.8,4.8-1.1,47.2-2.8,62.4
		c-7.8,70.3-29.8,130.3-65.8,179.7c-21.2,29.1-53.8,61.3-82.6,81.5l-6.8,4.8l-1.5-2.2c-1.3-1.9-2.1-2.2-5.4-1.7
		c-2.1,0.3-4.4,1.2-5,2C171.5,383.8,170.9,383.7,168.1,382L168.1,382z M147.5,260.9c1.7-1.7,2-4.3,0.5-4.3c-0.5,0-1,0.4-1,1
		s-1.1,1.2-2.4,1.6c-2.4,0.6-2.9,1.5-1.8,2.7C144,262.9,145.9,262.5,147.5,260.9z M122.3,248.2c0-0.2-0.4-0.4-1-0.4s-1,0.5-1,1
		c0,0.6,0.4,0.8,1,0.4S122.3,248.5,122.3,248.2z M189,240c-1.6-2.7-3.1-4.8-3.3-4.8s0.8,2.3,2.2,5.2s2.9,5,3.3,4.8
		C191.6,245,190.6,242.6,189,240z M204.9,223.5c0.3-0.6-0.3-0.9-1.6-0.7c-1.7,0.2-2.3-0.4-2.8-2.7c-0.6-2.7-0.6-2.8-0.8-0.4
		C199.6,223.4,203.3,226.1,204.9,223.5L204.9,223.5z M183.3,208.5c4.3-0.8,5.8-2.2,5.8-5.4c0-2.8-2.8-7.6-2.8-4.9
		c0,0.8-1.9,3.4-4.2,5.7c-2.3,2.3-4.4,5.1-4.7,6.1c-0.4,1.7-0.3,1.8,1.1,0.5C179.3,209.8,181.5,208.9,183.3,208.5L183.3,208.5z
		 M214,207c-6.3-0.8-8.5-1.9-11.8-5.9c-4.1-5-3-10.7,2.6-13.1l3-1.3l-3.4,0c-10-0.1-10.2,14-0.2,19.3c2.5,1.4,5.3,1.9,9.4,1.9
		l5.7-0.1L214,207L214,207z M240.7,197.7c0-1.1-0.3-1.4-0.6-0.7c-0.3,0.7-1.3,1.2-2.3,1.2s-1.8,0.3-1.8,0.7c0,0.4,1.1,0.7,2.4,0.7
		C240.1,199.6,240.7,199.1,240.7,197.7L240.7,197.7z M138.9,192c1.6-2.5,3.9-4.8,5.1-5.2c2.6-0.7,9.1,1.1,12.8,3.8
		c3.8,2.6,8.6,3.2,10.2,1.3c0.7-0.9,2.4-1.6,3.8-1.6c2.4,0,2.4-0.1,0.7-1.5c-1.2-0.9-4.1-1.4-7.6-1.4c-7,0-10.1-1.5-12-5.7l-1.5-3.2
		l-1.8,2c-2.6,2.9-5.6,2.2-6.2-1.5l-0.5-2.9l-3,4.4c-4.2,6.2-6.1,10.2-6.1,12.9C132.8,198.7,135,198.2,138.9,192L138.9,192z
		 M196.5,180.7c1-0.2-0.1-6.7-1.7-9.7c-1.4-2.9-2.6-3.9-5-4.4c-9.4-1.9-11.7-4.8-10.9-13.5c0.7-6.7,0.6-6.8-4.5-10.7
		c-2-1.5-4.1-3.8-4.7-5.1c-1.4-3.1-2.7-2.9-9.3,0.7c-7.7,4.3-8.4,5.8-4.9,10.3c1.6,2,3.1,5.5,3.5,7.8c0.4,2.3,1.2,4.1,1.8,4.1
		c1.8,0,3.4,4.4,3.4,9.1c0,3.5,0.7,4.9,4.2,9l4.2,4.9l11.8-1.2C191,181.3,196.4,180.7,196.5,180.7L196.5,180.7z M217.3,173.3
		c-1.3-3.5-3.7-11.5-5.2-17.8c-1.7-6.6-4.7-15.2-7.2-20.4c-4.1-8.5-5.3-10.1-6.5-8.2c-0.6,1,4.4,13.6,8,20.1
		c1.5,2.7,3.9,9.5,5.3,15.1c1.5,5.9,3.6,11.8,5,13.9c1.4,2,2.6,3.6,2.8,3.6C219.5,179.7,218.6,176.8,217.3,173.3z M194.6,122.9
		c-5-4.1-2.4-7.2,3.6-4.4c1.9,0.9,2.4,1.7,2.1,3.5c-0.3,1.5-0.1,2,0.5,1.4c1.7-1.7,0.3-4.5-3.2-6.3c-6.3-3.1-9.5,0.6-4.6,5.2
		c1.6,1.6,3.2,2.8,3.6,2.8C197,125.1,196.1,124.1,194.6,122.9z M234.6,116.9c0.8-1.9,1.4-4.4,1.4-5.6c0-3-3.2-8.1-5.9-9.6l-2.2-1.2
		l2,2.3c4.4,5.1,5.3,9.5,2.7,14.5c-0.9,1.8-1.1,2.9-0.4,2.9C232.7,120.3,233.8,118.8,234.6,116.9z M164.5,94
		c-4.2-2.6-3.9-6.3,0.8-9.5c2.7-1.8,4.3-2.2,8.4-2c3.4,0.2,5-0.1,5-0.8c0-0.6,2-1.8,4.5-2.6l4.5-1.5l-5.7,0.5
		c-8.8,0.8-15,2.9-19.1,6.5c-3.1,2.7-3.6,3.7-3,5.8c0.4,1.4,1.8,3.2,3.3,4C167,96.6,168.1,96.3,164.5,94L164.5,94z M39,69.9
		c-0.3-19.1-0.3-19.2,1.8-20.2c3.2-1.4,2.6-2.5-0.7-1.3l-2.9,1v19.9c0,13.7,0.3,19.9,1,19.9C39,89.2,39.2,83.4,39,69.9z M196.6,88.3
		c1-0.6,0.9-0.9-0.5-1.3c-1-0.3-2.3,0.1-3,0.8c-1,1.1-0.9,1.3,0.5,1.3C194.6,89.1,195.9,88.8,196.6,88.3z M315,49.4
		c1.5,0.6,2.2,0.6,1.7,0.1c-0.5-0.5-1.9-1.2-3.1-1.6l-2.1-0.7l0.2,20.3l0.2,20.3l0.3-19.7l0.3-19.7L315,49.4L315,49.4z M55.9,78.2
		c0.6-0.6,0.1-0.7-1.4-0.2c-3.7,1.1-8.6,3.3-8.6,3.8C45.8,82.5,54.8,79.3,55.9,78.2z M65,59.6c4.1-17.9,4.2-18.4,7.1-19.7l2.9-1.3
		l-2.5,0c-1.4,0-2.9,0.5-3.5,1.2c-1,1.2-9.8,38.6-9.7,40.9C59.4,83.2,61,77.3,65,59.6z M297.2,76.8c-1.1-2-1.4-1.3-0.5,1.1
		c0.3,0.9,0.8,1.4,1,1.1S297.8,77.8,297.2,76.8z M284.2,39.8c1.3,0.3,2.1,0.1,1.8-0.4c-0.3-0.5-1.6-0.8-2.8-0.8h-2.3l0.2,19.7
		l0.2,19.7l0.3-19.3l0.3-19.3C281.8,39.3,284.2,39.8,284.2,39.8z M77.8,72.2c-0.4-2-0.9-3.3-1.1-3.1s-0.2,2.1,0.2,4
		c0.4,2,0.9,3.3,1.1,3.1S78.1,74.1,77.8,72.2z M90.1,55c0.2-18.7,0.2-18.8,2.3-19.1c1.2-0.2,2.1-0.8,2.1-1.3c0-0.6-0.9-0.8-2.1-0.4
		c-1.2,0.3-2.5,0.6-2.9,0.6c-0.4,0-0.7,9.1-0.7,20.1s0.2,19.9,0.5,19.6C89.7,74,90,65.3,90.1,55z M271.1,36.3
		c2.4-0.4,2.4-0.4-0.5-0.5l-3.1-0.1l0.2,19.7l0.2,19.7l0.3-19.2l0.3-19.2L271.1,36.3L271.1,36.3z M100.4,63.4
		c-1.3-4-2.6-7.1-2.8-6.9c-0.2,0.2,0.7,3.9,1.9,8.2c1.2,4.3,2.5,7.4,2.8,6.9C102.6,71,101.7,67.4,100.4,63.4z M254.8,59.2
		c-0.2-2.5-0.4-0.5-0.4,4.6s0.2,7.2,0.4,4.6C255,65.9,255,61.8,254.8,59.2z M111.8,60.3c0-5.7-0.2-10.2-0.3-10
		c-0.8,0.9-1.3,20.4-0.5,20.4C111.4,70.7,111.8,66,111.8,60.3z M125.1,49.8V30.9l4.3-0.7c2.4-0.4,5.8-0.5,7.6-0.3
		c1.8,0.2,3,0,2.6-0.4c-0.4-0.5-4.2-0.7-8.4-0.5l-7.6,0.3l-0.3,20.3c-0.2,13.6,0.1,20.1,0.7,19.7C124.8,68.8,125.1,61.5,125.1,49.8
		L125.1,49.8z M240.5,31.6l2.6-0.1l-2.4-0.7c-1.3-0.4-2.7-0.5-3.1-0.3s-0.6,9.2-0.5,20l0.2,19.7l0.3-19.2l0.3-19.2
		C237.9,31.7,240.5,31.6,240.5,31.6z M301.7,44.7c2.5,0.5,2.5,0.5-0.3-0.8l-2.9-1.3L298,54.5c-0.3,6.5-0.3,12.5,0,13.3
		c0.3,0.8,0.6-4.2,0.7-11l0.3-12.5C299.1,44.2,301.7,44.7,301.7,44.7z M155.3,63.8c-3-3.6-3.9-7.9-3.8-17.2c0.1-8,2.3-15.1,5.4-17.3
		c1.1-0.8,3.8-1.5,5.9-1.5c3.2,0,3.5-0.2,2.1-1.1c-2.4-1.4-6.3-0.2-9.5,2.8c-6.7,6.5-7.4,27.8-1.1,34.7
		C157.5,67.8,158.3,67.4,155.3,63.8z M189.1,28c4.1,0.2,7,0,6.4-0.4s-4.2-0.7-8-0.7l-6.9,0l0.2,20.2l0.2,20.2l0.3-19.8l0.3-19.8
		L189.1,28L189.1,28z M195.3,60.9c-0.9-2.7-1.8-4.8-2.1-4.5c-0.3,0.3,0.3,2.7,1.2,5.5s1.8,4.8,2.1,4.5S196.2,63.7,195.3,60.9z
		 M138.6,62.3c2.3-2.1,2.5-8,0.4-10.7c-1.4-1.8-1.5-1.8-0.5,0.2c2.5,5.3,0.1,11-4.6,11c-1.4,0-3.1,0.5-3.9,1.1
		c-1.1,0.8-0.4,0.9,2.7,0.6C134.9,64.2,137.6,63.3,138.6,62.3L138.6,62.3z M210.5,61.7c-2.1-4.2-2.9-17.8-1.3-23.6
		c1.6-6,5.8-9.5,10.6-9c2,0.2,3.4,0,3.1-0.4c-0.2-0.4-2.2-0.7-4.3-0.7c-4.7,0-8.7,3.6-10.3,9.3c-1.7,6.3-1.3,18.8,0.8,23.5
		c1,2.3,2.1,4.1,2.4,4.1C211.9,64.8,211.4,63.4,210.5,61.7L210.5,61.7z M74.3,63c1-0.7,1-1.7-0.2-5.6l-1.5-4.8l0.5,4.4
		c0.5,4,0.3,4.6-1.7,5.5c-2,1-2.1,1.1-0.3,1.1C72.2,63.8,73.6,63.5,74.3,63z M224.5,62c0.5-1,1-2.5,1-3.2c0-0.7-0.6-0.2-1.2,1.2
		c-1,2-1.9,2.4-4.7,2.3c-1.9-0.1-3.3,0.3-3,0.7C217.5,64.7,223.4,63.9,224.5,62z M167.4,59c1.2-2.4,1.7-5.8,1.7-11.7
		c0-10.4-1.9-14.9-6.3-15.4c-1.8-0.2-3.4,0.3-4.1,1.2c-1,1.3-0.8,1.3,1.8,0.3c2.7-1,3.2-0.9,4.8,1.1c3.5,4.4,3.7,20,0.4,25.2
		c-1.3,1.9-2.2,2.4-4.3,2.1c-1.5-0.2-2.5,0-2.2,0.4s1.9,0.7,3.5,0.6C165.1,62.5,166.1,61.7,167.4,59z M111.4,32.7
		c0.4-0.4,1.7-1,2.7-1.2c1.3-0.3,0.9-0.5-1.1-0.6l-3-0.1l-3,10.5c-1.6,5.8-3,11.1-2.9,11.9c0,0.8,1.5-3.3,3.3-9.1
		C109.2,38.2,111,33.1,111.4,32.7z M225.7,49l5-0.4l-5.5-0.2c-5.4-0.2-5.5-0.1-5.4,2.5c0.1,2.2,0.2,2.3,0.5,0.5
		C220.7,49.7,221.5,49.3,225.7,49z M143.8,49.3c-0.3-0.6-1.1-1-1.6-1c-0.6,0-0.6,0.6,0.2,1.5C143.7,51.4,144.8,51,143.8,49.3z
		 M255.1,41.4v-7.9l2.6,0.6c1.9,0.5,2.3,0.4,1.2-0.4c-0.8-0.5-2.2-1-3.1-1c-1.5,0-1.7,1-1.7,7.8v7.8l-5-0.4
		c-3.9-0.3-4.3-0.2-1.7,0.3C255.3,50,255.1,50.2,255.1,41.4L255.1,41.4z M137.6,44.5c2.7-2.2,2.9-7.3,0.4-9.7
		c-1.6-1.5-1.7-1.5-0.6,0c1.6,2.1,1,7.7-0.8,8.6c-0.8,0.4-2.9,1.2-4.8,1.7l-3.3,1l3.5,0.1C134,46.3,136.3,45.6,137.6,44.5
		L137.6,44.5z M195.8,43.4c2.3-2.3,2.5-7.1,0.4-9.2c-2.2-2.2-2.7-1.9-0.9,0.6c3.3,4.8,1.2,8.5-5.5,9.6l-4,0.7l4.1,0.1
		C192.8,45.3,194.5,44.8,195.8,43.4L195.8,43.4z M224.1,36.9c-0.3-0.3-0.5,0.3-0.5,1.3c0,1.1,0.3,1.4,0.6,0.6
		C224.5,38,224.4,37.2,224.1,36.9L224.1,36.9z"/>
	<path id="path3036" fill="#D8A016" d="M169.5,388.6c-11.5-5.6-41.6-30.9-61.6-51.9c-54.7-57.3-85.3-125-96.5-214
		C10,110.9,7.6,75.3,7.6,64.2c0-18,5.6-29,18-35c13.2-6.4,39.7-14.7,59.9-18.8c35.4-7.2,84.9-10.4,122.3-7.9
		c41.9,2.8,73.5,8.7,103.9,19.4c21.7,7.7,28.2,12.1,33.1,22.4c2.5,5.3,2.5,5.5,2.3,26.8c-0.7,87.3-23.4,164.3-66.4,225.6
		c-20.2,28.8-48.8,58.2-79.7,81.8C184.5,391.1,178.6,393,169.5,388.6L169.5,388.6z M190.3,381.8c22.5-15.3,58-48.7,75.6-71.2
		c19-24.2,39.1-59,49.2-85.2c15.5-40.2,24.3-81.3,27.8-130.9c1.2-16.6,1.2-39.6,0.1-44.5c-0.6-2.5-0.5-3.7,0.2-4
		c1.4-0.5-1.8-5.6-3.5-5.6c-0.7,0-2.3-1.1-3.6-2.5c-9-9.8-55.2-23.6-97.4-29C208.2,5,156.7,4.5,126.1,7.9C79,13,28.9,27.3,18.7,38.4
		c-1.5,1.7-3.1,2.8-3.5,2.6c-4.9-3.1-4.9,43.2,0.1,83.2c11,88,42.4,156.1,98.3,213.2c19.7,20.1,43.7,40.4,56.6,47.7
		C177.2,389.1,180.4,388.6,190.3,381.8L190.3,381.8z M172.3,376.9c-2.2-1.3-8.4-5.8-13.8-9.9c-5.4-4.2-10.4-7.6-11.1-7.6
		s-2.7-1.3-4.4-2.8l-3.1-2.8l3.6,2.6c4.8,3.5,4.6,2.5-0.4-1.5c-2.2-1.8-3.7-2.7-3.3-2.1c1.6,2.6-1.2,0.9-4.7-3
		c-2.1-2.3-2.7-3.3-1.4-2.2c1.3,1.1-4.7-5.5-13.4-14.6c-15.3-16-30-33.7-39.6-47.7c-5.5-8-6.9-9.7-5.4-6.3l1.1,2.4l-2-2.4
		c-1.1-1.3-1.8-3-1.5-3.7c0.2-0.7,0-1-0.5-0.7c-1,0.6-4.1-4.7-3.3-5.6c0.3-0.3-1.6-4.5-4.2-9.3c-6.9-12.9-12.1-24.2-18.3-39.4
		c-3-7.4-5.7-13.1-6-12.8s-0.3-0.4-0.1-1.7c0.3-1.5,0.2-1.9-0.4-1.1c-1.2,1.7-4.4-7.7-3.6-10.7c0.5-1.8,0.4-2-0.5-0.8
		c-0.8,1.1-0.9,0.7-0.5-1.9c0.5-2.7,0.4-3.1-0.5-1.9c-0.9,1.2-1,1.2-0.5-0.3c0.3-1-0.5-6-1.8-11.2c-6.2-25.1-12.7-69.8-13-89.7
		c0-3.1-0.3-3.8-0.8-2.5c-0.7,1.8-0.8,1.7-1.4-0.5c-0.3-1.3-0.6-4.7-0.6-7.5c0-7.7-1.9-6.7-3.2,1.7c-0.2,1.3-0.4-4.1-0.5-12.2
		c-0.1-8,0.2-15,0.6-15.6c0.4-0.5,2-1,3.6-1c3.4,0,4.1-2.1,2.1-6.3c-1.3-2.7-1.3-3,1.1-5.5c2.4-2.5,11.4-7.2,16.4-8.6
		c2.3-0.6,2.3-0.6-0.2,0.9c-1.4,0.8-2.6,2-2.6,2.5c0,1.2,0,1.2,4.8-0.5c4.8-1.7,6.1-1.8,5.2-0.4c-0.4,0.7,0,0.9,1.1,0.5
		c20.6-6.6,38.2-11,56.7-14.2c8.8-1.5,14.9-3,13.9-3.3c-1.1-0.3,0.2-0.4,2.9-0.1c3.6,0.4,4.4,0.2,3.3-0.6c-1.1-0.8-0.2-1,3.8-0.6
		c2.9,0.3,14.5,0.1,25.8-0.4c38.1-1.6,54-1.9,52.8-1.1c-0.7,0.4,5.2,1.3,13,2c17.3,1.5,43.7,5.3,58,8.4c5.8,1.3,11.6,2.1,12.9,1.8
		c1.9-0.4,2-0.3,0.9,0.6c-1.2,0.9-1.1,1,0.6,0.5c2.5-0.7,7.2,0.3,6.5,1.4c-0.3,0.4,0.5,0.5,1.6,0.2c1.5-0.4,1.9-0.2,1.3,0.7
		c-0.6,0.9-0.2,1.1,1.4,0.5c1.4-0.4,1.9-0.3,1.5,0.3c-0.3,0.6,1.5,1.7,4.4,2.7c9.5,3.2,20.3,8.3,23,10.9c5.7,5.5,5.9,6.6,5.7,28.2
		c-0.2,16.7-2,46.5-3.7,58.6c-0.5,3.8-0.2,3.2,2.6-5.8c1.1-3.5,2.3-6.8,2.8-7.4c0.5-0.6,1.2-3.4,1.7-6.3c0.9-5,0.9-4.9,0.4,2
		c-3.3,48.6-19.8,106.4-42,147.3c-18.9,34.8-46.1,69.2-73,92.1l-6.2,5.3l4.3-4.8c2.4-2.6,5-6.4,5.9-8.3c0.9-1.9,3-5.2,4.7-7.3
		l3.1-3.8l-3.3,3c-1.8,1.6-6.1,5.5-9.5,8.7c-7.5,6.9-26.8,22.7-35.5,29C180.1,379.4,177.4,380,172.3,376.9L172.3,376.9z
		 M148.1,261.4c4.1-4.1,1.6-7.1-3.1-3.7c-1.7,1.2-3.3,2.3-3.5,2.5c-0.8,0.5,2.1,3.2,3.4,3.2C145.6,263.4,147,262.5,148.1,261.4z
		 M122.8,246.8c0.1-1.6-0.2-2.9-0.5-2.9c-1.3,0-3.2,4.7-2.5,6.4C120.7,252.8,122.7,250.5,122.8,246.8z M192.9,246.2
		c1.8-0.9,1.9-1.3,0.9-2c-0.7-0.5-2.3-2.4-3.4-4.2c-2.5-4.2-6-8.1-6.7-7.4c-0.3,0.3,0.9,2.7,2.6,5.5c2.6,4.1,3,5.6,2.6,8.7
		c-0.6,4.2,0.4,6.4,1.2,2.8C190.4,248.4,191.6,246.8,192.9,246.2L192.9,246.2z M243.6,244.6c0-0.7-0.4-1.8-0.8-2.5
		c-1-1.7-2.4,0.3-1.7,2.3C241.7,246.2,243.6,246.3,243.6,244.6z M205.4,223.4c0-0.5-0.9-1.3-1.9-1.9c-1.1-0.6-1.9-1.7-1.9-2.5
		s-0.4-1.4-1-1.4c-1.6,0-1.1,5.7,0.7,6.7C203,225.3,205.4,224.8,205.4,223.4L205.4,223.4z M130.2,209.8l0.5-5.4l-1.5,3.4
		c-0.8,1.9-1.6,5.6-1.8,8.3c-0.3,4.8-0.3,4.8,1,1.9C129.1,216.5,129.9,212.8,130.2,209.8z M180.3,216c0.2-1.6,1-1.9,4.9-1.9
		c5.4,0.1,8.2-1.9,9.2-6.4c0.5-2.2,0.1-3.4-1.4-5.1c-1.1-1.2-3.7-5.6-5.7-9.7c-4.2-8.5-4-8.9,3.8-8.1c2.6,0.3,4.7,0.2,4.7-0.2
		c0-1.3,4.9-2.9,8.6-2.9c2.7,0,4.1,0.5,5,1.9c0.7,1.1,1.8,1.9,2.6,1.9c1.1,0,1.1-0.2-0.2-1c-3-1.8-1.8-2.9,1.3-1.3
		c2.3,1.2,2.7,1.8,1.7,2.4c-1,0.6-0.7,0.9,1.1,0.8c2.4,0,2.4,0-0.7-2.9c-2.4-2.2-4-2.9-7-2.9c-2.1,0-4.7-0.5-5.7-1
		c-2.3-1.2-2.6-4.3-0.3-3.5c0.8,0.3,2.7,0.8,4.1,1.1l2.5,0.6l-2.4-2.1c-1.3-1.2-3.6-2.6-5-3.1c-3.2-1.1-3.4-3.4-0.5-4.5
		c2-0.7,1.9-0.8-0.7-1.4c-1.8-0.4-3.4-1.7-4.5-3.6c-1.5-2.7-2-3-4.6-2.4c-3.3,0.7-7.6-1.5-7.6-3.9c0-0.8,0.9-2.4,2-3.5l2-2l-1.8-6
		c-1.8-5.7-2.1-6.1-7.1-8.6c-7.8-3.8-8.1-7.1-1-12c4.3-3,7.7-3.1,12.8-0.4c4.1,2.1,6.6,6.4,6.6,11.5c0,1.9,1.7,5.2,5.2,10
		c5.4,7.4,7.6,13.1,7.1,18c-0.3,2.3-0.8,2.9-3.2,3.3c-2.5,0.4-2.3,0.5,1.4,1c3.6,0.5,4.5,1,5.8,3.5c2,4,6.6,10,6.6,8.5
		c0-0.6-0.9-3.5-2-6.3c-1.1-2.8-3.5-10.8-5.3-17.8c-1.9-7.3-5-16.1-7.3-20.9c-2.2-4.5-4.2-8.6-4.3-9c-0.2-0.4,0.6-0.8,1.6-0.8
		c3.2,0,8.5,5.6,12.6,13.2c4,7.5,7.3,10.5,10.7,10c1.8-0.3,2.1-0.9,1.9-4.3c-0.2-4.7-3.3-11.5-6.1-13.2c-2.8-1.8-2.3-2.7,1.4-2.7
		c3.3,0,5.2-1.3,3.5-2.4c-0.5-0.3-4.1-1.4-8-2.4c-3.9-1-11.5-3.9-16.8-6.4c-5.9-2.7-10.4-4.3-11.5-3.9c-1,0.3-4.1,2.6-6.9,5.2
		c-7.8,7-14,11.3-20.9,14.6c-11.5,5.5-13.9,9.4-16.6,27.4c-0.9,5.6-1.9,10.4-2.3,10.7c-1.8,1.3-10.8,14.1-12.1,17.3
		c-1.7,4.1-1.8,6.2-0.3,9.5c1.4,3.1,4.9,3.3,6.9,0.4c2.2-3.2,4.4-1.7,3.8,2.5c-0.4,2.3-0.2,3.5,0.5,3.5c1.7,0,4.9-3.7,6.4-7.4
		c1.8-4.4,3.6-5,8-2.4c4.6,2.6,10,2.7,13.1,0.1c1.3-1.1,2.8-1.7,3.2-1.4c1,0.7,2.3-1.5,2.3-3.9c0-2.6,3-3,4.3-0.6
		c0.8,1.5,0.7,2.5-0.1,3.9c-1.7,2.8-0.2,3.7,3,1.9l2.7-1.6l0.4,3.5c0.4,3.2-0.1,4-4.2,8.1c-5,5-6.4,8.5-4.8,12.2
		C177.8,219.1,179.9,218.9,180.3,216L180.3,216z M143.3,195.7c0-2.9,1.6-6.3,2.9-6.3c1.3,0,1.1,6.2-0.2,7.6
		C144.2,198.8,143.3,198.4,143.3,195.7z M156.2,182.9c-0.9-0.9-2-2.6-2.4-3.9c-1.3-3.4-3.5-3.8-6.2-1.2c-2.8,2.7-3.9,2-2.6-1.7
		c0.6-1.5,1.5-6.8,2.1-11.9c1.8-14.4,5.9-16.8,9.1-5.3c0.8,2.9,2.1,5.9,2.9,6.6c0.8,0.8,1.4,3.1,1.4,5.3c0,3.2,0.7,4.8,3.8,8.4
		c2.1,2.5,3.8,4.7,3.8,4.9s-2.3,0.4-5.2,0.4C159.4,184.5,157.2,184,156.2,182.9L156.2,182.9z M194.4,121.8c-2.3-1.9-2.6-2.6-1.5-3.3
		c2.6-1.8,8.5,2.1,6.7,4.4C198.1,124.7,197.7,124.6,194.4,121.8z M222.7,207.2c0.9-1-0.3-1.2-5.7-1.2c-10.4,0-15.4-3.5-15.4-10.8
		c0-8,10-10.2,12.6-2.8c0.5,1.6,1.4,2.8,1.9,2.8c0.5,0,0.5-0.8-0.1-1.9c-1.6-3.1-1.2-4,2.1-4.1c2.3-0.1,1.8-0.3-2-1
		c-2.8-0.5-5.9-1.3-6.9-1.8c-3.9-2.1-10.4-0.7-13.1,2.8c-3.4,4.5,0.6,13.7,7.4,17.4c3.6,2,5.4,2.3,11.2,2
		C218.5,208.5,222.1,207.8,222.7,207.2L222.7,207.2z M242.1,201c-0.4-0.6-0.7-2-0.8-3.1c-0.1-1.1-0.7-2.2-1.4-2.4
		c-0.8-0.3-1.1,0-0.7,0.6c0.4,0.7-0.1,1.1-1.2,1.1c-1,0-2.1,0.7-2.4,1.5c-0.4,1.1,0.2,1.5,2.2,1.5c1.5,0,3,0.4,3.4,1s0.8,1,1.1,1
		C242.5,202.1,242.4,201.6,242.1,201L242.1,201z M238.2,176.2c0.7-1.9-0.3-9.2-1.3-9.2c-1.5,0-2.6,8.7-1.3,10.1
		C236.7,178.1,237.6,177.8,238.2,176.2L238.2,176.2z M139.5,170.8c2.1-3.3,3.8-6.5,3.8-7.1c0-0.6-1.1,0.8-2.4,3.1
		c-1.3,2.3-3.3,5.5-4.4,7.1s-1.7,2.9-1.4,2.9S137.4,174.1,139.5,170.8L139.5,170.8z M241.2,149.3c-0.7-4.1-2.1-5.6-3.4-3.6
		c-1.4,2.3-1,7.6,0.8,9.4c1.6,1.7,1.7,1.7,2.4-0.2C241.4,153.8,241.5,151.3,241.2,149.3z M144.8,150.7c-0.3-0.3-0.5,0.3-0.5,1.3
		c0,1.1,0.3,1.4,0.6,0.6C145.2,151.9,145.1,151.1,144.8,150.7L144.8,150.7z M152.4,136.9c1-1.1,1.5-1.9,1.3-1.9s-1.3,0.9-2.2,1.9
		c-1,1.1-1.5,1.9-1.3,1.9C150.4,138.8,151.4,137.9,152.4,136.9z M236.5,114.1c1.3-6.9-4.9-14.3-12.9-15.8c-3.3-0.6-3.3-0.6,1,1.7
		c7.5,4,10.9,12.6,7.1,18.1c-0.8,1.2-1.2,2.7-0.8,3.3C231.8,123.1,235.7,118.1,236.5,114.1z M179.1,119.3c1-1.1,1.5-1.9,1.3-1.9
		c-0.3,0-1.3,0.9-2.2,1.9c-1,1.1-1.5,1.9-1.3,1.9S178.2,120.4,179.1,119.3z M185.3,114c0.7-0.8,1-1.5,0.7-1.5s-1,0.7-1.7,1.5
		c-0.7,0.8-1,1.5-0.7,1.5C183.9,115.4,184.7,114.8,185.3,114z M168.6,95.4c-8.2-3-8.7-8.7-0.9-11.7c3.8-1.5,6.2-1.4,10.3,0.2
		c1,0.4,1.5,0.1,1.5-1c0-2.1,3.8-3.5,9.9-3.6c3.9-0.1,4.5-0.3,2.6-0.9c-9.8-3.2-27.9,1.9-32,9l-1.8,3l3.5,3.2
		c2.7,2.5,4.3,3.2,7.1,3.2l3.6-0.1L168.6,95.4L168.6,95.4z M39.1,69.7c0-16.3,0.2-19.4,1.4-19.9c1.2-0.5,1.4,1.7,1.4,16.4
		c0,18.9-0.4,18.1,6.7,15.5c4.7-1.7,5.7-1.8,5.7-0.6c0,0.5-3.2,2-7.2,3.5s-7,2.9-6.8,3.1C40.6,88,44,87,48,85.6
		c6.4-2.3,7.3-3,7.6-5.4c0.4-3,0-3-6.8-0.1c-6.2,2.6-6,3.1-5.7-15.7c0.2-9.4,0.2-17,0.2-17c-0.1,0-1.5,0.5-3.1,1.1l-3,1.1v20.4
		c0,13.4,0.3,20.2,1,19.8C38.8,89.3,39.1,81.6,39.1,69.7z M197.6,88.3c1-0.6,0.7-1-0.9-1.4c-1.2-0.3-2.4-0.2-2.7,0.3
		c-0.3,0.5-2,1-3.9,1.3c-2.7,0.3-2.4,0.4,1.4,0.6C194.2,89.1,196.9,88.8,197.6,88.3z M312.6,68.1L312.3,49l2.7,0.7
		c3.2,0.8,1.9-0.8-1.4-1.9l-2.1-0.7v20c0,11,0.3,20,0.7,20C312.5,87.2,312.7,78.6,312.6,68.1L312.6,68.1z M294.1,67.9
		c-3.2-8.1-6.1-14.6-6.3-14.4c-0.2,0.2,1.8,6,4.5,12.9s5.3,13.6,5.8,14.9c0.5,1.3,1.1,2.1,1.4,1.8C299.8,82.8,297.4,76,294.1,67.9
		L294.1,67.9z M65.4,75.8c0.9-6.1,1.3-6.8,4.1-7.5c1.4-0.3,3.3-0.8,4.2-1.1c1.3-0.4,1.8,0.6,2.7,4.8l1.1,5.3l2.9-1
		c3.4-1.2,3.6,1-2.3-22.2L74,37.9l-2.9,0.8c-2.8,0.7-3,1.2-4.6,8.3c-0.9,4.2-3.1,13.7-4.8,21.3l-3.2,13.7l3.1-1
		C64.4,80.2,64.8,79.6,65.4,75.8z M62.4,76c-0.3-0.8-0.4-1.7-0.1-2c0.3-0.3,0.7,0.4,1,1.5C63.9,77.8,63.2,78.2,62.4,76L62.4,76z
		 M63.1,71.2c0-1,0.2-1.6,0.5-1.3c0.3,0.3,0.4,1.2,0.1,1.9C63.4,72.6,63.1,72.4,63.1,71.2L63.1,71.2z M65,62.5c0-1,0.2-1.6,0.5-1.3
		c0.3,0.3,0.4,1.2,0.1,1.9C65.3,63.8,65.1,63.6,65,62.5L65,62.5z M68.9,60.2c0.1-1.5,0.6-4.9,1.2-7.5l1.2-4.9l1.2,6.7
		c1,5.5,1,6.9-0.1,7.5C70,63.6,68.8,62.9,68.9,60.2z M66,58.6c0-1,0.2-1.6,0.5-1.3c0.3,0.3,0.4,1.2,0.1,1.9C66.2,60,66,59.7,66,58.6
		L66,58.6z M67.5,52.7c1.1-6.5,2.3-9.4,1.7-3.9c-0.3,2.7-1,5.5-1.4,6.3C67.1,56.1,67,55.2,67.5,52.7z M69.7,42.2
		c0-1.1,0.7-1.7,2.1-1.6c1.4,0.1,1.7,0.3,0.7,0.6c-0.8,0.3-1.7,1-2.1,1.6C70,43.5,69.7,43.3,69.7,42.2z M282.8,58.6V39.8l2.6,0.4
		c2.1,0.3,2.3,0.2,1.2-0.6c-0.8-0.6-2.4-1-3.6-1l-2.1,0V58c0,12.3,0.4,19.5,1,19.5C282.4,77.5,282.8,70.6,282.8,58.6z M93.2,73.6
		c1.1,0,1.4-2.5,1.5-12.9c0.1-7.1,0.3-11.8,0.6-10.5c0.7,3.9,6.2,21.8,6.9,22.7c0.4,0.4,1-0.9,1.3-2.9c0.3-2,2.1-8.3,3.9-13.9
		l3.3-10.2l-0.6,12.7l-0.6,12.7l3-0.4l3-0.4l0.3-19.8l0.3-19.8l-3,0c-2.9,0-3.1,0.2-5.1,7.1c-1.2,3.9-2.8,10-3.8,13.7l-1.7,6.6
		L99,47c-1.9-6.1-3.5-11.6-3.5-12.2c0-1.2-1.3-1.4-4.5-0.5c-2.1,0.6-2.1,0.7-2.1,20.5c0,17.8,0.2,19.9,1.5,19.4
		C91.2,73.9,92.5,73.6,93.2,73.6z M268.6,55.5l-0.3-19.1l2.4,0.6c1.3,0.3,2.4,0.2,2.4-0.3s-1.3-1.1-2.9-1.3l-2.9-0.4v19.8
		c0,10.9,0.3,19.8,0.7,19.8C268.6,74.6,268.8,66,268.6,55.5L268.6,55.5z M254.8,57.8c-0.2-2.8-0.4-0.5-0.4,5.1s0.2,7.9,0.4,5.1
		C255,65.2,255,60.6,254.8,57.8z M136.7,67.7c5.2-1.3,7.8-4.8,8.3-11c0.4-4.6,0.1-5.6-1.9-7.7c-2.3-2.3-2.3-2.4-0.6-4.6
		c2.7-3.4,2.3-10.2-0.6-13.2c-2.2-2.3-2.9-2.4-10.3-2.1l-7.9,0.3l-0.3,20.1l-0.3,20.1l5-0.4C131,68.7,134.8,68.2,136.7,67.7z
		 M128.9,56.6v-6.3h3.7c4.4,0,6.8,2.3,6.8,6.5c0,3.8-2.6,6.2-7,6.2h-3.5V56.6z M129.3,44c-0.3-0.7-0.4-3.2-0.2-5.6
		c0.3-3.8,0.6-4.3,2.9-4.6c4.1-0.5,6.5,1.4,6.5,5.1c0,3.7-1.1,4.9-5.5,5.8C130.8,45.2,129.7,44.9,129.3,44L129.3,44z M238.8,50.6
		c0-18.6,0-19.1,1.9-18.6c1.1,0.3,1.9,0.2,1.9-0.3c0-0.7-3.2-1.9-5-2c-0.4,0-0.7,9-0.7,19.9c0,12.7,0.3,20,1,20
		C238.5,69.7,238.8,62.7,238.8,50.6z M301.7,44.9c2.6,0.5,2.6,0.5-0.3-0.9l-2.9-1.4l-0.3,11.2c-0.2,10.1-0.4,11.1-1.7,9.4
		c-1.3-1.7-1.3-1.6-0.4,1.1c2.1,6.2,2.4,5.4,2.6-7.1l0.3-12.9L301.7,44.9L301.7,44.9z M225.4,67.2c1.6-1,1.7-1.3,0.5-0.8
		c-1.1,0.4-3.4,1-5.3,1.4c-3.3,0.7-3.3,0.7-0.5,0.8C221.8,68.6,224.1,68,225.4,67.2z M167,65.8c3.8-2.4,5.8-6.9,6.6-14.9
		c1.5-16.6-5.9-28.1-15.3-23.5c-4.8,2.3-7.5,8.4-8.1,18C149.2,62.9,156.8,72.1,167,65.8z M158.6,60c-3.9-4-4-20.6-0.1-24.9
		c2.9-3.2,5.3-3.1,7.4,0.2c1.3,2.1,1.7,4.7,1.7,12s-0.4,9.9-1.7,12C164,62.4,161.2,62.7,158.6,60L158.6,60z M201.6,65.8
		c0-0.4-1.2-4.4-2.7-8.7l-2.7-7.9l2.3-1.5c5.1-3.4,5-14.6-0.3-18.8c-2-1.6-3.9-2-10-2h-7.5v20v20h2.4c2.4,0,2.4-0.1,2.4-8.8v-8.8
		l2.6,0c2.5,0,2.8,0.5,5.4,9.1c2.7,8.9,2.8,9,5.5,8.6C200.3,66.7,201.6,66.2,201.6,65.8L201.6,65.8z M197.4,65.1
		c-0.2-0.4-1.6-4.3-3-8.8l-2.6-8h-3.7c-2.4,0-3.7-0.4-3.7-1.2c0-0.8,1.8-1.3,5.3-1.4c2.9-0.1,5.9-0.7,6.6-1.3c3.5-3,2.4-10.6-2-12.6
		c-2.8-1.3-8.6-1.5-9.4-0.2c-0.3,0.5-0.6,5.7-0.7,11.7c-0.1,5.9-0.4,10.5-0.7,10.2c-0.3-0.3-0.7-6-1-12.6L182,28.8l6.7,0
		c7.8,0,10.3,1.3,11.9,6.3c1.5,4.6,0.4,8.8-3,11.4l-2.8,2.2l2.8,8.5c2.1,6.5,2.5,8.5,1.5,8.5C198.4,65.8,197.7,65.5,197.4,65.1
		L197.4,65.1z M185.7,43.1c-0.3-0.7-0.4-3.5-0.2-6.1c0.3-4.6,0.4-4.8,3.4-5c6.2-0.6,10.5,7.6,5.8,11C192,44.8,186.4,44.9,185.7,43.1
		z M214.1,65.3c-3.7-3.2-5.2-8-5.3-17c-0.1-9.7,2.3-16.2,6.6-18.1c4.4-1.9,9.5-0.1,11.8,3.9c0.6,1.1,1.1,1.4,1.1,0.7
		c0-0.7-1.2-2.6-2.8-4.1c-2.1-2.2-3.7-2.8-6.6-2.8c-8.3,0-12.1,7.1-11.5,21.6c0.4,10,2.4,15.9,6,17.4
		C216.9,68.2,217.1,67.8,214.1,65.3z M223.8,63.4c3.3-3.4,2.7-11.2-0.9-11.2c-0.7,0-1.3-0.7-1.3-1.6c0-1,0.5-1.4,1.5-1
		c0.8,0.3,2.5,0.6,3.8,0.6c2,0,2.3,0.5,2.6,5.1l0.4,5.1l0.2-6.1l0.2-6.1H225c-4.9,0-5.3,0.1-5.3,2.4c0,1.9,0.6,2.4,2.6,2.7
		c2.3,0.3,2.6,0.7,2.3,3.2c-0.5,4.3-1.9,6.3-4.2,6.3c-3.5,0-6.4-3.1-7.3-7.8c-0.6-3-0.9-3.5-0.9-1.8
		C211.8,61.3,219.4,67.9,223.8,63.4z M229.1,62.4c-0.3-0.3-0.8,0.2-1.2,1.2c-0.5,1.4-0.4,1.5,0.5,0.5
		C229.1,63.5,229.4,62.7,229.1,62.4z M255.1,41.9c0-7.1,0-7.2,2.4-7.2c1.4,0,2.2-0.4,1.9-1c-0.3-0.5-1.6-1-2.9-1
		c-2.3,0-2.3,0.2-2.3,7.8c0,5.6-0.3,7.8-1.2,7.7c-0.7,0-3.2-0.4-5.7-0.8c-2.5-0.4-4.5-0.4-4.5,0c0,0.4,2,1,4.5,1.4s5,0.7,5.5,0.9
		C254.6,50.3,255.1,48.9,255.1,41.9L255.1,41.9z M213.5,40.2c0.3-2,1.4-4.6,2.5-5.6c1-1,1.4-1.9,0.9-1.9c-1.7,0-4,4.7-4.4,9
		C212,46.5,212.6,45.6,213.5,40.2L213.5,40.2z M225.4,39.1c0-1.3-2.3-5.4-3.3-5.7c-0.8-0.3-0.6,0.7,0.4,2.8
		C223.8,39,225.4,40.6,225.4,39.1L225.4,39.1z M229.3,37.6c0-0.5-0.6-0.7-1.4-0.4s-1.4,0.7-1.4,0.9s0.6,0.4,1.4,0.4
		S229.3,38.1,229.3,37.6z M33,34.9c-0.3-0.3-1.1,0-1.7,0.7c-0.9,1-0.8,1.1,0.5,0.5C32.7,35.7,33.3,35.2,33,34.9z"/>
	<path id="path2991" fill="#9F6B08" d="M175.4,390c-3.6-0.5-6-1.7-11.2-5.4c-17.6-12.9-32.2-24.8-45.2-37.1c-5-4.7-16-16-19.9-20.4
		c-15.8-18-28.9-36.5-44.9-63.4c-3.5-5.9-7.8-14.8-13.7-28.2C21.3,191.9,11.3,148,8.3,94.3C7.8,83.9,7.6,75.9,7.6,64
		c0-9.8,0.1-11,0.6-13.5c0.9-4.9,2.6-9.5,4.7-12.6c2.6-3.9,9.5-9.4,15.1-12.1c7.9-3.7,27.1-9.5,44.4-13.4c4.7-1,14-2.9,17.1-3.5
		c0.9-0.2,2.9-0.5,4.3-0.8c1.4-0.3,3.4-0.6,4.3-0.7c0.9-0.1,2.4-0.4,3.3-0.6c0.9-0.2,2.6-0.5,3.8-0.6c1.2-0.2,3.7-0.5,5.5-0.7
		c1.8-0.3,3.8-0.5,4.4-0.6c5.8-0.7,7.6-0.9,11.5-1.3c19.5-2.1,45.3-3.1,64-2.5c8.2,0.3,26.8,1.4,28.2,1.6c0.4,0.1,2.2,0.2,4.1,0.3
		c1.8,0.1,4.8,0.4,6.7,0.6c1.8,0.2,4.8,0.6,6.6,0.8c8.3,0.9,15.6,1.9,18.6,2.4c1.1,0.2,4.1,0.7,6.6,1.1
		c26.3,4.2,48.1,10.4,64.3,18.2c7,3.4,9.8,5.3,13.2,8.9c4,4.3,6.3,8.8,7.6,14.5c1.1,4.8,0.6,34.8-0.9,53.9c-2,26-5.3,47.9-10.9,70.8
		c-6,24.7-14.1,47.4-25.8,72.5c-4,8.5-5,10.6-8.3,16.2c-1.8,3-3.3,5.6-3.3,5.7c-0.1,0.1-0.4,0.7-0.8,1.3s-0.8,1.3-1,1.6
		c-0.2,0.3-0.7,1.2-1.3,2.2s-1.1,1.8-1.1,1.9c-0.1,0.1-0.2,0.3-0.2,0.4c-0.1,0.1-0.6,0.9-1.2,1.8c-0.6,0.9-1.5,2.3-2,3.1
		s-0.9,1.5-0.9,1.6c0,0.1-0.1,0.3-0.2,0.3c-0.2,0.1-1.5,2.1-1.5,2.4c0,0.1-0.2,0.3-0.4,0.4c-0.2,0.1-0.4,0.3-0.4,0.4
		s-0.6,1.1-1.3,2.2s-1.3,2-1.3,2.2c0,0.1-0.2,0.3-0.4,0.4c-0.2,0.1-0.4,0.3-0.4,0.5c0,0.2-0.1,0.4-0.2,0.4c-0.1,0-0.4,0.3-0.5,0.7
		c-0.2,0.4-0.4,0.8-0.5,0.9c-0.8,1.1-1.8,2.5-3.5,5c-1.7,2.5-3.5,5-6,8.3c-21.5,29.1-44,50.9-79.4,77c-5.2,3.8-7.6,5.2-10.6,5.9
		C180.1,390,177.1,390.2,175.4,390L175.4,390z M181.5,387.8c3-0.8,5.5-2.1,10.2-5.6c45.2-33.3,70.4-60.4,99.1-106.5
		c7.7-12.4,11.5-18.9,14.6-25.5c8.4-17.8,14.4-32.5,19.3-47.5c12-36.3,18.5-74.7,20.2-119.1c0.4-10.4,0.3-30.7-0.1-33.2
		c-1.2-6.8-5.3-13.4-11.4-17.9c-2.2-1.7-10-5.7-15.1-7.7c-14.8-6.1-31.8-10.6-54-14.5c-13-2.3-30.1-4.4-46.5-5.7
		c-1.7-0.1-3.7-0.3-4.4-0.4c-2.2-0.2-12.7-0.8-18.8-1.1c-11.5-0.5-32.4-0.3-47,0.6C109.4,6,67.5,13.7,38.7,23.6
		c-7.9,2.7-10.7,4-14.8,6.7c-6.6,4.4-9.7,7.7-11.8,13c-2.6,6.2-3,11.5-2.6,30.3c0.5,23.9,1.9,42.5,4.7,62
		c5.5,38.8,15.2,71.6,31.7,107.4c6.4,14,8.3,17.3,18.5,33.7c2.5,4,9.4,14.4,12.2,18.5c19.2,27.5,37.9,47.4,65.6,70
		c7.2,5.9,24.4,18.9,27.3,20.7c1.1,0.7,3.8,1.7,5.1,2C176.4,388.4,179.5,388.3,181.5,387.8L181.5,387.8z M175,378
		c-1.5-0.4-4.8-2.7-11.6-8.1c-41.7-32.8-65.3-58.5-88.8-96.8c-3.1-5.1-7.3-12.3-10.2-17.4c-2.8-5.1-11.8-24.1-16.3-34.6
		c-15.9-36.9-24.7-75.3-27.4-119.8c-0.9-15.7-1.1-37.1-0.3-41.6c0.9-4.9,2.5-9.2,4.7-12.6c2.4-3.6,6.8-7.2,11-9
		c8.6-3.6,28.2-9.2,44.9-12.9c29.1-6.4,56.3-9.8,86.8-10.6c8.4-0.2,23-0.2,25.9,0.1c0.5,0.1,2.6,0.2,4.5,0.2
		c18.9,0.8,44.2,3.5,62.4,6.7c22.4,4,39.5,9,54.2,16c2.3,1.1,5,2.4,6,2.8c8.1,3.8,11.8,9.7,13,20.7c0.6,5.4-0.8,32.3-2.7,51.1
		c-5.4,53.5-16.2,92.7-36.6,132.2c-8.2,16-21.4,37.8-31.3,52c-17,24.3-33.6,41.3-66.8,68.8c-0.7,0.6-3.5,2.9-6.2,5.2
		c-2.8,2.3-5.7,4.7-6.6,5.3C180.6,377.9,177.5,378.7,175,378L175,378z M113.1,291c2.9-1.4,3.9-3.4,4.3-9.2c0.3-3.8,1-5.3,2.9-5.7
		l0.9-0.2l-0.1-2.3c-0.2-3.4-0.1-8.5,0.1-9.3c0.1-0.4,1.3-2.1,2.6-3.8c3.2-4.1,5.1-6.9,5.7-8.3c0.2-0.6,0.7-2.7,0.9-4.7
		c0.6-3.9,0.3-3.4,4.6-10.5c1.3-2.1,3.2-5.7,4.3-7.9c1.2-2.4,2.3-4.4,2.8-5c0.5-0.5,1.1-1.2,1.4-1.6c0.3-0.3,0.6-0.6,0.7-0.6
		c0.5,0,1.9,1.5,2.4,2.6c0.5,1.1,0.6,1.4,0.6,6.8c0,5.7,0,5.7,0.6,6.1c0.3,0.3,0.8,0.5,1.1,0.5c0.5,0,0.5,0-0.1-0.7
		c-1-1.1-1.2-2.5-1-6.7c0.1-3.2,0.1-3.7-0.4-5.1c-0.3-0.9-0.5-2-0.5-2.4c0.1-0.7,0.1-0.8,1.2-0.9c1.2-0.1,1.8-0.5,2.4-1.8
		c0.5-0.9,0.6-1.6,0.5-3c0-0.7-0.2-0.9-1.3-1.5c-1.6-0.9-2.1-1.6-2.4-3.6c-0.3-2.3-0.1-9.6,0.4-11.2c0.4-1.5,0.6-1.5,2.3-0.3
		c1.7,1.2,6.7,3.4,9.2,4c3.1,0.8,7.2,0.9,8.6,0.2c1.2-0.6,5.4-3.9,7.2-5.6c0.8-0.8,2.1-1.9,2.9-2.5c0.8-0.6,1.9-1.4,2.4-1.9
		c0.5-0.4,1.2-0.8,1.5-0.8c0.8,0,3.1,0.9,3.9,1.6c1.4,1.2,0.7,2.5-2.8,4.8c-2.8,1.8-5.7,5.1-7.1,7.8c-0.6,1.3-3.5,10-3.5,10.6
		c0,1,0.8,3.2,1.6,4.3c2.9,4.1,4.3,6.3,4.6,7.5c0.2,0.7,0.5,1.7,0.7,2.1c0.8,1.9-0.2,2.9-3.3,3.7c-1.2,0.3-2.8,0.6-3.6,0.7l-1.4,0.2
		l0.4,0.6c0.3,0.5,0.4,0.5,0.6,0.2c0.2-0.3,0.7-0.4,2.9-0.4c2.2,0,3-0.1,4-0.5l1.3-0.5l0.6,0.8c0.7,0.9,4.5,4.9,4.5,4.8
		c0-0.6-1.8-4.9-3.3-7.7c-1-1.9-2.3-4.6-2.9-5.8c-0.6-1.3-1.9-3.5-3-5c-1.1-1.5-2-2.9-2.1-3.3c-0.3-1.2-0.2-3.3,0.4-5
		c0.9-2.6,1.7-2.5,1.7,0.4c0,2.1,0.3,2.7,2.6,6.1c2.6,3.9,2.8,4.2,4.1,7.5c1.1,2.8,2.5,5.4,4.1,7.7c0.8,1.2,2.3,5.4,2.3,6.4
		c0,0.4-0.3,0.9-0.8,1.4l-0.8,0.8l-0.5-0.7c-0.3-0.4-0.6-0.6-0.7-0.5c-0.1,0.1-0.2,0.9-0.3,1.7c-0.1,1.5-0.1,1.6,0.8,2.3
		c0.8,0.7,0.9,0.9,0.9,2.3c0,1.8,0.5,3,1.6,3.7c0.4,0.3,1.9,0.7,3.4,1.1l2.7,0.5l0.9-0.8c1.6-1.3,3.6-3.7,3.8-4.7
		c0.3-1.2,0.1-2.2-0.5-2.8c-0.3-0.2-0.6-0.7-0.8-1.1c-0.5-1-0.1-1.2,2.1-1.2c1.7,0,1.9,0,2.4-0.7c0.6-0.8,2.3-4.4,3.2-7.2
		c0.5-1.4,0.6-2.2,0.6-4.1c0-1.9,0.1-2.6,0.6-4.1c0.9-2.5,0.9-4.3,0-6c-0.7-1.4-1.2-1.9-3-3c-2-1.2-1.7-2,1-3.1
		c1.5-0.6,2.3-1.2,2.3-1.9c0-0.6,0-0.6-2.1-0.4c-2.1,0.1-2.1,0.1-2.6-0.5c-1.3-2-2.1-2.2-3.4-1.3c-1.5,1-4.8,7.1-4.8,8.8
		c0,1,1.1,2,3.1,2.8c1,0.4,2.1,0.9,2.4,1.1c1,0.6,1.5,1.8,1.5,3.4c0,0.8,0.1,1.8,0.2,2.2c0.1,0.4,0.3,1.4,0.3,2.2
		c0,1.3-0.1,1.9-0.7,3.1c-1,2-4,5.9-4.8,6.2c-0.9,0.3-1.7-0.4-2.2-1.7c-0.3-1-0.3-1.1,0.2-2.3c1.1-2.6,1.3-3.6,1-7.3
		c-0.1-1.9-0.4-3.8-0.5-4.1c-0.5-1.1-1.3-0.8-2.9,1.3c-1.6,1.9-2.6,2.7-3.4,2.7c-0.8,0-1.1-0.8-1-2.8c0.1-2,0.6-3.3,2.3-7.1
		c1.3-2.9,3.3-8.3,4-10.7c0.5-1.8,0.6-6.5,0.1-8.4c-0.3-1-0.6-1.6-1.6-2.7c-2.2-2.3-5-6.3-6.5-9.2c-1.7-3.3-2.9-6.8-2.3-6.8
		c0.3,0,3,3.5,4.1,5.3c1.3,2.3,2,2.8,3.2,2.7c0.9-0.1,0.9-0.1,1,0.8c0.5,2.9,1.8,5.7,3.9,8.2c1,1.2,5,4.5,6.2,5.1
		c1.4,0.7,3.6,1.4,6.2,2.1c1.6,0.4,2.9,0.5,5.9,0.5c4.1,0,5-0.2,6-1.2c0.3-0.3,1.1-0.7,1.9-1c0.8-0.3,1.7-0.7,2-0.8
		c0.8-0.4,1.5-1.4,1.3-2c-0.1-0.5-0.4-0.5-3.2-0.7c-3.6-0.2-6.8-0.9-9.3-2.2c-0.9-0.5-2.4-1.2-3.3-1.5c-2.8-1.1-4.9-2.8-5.4-4.4
		c-0.2-0.8,0.2-1.5,1.2-1.7c0.5-0.1,0.9-0.3,1-0.4c0.1-0.1,0.3-0.2,0.5-0.2c1,0,1.1-0.3,0.6-2.6c-0.6-2.8-0.6-3.2,0-3.2
		c1,0,1.7,0.6,3,2.6c0.8,1.2,2,2.7,2.7,3.5c1.2,1.3,1.5,1.4,2.3,1.4c0.5,0,1-0.1,1.1-0.2c0.1-0.1-0.1-0.7-0.3-1.2
		c-0.3-0.6-0.5-1.4-0.5-2.2c0-1,0.1-1.4,0.7-2.1c0.7-0.8,0.8-0.9,2.1-0.9c1.6,0,2.7,0.6,3.6,2c0.5,0.8,0.7,0.9,1.7,0.9
		c0.8,0,1.3-0.2,2-0.6c0.8-0.5,1-0.6,1.5-0.4c0.3,0.1,0.8,0.7,1.2,1.2c0.3,0.5,0.9,1.2,1.3,1.6c0.7,0.6,0.8,0.7,2,0.5
		c0.7-0.1,1.6-0.1,1.9,0.1c1.1,0.4,1.2,1,0.8,3.4c-0.4,2-0.4,2.2,0,3.2c0.2,0.6,0.7,1.4,1.1,1.9c0.8,0.9,0.8,1,1.2,4
		c0.3,2.9,0.1,5-1.2,8.2c-0.5,1.4-1.3,3.5-1.8,4.8c-0.5,1.3-1.2,2.7-1.5,3.1l-0.7,0.8l1,0.8c1.3,1,2.2,2.6,3.6,6.2
		c1.9,5,2.1,5.7,2.1,7.6c0,1.5-0.1,2.3-1,4.9c-1.4,4.1-1.4,5.7-0.2,7.4c0.5,0.6,0.8,1.3,0.8,1.5s-0.6,1.4-1.3,2.6c-3,5-3,7.3,0,10.1
		c1.6,1.5,3,2.2,3.9,2.1c0.6-0.1,0.6-0.2,0.7-1.4c0.1-1.5,0.8-2.5,1.6-2.4c0.4,0.1,0.5,0.3,0.6,1.7c0.2,2.1,0.3,2.4,0.9,2.4
		c1,0,4.3-2.6,5-4l0.4-0.7l-1,0.7c-0.6,0.4-1.3,1-1.6,1.4c-0.7,0.8-1.4,0.8-2.2,0.1c-0.8-0.7-1-1.6-0.5-3.4c0.5-2.1,0.4-3.8-0.5-4.5
		c-0.5-0.5-0.9-0.6-2.5-0.6c-1,0-2-0.1-2.2-0.2c-0.6-0.4,0.1-1.4,1.6-2.2c2.2-1.2,2.4-2,0.4-3c-1.3-0.7-1.6-1.1-1.6-2.2
		c0-1.3,0.9-2.4,2.1-2.9c1.5-0.6,2.2-1.4,2.2-2.9c0-1.7-0.6-2.8-2-3.9c-2.4-1.8-2.3-1.7-2.3-3.9c0-1.6,0.1-2,0.4-2.4
		c0.3-0.3,0.5-1,0.6-2.4c0.1-1.3,0.3-2.4,0.6-3c0.8-1.7,0.7-2.1-0.8-4.4c-1-1.5-1.3-3-1.3-6.5c0-1.4-0.1-2.9-0.2-3.2
		c-0.3-0.8,0-3.6,0.4-3.8c0.7-0.3,1.8,0.5,2.5,1.8c0.8,1.4,1,1.5,1.2,0.8c0.2-0.8,1.4-0.6,4.1,0.6c6.2,2.8,13.2,3.3,17,1.4
		c2.2-1.1,6-4.5,7-6.2c0.9-1.5,0.9-1.6-3-1.4c-3.9,0.1-6.3-0.2-8.8-1.1c-2.2-0.8-4.6-2.5-6-4.1c-0.6-0.7-2.2-2.2-3.6-3.4
		c-1.4-1.1-2.5-2.2-2.6-2.4c-0.1-0.2-0.3-0.4-0.5-0.4c-0.7,0-4-1.5-5.7-2.7c-1-0.7-2.2-1.4-2.8-1.7c-1.7-0.9-8.3-2.2-12.3-2.5
		l-2.2-0.2l-0.2-0.9c-0.3-1.6-0.8-2.7-2.2-5c-1.2-1.9-1.4-2.4-1.4-3.3c0-1.3-0.5-2.5-2.3-5.3c-0.9-1.4-1.5-2.7-1.8-4
		c-0.3-1.1-0.9-2.9-1.4-4.1c-1.2-2.7-1.6-4.1-1.9-6.9c-0.4-3.1-0.8-4.8-1.9-7.7c-0.5-1.4-1.2-3.7-1.5-5.2c-0.8-3.8-1-4.5-3-7.4
		c-1-1.4-1.8-3-1.9-3.4c-0.1-0.5-0.5-1.2-0.8-1.6c-0.4-0.4-1.1-1.5-1.6-2.3c-0.5-0.9-1.2-1.9-1.5-2.4c-0.3-0.5-0.5-1.1-0.5-1.5
		c0-1,0.6-1.3,2.4-1.3c3.8,0.2,6.7,3,10.5,10.4c3,5.9,5.5,8.9,8.7,10.5c1.2,0.6,2,0.9,2.8,0.9c1.4,0,1.9-0.5,2.1-2.2
		c0.1-1.4-0.1-2.7-1.4-6.8c-0.7-2.4-1-3.6-1.1-5.5c-0.2-3-0.3-3.2-3-4.1c-2.3-0.8-2.5-1.2-0.6-1.7c1.9-0.5,3.9,0,6.1,1.6
		c1.4,1,1.7,1.1,2.6,1c0.8-0.1,1.3-0.4,2.4-1.4c1.3-1.2,1.4-1.4,1.3-2.2c-0.1-1,0.5-2.5,1.4-3.3c0.7-0.6,1.1-1.6,1.9-4.8
		c1.1-4.3,0.8-7.8-0.9-10.7c-1.3-2.3-7.7-7.5-11.4-9.3c-3.4-1.6-3.6-1.6-21.9-1.8c-20.5-0.2-29.6-0.7-32.2-1.6
		c-3.8-1.3-6.6-3.7-6.2-5.3c0.2-0.9,1.5-2.2,2.7-2.7c2.1-0.8,5.1-0.2,11,2.2c5.4,2.2,8.6,2.7,14.8,2.5c5.5-0.2,9.9-0.9,11-1.7
		c0.4-0.3,0.4-0.3,0-0.7c-0.2-0.2-2-0.8-3.9-1.3c-4.2-1.1-6.5-2-6.5-2.5c0-0.3,0.4-0.4,3.2-0.2c3.2,0.1,6.8,0.8,9.5,1.6
		c1.7,0.5,5.6,0.7,6.9,0.2c0.8-0.3,1-0.9,0.4-1.5c-1.5-1.6-9.9-4.6-16.4-6c-4.1-0.8-7.2-1.1-14-0.9c-8.4,0.2-11.8,0.8-15.8,2.8
		c-3.3,1.7-7.1,5.2-8.3,7.7c-1.4,2.9-0.5,4.8,3.6,7.3c2.8,1.7,5,2.4,9.7,3.1c8.5,1.2,14.5,1.5,31,1.5c8.1,0,14.5,0.1,15.3,0.2
		c2.5,0.4,5.4,1.5,6.9,2.5c1.8,1.2,4,3.8,5.1,6.1c0.8,1.5,0.9,1.9,0.9,3.5c0,1.6-0.1,2-0.7,3.1c-0.9,1.7-2.8,3.8-3.8,4.2
		c-1.1,0.5-3.8,0-7-1.2c-2.2-0.9-3-1-5.3-1.2c-2.9-0.2-3.2-0.3-7.6-2.3c-4.4-2-11.2-4.2-14.5-4.8c-1.6-0.3-3.2,0-5.4,1.1
		c-2.3,1.1-3.6,2.1-8.1,6.5c-4.2,4.1-6.2,5.7-8.5,6.8c-4.3,2.1-16.6,9.1-17.7,10.1c-1.7,1.5-4.5,5-5.7,7c-2.2,3.7-2.9,6.7-3.1,13.6
		c-0.2,4.7-0.2,4.9-1,6.9c-0.8,2.2-3,6-6,10.6c-2.8,4.3-4.8,7.7-6.2,10.4c-2.7,5.4-3.1,7.4-3.3,15l-0.2,5.6L126,206
		c-0.5,1.4-1.5,4-2.2,5.8c-2.7,6.7-2.7,6.3-2.9,18.6l-0.2,9l-1,2c-0.6,1.1-1.5,2.7-2,3.6c-1.3,2-1.7,3.6-2.2,9.3
		c-0.2,2.4-0.4,4.8-0.5,5.4c-0.1,0.9-0.5,1.4-3.1,4.4c-5.1,5.7-7,8.6-7,10.6c0,1-0.1,1.1-1,1.8c-1.9,1.3-4.5,4.3-5.3,6.2
		c-1,2.2-1.3,4.3-0.7,5.5c0.7,1.4,1.2,1.2,3.1-1.5l1.8-2.4l0.6,0.5c0.3,0.3,0.6,0.7,0.6,0.9c0,0.2-0.4,1.2-1,2.3
		c-0.5,1.1-0.9,2.3-0.9,2.6c0.1,0.8,0.9,0.9,5.9,0.9C111.5,291.5,112,291.5,113.1,291L113.1,291z M110.8,277.8
		c-0.8-0.3-2.1-3.1-1.9-4.2c0.2-0.9,0.4-1,1.7-0.5c1.3,0.5,1.9,0.5,3.1-0.5c1.2-0.9,1.5-1,2-0.6c0.4,0.4,0.4,1.2-0.2,2.3
		c-0.3,0.5-0.7,1.3-0.9,1.6C114,277.2,111.9,278.2,110.8,277.8z M118.6,254.8c-0.5-0.5-0.6-0.8-0.6-2.7c0-1.1-0.1-2.2-0.1-2.4
		c-0.1-0.2,0-0.5,0.1-0.7c0.2-0.3,0.4-0.2,1,0.4c0.6,0.6,0.9,0.8,1.7,0.8c0.7,0,1.2-0.2,1.5-0.5c0.7-0.7,1.3-0.4,1.3,0.6
		c0,1.6-1.1,3.5-2.5,4.4C119.8,255.6,119.3,255.6,118.6,254.8L118.6,254.8z M194.6,252.6c-0.6-0.2-1.3-0.4-1.4-0.6
		c-0.4-0.4-0.8-3.4-0.6-4.1c0.5-1.5,2.3-0.8,2.8,1c0.3,1.1,0.3,1.1,1.2,1.1c1.1,0,1.4,0.4,1.4,1.8c0,0.7-0.1,0.9-0.7,1
		C196.3,253,196,253,194.6,252.6L194.6,252.6z M123.5,232.4c-1-0.5-1.4-1.6-1.2-4.2c0.1-2.3,1-4.5,2.3-5.4l0.8-0.5l0.6,0.7
		c0.4,0.4,0.8,0.7,1.2,0.7c0.9,0,2.7-1,4-2.3c0.7-0.6,1.8-1.7,2.6-2.3c1.7-1.5,2.1-2.5,2.1-5c0-3.2-0.2-3.9-1.8-5.3
		c-1.5-1.4-2.1-2.6-2.1-4.4c0-2.1,1-3.3,2.8-3.3c1,0,1.7,0.7,2.9,2.8c2.1,3.6,5,5,7,3.2c0.9-0.8,1.3-0.9,1.8-0.3
		c0.3,0.3,0.4,1,0.4,3.9c0,1.9,0.1,3.8,0.2,4.1c0.1,0.4,0.6,0.8,1.6,1.1c1.6,0.7,2.2,1.5,2,3.1c-0.1,1.3-0.9,2.2-2.1,2.5
		c-1.3,0.4-2.3,0-6.4-2.3c-1.2-0.7-2.6-0.8-3.5-0.2c-0.3,0.2-1.1,1.1-1.8,2.1c-0.9,1.3-1.7,2-3.6,3.3c-2.6,1.8-3.4,2.5-4.9,4.9
		c-1.1,1.7-2.4,3.2-2.8,3.2c-0.2,0-0.5,0.1-0.8,0.1C124.5,232.7,124,232.6,123.5,232.4L123.5,232.4z M162,180.9
		c-0.9-0.4-2.1-0.8-2.7-1c-1.5-0.3-2.4-0.8-2.9-1.5c-0.3-0.5-0.3-0.7,0-2.1c0.4-1.7,0.2-3.1-0.6-3.8c-0.4-0.4-0.8-0.5-2.6-0.4
		c-1.2,0-2.5,0.2-3.1,0.4c-0.6,0.2-1.1,0.4-1.1,0.4c-0.1,0,0.2-2.3,0.4-3.2c0.2-0.6,0.5-1.1,1.1-1.4c1.4-0.9,1.6-1.4,1.5-3.9
		c-0.2-2.9,0.2-4.4,1.1-4.4c0.1,0,0.6,0.4,1.1,0.9c0.6,0.6,1.1,1.4,1.4,2.6c0.9,2.9,1.3,3.5,2.2,3.5c1.4,0,1.5,0.1,1.5,3.6
		c0,3.7,0.2,4.3,2.7,6.8C165.8,181.3,165.8,182.7,162,180.9L162,180.9z M200.8,161.4c-0.1-0.4-0.1-1.6,0-2.8l0.2-2.2l-0.7-0.5
		c-0.6-0.4-1.2-0.5-5.6-0.5c-4.3,0-5-0.1-5.9-0.5l-1-0.5l0.7-0.2c0.4-0.1,1.7-0.2,3-0.2c2.6,0,3.7-0.3,4.8-1.1
		c3.1-2.3,2.5-5.2-2.1-9.9c-2.9-2.9-3.4-3.7-3.3-5.2l0.1-1l1.2,1.2c0.7,0.7,1.6,1.9,2,2.7c1.3,2.3,5.7,8.3,7.3,10.2
		c2.4,2.7,3.3,5,2.9,7.5c-0.2,1.3-1.6,3.1-2.7,3.3C201.1,162,201,161.9,200.8,161.4L200.8,161.4z M195.6,122.9
		c-0.3-0.4-0.9-1-1.2-1.5c-0.3-0.4-1.1-1.4-1.7-2.1c-1.4-1.6-1.6-2.1-0.9-2.8c0.6-0.7,3.3-0.7,4.5,0c1.2,0.7,2.1,2.6,2.3,4.9
		l0.1,1.8l-0.7-0.2c-0.5-0.1-0.8-0.1-0.9,0.2C197,123.7,196.3,123.6,195.6,122.9L195.6,122.9z M188.6,88.6c-0.3-0.1-1-0.3-1.6-0.6
		c-1.4-0.6-1.7-1.3-0.9-1.9c0.7-0.6,1.2-0.6,2.4,0.1c0.5,0.3,1.6,0.6,2.4,0.6c1,0.1,1.7,0.3,2.3,0.7c1,0.7,1.1,0.9,0.5,1.1
		C193.4,88.8,189.3,88.7,188.6,88.6L188.6,88.6z M139.4,278.7c1.6-0.9,3.2-2.6,4.5-5.3c0.7-1.3,1.6-2.7,2.3-3.4
		c1.4-1.4,1.7-2,2.4-4.4c0.6-2.3,1.7-4.5,3.6-7.4c2.2-3.3,3.1-4.2,6-5.8c4.5-2.5,4.8-2.8,5.1-6.2c0.1-1.3,0.4-2.7,0.6-3.1
		c0.4-0.9,2.7-3,4.5-4.2l1.4-0.9h-6.6c-5.1,0-7,0.1-8.3,0.4c-0.9,0.2-2.2,0.3-2.8,0.3l-1.2-0.1l-1.5,3.8c-0.8,2.1-1.5,4-1.5,4.2
		c0,0.8-0.8,3.6-1.2,4.5c-0.6,1.2-4.7,5.5-5.8,6.1c-0.5,0.3-1.2,0.5-1.6,0.5c-0.8,0-1.8,0.7-2.2,1.6c-0.2,0.4-1,1.2-2,1.9
		c-2.1,1.5-4.8,4-5.5,5.1c-0.8,1.3-1.2,3.2-1.2,5.7c0,2.6,0.5,4.8,1.1,4.8c0.2,0,1.1-0.5,2.1-1.2c2.7-2,3.3-1.5,1.6,1.2
		c-0.5,0.9-1,1.7-1,1.9c0,0.5,1.7,0.8,3.8,0.7C137.8,279.4,138.4,279.2,139.4,278.7L139.4,278.7z M141.7,265.4c-1.5-1.1-3-2.6-3-3
		c0-0.2,0.6-0.7,1.5-1.1l1.5-0.7l1,0.7c1.3,0.9,2.4,1,4,0.4c1.7-0.7,1.9-0.6,1.7,1c-0.1,0.7-0.3,1.5-0.5,1.9
		c-0.4,0.8-1.9,1.4-3.7,1.6C142.8,266.2,142.6,266.1,141.7,265.4L141.7,265.4z M166.9,265.9c0.5-0.1,0.3-0.2-1-0.2
		c-1.5,0-1.7-0.1-1.7-0.5c0-0.2,0.6-0.7,1.3-1s1.3-0.7,1.4-0.8c0.1-0.1,0.2-1.1,0.2-2.1c0-2.3,0.3-2.8,2.1-3.1
		c1.2-0.2,1.8-0.7,1.8-1.6c0-0.4-0.3-0.7-1.1-1c-1.3-0.6-1.8-1.3-1.2-1.9c0.2-0.2,1.3-1.2,2.4-2.1c1.7-1.5,2-1.9,2.3-3
		c0.6-2.4,1.1-5.4,1-5.9c-0.2-0.7-1.1-1.6-1.4-1.6c-0.2,0-0.5-0.2-0.8-0.5c-0.3-0.3-0.5-0.4-0.5-0.2c0,0.2-0.7,1.5-1.6,3
		s-2,3.6-2.5,4.7c-0.9,1.8-1.1,2.1-2.4,3c-3.6,2.5-5.6,5.7-6.1,10c-0.2,2-0.1,3.3,0.4,3.3c0.2,0,0.9-0.5,1.6-1.1
		c0.7-0.6,1.4-1.1,1.7-1.1c0.4,0,0.4,0.2,0.3,1.7l-0.2,1.7l0.8,0.3C164.6,266.1,165.9,266.1,166.9,265.9L166.9,265.9z M241.5,182
		c0.5-0.4,1.3-1.3,1.9-2.1l1.1-1.5l-0.6-0.8c-2.4-3-3.9-5.2-5-7.6c-0.7-1.5-1.3-2.8-1.3-3c0-0.6,0.7-1.4,2.2-2.3
		c3.2-2.1,3.6-3,3.7-9.3c0.1-3,0-5.1-0.2-6.1c-0.4-2-1.5-4.2-3-5.9l-1.2-1.4l-0.9,0.3c-1.1,0.4-2.9,2-3.5,3.3
		c-0.6,1.4-0.6,3,0.3,6.3c0.5,2,0.7,3.5,0.7,4.7c0,2.2-0.1,2.8-1.1,7c-1,4.3-1.3,6.7-1.3,10.3c0,3.2,0.3,4.8,1.2,6.1
		C236,182.7,239.6,183.5,241.5,182z M39.8,89.8c2.2-1.2,8-3.7,12.8-5.5l4.1-1.6l0-3.3c0-1.9-0.1-3.3-0.2-3.3c-0.3,0-7.3,2.9-9.7,4
		c-1,0.5-2,0.9-2.1,0.9c-0.1,0-0.2-7.5-0.2-17.2c0-9.4-0.1-17.2-0.2-17.2c-0.1,0-1.8,0.7-3.7,1.6l-3.5,1.6l-0.1,20.2
		c-0.1,11.1-0.1,20.3,0,20.4C37.3,90.9,38.3,90.6,39.8,89.8L39.8,89.8z M317.2,81.2c0-4.8-0.1-14-0.2-20.5L316.8,49l-3.1-1.3
		c-1.7-0.7-3.4-1.3-3.8-1.3l-0.7,0v20.3V87l1,0.3c0.6,0.2,2.3,0.8,3.8,1.5c1.5,0.7,2.9,1.2,3,1.2C317.2,89.9,317.2,86.9,317.2,81.2
		L317.2,81.2z M304,55.4l0-11.3l-2.7-0.9c-1.5-0.5-2.9-1-3.1-1.1c-0.2-0.1-0.7-0.2-1.1-0.2h-0.7l0,10.3c0,5.7,0,10.4,0,10.6
		c0.2,1.4-1-1.3-5.2-11.8c-3.7-9.1-5-12.1-5.4-12.3c-0.9-0.4-5.3-1.4-6.1-1.4h-0.7v20.4V78h0.6c0.5,0,5.2,1.1,6.9,1.6
		c0.4,0.1,0.4-0.5,0.3-12.4c-0.1-8.6-0.1-12.4,0.1-12.2c0.1,0.1,2.8,6.5,5.9,14.1l5.6,13.9l2.7,0.9l2.7,0.9l0.1-9
		C303.9,70.8,303.9,61.6,304,55.4L304,55.4z M60,81.8c0.4-0.2,1.8-0.7,3.1-1.1c1.3-0.4,2.4-0.8,2.4-0.8c0,0,0.6-2.7,1.2-5.8l1.2-5.8
		l1.1-0.3c3.8-1.1,6.3-1.7,6.5-1.4c0.1,0.2,0.6,2.4,1.2,5c0.6,2.6,1.1,4.8,1.2,4.9c0.1,0.1,1.7-0.2,3.6-0.6c2.8-0.7,3.4-0.9,3.4-1.2
		c0-0.2-0.9-3.4-2-7c-1.1-3.6-3.5-12-5.4-18.7c-1.9-6.6-3.5-12.1-3.6-12.1c-0.1-0.1-1.2,0.2-2.6,0.5c-1.3,0.4-2.7,0.7-3,0.7
		c-0.6,0.1-0.6,0.3-3.5,13.3c-1.6,7.3-3.8,17.1-4.8,21.9c-1.9,8.5-1.9,8.6-1.4,8.8C59.2,82.2,59.2,82.2,60,81.8z M69,63
		c0-0.4,2.4-12.3,2.5-12.7c0.2-0.4,0.5,0.7,1.9,6.9l1,4.6l-1,0.3c-1,0.3-3.3,0.9-4,1.1C69.1,63.2,69,63.1,69,63z M273.7,56l0.1-20.2
		l-1.4-0.3c-0.8-0.2-2.5-0.5-3.9-0.8c-1.4-0.3-2.7-0.6-2.9-0.5c-0.4,0-0.4,0.9-0.5,14.6c-0.1,14.2,0,26,0.2,26.1
		c0.2,0.2,7.9,1.7,8,1.5C273.5,76.3,273.6,67.1,273.7,56L273.7,56z M91.8,73.5c1.7-0.3,3.1-0.6,3.1-0.6c0,0,0.1-4.6,0.1-10.3
		c0-7.7,0.1-10.1,0.3-9.7c0.1,0.3,1.7,4.7,3.6,9.7c1.8,5,3.4,9.1,3.6,9.1c0.8,0,0.7,0.2,5.7-17c0.7-2.3,1.3-4.4,1.4-4.5
		c0.1-0.1,0.2,4.4,0.2,10c0,5.6,0.1,10.3,0.2,10.3c0.3,0,5.6-0.7,6.4-0.8l0.7-0.1l-0.1-19.6c0-10.8-0.1-20-0.2-20.5
		c-0.1-0.8-0.2-0.8-0.9-0.7c-2,0.4-5.5,0.7-6,0.6c-0.3-0.1-0.7,0-0.7,0c-0.1,0.1-1.6,4.9-3.4,10.7c-1.8,5.8-3.4,10.9-3.5,11.4
		c-0.1,0.4-0.3,0.8-0.4,0.7c-0.1-0.1-1.6-4.5-3.4-9.9c-1.8-5.4-3.4-9.9-3.4-10.1c-0.1-0.2-1-0.1-2.9,0.3c-1.6,0.3-3.2,0.6-3.6,0.6
		l-0.7,0l-0.2,7.7c-0.1,4.2-0.2,13.4-0.2,20.4c0,13.6-0.1,12.8,1,13C88.7,74.1,90.1,73.9,91.8,73.5L91.8,73.5z M259.9,53.4L260,33
		l-0.5-0.1c-2.3-0.5-5.9-1.1-6.5-1.1h-0.8l0.1,7.9c0.1,7.7,0.1,7.9-0.3,7.9c-0.3,0-2.2-0.3-4.4-0.6c-2.2-0.3-4-0.6-4.1-0.6
		c-0.1,0-0.2-3.6-0.2-8v-8l-0.5-0.1c-1.1-0.2-6.1-0.9-6.7-0.9h-0.7v20.4v20.4l3.8,0.5c2.1,0.3,3.8,0.5,3.9,0.4c0.1,0,0.1-4.3,0-9.4
		l-0.1-9.3l0.6,0.1c0.3,0.1,2.3,0.4,4.5,0.7l3.9,0.5v9.5v9.5l0.8,0c0.4,0,2.1,0.3,3.8,0.6c1.6,0.3,3.1,0.5,3.2,0.5
		C259.8,73.7,259.9,66.7,259.9,53.4L259.9,53.4z M223,69.4c3.6-1,6-3.3,7.1-7c0.4-1.3,0.5-2.3,0.5-8.3v-6.8h-5.5h-5.5v1.2
		c0,0.6-0.1,2-0.2,3l-0.2,1.9h2.3h2.3l-0.1,3.2c-0.1,3-0.1,3.3-0.7,4.2c-1.8,2.7-5.4,2.2-7.6-1C214,57.6,214,57,214,46.8
		c0-9,0-9.3,0.5-10.2c0.6-1.2,2-2.5,2.9-2.7c0.4-0.1,0.8-0.2,0.9-0.2c0.6-0.2,2,0.4,2.8,1.2c1,0.9,1.7,2.3,1.9,3.7l0.1,1.1h3.6
		c4.1,0,3.8,0.2,3.2-2.5c-1.2-5.5-5.6-9.2-11.2-9.2c-5.5,0-10,3.5-11.7,9c-0.2,0.8-0.3,3.4-0.3,10.7c0,10.6,0.1,11.9,1.6,14.8
		c0.9,1.8,2.9,4.1,4.6,5.2c1.3,0.8,3.5,1.8,5,2C219.3,69.8,221.7,69.7,223,69.4L223,69.4z M132.6,68.1c8.2-0.7,8.7-0.9,10.8-3.1
		c3.8-4.2,4.4-12.8,1-16.2c-0.8-0.8-2.3-1.6-3.1-1.6c-0.3,0-0.1-0.2,0.6-0.5c3.6-1.8,4.7-9.4,2.1-14.9c-1-2.1-2.4-3.6-4.2-4.4
		l-1.3-0.6l-3.9,0.3c-4,0.3-11.8,1-11.9,1.1c0,0-0.1,9.2-0.2,20.4l-0.2,20.4l2.3-0.1C125.7,68.6,129.3,68.3,132.6,68.1z M129.4,62.3
		c-0.1-0.1-0.2-2.7-0.2-5.8v-5.6l3.5-0.1l3.5-0.1l0.8,0.8c0.4,0.4,1.1,1.4,1.4,2.1c0.6,1.2,0.6,1.6,0.6,3.5c0,2-0.1,2.3-0.7,3.3
		c-1,1.8-1.6,2-5.5,2.1C131.1,62.5,129.5,62.4,129.4,62.3L129.4,62.3z M130.6,44.5l-1.4-0.1l0.1-5.3l0.1-5.3l3.3-0.1l3.3-0.1L137,35
		c2.6,2.9,2.3,7.7-0.6,9.2C135.3,44.7,134.4,44.8,130.6,44.5L130.6,44.5z M165.1,67.2c5-1.1,8.4-4.7,9-9.4c0.1-1,0.2-6.2,0.2-11.5
		c-0.1-10.7-0.1-11.1-1.7-14.1c-0.9-1.8-3.2-4.1-4.8-5c-1.6-0.9-3.7-1.5-5.5-1.6c-4.2-0.3-8.8,2.9-11.1,7.6
		c-1.6,3.4-1.7,4.2-1.5,15.3c0.2,10.4,0.3,11.3,1.5,13.6C153.4,66.2,159.5,68.4,165.1,67.2L165.1,67.2z M160,60.9
		c-1.3-0.5-2.3-1.3-3-2.5l-0.6-1.1l-0.1-10.2L156.3,37l0.7-1.4c1.7-3.5,5.6-4.1,8.5-1.3c1.1,1,1.7,2.4,2,4.1c0.1,0.8,0.2,5.3,0.3,10
		c0.1,8.5,0.1,8.5-0.5,9.7C166.1,60.6,162.8,61.9,160,60.9L160,60.9z M203.1,67c0-0.2-1.6-4.3-3.5-9.1c-1.9-4.8-3.5-8.9-3.5-9
		c0-0.1,0.4-0.3,0.9-0.4c3.5-0.7,5.6-4.2,5.6-9.7c0-5.2-2.2-10-5.4-12c-1.2-0.7-3.2-0.9-12.4-1.2l-5.8-0.2v20.4v20.4l0.8,0.1
		c0.4,0.1,2.1,0.1,3.7,0.2l2.9,0l0-8.7l0-8.7l2-0.1l2-0.1l2.1,7c1.2,3.9,2.4,7.9,2.8,9l0.6,1.9l2.6,0.1c1.4,0,2.8,0.1,3,0.2
		C202.3,67.4,203.1,67.3,203.1,67L203.1,67z M186.3,43.5c-0.1-0.1-0.2-2.6-0.2-5.7v-5.5l2.9-0.2c3.3-0.2,4.2,0,5.5,1.3
		c2.1,2,2,7.6-0.2,9.5l-0.8,0.7H190C188,43.7,186.4,43.6,186.3,43.5z"/>
	<path id="path3032" fill="#5C4B21" d="M171.2,375.6c-8-5-27.9-21.2-41.3-33.6c-22-20.4-44-47.7-59-73.2
		C38.9,214.4,22.3,151,20.3,75.9c-0.6-21.9-0.5-22.6,1.5-27c2.8-5.8,5.2-7.5,18.4-12.6c36.2-14.2,74.5-20.7,126.9-21.7
		c59.2-1.1,108.1,6,147.5,21.5c13.6,5.4,16.1,7,18.8,12.9c2.1,4.4,2.1,5,1.5,27.5c-3.2,123.3-45.5,214.8-131.8,285
		c-10.5,8.5-21.4,16.3-24.1,17.1C177.7,379,175.2,378.1,171.2,375.6L171.2,375.6z M113.2,291.4c1.5-0.7,2.6-2.5,3.4-5.5
		c0.7-2.5,1.9-5.3,2.7-6.3c0.9-1.1,1.6-4.3,1.9-8.2c0.4-5.7,0.8-7,4.1-11.2c2.1-2.7,4.3-7.1,5.2-10.3c0.9-3.1,2.2-6.9,3-8.5
		c6.1-12,10.1-19,10.8-19c2.1,0,3.8,4.6,3.8,10.4c0,4.6,0.4,6.3,1.5,6.9c1.4,0.8,1.4,1.2,0.1,3.7c-0.8,1.6-1.7,4.1-2.1,5.7
		c-0.9,3.9-4,8.1-7.2,9.8c-1.5,0.8-4.7,3.4-7.1,5.8c-3.5,3.5-4.4,5.1-4.4,7.6c0,4.3,1.4,6.5,3,4.9c1.9-2,2.8-1.4,2.1,1.4
		c-0.6,2.5-0.5,2.6,2.6,1.9c4-0.8,7.5-3.1,8.2-5.3c0.3-0.9,0.9-2.3,1.3-3.1c0.5-0.8,2.2-4.5,3.9-8.1c2.1-4.6,4.4-7.8,7.4-10.2
		c2.3-2,4.9-5.1,5.7-6.9c2.3-5.5,8.8-10.2,8.8-6.3c0,2.3-3.7,9.2-6.4,11.9c-3.4,3.5-6,8.1-6,10.7c0,2.3,1.3,2.9,2.4,1.2
		c1-1.7,2.2-1,1.7,1c-0.4,1.6,0,1.9,2.4,1.9c4.9,0,9.5-2.8,10.2-6.2c0.3-1.7,1.5-4.4,2.5-6.1c1.2-2,1.6-3.9,1.2-5.5
		c-0.6-2.6,1.1-9.4,2.4-9.4c1,0,4.4,7.3,5.3,11.2c0.4,1.6,1.5,3.9,2.5,5c1.7,2,2.5,2.1,11.1,1.6c8.9-0.5,9.3-0.6,11.6-3.5
		c1.7-2.2,2.5-4.6,2.9-8.9c0.7-7.5,3.9-12.6,11.4-17.9l5.6-4l1.4,2.2c0.8,1.2,2.4,4.7,3.6,7.8c2.1,5.1,2.2,6,1,10.4
		c-0.7,2.6-0.9,5.7-0.6,6.9c0.4,1.1-0.1,4.2-1.1,6.8l-1.7,4.8l2.3,2.5c2.6,2.8,4.3,3.1,5.1,1c0.7-1.9,2.5-1.9,2.5,0.1
		c0,2.1,1.9,1.3,4-1.6c1.7-2.3,1.7-2.7,0.3-6.8c-0.8-2.4-1.3-5.1-1.1-6c0.2-0.9,0-3.6-0.5-5.8c-1.2-5.2-1.1-11.4,0.2-17.8
		c0.9-4.5,0.8-5.5-1.4-10.2c-1.3-2.9-2.2-5.4-2-5.6c0.2-0.2,2,0.2,4,1c9.3,3.7,16.5,2.9,20.9-2.4l2.6-3.1l-5.6-0.5
		c-6.4-0.6-6.7-0.7-13.5-6.7c-4.8-4.3-4.9-4.6-4.4-8.4c0.3-2.2-0.2-7.2-1.1-11.4c-1.5-6.8-1.5-7.8-0.1-12.7c0.8-2.9,1.5-6.6,1.5-8.2
		c0-4.7-2.6-12-5.6-15.8c-1.6-2-3.3-5.4-3.9-7.5c-0.6-2.2-2.1-5.5-3.4-7.4c-2.2-3.3-2.3-3.7-1-6.9c0.8-1.9,1.4-5.8,1.4-8.7
		c0-4.6-0.4-5.8-3.1-9c-5.9-6.8-8.6-7.4-36.5-8.3c-32.3-1-37.3-2.2-32.3-7.8c2.1-2.3,5.4-2.2,12.4,0.2c7.6,2.7,16.9,3.4,22.4,1.6
		c4.7-1.5,4.8-1.4-3.3-3.1c-1.3-0.3-2.4-1-2.4-1.6c0-0.7,1.5-0.9,4.5-0.5c12.5,1.7,14.6,1.8,14.6,0.9c0-1.6-8.4-4.8-17.1-6.6
		c-14.1-2.9-27.6-0.5-34.1,6c-3.9,4-4.4,8.3-1.1,10.5c4.1,2.7,10.9,3.6,35.2,4.4c22.2,0.7,24.9,1,28.7,2.9c4.7,2.3,6.8,5.4,6.7,9.9
		c-0.1,3.7-2.6,7.7-4.8,7.7c-3.7,0-16.1-3.2-24.8-6.3c-5.1-1.9-10.2-3.4-11.2-3.4c-2.4,0-5.2,1.9-13.4,9c-3.6,3.1-9.9,7.4-14.1,9.6
		c-13.5,7.2-17.7,12.9-19.6,26.8c-1,7.5-2.3,10.5-8.1,19.3c-4.8,7.3-8.3,17.1-8.3,23.7c0,3.2-1.1,8.3-3,13.6c-2.5,7-3,10.2-3.2,18.2
		c-0.2,8.3-0.6,10.4-2.6,14.3c-1.5,2.8-2.7,7-3.1,11c-0.6,5.9-1.1,6.9-5.4,12c-2.6,3.1-4.7,6.1-4.7,6.8c0,0.7-1.3,2.7-2.9,4.5
		c-3.6,4.2-5.4,9.1-3.9,10.6c0.8,0.8,1.5,0.6,2.6-1c2.1-3,3.3-2.7,2.3,0.7c-0.5,2-0.5,3,0.3,3.4
		C104.9,293.6,110.3,292.7,113.2,291.4L113.2,291.4z M186.3,87.3c-2.7-1.7-0.1-2.2,4-0.7l4.1,1.5l-3.3,0.1
		C189.2,88.1,187.1,87.8,186.3,87.3z M48.5,86.1c7.4-2.7,7.9-3.1,7.9-5.8c0-1.6-0.1-2.8-0.3-2.8s-2.8,0.9-5.9,1.9
		c-3.1,1.1-5.7,1.9-5.9,1.9c-0.2,0-0.3-7.7-0.3-17s-0.2-17-0.3-17s-1.7,0.5-3.3,1.1l-3,1.1v20.4c0,19.1,0.1,20.4,1.7,19.8
		C39.8,89.3,44.1,87.7,48.5,86.1z M318.1,69.8V49.5l-3-1.1c-1.7-0.6-3.2-1.1-3.3-1.1c-0.2,0-0.3,9.1-0.3,20.3v20.3l3.1,1
		c1.7,0.6,3.2,1.1,3.3,1.1C318,90.1,318.1,81,318.1,69.8L318.1,69.8z M303.6,64.2L303.3,44l-2.6-0.7l-2.6-0.7l0,10.9
		c0,12.5-0.1,12.4-5.8-2.3c-4.2-10.8-5.6-12.7-9.1-12.7h-2.2v20c0,15.3,0.3,20,1.2,20c0.7,0,2.1,0.3,3.3,0.6
		c2.1,0.6,2.1,0.4,2.4-11.3l0.3-11.9l5.2,13.3c2.9,7.3,5.9,13.7,6.7,14.2C303.7,85.6,303.8,85.1,303.6,64.2z M65.1,80.8
		c0.3-0.2,0.9-2.8,1.3-5.7c0.7-6,0.7-5.9,5.4-6.8l3.5-0.7l1.2,4.9c1.1,4.8,1.2,4.9,4.2,4.3c1.7-0.3,3.2-0.7,3.4-0.9
		c0.5-0.4-8.6-36.6-9.4-37.4c-0.3-0.3-1.9-0.2-3.5,0.2c-2.9,0.8-3,0.9-6.5,16.7c-2,8.7-4.2,18.4-4.9,21.5l-1.3,5.7l3-0.7
		C63.1,81.4,64.7,81,65.1,80.8z M69.2,61c0.3-1,0.9-3.8,1.3-6.1l0.7-4.2l1.3,5.2c1.1,4.4,1.1,5.4-0.1,6.1C70.2,63.5,68.6,63,69.2,61
		L69.2,61z M274.2,56.6c0-10.9-0.3-20.1-0.7-20.3c-0.4-0.2-1.9-0.7-3.3-1l-2.6-0.6V55v20.4l2.6,0.4c1.4,0.2,2.9,0.5,3.3,0.6
		C273.8,76.4,274.2,67.6,274.2,56.6L274.2,56.6z M93.8,74.1c0.9-0.4,1.2-2.3,1-7.1c-0.2-3.6-0.2-8.3,0-10.5c0.3-3.6,0.6-3.1,4,7.3
		l3.7,11.1l3.4-12.5l3.4-12.5l0.3,10.9c0.2,9.4,0.5,10.8,1.8,10.4c0.8-0.3,2.3-0.6,3.3-0.6c1.7,0,1.8-0.9,1.8-20.2V30.2l-3.3,0.4
		c-3.2,0.4-3.3,0.6-5.8,8.8c-1.4,4.6-3.1,10.2-3.8,12.3l-1.2,3.9l-3.1-10.2c-1.7-5.6-3.4-10.6-3.9-11c-0.4-0.5-2.1-0.5-3.7-0.2
		l-3,0.7v19.9c0,18.9,0.1,19.9,1.8,19.9C91.7,74.6,93.1,74.3,93.8,74.1z M259.6,53.4l-0.3-20.2l-2.6-0.3l-2.6-0.3v7.9v7.9l-4.1-0.6
		c-6.7-1-6.4-0.6-6.4-9.1c0-5.6-0.3-7.8-1.2-7.8c-0.7,0-2.2-0.3-3.3-0.6l-2.1-0.6V50v20.4l3.3,0.4l3.3,0.4v-9.1
		c0-10-0.3-9.6,6.9-8.4l3.6,0.6v9c0,7.8,0.2,9.1,1.7,9.5C260,74,259.9,74.6,259.6,53.4L259.6,53.4z M139.4,67.4
		c3.9-1.9,6.1-5.9,6.2-11.3c0.1-3.7-0.4-5.3-2-7c-2-2.1-2-2.1-0.2-5.1c2.2-3.7,2.3-7.5,0.4-11.3c-1.8-3.6-6.4-4.8-14.3-4l-5.7,0.6
		l-0.3,20.3l-0.3,20.3l6.9-0.7C133.9,68.8,138.1,68,139.4,67.4L139.4,67.4z M129.9,57.2c0-5.1,0.3-5.9,2-6.3c5.3-1.4,9.2,4,6.5,9
		c-1,1.9-2.3,2.6-4.9,2.8l-3.6,0.3C129.9,63,129.9,57.2,129.9,57.2z M129.9,40v-5.3h3.2c3.8,0,5.4,1.5,5.4,4.9
		c0,3.1-1.3,4.3-5.5,5.1l-3.1,0.6C129.9,45.3,129.9,40,129.9,40z M227,67.3c2.5-1.7,4.1-6.9,4.2-13.4c0-5.1-0.1-5.2-6.9-5.9
		l-4.5-0.4v3.3c0,2.9,0.3,3.3,2.4,3.3c1.9,0,2.4,0.5,2.4,2.5c0,5.8-4.6,8.3-8,4.5c-4.7-5.3-3.6-25.4,1.4-27c2.1-0.7,5.6,1.9,5.6,4.1
		c0,0.8,1.2,1.3,3.3,1.3c3.8,0,4.2-1.3,1.9-5.8c-2-4-5.1-5.9-9.6-5.9c-8.2,0-11.9,6.2-11.9,20c0,9.1,1.4,14.8,4.3,18.1
		C215,69.7,222.4,70.3,227,67.3L227,67.3z M167.9,66.2c1.2-0.8,3.1-3.4,4.2-5.6c3-5.9,3.1-20.6,0.1-27.1c-2-4.5-5.9-7.6-9.4-7.6
		c-3.3,0-7.8,3.1-9.9,6.9c-4.4,8-3.6,25.9,1.6,32.1c2,2.4,3.1,2.9,6.8,2.9C163.8,67.8,166.7,67.1,167.9,66.2L167.9,66.2z
		 M158.8,59.3c-1.2-1.9-1.8-5-2-11.4c-0.2-7.5,0-9.3,1.7-12c2.5-4,5.6-3.9,7.7,0.3c2.2,4.4,2,19.7-0.3,23.2
		C163.8,62.6,161,62.6,158.8,59.3L158.8,59.3z M186.3,58.7c0-8.2,0.1-8.6,2-8.3c1.6,0.2,2.6,2,5,8.8l3,8.5h3.6h3.6l-3.1-9.2
		l-3.1-9.2l2.6-2.5c3.1-3,4.1-7.4,2.8-12.5c-1.5-5.6-5.2-7.6-14.5-7.6l-7.4,0l-0.3,20c-0.2,11-0.2,20.1-0.1,20.2
		c0.1,0.1,1.5,0.2,3.1,0.2h2.9V58.7L186.3,58.7z M187,43.8c-0.4-0.4-0.7-3.1-0.7-6.1v-5.3l4,0.6c5.7,0.8,8.1,4.8,5.3,8.8
		C194.3,43.6,188.2,45,187,43.8z M7.8,70.7c0-1.3,0.2-1.9,0.5-1.2s0.3,1.8,0,2.4C8,72.6,7.8,72,7.8,70.7z M7.9,61.9
		c0-2.9,0.2-4.1,0.4-2.7c0.2,1.5,0.2,3.9,0,5.4C8.1,66.1,7.9,64.9,7.9,61.9z"/>
	<path id="path3030" fill="#282928" d="M168.5,370.8c-23.5-17.1-52.8-44.8-69.3-65.6C49.5,242.5,25.9,171.9,22.4,75.1
		c-0.9-25.8,0.4-28.9,14.4-34.9c36.6-15.6,83.6-23.4,141-23.4c43.2,0,73.4,3.4,106.5,12c15,3.9,36,11.3,41.3,14.6
		c4,2.5,6.7,7,7.5,12.6c0.8,5.6-1.1,45-3,62.3c-10.1,89.4-42.3,158.6-100.8,216.4c-18.8,18.6-47.3,41.5-51.6,41.5
		C176.7,376.3,172.6,373.8,168.5,370.8L168.5,370.8z M113.4,291.6c2.2-1.4,3.2-2.9,3.7-5.6c0.4-2,1.5-4.7,2.4-6
		c1.3-1.7,1.8-4,1.8-8.4c0-5.7,0.3-6.4,3.8-10.8c2.6-3.2,4.6-7.1,6.1-12.2c1.3-4.1,3.1-8.7,4.1-10.2c1-1.5,3.2-5.4,4.9-8.8
		c1.7-3.3,3.4-6.1,3.8-6.1c2,0,3.4,3.4,3.2,8.1c-0.3,6,0.4,8.5,2.3,8.5c1.2,0,1.2,0.4-0.1,2.9c-0.8,1.6-1.5,3.4-1.5,4.1
		c0,3-4.2,9.7-7.3,11.6c-1.9,1.2-4.3,3-5.5,4.2s-3.1,2.8-4.2,3.7c-1.9,1.6-2.6,4.3-2.1,9c0.3,2.8,1.7,4,3.1,2.6
		c1.8-1.8,2.8-1.4,1.7,0.8c-0.9,1.8-0.7,1.9,2.1,1.9c3.6,0,9.3-3.2,9.3-5.2c0-1.3,6.8-15.1,9.1-18.5c0.7-1,2.6-2.6,4.2-3.6
		s3.7-3.5,4.6-5.5c2.1-4.8,5-8,7.1-8c1,0,1.7,0.2,1.7,0.5c0,1.6-5.9,12-7.1,12.5c-1.8,0.7-6.6,10.1-5.8,11.4c0.7,1.2,3.3,1.2,3.3,0
		c0-0.5,0.4-1,0.9-1s0.7,0.7,0.3,1.6c-0.8,2.2,1.3,3.2,5.1,2.3c5-1.1,8-3.6,8-6.4c0-1.3,0.9-3.7,2-5.3c1.6-2.2,1.9-3.6,1.5-6.4
		c-0.6-3.5,0.8-8.3,2.3-8.3c1.1,0,3.3,4.6,4.6,9.7c1.9,7.2,2.6,7.6,13.5,7.6c7.2,0,9.8-0.3,10.7-1.4c0.6-0.8,2-2.3,3-3.5
		c1.3-1.5,1.9-3.6,2-7.6c0.1-4.7,0.7-6.3,3.4-10.2c4.1-5.8,12-11.6,13.8-10.1c0.7,0.6,2.4,3.9,3.8,7.5c2.3,5.9,2.4,6.9,1.4,10.6
		c-0.6,2.3-0.9,5.4-0.6,6.9c0.3,1.5-0.1,4.2-0.8,6c-1.9,4.6-1.7,6.7,1,9.4c2.9,3,4.2,3,5.2,0.2l0.8-2.2l0.9,2.4l0.9,2.4l2.5-2.6
		c2.9-2.9,3.2-5.4,1.2-9.4c-0.8-1.5-1.1-3.7-0.8-4.9c0.3-1.2,0-4.8-0.7-8c-1-4.8-1-7.4,0-13.8c1.2-7.6,1.1-8.2-0.8-11.8
		c-3.1-5.8-2.7-6.4,2.8-4.3c8.3,3.2,17,1.9,20.4-3.1c2.4-3.5,2-4.8-1.3-4.1c-5.1,1-9.1-0.5-14.8-5.5l-5.4-4.8l-0.5-8.5
		c-0.5-8.9-0.5-14.2-0.1-28.3c0.2-8.6,0.2-8.6-3.5-14.4c-2.1-3.2-4.5-7.9-5.4-10.4c-0.9-2.6-2.5-5.7-3.7-7c-2-2.2-2-2.4-0.6-5.3
		c4.6-9,1.8-17.8-7-22.9l-5.2-2.9l-24.4-0.8c-31-1-36.8-2.1-34.4-6.7c1.6-3,5-3.1,13.3-0.5c8.4,2.7,17.6,3.3,22.8,1.4
		c3.5-1.2,3.1-2.8-0.7-2.8c-1.4,0-3.5-0.7-4.5-1.5c-1.7-1.4-1.6-1.5,2-1c11.7,1.6,15.8,1.8,15.8,0.7c0-0.6-1.8-1.9-4.1-2.9
		c-13.8-6-31.4-6.6-41.4-1.5c-5.1,2.6-10,7.7-10,10.4c0,1.8,4.7,5.5,8.2,6.6c2,0.6,14.9,1.5,28.5,2.1c26.8,1,31.3,1.9,34.9,6.4
		c2.6,3.3,2.5,8.3-0.3,11.5l-2.2,2.6l-7.4-1.6c-4.1-0.9-11.2-2.9-15.7-4.6c-14.3-5.2-14.4-5.2-25.7,4.4c-3.8,3.3-11.3,8.4-16.7,11.3
		c-13.6,7.6-16.3,11.9-18.5,29.3c-0.4,3.3-2,6.8-5.4,12.2C130,183,128,188.3,127,197.9c-0.5,5-2,11.9-3.7,16.8
		c-2.4,6.9-2.9,9.8-2.9,17.2c0,7.6-0.4,9.5-2.3,13.1c-1.3,2.3-2.6,6.4-2.9,9.1c-1,8.3-1.4,9.1-5.7,14c-2.3,2.6-4.5,5.8-4.9,7.1
		c-0.4,1.2-1.9,3.7-3.4,5.4c-3,3.5-4.2,7.1-3.3,9.7c0.6,1.5,1,1.3,3.1-1.2l2.4-2.9l-0.6,3.6l-0.6,3.6l4.1,0
		C108.6,293.5,111.6,292.7,113.4,291.6L113.4,291.6z M186.7,87.2c-1-1.6-0.2-1.7,3.4-0.4l3.3,1.3l-3,0.1
		C188.7,88.2,187.1,87.7,186.7,87.2L186.7,87.2z M40.4,170.7c-4.5-23.4-7.4-49.9-8.9-80.1C30,58.9,30,58.5,28.2,55.7
		c-0.9-1.4-2-2.6-2.5-2.6c-2.8,0,0.8,55.2,5.5,83.7c2.7,16.3,8.6,40.9,9.9,40.9C41.5,177.7,41.2,174.6,40.4,170.7L40.4,170.7z
		 M57.3,80.2c0-2-0.1-3.6-0.3-3.6s-2.8,0.9-5.9,1.9c-3.1,1.1-5.8,1.7-6.1,1.4c-0.3-0.3-0.7-7.7-0.9-16.5s-0.8-16-1.2-16
		c-0.4,0-1.9,0.4-3.2,0.9l-2.5,0.9v20.9V91l10-3.6l10-3.6L57.3,80.2L57.3,80.2z M317.4,49.2c-0.4-0.4-1.9-1-3.4-1.4l-2.6-0.7v20.5
		v20.5l3.1,1.3l3.1,1.3l0.3-20.4C318,59.1,317.8,49.6,317.4,49.2L317.4,49.2z M304.7,64.9c0-11.2-0.3-20.6-0.7-20.8
		c-0.4-0.2-2.2-0.7-3.9-1.1l-3.2-0.7l0.3,9.8c0.2,5.4,0.1,9.8-0.1,9.8c-0.3,0-2.3-4.7-4.5-10.5c-5-12.8-4.8-12.5-8.6-13.3l-3.1-0.7
		v20.5c0,11.3,0.3,20.6,0.7,20.9s1.9,0.7,3.3,1l2.6,0.6V69c0-6.3,0.4-11,0.8-10.5c0.4,0.5,2.9,6.3,5.4,12.9
		c4.5,11.7,5.8,13.5,9.8,13.7C304.5,85.3,304.7,80.6,304.7,64.9z M62.9,82.3c2.7-0.9,3.1-1.7,4.1-6.7c1-5.2,1.3-5.7,4-6.2
		c4.3-0.9,4.3-0.9,5,3.1c0.9,5.7,1.5,6.2,5.6,5c1.9-0.5,3.5-1.2,3.5-1.5s-1.7-6.7-3.7-14.3c-2-7.6-4.3-16.1-5-18.9
		c-1.2-5-1.3-5.1-4.2-4.5c-1.6,0.3-3.2,0.9-3.6,1.3c-0.7,0.7-10.3,40.4-10.3,42.7C58.2,83.6,59,83.6,62.9,82.3z M70.1,59.8
		c0.3-1.6,0.6-3.7,0.6-4.5c0-2.5,1.6,0,2.2,3.4c0.5,2.5,0.2,3.2-1.4,3.6C69.7,62.7,69.6,62.4,70.1,59.8z M331.4,63.4
		c0.1-7-0.6-11.2-1.8-11.2c-0.4,0-1.4,0.6-2.4,1.3c-1.6,1.2-1.6,1.7-0.1,11.9c0.9,5.9,1.9,11.3,2.2,12.1
		C330.1,79.6,331.3,71.3,331.4,63.4L331.4,63.4z M274.2,56.7V35.9l-3-0.6c-1.7-0.3-3.1-0.5-3.2-0.4c-0.1,0.1-0.5,9.3-0.8,20.3
		l-0.6,20.1l3.6,1c2,0.5,3.7,1,3.8,1.1C274.1,77.4,274.2,68.1,274.2,56.7L274.2,56.7z M93.4,74.9c2-0.6,2.2-1.1,2.2-10l0.1-9.4
		l3.1,9.5c1.7,5.2,3.3,9.7,3.6,10s1.4-2.5,2.5-6.1c1.1-3.6,2.6-8.8,3.4-11.5l1.4-4.9l0.1,9.8l0.1,9.8l3.6-0.6l3.6-0.6l-0.4-20.4
		c-0.2-11.2-0.5-20.6-0.6-20.7c-0.1-0.2-1.7,0.1-3.4,0.5c-3.1,0.8-3.3,1.1-6.5,12.4l-3.3,11.5l-3.5-10.6
		c-3.4-10.5-3.5-10.6-6.3-10.3c-1.5,0.2-3.1,0.6-3.4,1c-0.4,0.4-0.8,9.7-1,20.8C88.3,77.2,88.1,76.4,93.4,74.9L93.4,74.9z
		 M260.8,54.2c0-11.2-0.3-20.6-0.7-20.8c-0.4-0.2-2-0.6-3.6-0.8l-2.9-0.3l-0.3,7.5c-0.3,7.5-0.3,7.5-2.9,7.5c-6.5,0-6.8-0.5-7.1-9.1
		l-0.3-7.9L240,30l-3.1-0.3v20.4c0,21.8-0.1,21.6,4.8,21.6c1.6,0,1.8-0.9,2.1-9l0.3-9l3.8,0.3c2.1,0.2,4.1,0.5,4.5,0.8
		c0.4,0.2,0.7,4.6,0.7,9.6v9.1l3.1,0.4c1.7,0.2,3.4,0.5,3.8,0.5C260.5,74.5,260.8,65.4,260.8,54.2L260.8,54.2z M139.2,68.2
		c6.3-2.6,8.9-12.2,5.2-18.5c-1.5-2.6-1.6-3.2-0.5-4.8c1.8-2.5,1.7-10.2-0.2-13c-2.3-3.4-5.7-4.2-13.5-3.5l-6.9,0.7v20.8v20.8
		l6.4-0.6C133.2,69.7,137.5,68.9,139.2,68.2z M130.3,61.5c-0.3-0.7-0.4-3.3-0.2-5.6c0.3-3.8,0.6-4.3,3-4.6c3.8-0.4,5.4,1.4,5.4,5.8
		c0,3.2-0.4,4-2.5,4.7C132.7,63.3,130.9,63.1,130.3,61.5z M129.9,40.1c0-3.7,0.3-4.4,2.3-4.9c3.2-0.8,5.2,0.2,5.9,3
		c0.8,3.1-2,6.2-5.5,6.2C130,44.4,129.9,44.2,129.9,40.1z M225.8,68.6c3.5-1.6,5.3-6.5,5.3-13.7v-6.3l-4.4-0.6c-7-1-7-0.9-7,2.8
		c0,2.8,0.4,3.4,1.9,3.4c2.8,0,2.8,7.4,0,8.3c-4.9,1.6-7.7-3.9-7.7-14.9c0-8.2,1.9-12.9,5.3-12.9c1.9,0,2.8,0.7,3.6,3
		c1,2.8,1.4,2.9,4.5,2.3c1.8-0.4,3.5-0.8,3.6-0.9c0.2-0.2-0.3-1.8-1.1-3.6c-4.2-10.2-16.6-11-20.8-1.3c-2.5,5.9-3.3,15.2-1.8,22.4
		c1.6,7.9,6.5,13.1,12.3,13.1C221.7,69.7,224.5,69.2,225.8,68.6L225.8,68.6z M167.7,66.9c4.3-2.6,6.4-8,6.9-17.2
		c0.8-14.9-3.9-23.8-12.4-23.8c-3.1,0-4.5,0.6-7,3.2c-4.2,4.3-5.5,9.8-5.1,21.1c0.3,7.4,0.8,10,2.5,12.7
		C156.1,68.8,162.2,70.3,167.7,66.9L167.7,66.9z M160.1,60.4c-4.9-5-4-25.2,1.2-27.2c6.1-2.4,9,20.6,3.4,26.9
		C162.7,62.3,162,62.3,160.1,60.4z M203.5,67.9c0-0.4-1.3-4.7-2.8-9.4l-2.8-8.6l3-3.4c2.7-3.1,2.9-3.9,2.5-8.6
		c-0.7-8.8-5.5-12-17.7-12l-6,0v20.9v20.9h3.8h3.8V59c0-11.7,1.6-11.7,5.7-0.1c2.7,7.7,3.4,8.8,5.6,9.1
		C203.1,68.7,203.5,68.7,203.5,67.9L203.5,67.9z M187.2,38.3v-5.2l3.3,0.4c4.2,0.5,5.5,2.1,5.1,6.2c-0.3,3-0.5,3.2-4.4,3.5l-4.1,0.3
		V38.3z M33.4,47.1c0.1-1.3-3.3-0.8-5.5,0.8l-2.2,1.6l2.2,2.4l2.2,2.4l1.7-3.2C32.6,49.2,33.3,47.5,33.4,47.1z"/>
	<g id="g3060" transform="matrix(0.95536881,0,0,0.97325585,-276.43252,0.08142099)">
		<path id="path3028" fill="#040404" d="M460.3,376.2c-70.3-52.9-113.8-117.8-133.9-200c-8.1-33.1-13-73.9-13-108.2
			c0-18.7,1.3-20.8,17.8-27.3c52.8-21,131.1-28.3,207.2-19.5c38.6,4.5,87.3,18.4,95,27.1c3.1,3.6,3.8,5.6,1.7,4.8
			c-0.7-0.2-2.3,0.3-3.5,1.3c-2.3,1.8-2.3,1.8-0.8,10.2c0.8,4.7,1.8,13.3,2.2,19.2c0.4,5.9,1,10.8,1.5,10.8c1.3,0,2-7.1,2.2-24
			l0.2-16.5l0.3,13.5c0.7,25.4-3.1,63.1-9.3,93.6C616.2,218,593.7,267.2,559.7,310c-21.5,27-75.8,75.5-84.6,75.5
			C473.7,385.5,468,381.9,460.3,376.2L460.3,376.2z M484.4,377.4c13-8.4,25.8-19.1,40.5-34.1c20.2-20.4,31.9-34.1,35.9-41.9
			c1.2-2.4,1.2-2.8-0.6-4.4c-1.9-1.7-2.3-1.4-15.7,11.8c-16.7,16.5-28.3,25.8-28.3,22.8c0-1.8-12.9-9.1-20.7-11.7
			c-13.8-4.6-28.8-4.2-41,1.2l-5.2,2.3l-1.7-5.7c-4.7-16-7.3-37.3-4.8-39c0.6-0.4,2.4-3.5,3.9-7c2-4.5,4.3-7.5,8-10.7
			c3.1-2.7,5.6-5.7,6.1-7.7c0.9-3.3,5.4-7.4,7.3-6.8c1.6,0.6-2,7.7-6.5,13c-2.2,2.5-4.6,6-5.3,7.8c-1.2,2.8-1.1,3.4,0.3,4.8
			c1.5,1.5,1.7,1.5,2.4-0.3c0.7-1.8,0.8-1.7,1.3,0.6c0.8,3.3,3.7,3.7,9.3,1.2c3.9-1.7,4.5-2.4,5-5.9c0.4-2.2,1.4-4.6,2.2-5.3
			c1.1-0.9,1.5-2.6,1.3-5.4c-0.3-4.3,0.8-9.6,2-9.6c1.2,0,3.9,5.4,4.6,9.3c0.4,2.1,1.6,4.9,2.7,6.3c1.9,2.4,2.5,2.5,12.3,2.5h10.3
			l2.8-3.7c2.2-2.9,2.9-4.9,3-9c0.2-7.1,3.9-13.1,11.1-18.3l5.7-4.1l1.6,2.2c0.9,1.2,2.6,4.8,3.8,8.1c1.7,4.6,1.9,6.5,1.1,8.6
			c-0.6,1.5-1.2,5.4-1.4,8.7s-0.7,7.7-1,9.7c-0.6,3.1-0.3,3.9,2.1,5.8c3.4,2.7,4.3,2.7,5.4-0.1c0.7-1.6,0.9-1.8,1-0.6
			c0.1,2.9,2.1,3.1,4.7,0.7c2.1-2,2.4-2.9,1.9-6.4c-0.3-2.2-1-6.9-1.5-10.5c-0.5-3.6-1.2-7.3-1.6-8.3s-0.2-5.9,0.5-11
			c1.2-8.8,1.2-9.4-0.9-13.4c-2.9-5.7-2.7-6.6,1-4.7c4.3,2.2,14,3,17.8,1.4c3.3-1.4,7-5.4,7-7.6c0-1-1.2-1.2-4.8-0.8
			c-3.9,0.5-5.3,0.1-7.9-1.8c-1.7-1.3-5-3.7-7.3-5.3c-3.9-2.9-4.1-3.2-3.6-7.1c0.3-2.3-0.2-7.3-1.1-11.4c-0.9-4-1.4-8.7-1.1-10.4
			c0.3-1.7,1-5.3,1.6-7.9c1.4-6.6-0.3-13.4-4.9-20.5c-2.1-3.2-4.4-7.5-5.1-9.7c-0.7-2.2-2.1-5.2-3.2-6.8c-1.9-2.7-1.9-3-0.2-7.9
			c3.2-9.7-0.1-17.5-9.3-22c-4.5-2.2-6.4-2.4-29.3-3c-21.9-0.6-33.4-1.7-36.1-3.4c-1.9-1.1-0.9-4.5,1.6-5.7c2.1-1,4-0.7,11.3,1.7
			c9.3,3.1,19.1,3.7,24.5,1.6c3.6-1.4,2.8-2.7-2.2-3.5c-2.2-0.3-4.2-1.1-4.6-1.6c-0.9-1.4,1.3-1.3,8.9,0.5
			c6.2,1.4,11.6,1.2,11.6-0.5c0-1.1-8.4-4.6-15.6-6.4c-8.1-2.1-22.6-2.1-29.2,0.1c-6.1,2-12.6,7.3-13.6,11c-0.8,3.3,2,6.6,7.2,8.3
			c2.1,0.7,15.9,1.8,31.7,2.5c29.8,1.3,32.5,1.9,35.9,6.8c2.3,3.3,2,8.2-0.8,11.4c-2.3,2.6-2.4,2.7-7.8,1.5
			c-3-0.7-11.3-3.1-18.5-5.4c-10.1-3.3-13.7-4.1-16-3.4c-1.6,0.4-6.3,3.7-10.5,7.3c-4.2,3.6-11.9,8.8-17.3,11.6
			c-13.8,7.3-18,12.9-19.7,26.4c-1,7.6-2.6,11.5-9.6,22.5c-4.7,7.5-7.4,15.1-7.4,21.1c0,3.1-1.4,9.1-3.5,15.5
			c-3,8.8-3.5,11.8-3.5,19.4c0,7.5-0.4,9.6-2.5,13.7c-1.4,2.7-2.8,7.1-3.1,9.8c-0.9,8.2-1.2,8.8-6.4,15c-2.8,3.3-5,6.8-5,7.8
			s-0.4,1.8-1,1.8c-1.7,0-6,7.3-6,10.2c0,3.8,1.9,4.6,4.1,1.7l1.9-2.4l-0.6,3.3c-0.5,2.8-0.3,3.3,1.5,3.3c1.4,0,2.9,1.5,4.8,4.8
			c10.6,18.5,33.9,45.8,51.4,59.9c8.8,7.1,20.9,15.4,22.5,15.4C477.5,381.5,480.9,379.7,484.4,377.4L484.4,377.4z M416.3,285.1
			c0.5-1.4,0.9-4.8,0.9-7.5c-0.1-4.1,0.4-5.6,2.9-8.7c3.8-4.8,5.7-8.7,7.3-14.3c1.3-4.8,11.7-25,12.9-25c2.1,0,3.1,3,3.1,9.2
			c0,5.1,0.4,7,1.6,7.6c2.5,1.4-1.1,11.6-5.8,16.1c-6.1,5.9-9.1,8.5-12,10.3c-2,1.2-2.9,2.8-3.4,5.8c-0.4,2.2-1,4-1.4,4
			s-2.2,1.2-3.9,2.6l-3.1,2.6L416.3,285.1L416.3,285.1z M485.3,89.5c-1.2-0.8-1.2-1,0.5-0.9c1.1,0,2.9,0.4,4,0.9
			c1.8,0.8,1.8,0.9-0.5,0.9C487.9,90.5,486.1,90.1,485.3,89.5z M343.7,216.8c-1.9-5.9-5.4-18.9-7.9-28.8
			c-8.4-33.9-11.2-56.8-14.1-114.6c-0.5-9.8-1.1-13.3-2.5-15.8c-2.2-3.7-3.9-4-4-0.9c-1.3,41.1,5.5,93.3,17,131.4
			c5,16.5,13.2,39.4,14.1,39.4C346.8,227.5,345.6,222.7,343.7,216.8L343.7,216.8z M374.8,158.1c19.5-5.1,37.6-20.1,46.1-38
			c1-2.2,1.9-4.2,2-4.5c0-0.3,0.9-3.2,2-6.5c1.4-4.4,1.9-9.1,1.9-18c0-13.5-0.7-17.4-3.2-17.6c-1-0.1,0.8-0.5,4-1
			c10.9-1.6,14.8-5.5,14.8-14.8c0-3.4-0.6-5.7-1.9-7.3c-1.8-2.2-1.8-2.5-0.3-4.2c1.1-1.2,1.7-3.6,1.7-6.8c0-4.4-0.4-5.3-3.3-7.9
			c-3.4-3.1-7.9-3.7-16.5-2.3l-3.8,0.6v13.3c0,7.3-0.3,14-0.6,14.9c-0.3,0.9-1.7,1.6-3,1.6h-2.4V45c0-14.4,0-14.5-2.3-14.5
			c-5.8,0-6.3,0.6-9.8,12.7l-3.4,11.6l-3.5-10.7l-3.5-10.7l-3.5,0.6c-1.9,0.3-3.9,0.8-4.3,1.1c-0.4,0.2-0.8,6.7-0.8,14.3v13.8
			l-2.6,0.7c-1.5,0.4-3,0.3-3.4-0.1c-0.4-0.4-2.1-6.1-3.8-12.7s-3.3-12.1-3.5-12.3s-2-0.1-4,0.2l-3.5,0.7l-2.6,11.2
			c-4.8,20.2-3.8,18.3-9.8,19.7c-2.9,0.7-6.7,1.8-8.5,2.5l-3.3,1.3V60.9c0-12-0.2-13.5-1.6-12.9c-0.9,0.3-2.7,0.9-4.1,1.2l-2.5,0.6
			l0.4,22.6c0.4,25,1.7,34,8.1,57.2c4.9,17.7,9.3,28.8,12,30C351.7,160.9,367.6,160,374.8,158.1L374.8,158.1z M362.7,62
			c0.3-0.9,0.6-2.5,0.6-3.7c0-2.7,1.5-1.1,2.4,2.5c0.6,2.3,0.3,2.8-1.5,2.8C362.7,63.5,362.3,63.1,362.7,62L362.7,62z M426.3,58.6
			c0-4.2,0.3-5,2.2-5.4c3.5-0.9,5.8,1,5.8,4.7c0,4-1.5,5.7-5.2,5.7C426.4,63.5,426.3,63.3,426.3,58.6z M390,61.9
			c-0.4-0.4-0.7-1.4-0.6-2.3c0-1.3,0.2-1.3,1.1,0.2C391.5,61.7,391.2,63.1,390,61.9z M403.5,58.5c0-1.4,0.2-1.9,0.5-1.3
			s0.3,1.8,0,2.5S403.5,59.9,403.5,58.5z M426.3,41c0-4.5,0-4.5,3.5-4.5c3.5,0,4.1,0.8,3.5,5c-0.2,1.9-2.9,4-5.2,4
			C426.6,45.5,426.3,44.7,426.3,41z M619.3,131.6c2.8-7,7.1-32.4,7-41.8c0-3.6-0.8-7.3-2-9.8c-1.6-3.3-1.9-6.2-2-17.1l0-13.1
			l-3.5-1.1l-3.5-1.1l-0.3,12.1c-0.3,11.5-0.4,12.1-2.3,11.8c-4.5-0.7-4.5-0.6-4.5-14V44.8l-3.1-0.6c-1.7-0.3-3.5-0.6-4-0.6
			s-0.9,4.4-0.9,9.8l0,9.8l-4.6-11c-2.5-6-4.9-11.3-5.2-11.6c-0.4-0.4-2.1-1-3.9-1.3l-3.3-0.7v13.1c0,13,0,13.1-2.3,13.1
			c-4.2,0-4.7-1.6-4.7-15.1c0-12.3-0.1-12.7-2.3-13.3c-5.9-1.6-5.8-1.8-5.8,13v13.6l-2.3-0.6c-1.2-0.3-2.6-0.6-3-0.6
			c-0.4,0-0.8-6.3-0.8-13.9V33.8l-3.1-0.6c-1.7-0.3-3.5-0.6-4-0.6s-0.9,3.6-0.9,8c0,8.6,0.1,8.6-5.8,7.4l-3.1-0.6l-0.3-8.1l-0.3-8.1
			l-3.8-0.3l-3.8-0.3v21.5v21.5l3.5,0.4c1.9,0.2,3.7,0.2,4-0.1s0.5-4.4,0.5-9.3c0-9.5-0.1-9.4,5.9-8.2l3.1,0.6l0.1,7.6
			c0.1,8.5,1.5,27.5,2.2,30.6c3.9,15.5,16.3,29.8,30.8,35.6c7.7,3,12.2,3.8,22.1,3.7C617.9,134.2,618.3,134.1,619.3,131.6
			L619.3,131.6z M591.9,66.3c-1-3.4-1.3-5.7-0.6-5.3c1.3,0.8,3,6.5,1.9,6.5C592.7,67.5,592.1,67,591.9,66.3z M527.1,70
			c3.2-2.1,4.3-5.4,4.3-13.4c0-7.6-0.4-8-8.3-8c-3.7,0-3.8,0-3.8,4c0,3.3,0.3,4,2,4c1.5,0,2,0.7,2,2.9c0,4.2-2.3,5.8-5.5,3.7
			c-3.2-2.1-4-5.2-4-14.7c0-11.4,4.4-16.8,8.3-9.9c1.5,2.6,2.2,3,5.2,2.7c3.1-0.3,3.5-0.6,3.3-3c-0.4-6.5-8.3-12-14.9-10.3
			c-3.9,1-8,5.8-9.3,11c-2.4,9.7-0.6,23.2,3.9,28.9C514,72.5,521.8,73.4,527.1,70z M466.1,68c4.2-3.5,6.3-9.6,6.5-18.5
			c0.3-14.6-4.4-23-12.8-23c-8.9,0-14,8.3-14,22.5c0,9.3,2.3,16.4,6.2,19.5C455.8,71.5,462.3,71.2,466.1,68L466.1,68z M456.2,60.9
			c-0.9-1.1-1.5-5-1.7-11.3c-0.3-10.6,0.8-14.4,4.6-14.9c3.7-0.5,5.5,5.4,5,16c-0.4,8.9-1.6,11.9-4.8,11.9
			C458.4,62.5,456.9,61.8,456.2,60.9z M485.1,61.3c0.4-11.7,2-11.6,6.3,0.3l3.2,9h4.4c2.4,0,4.3-0.1,4.3-0.3c0-0.1-1.5-4.5-3.3-9.6
			l-3.3-9.4l2.8-2.8c2.3-2.3,2.8-3.7,2.8-7.9c0-10.4-3.4-13.3-16.3-13.9l-8.8-0.4v21.5c0,22.9,0,22.8,5,22.4
			C484.8,70,484.8,69.8,485.1,61.3L485.1,61.3z M485.3,39.5c0-5,0-5,3.3-5c4,0,5.7,1.5,5.7,5c0,3.5-1.7,5-5.7,5
			C485.3,44.5,485.3,44.5,485.3,39.5z M322.3,54.2c0-0.7,1.1-2.9,2.5-4.9c2-3,2.2-3.7,1-3.7c-1.7,0-9.5,3.7-9.5,4.6
			c0,0.3,1,1.8,2.2,3.4C320.6,56.4,322.3,56.7,322.3,54.2z M380.5,31.1c41.9-6.8,83.4-8.9,127.3-6.5c17.9,1,48.4,3.9,60.5,5.9
			c5.3,0.8,7,0.7,5.8-0.4c-0.9-0.9-24.3-5.2-36.8-6.9c-23.4-3-41.9-3.9-75.4-3.3c-34.9,0.5-49.6,1.8-72.6,6.3
			c-17,3.3-31.3,7.4-25.7,7.4C364.5,33.5,372.1,32.4,380.5,31.1z"/>
	</g>
</g>
</svg>
