<?xml version="1.0" encoding="utf-8"?>
<!-- Generator: Adobe Illustrator 18.0.0, SVG Export Plug-In . SVG Version: 6.00 Build 0)  -->
<!DOCTYPE svg PUBLIC "-//W3C//DTD SVG 1.1//EN" "http://www.w3.org/Graphics/SVG/1.1/DTD/svg11.dtd">
<svg version="1.1"
	 id="svg2" xmlns:dc="http://purl.org/dc/elements/1.1/" xmlns:svg="http://www.w3.org/2000/svg" xmlns:rdf="http://www.w3.org/1999/02/22-rdf-syntax-ns#" xmlns:cc="http://creativecommons.org/ns#"
	 xmlns="http://www.w3.org/2000/svg" xmlns:xlink="http://www.w3.org/1999/xlink" x="0px" y="0px" viewBox="60.1 61.5 23.8 23.8"
	 enable-background="new 60.1 61.5 23.8 23.8" xml:space="preserve">
<g id="g10" transform="matrix(1.3333333,0,0,-1.3333333,0,172.62667)">
	<g id="g12" transform="scale(0.1)">
		<path id="path14" fill="#1A7553" d="M451.1,744.3c0,49.2,39.9,89.2,89.2,89.2c49.2,0,89.2-39.9,89.2-89.2
			c0-49.2-39.9-89.2-89.2-89.2C491,655.1,451.1,695.1,451.1,744.3"/>
		<path id="path16" fill="#FFFFFF" d="M453.7,744.3c0,47.8,38.7,86.5,86.5,86.5c47.8,0,86.5-38.7,86.5-86.5
			c0-47.8-38.7-86.5-86.5-86.5C492.5,657.8,453.7,696.5,453.7,744.3"/>
		<path id="path18" fill="#1A7553" d="M456.6,744.3c0,46.2,37.5,83.7,83.7,83.7s83.7-37.5,83.7-83.7s-37.5-83.7-83.7-83.7
			C494.1,660.6,456.6,698.1,456.6,744.3"/>
		<path id="path20" fill="#FFFFFF" d="M488.5,744.7c0,28.5,23.1,51.6,51.6,51.6c28.5,0,51.6-23.1,51.6-51.6
			c0-28.5-23.1-51.6-51.6-51.6C511.6,693.1,488.5,716.2,488.5,744.7"/>
		<path id="path22" fill="#FFFFFF" d="M548.3,820.7c1.4-1.2,1.8-2.9,1.7-4.8c-0.4-1.3-1.1-2.6-2.3-3.5c1.4-1.1,2.8-2.2,3-4
			c0.4-1.9-0.1-3.5-1.2-4.9c-2.2-2.5-5.7-1.9-8.9-2l-8.4-0.2l0,0.8l-0.9,19.2l0,0.4C536.8,821.7,543.3,823.1,548.3,820.7"/>
		<path id="path24" fill="#FFFFFF" d="M564,818c-1.5-4.3-3.5-8.5-4.5-13.1c-0.1-1.1,0.6-2.3,1.9-2.6c0.9-0.5,2.2-0.6,2.8,0
			c2.9,4,4.2,9,6,13.5c2.3-0.8,4.1-1.9,6.3-2.8c-2.4-5-3.8-10.9-7.1-15c-2.4-2.1-6.1-1.5-8.9-0.9c-3.2,1.2-6.7,3.2-7.7,6.9
			c-0.8,2.5,2.7,11,4.6,16.1L564,818"/>
		<path id="path26" fill="#FFFFFF" d="M511.7,794.1l-4.8-3.2c-1.8,1-2.8,1.6-4.1,2.2l-5.3-4.5c0.5-1.3,1.2-2.9,1.8-4.4l-4.8-5.3
			l-0.4,0.8l-8.4,19.9l7.6,6.6l0.6-0.4c6-3.6,12.1-8,18.2-11.4L511.7,794.1"/>
		<path id="path28" fill="#FFFFFF" d="M512.9,794.8c-2.5,6.1-5.6,13.3-7.9,19c5.8,2.3,14.1,8,19.2,2.7c1.3-1.4,1.5-3.5,1.5-5.3
			c-0.3-1.2-0.6-2.4-1.4-3.4c1.7-2.1,4.9-4.5,7.1-6.6l-0.3-0.1l-6.5-1.4c-2.3,1.9-3.6,3.2-5.7,4.6c-0.9-0.1-1.5-0.6-2.3-1l2.3-5.1
			L512.9,794.8"/>
		<path id="path30" fill="#1A7553" d="M542.6,817.3c0.5-0.5,0.4-1.7,0.1-2.3c-1-1.1-2.7-1.1-4.1-0.9c0.1,1.2-0.3,2.4-0.2,3.7
			C539.6,817.6,541.7,818.3,542.6,817.3"/>
		<path id="path32" fill="#1A7553" d="M518.7,812.3c0.3-0.9,0.4-2.4-0.4-2.9l-3.6-1.5c-0.9,1.6-1.3,2.8-1.9,4.1
			C514.5,812.6,517.3,815.1,518.7,812.3"/>
		<path id="path34" fill="#1A7553" d="M543.8,809.1c0.3-1.2-0.3-2.6-1.5-2.8c-1.2-0.2-2,0-3.3-0.1c-0.2,1.3-0.3,3-0.2,4.1
			C540.5,810,543,810.9,543.8,809.1"/>
		<path id="path36" fill="#FFFFFF" d="M592.7,802c1.2-1.5,2.1-3.4,2.6-5.3c-1.5-0.8-2.7-1.7-4.1-2.4c-0.3,2.3-1.6,4.5-3.8,5.7
			c-1.1,0.6-2.6,0.7-3.8,0.3c-1.9-0.7-3.5-2.3-4.1-4.1c-0.6-1.8,0-3.5,1.1-4.9c1.4-1.6,3.3-2.4,5.4-2.5c-1-1.6-1.5-2.6-2.4-3.8
			c-3.6,0.5-6.9,2.4-8.9,5.8c-1.7,2.8-1.8,7.1-0.3,10c1.6,3.2,4.8,5.3,8.2,5.8C586.6,806.6,590.3,804.9,592.7,802"/>
		<path id="path38" fill="#1A7553" d="M498.6,795.9c-1-0.9-2.1-1.8-3.3-2.6c-0.9,2.1-1.7,3.9-2.6,6.2
			C494.8,798.4,496.6,797.1,498.6,795.9"/>
		<path id="path40" fill="#FFFFFF" d="M603.6,789.1c-1.7-1.7-3.9-3.1-5.7-4.7c2.8-0.6,6-0.5,8.9-1c1.3-1.9,2-3.7,3.3-6l-10.7,0.8
			c-2.4-3.7-4.5-7.4-6.5-11.3c-1.2,1.9-2.3,4.2-3.5,6.3c1.4,2.8,3.2,5.8,4.6,8.5c-2.4-1.5-4.5-3.4-6.9-4.9l-3.7,5
			c5.1,4.4,10.6,8.2,15.9,12.2l0.4,0.1L603.6,789.1"/>
		<path id="path42" fill="#FFFFFF" d="M484,790.5c-1-2-2.2-3.4-3.1-5.2l12.4-8.2c-0.7-1.8-2.1-3.6-3.3-5.4l-12.7,7.9
			c-1.2-1.5-2-3-3.1-4.9c-1.7,1.1-2.8,1.8-4.2,2.8c3.2,5.3,6.1,10.2,9.6,15.6L484,790.5"/>
		<path id="path44" fill="#231F20" d="M518.8,742c0-0.9,0-1.7-0.2-2.5c-1.9-3.9-5-7.3-5.5-11.8c-2.2-1.4-4-3.9-7.2-3
			c-0.1-0.8,0.1-2.1,0.4-3c-2.5,0.1-4.2-1.7-6.3-2.6c-1.1,0.4-1.4,1.8-1.8,2.8c2.4,0.8,4.2,3.3,7.1,3.3c0.3,0.9-0.2,1.7-0.3,2.6
			c-3.5,1.6-9.1-7.7-9.6,0.3c3.5,0.2,5.8,3.5,9.3,3.8l0.1,2.6c-3.9,0.4-6.5-3.6-10.4-3.3l-0.9,3.5c4.6-0.3,7.3,3.8,11.6,4
			c0.6,0.8,0.7,1.9,0.8,2.9c-4.8,0.6-8-4.7-13.1-3c0,0-0.2,2.2-0.3,3.4L518.8,742"/>
		<path id="path46" fill="#231F20" d="M524.4,742c0.1-1.9-0.3-3.8-2.1-5.8c-2.6-3.1-5.2-7-3.4-11.1c2-4.6,8.3-8.1,5.5-13.8
			c-1.5-3.6-5-6.3-4.9-10.6c-1,0.4-1.9,0.8-2.7,1.5c0,5.4,7.7,8.8,4,14.4c-0.3-1.1-0.4-2.6-0.7-3.9c-1.2-3.3-4-6-5-9.4
			c-1.7,0.7-3.5,2-4.9,3.5l2,1.2c-0.2,0.7-0.8,1.3-1.3,2c-1.2,0.2-2.1-0.7-3.2-1c-0.9,0.8-1.8,1.5-2.5,2.5c0.7,1.9,5.7,0.3,3.2,3.4
			c-1.7,1.1-3.5-0.5-5-1.2l-2.1,2.6c1.8,1.1,3.6,2.6,5.8,2.2c0.5-1,0.6-2.4,1.6-2.9c3.7,0.1,6.4,2.9,9.3,5.1c-2,3-3.6,7.1-1.9,10.7
			c1.4,3.6,5.1,6.6,5.3,10.6H524.4"/>
		<path id="path48" fill="#231F20" d="M529.7,742c0.2-1.7-0.1-3.4-1.2-5.2c-2.4-3.2-5.4-6.6-4-10.8c1.3-4.2,6.6-6.8,6.3-11.8
			c0-5.9-6.8-9.5-4.9-16l-3.4,1.1c-1.3,5.8,4.8,8.8,4.9,14.1c0.9,6.1-7,8.4-6.5,14.4c0,4.6,4,7.5,5.8,11.3c0.3,0.9,0.4,1.8,0.4,2.6
			L529.7,742"/>
		<path id="path50" fill="#231F20" d="M548.4,742c-0.2-1.4,0-2.9,0.8-4.4c2.4-3.7,6.5-7.7,3.9-12.5c-2.7-4-7.2-7.9-5.4-13.1
			c2-4.5,6.1-8.8,3.9-14.4l-3.4-0.8c2.7,5.5-1.3,10.9-3.7,15.6c-2.9,6.8,6.1,10.1,6.3,16.3c0,4-4.3,6.3-5.2,10
			c-1.9,1.6-3.8-0.6-6-0.2c-1.6-0.3-4.1,2.3-5.1-0.5c-1.2-4.1-6.4-7.1-4.1-12c2.2-4.3,7.5-7.5,5.8-13.1c-1.6-5.2-6.9-10.2-3.6-16.2
			c-1.3,0.4-3.8-0.4-3.8,1.7c-2.1,7.3,6.7,11.5,4,18.8c-1.2,4.5-7,6.9-5.8,12.3c1,4.4,5.9,7.5,5.2,12.3L548.4,742"/>
		<path id="path52" fill="#231F20" d="M553.6,742c0-1.2,0.2-2.4,1-3.6c2.5-4.1,6.9-8.5,4.4-13.8c-2.8-4.2-7.8-8.5-5-14.1
			c2-3.3,5.1-6.7,4.2-10.8l-3.3-1.1c2.2,7.6-8.5,12.1-4,19.8c2.7,4.1,7.7,7.9,4.9,13.4c-1.7,3.4-5.1,5.4-5,9.6l0.1,0.7H553.6"/>
		<path id="path54" fill="#231F20" d="M559,742c0-1,0.2-2.1,0.8-3.1c2.4-4.2,6.6-8.3,5-13.6c-0.4-1.6-1.7-2.9-2.1-4.6
			c2.7-2.3,5.4-4.8,9-5c1.3,0.8,0.6,4.5,3.3,2.8l3.9-2c-0.3-1.1-1.2-2-2-2.7c-1.5,0.7-2.9,1.6-4.8,1.5c-0.5-0.6-1-1.2-1-2.1
			c1.3-0.2,2.5-0.8,3.6-1.5c-0.5-1.1-1.5-1.8-2.4-2.6l-3,1.1c-0.5-0.7-1.6-1.5-1.2-2.3c0.7-0.3,1.4-0.7,2-1.2
			c-1.3-1.4-3-2.4-4.7-3.4c-1.4,4.6-6,7.8-5.7,13.2l-0.2,0.2c-1.1-1.2-0.7-3.2-0.7-4.8c1.3-3.3,4.4-5.9,4.9-9.6
			c-0.5-1-1.8-1.1-2.7-1.5c0.1,6.6-9.9,11.6-3.5,18.2c2.2,3.3,5.7,6.4,4.5,10.9c-1.3,4.3-5.9,7.1-5.9,11.9H559"/>
		<path id="path56" fill="#231F20" d="M588,742c0-1.2,0.1-2.3-0.3-3.6c-4.9-1.4-8.2,3.8-13.1,3.1l0.5-2.7c4.5-0.1,7.2-4.4,11.9-4.2
			c-0.7-1.3,0.3-4.8-2.6-3.4c-3,0.7-5.2,3.4-8.5,3.4c-0.4-0.7-0.1-1.7-0.2-2.6c3.5-0.5,6-3.5,9.5-4c-0.3-1.2-0.7-2.5-1.6-3.3
			c-2.8,0.7-5,3.2-8.1,3.2l-0.5-2.5c2.9-0.1,4.7-2.6,7.3-3.4c0-1.1-0.9-2-1.4-2.9c-2.3,0.7-4,2.6-6.6,2.5c0,1,0.5,2.1,0.3,3.2
			c-2.9-0.9-4.9,1.9-7.1,3.5c0,5.3-5.7,8.8-6,13.9L588,742"/>
		<path id="path58" fill="#231F20" d="M492.4,742c0,0.5,0,0.8,0,0.8c4.5-1.7,8.4,1.5,12.3,3.2c1,0.3,2.5-0.2,2.9,0.9
			c0,0.8,1.5,1.8,0.2,2.4c-5.6,0.8-9.4-6-15.1-2.9l-0.4,0.9c1.2,16.4,10.4,32.2,25.8,40c13.7,7.8,34.7,7.2,47.6-2
			c6.9-4.2,13.4-11.1,16.9-18.1c3.4-6.1,4.9-13.1,5.4-20.4c-6-4.5-9.9,4.2-16,2.3c0.3-1,0.5-1.9,1.2-2.7c5.4,0,9.1-5.6,14.7-3.4V742
			h-26.5c0,1,0.1,2.1,0.5,3.2c1.9,4.3,1.2,9.8-0.8,13.8c-0.6,1.1-1.7,1.9-2.7,2.5c1.5-3.2,3.3-6.9,2.4-10.8c-0.1-3-1.9-5.9-1.9-8.7
			h-2.8v0.4c1.1,5.1,4.2,10.5,1.6,15.9c-0.7,2.2-2.4,4.7-4.6,5.5c3.3-3.8,4.6-9.9,2.7-15c-1-2-2.3-4.4-2.4-6.8h-2.7
			c1.1,6,5.7,11.6,2.5,18c-0.8,1.9-2.5,3.8-4.4,4.9l-0.1-0.1c3.7-3.6,4.8-9.5,2.8-14.3c-0.9-2.8-3-5.6-3.4-8.5h-16.2
			c0,0.4-0.1,0.8-0.3,1.2c-1.9,5.2-5.6,10.4-3.4,16.5c0.6,1.7,1.9,3.2,2.9,4.8c-3.6-1.9-5.4-6-5.3-10.1c-0.1-4.5,3.2-8.4,3.6-12.4
			H527c-0.2,4.3-4,7.6-3.4,12.3c0.2,3.5,1.4,6.6,3.7,9.3c-3.2-1.2-4.5-4.9-5.3-7.9c-1.5-4.9,2.1-9.3,2.4-13.6h-2.9
			c0,0.9-0.1,1.9-0.5,2.9c-2,5-2.6,11.9,1.1,16.3c-2-0.5-3.2-3.1-3.9-5c-2.3-4.9,0.6-9.5,0.7-14.2L492.4,742"/>
		<path id="path60" fill="#FFFFFF" d="M542.7,784l5.9-0.3l-0.1-0.5l-4.4-4.1c0.8-1.9,1.5-3.7,2.3-5.5c3.3,1.9,6.4,4.3,10.4,4.6
			c-0.4-2.1-2-4.3-1.7-6.4c2.4,0.7,4.7,2.2,7.4,2.1c-1.7-3.1-4.1-6.1-4.2-10c-3.6,1.4-7.4,3-11.5,3.7c-8.7,1.5-17.1-0.4-24.3-3.9
			c-0.6,3.6-2.4,6.9-4.6,9.9c1.3,0.4,2.9-0.3,4.2-0.7c1.1-0.3,2.1-1.1,3.3-1.3c0.2,2.2-1.1,4.3-2,6.3c0.6,0.5,1.6,0.1,2.3-0.1
			c2.9-1.1,5.4-2.8,8.1-4.4c1.3,1.6,1.8,3.8,2.4,5.9l-4.5,4v0.4l5.9,0.3c1,1.8,1.6,3.8,2.6,5.7C541.3,787.9,541.7,785.8,542.7,784"
			/>
		<path id="path62" fill="#231F20" d="M544.8,772.2l-0.5-0.5c-2.7,0.3-5.6,0-8.2-0.1c-0.3,0.3-0.9,0.7-0.3,1.1l4.1,3.2
			C541.6,774.8,543.4,773.5,544.8,772.2"/>
		<path id="path64" fill="#FFFFFF" d="M472.3,770.7c-2.3-1.7-3.8-4.3-3.4-7.2c0.2-0.4,0.5-1.1,1.1-1.2c1.8,0,2.4,2,3.3,3.2
			c1,2.2,2.9,4.5,5.4,4.8c2.2,0.1,4.1-0.4,5.6-2.2c2.2-2.6,1.8-6.9,0.8-10c-1-2.3-2.5-4.6-4.7-6.1l-3.9,2.4c2.2,1.5,4.4,3.9,4.7,6.6
			c0,1-0.2,2.3-1.4,2.4c-2.5-0.7-2.7-3.7-4.5-5.4c-1.3-1.3-2.9-2.4-5-2.1c-1.9,0.1-3.6,1.3-4.7,2.8c-2.2,3.3-1.1,8.1,0.2,10.6
			c0.8,1.4,1.7,2.8,3,3.9C469.9,772.5,471.1,771.6,472.3,770.7"/>
		<path id="path66" fill="#FFFFFF" d="M614.3,767.8c1.9-3,2.6-7.1,1.6-10.8l-4,0.2c0.5,2.4,1,5.5-0.8,7.5c-0.5,0.6-1.4,1-2.1,0.7
			c-2.2-2.4,0.2-6-1.2-8.8c-0.7-1.2-1.6-2.8-3-3.4c-2.3-0.9-5.1-0.4-6.9,1.3c-3.4,3.6-5,9.1-2.8,13.7h4.2c-0.7-1.8-1.2-4.4-0.5-6.5
			c0.4-0.9,0.8-2.1,1.9-2.4c3.5-0.1,1.1,4.8,2,7.2c0.3,1.7,1.2,3.6,3,4.4C608.9,772.5,612.7,770.7,614.3,767.8"/>
		<path id="path68" fill="#FFFFFF" d="M507.6,761c3.5,1.3,8.3,3.6,12,1.2c-0.8-1.1-2.4-1.7-3.5-2.7c-1.8-1.8-4.1-4-5.4-6.3
			c-4.5,0.9-8.2-1.7-12-3.3c-1.4-0.3-3.4-0.4-4.6,0.5c3.6,5.9,8.6,11.3,7.4,19.2c0.4,0.7,1.1,0.1,1.5-0.1
			C505.9,767.3,507.3,764.3,507.6,761"/>
		<path id="path70" fill="#FFFFFF" d="M579.1,768.7c-1.4-7.4,3.6-12.6,7.1-18.3c-3.9-2.6-7.6,1.4-11.3,2.4c-1.6,0.2-3.6,0.5-5.1,0.2
			c-2.3,3.5-5.2,6.7-8.9,8.7c0.2,1.2,1.9,1.2,3,1.4c3.2,0.3,6-1,8.7-2.4c0.5,1.2,0.7,2.5,1.1,3.8c0.9,2.2,2.6,4.3,4.8,5.2
			C579,769.7,579.3,769.2,579.1,768.7"/>
		<path id="path72" fill="#FFFFFF" d="M548.9,762c0.1-0.6,0.7-1.2,0.3-1.9c-2.2,0.7-4.6,0.3-6.6-0.5c-1.9-1.4-1.5-4.2-1.1-6.2
			l0.5-0.4c0.9,0.2,1,1.4,1.7,1.6c1.3-0.3,3.2-0.8,4.5,0c1.1,0,1.1-1.6,1.2-2.4c-0.8-4.2-2.6-8.8-6.9-10.8c-1.8-0.9-4.1-0.3-5.8,0.3
			c-4.2,2.5-6.6,7.5-6.1,12c0.3,0.7,0.8,1.2,1.6,0.8c1.7-1.2,3.6,0.9,5.1-0.5c1.9,0.8,0.8,3.2,0.8,4.9c-1.5,2-4.1,1.7-6.4,1.5
			c-1,0.6,0.1,1.6,0.3,2.3c2.4,3.5,7.2,3.6,11.3,3C545.6,765.1,547.9,764.2,548.9,762"/>
		<path id="path74" fill="#FFFFFF" d="M536.3,757v-0.4c-1.2,0.1-3.2,1.3-4.4-0.2c-0.7-0.3-0.8,0.5-0.8,1c-0.1,0.5,0.2,1,0.7,1.1
			C533.6,758.8,535.5,758.3,536.3,757"/>
		<path id="path76" fill="#FFFFFF" d="M549.3,757.5c0-0.4,0.1-1-0.4-1.2c-1.4,0.5-3.3,1.3-4.7,0.2c-0.8,1.7,1.4,1.3,2.2,1.9
			C547.4,758.4,548.7,758.5,549.3,757.5"/>
		<path id="path78" fill="#231F20" d="M542.3,750.5c-0.7-1.4-2.7-0.5-3.9-0.8c-0.4,0.1-0.1,0.6-0.2,0.9
			C539.3,751.5,541.4,751.6,542.3,750.5"/>
		<path id="path80" fill="#231F20" d="M544,747.5c-0.9-1.3-2.2-2.9-3.9-2.8c-2-0.1-2.4,1.4-3.8,2.4l-0.1,0.7
			C538.8,747.3,541.7,747.8,544,747.5"/>
		<path id="path82" fill="#FFFFFF" d="M476.3,730.5c2.2,0,4.3-0.1,6.6,0l-5-4.2c0.5-1.8,0.9-3.8,1.5-6.2l-5,3.5
			c-2.1-1-3.4-2.2-5.5-3.3l1.7,6c-1.6,1.3-3.5,2.6-5,4c2.3,0,4.3,0,6.5,0c1,1.9,1.5,4.1,2.4,6L476.3,730.5"/>
		<path id="path84" fill="#FFFFFF" d="M502,702c0.4-1.1,1.1-1.9,1.3-3.5c-1.2-0.7-2.6-1.3-3.9-2c-0.3,2.4-2.4,4.7-4.8,5.3
			c-2,0.5-4.1-0.4-5.5-2.2c-1.2-1.4-1.6-3.5-1.2-5.2c1-2.4,3.6-4.3,6.2-4.3h0.8c-0.7-1.7-1.2-2.6-2-3.9c-4.4,0.1-8.8,2.7-10.4,7
			c-1.4,3.5-0.8,7.9,1.4,10.8c2.7,3.4,7,4.4,11.1,3.5C497.8,706.6,500.4,704.5,502,702"/>
		<path id="path86" fill="#FFFFFF" d="M586.5,704.2l0.3-0.3l-6.5-6.1l2.2-2.6c1.8,1.4,3.8,3,5.8,4.8c1-0.9,1.8-1.8,2.8-3
			c-2-1.9-4-3.1-5.7-4.9c0.7-0.9,1.3-1.9,2.4-3l7.1,5.8l3-3.1c-4-3.8-8.4-7.7-12.5-10.7L573.1,697c3.9,3.3,7.2,6.2,10.7,9.7
			C584.7,706,585.5,705.1,586.5,704.2"/>
		<path id="path88" fill="#FFFFFF" d="M517.4,690.9c2.2-2.8,2.3-7.2,0.9-10.4c-1.5-3.3-4.5-5.4-7.7-6.1c-3.9-0.6-7.6,0.7-10.4,3.4
			c-2.5,2.7-3.9,6.7-2.6,10.6c1.1,4.2,5.2,7.2,9.4,7.7C511.2,696.2,515.1,694.2,517.4,690.9"/>
		<path id="path90" fill="#1A7553" d="M512.8,688.2c1.2-2.9-0.2-5.7-2.2-7.7c-1.2-1-2.9-1.6-4.6-1.1c-1.1,0.5-2.4,1.4-2.6,2.5
			c-0.8,2.9,0.5,5.6,2.5,7.6c1.2,1,3,1.6,4.6,0.9C511.5,690.3,512.5,689.2,512.8,688.2"/>
		<path id="path92" fill="#FFFFFF" d="M556.1,683.6c-3.1-0.4-6-0.8-8.9-1.3c0.3-1.4,0.1-2.4,0.4-3.5c2.7,0,5.1,0.5,7.6,0.9l0.7-4.7
			c-2.5-0.4-5.2-0.9-7.8-1.1c0.1-2.1,0.3-4.7,0.3-7c-2.2-0.3-4.5-0.6-6.7-0.4l-1.3,19.8v0.4c4.9,0.5,9.9,1.1,14.6,1.9
			C555.3,687.2,555.7,685.5,556.1,683.6"/>
		<path id="path94" fill="#FFFFFF" d="M572.7,692.6l0.2-0.3l-8-4l1.3-3.1c2.4,0.9,4.5,1.8,7,3c0.7-1.1,1.2-2.3,1.8-3.6
			c-2.2-1.2-4.5-2.1-6.9-3.1c0.4-1.1,0.7-1.9,1.4-3.6l8.4,3.6l2-3.8c-4.9-2.5-10.2-5-15-6.8l-7.3,18.7c4.7,2,8.7,4,13,6.3
			C571.5,694.8,572,693.7,572.7,692.6"/>
		<path id="path96" fill="#FFFFFF" d="M537.6,681.4c-3,0.5-5.9,1.1-8.8,1.5c-0.1-1.4-0.6-2.4-0.7-3.4c2.6-0.8,5-1.1,7.5-1.5
			l-0.7-4.7c-2.5,0.3-5.2,0.8-7.8,1.3c-0.6-2-1.1-4.6-1.8-6.8c-2.2,0.3-4.4,0.8-6.5,1.6l4.8,19.3l0.1,0.4c4.8-1.1,9.7-2,14.4-2.6
			C537.9,685,537.8,683.2,537.6,681.4"/>
		<path id="path98" fill="#FFFFFF" d="M608,730.5c2.2,0,4.1,0,6.6,0l-5-4.2c0.5-1.8,0.9-3.8,1.5-6.2l-5,3.5c-2.1-1-3.4-2.2-5.6-3.3
			l1.7,6c-1.6,1.3-3.5,2.6-5,4c2.3,0,4.3,0,6.5,0c0.9,2,1.5,3.9,2.4,6L608,730.5"/>
		<path id="path100" fill="#231F20" d="M599.1,669.4c2.8,0,5.3-2.2,5.3-5.2c0-3-2.4-5.2-5.3-5.2c-2.9,0-5.3,2.2-5.3,5.2
			C593.9,667.2,596.3,669.4,599.1,669.4z M599.1,668.6c-2.4,0-4.3-1.9-4.3-4.4c0-2.5,1.9-4.4,4.3-4.4c2.4,0,4.3,1.8,4.3,4.4
			C603.4,666.7,601.5,668.6,599.1,668.6z M598,661.2h-0.9v6h2.3c1.4,0,2.1-0.5,2.1-1.7c0-1.1-0.7-1.5-1.6-1.6l1.7-2.6h-1l-1.6,2.6
			H598V661.2z M598,664.5h1.1c1.1,0,1.5,0.3,1.5,1c0,0.6-0.3,0.9-1.3,0.9H598V664.5"/>
	</g>
</g>
</svg>
