<?xml version="1.0" encoding="utf-8"?>
<!-- Generator: Adobe Illustrator 18.0.0, SVG Export Plug-In . SVG Version: 6.00 Build 0)  -->
<!DOCTYPE svg PUBLIC "-//W3C//DTD SVG 1.1//EN" "http://www.w3.org/Graphics/SVG/1.1/DTD/svg11.dtd">
<svg version="1.1"
	 id="svg2" xmlns:dc="http://purl.org/dc/elements/1.1/" xmlns:cc="http://creativecommons.org/ns#" xmlns:rdf="http://www.w3.org/1999/02/22-rdf-syntax-ns#" xmlns:svg="http://www.w3.org/2000/svg"
	 xmlns="http://www.w3.org/2000/svg" xmlns:xlink="http://www.w3.org/1999/xlink" x="0px" y="0px" viewBox="116.4 116.9 25 25"
	 enable-background="new 116.4 116.9 25 25" xml:space="preserve">
<g id="g10" transform="matrix(1.3333333,0,0,-1.3333333,0,258.66667)">
	<g id="g12" transform="scale(0.1)">
		<path id="path14" fill="#FFFFFF" d="M872.6,875.7h187.5v187.5H872.6V875.7z"/>
		<path id="path16" fill="#231F20" d="M902.4,983.5c0,0.8,0,1.5,0,2.3c0,0.5,0,1,0,1.5c0.5,14,5.4,26.6,13.8,37.5
			c14.1,17.6,34.5,26.5,57.2,24.3c14.6-1.6,27.4-7.6,38.1-18.1c11.8-11.9,18.3-27.1,18.9-43.7c0-0.7,0-1.5,0-2.3c0-0.5,0-1,0-1.5
			c-0.5-14-5.4-26.6-13.8-37.5c-14.1-17.6-34.5-26.5-57.2-24.3c-14.6,1.6-27.4,7.6-38.1,18.1C909.5,951.7,903,967,902.4,983.5z
			 M1029.2,983.5c0.8,25.3-14.3,49.5-38,59.7c-7.4,3.2-15.5,5-24.2,5.1c-2.3-0.1-4.9-0.1-7.1-0.4c-20.7-2-40.4-15.7-49.6-34.6
			c-4-7.9-6.2-16.6-6.7-26c-0.7-25.3,14.3-49.5,38.1-59.6c7.4-3.2,15.5-5,24.2-5.1c2.3,0.1,4.9,0.1,7.1,0.4
			c20.7,2,40.4,15.7,49.6,34.6C1026.6,965.5,1028.8,974.1,1029.2,983.5L1029.2,983.5z M1016.4,1019.6l-3.3-2.3l-0.6,0.3
			c-1,1.1-1.8,2.8-3,3.7h-0.2l-1.7-1.5l0.3-0.4c-0.3,0.1-0.6,0.2-1,0.2c-0.3,0-0.6,0.1-0.8,0.2l-0.1,0.2l3.5,3.1
			c1.4-1.4,2.3-2.9,3.5-4.4c0.7,0.3,1.3,0.8,1.9,1.3c-1.5,2.4-3.6,4.9-5.6,6.9l-0.3,0c-1.8-1.6-3.3-3.3-5-4.8
			c-2.2,2.1-4.4,4.2-6.9,5.9l-0.2,0.3c0.9,1.3,1.8,2.6,2.7,3.9c1.3-1,2.8-2.1,4.2-3.2c0.5,0.5,1,1.1,1.4,1.7v0.2
			c-2,1.8-4.2,3.4-6.5,4.9h-0.3c-1.2-1.9-2.6-3.8-3.6-5.8l-0.2-0.1c-2.6,1.6-5.2,3.1-8.1,4.2c0.6,1.4,1,2.9,1.8,4.4
			c1.7-0.7,3.3-1.6,5-2.3l1,2c-0.4,0.5-1.1,0.7-1.6,1c-1.9,0.9-3.9,1.8-5.9,2.5l-0.2-0.1l-2.3-6.5l-0.1-0.1c-1.5,0.5-3,1-4.5,1.4
			c-1.4,0.4-2.9,0.6-4.4,0.9c0.1,1.5,0.5,3.1,0.7,4.7l0.1,0.1c1.7-0.4,3.5-0.7,5.1-1.1c0.2,0.8,0.5,1.5,0.6,2.3
			c-2.6,0.8-5.2,1.3-8,1.6c-0.3-2.1-0.5-4.2-0.8-6.4c-0.3,0.4-0.5,0.9-0.7,1.3c0,0.1,0,0.2-0.1,0.3c0.3,2,0.3,4,0.7,5.9
			c0.4,0.1,0.6,0,0.9,0c3.3-0.4,6.5-1,9.6-2c-0.4-1.4-0.9-2.9-1.3-4.3c-1,0.1-1.9,0.5-2.9,0.6c-0.7,0.2-1.4,0.3-2.2,0.4
			c-0.3-0.7-0.3-1.6-0.5-2.3c0.6-0.2,1.3-0.3,1.9-0.5c1.7-0.4,3.4-0.9,5.1-1.4c0.8,2.2,1.4,4.5,2.2,6.7c3.5-1,6.8-2.6,10.1-4.3
			l0.1-0.1c-0.7-1.3-1.5-2.7-2.2-4c-1.5,0.8-3,1.7-4.7,2.3c-0.3,0-0.3-0.3-0.4-0.5l-0.7-1.7c2.1-1.1,4.3-2,6.3-3.3
			c1.4,2,2.5,4.1,3.8,6c3.1-1.8,6.1-4.1,8.9-6.5l0-0.2l-2.9-3.2h-0.3c-1.1,1-2.4,2.1-3.6,3l-0.2,0l-1.4-1.8c1.8-1.6,3.8-3.2,5.6-4.9
			l5,5c2.8-2.7,5.2-5.7,7.4-8.8L1016.4,1019.6z M1017.8,1015.1l-0.7-0.4c-0.3,0.3-0.7,0.5-1,0.7c0.8,0.4,1.5,0.9,2.3,1.3
			c1.5-2.3,2.8-4.8,3.9-7.3c-0.2,0.3-0.4,0.5-0.6,0.7c-0.5,0.9-1.4,1.7-2.1,2.5c-0.4,0.8-0.9,1.7-1.4,2.4H1017.8z M915.3,1015.7
			l3.5-2.1c-0.2-0.3-0.5-0.5-0.8-0.8c-1.5,0.8-2.9,1.6-4.3,2.4c0.4,0.9,1,1.8,1.6,2.7c1.6,2.5,3.4,4.9,5.4,7.1h0.2
			c1-1,2.2-2,3.2-2.9c-1-1.5-2.4-3.1-3.4-4.6l0-0.1l0.3-0.2c-0.3-0.3-0.7-0.6-1-0.9c-0.3,0.2-0.7,0.5-1,0.7v0.2
			c1.1,1.6,2.3,3.1,3.4,4.6c-0.4,0.6-1,0.9-1.6,1.4h-0.3C918.6,1020.9,916.7,1018.4,915.3,1015.7L915.3,1015.7z M914.3,991.9
			c-0.1-0.7-0.2-1.3-0.2-2.1c-0.4-0.1-1-0.1-1.5,0l-3.1,0.3c0,1.6,0.3,3.2,0.6,4.8l0.1,0c0.2-0.6,0.3-1.3,0.7-1.9
			c-0.1-0.6-0.1-1.2-0.2-1.8c0.7-0.2,1.5-0.3,2.3-0.3l0.1,0.8h0.3C913.7,991.6,914,991.7,914.3,991.9L914.3,991.9z M914,1010
			c-0.3,0.1-0.5,0.2-0.7,0.3c-0.3,0.1-0.5,0.3-0.8,0.2c-0.5-1-1-2-1.4-2.9c-0.7-0.7-1.4-1.4-2-2.1c0.8,2.3,1.8,4.6,2.9,6.8l0.2,0.1
			c0.9-0.5,1.9-1,2.9-1.5C914.8,1010.6,914.4,1010.3,914,1010L914,1010z M969.8,1037.8c-1.9,0.1-3.9,0.1-5.8,0
			c-0.2,1.6-0.2,3.2-0.2,4.7c1.8,0.2,3.4,0,5.2,0c0.1,0.8,0.3,1.6,0.1,2.3l-0.1,0.1c-2.5,0.1-5.2,0.1-7.8-0.2l-0.2-0.2
			c0.2-2.2,0.4-4.6,0.7-6.8l-0.3-0.3c-3-0.2-5.9-0.9-8.6-1.5c-0.5,1.5-0.9,3-1.3,4.5l0.2,0.2c1.5,0.3,3.1,0.6,4.6,1
			c-0.1,0.8-0.3,1.6-0.5,2.3c-2.6-0.4-5.1-1-7.5-1.9v-0.4c0.6-2.2,1.5-4.2,2-6.4c-2.1-0.7-4.2-1.5-6.2-2.5c-0.3,0.2-0.6,0.2-0.8,0.1
			c-0.5-0.4-1-0.8-1.4-1.2c-0.8,1.3-1.6,2.8-2.2,4.2c1.6,0.8,3.2,1.5,4.8,2.3c-0.1,0.8-0.5,1.6-1,2.3c-2.6-1.1-5.1-2.2-7.5-3.8
			c1.1-2.1,2.4-4,3.6-6c-2.4-1.7-4.9-3.2-7.1-5.2l-0.9-0.8c-1,1-2,2.2-3.1,3.4c0.8,1,1.8,1.7,2.8,2.5c0.5,0.5,1.3,0.9,1.8,1.4
			c-0.4,0.7-0.9,1.2-1.4,1.8c-2.6-1.7-4.9-3.7-7.2-6.1c1.5-1.5,3.5-3.5,5-5l-0.7-0.7c-0.3-0.1-0.5-0.2-0.7-0.3
			c-0.6-0.3-1.2-0.5-1.8-0.8c0.3,0.4,0.7,0.7,1,1.1l0.6,0.7c-1.6,1.8-3.3,3.1-5,5c2.7,3,5.9,5.4,9,7.7h0.2l2.4-3.5v-0.3
			c-1.5-1.1-3-2.2-4.3-3.4v-0.2c0.5-0.6,0.9-1.1,1.5-1.7c2.1,1.6,4.2,3.3,6.4,4.7c-1.3,2-2.5,4-3.7,6c3.3,1.9,6.5,3.7,9.9,5.1
			c0.6-1.4,1.2-2.8,1.6-4.2l0-0.1c-1.6-0.7-3.3-1.3-4.8-2.2c0.2-0.8,0.7-1.4,1.1-2.1c2.3,1,4.4,2,6.7,2.9c-0.7,2.3-1.5,4.4-2.2,6.7
			c3.3,1,6.7,2,10.1,2.5c0.3-1.4,0.4-3,0.8-4.4c-0.9-0.3-2-0.3-2.9-0.7c-0.7-0.1-1.4-0.2-2-0.6l0.5-2.2c1,0,2,0.5,3,0.5
			c1.3,0.3,2.7,0.5,4.1,0.7c-0.1,2.3-0.5,4.7-0.7,7l0.1,0.1c3.5,0.3,7,0.4,10.4,0.1c0.1-1.4-0.3-3-0.2-4.4c0.1-0.2-0.2-0.2-0.3-0.2
			c-1.5,0.1-3.3,0.2-4.7,0c-0.1-0.7-0.1-1.6,0-2.3c1.8-0.1,3.5-0.2,5.2-0.2l0-0.1C970.1,1038.4,970,1038.1,969.8,1037.8
			L969.8,1037.8z M1023.3,991.9l0.1-0.8c0.8,0,1.6,0.1,2.3,0.3l0,0.5c0.2,0.1,0.4,0.1,0.6,0.3c0.1,0.1,0.2,0.3,0.3,0.4
			c0.2-0.9,0.3-1.6,0.3-2.4c-1.5-0.1-3.1-0.4-4.5-0.3c-0.1,0.8-0.2,1.7-0.3,2.5c0.1,0,0.2,0,0.2,0.1
			C1022.6,992.3,1022.9,992,1023.3,991.9L1023.3,991.9z M1019,986c0,2.6-0.3,5.2-0.7,7.7c0.4-0.4,0.8-0.8,1.3-1
			c0.3-1.8,0.5-3.5,0.5-5.4l0.1-1.9l0.1-0.1l6.5,0c0.1-0.1,0.3,0,0.3-0.2c0-4.1-0.6-8.1-1.3-11.9l-0.1-0.1c-1.4,0.4-2.9,0.6-4.4,0.9
			c-0.3,0.4,0.2,0.8,0.1,1.3c0.3,1.4,0.5,2.9,0.7,4.3c-0.8,0.2-1.5,0.3-2.3,0.3c-0.5-2.8-0.9-5.5-1.6-8.2c0.5-0.4,1.4-0.4,2.1-0.7
			c1.6-0.4,3.1-0.8,4.6-1.3l0.1-0.1c-1.2-3.8-2.5-7.5-4.3-11l-0.2-0.1c-1.3,0.7-2.6,1.3-3.9,2c0.6,1.7,1.5,3.2,2,5
			c-0.7,0.3-1.5,0.7-2.3,0.8c-0.9-2.5-2.2-4.9-3.4-7.2c2-1.2,4.1-2.2,6-3.4c-0.4-0.9-1-1.8-1.5-2.7c-1.6-2.5-3.4-4.9-5.4-7.1h-0.2
			c-1,1-2.2,2-3.2,2.9c1,1.5,2.4,3,3.4,4.6l0,0.1l-1.8,1.3c-1.5-1.9-3.1-3.9-4.7-5.7l-0.7-0.7c1.6-1.8,3.3-3.1,5-5
			c-2.7-3-5.9-5.4-9-7.7h-0.2l-2.4,3.5v0.3c1.5,1.1,3,2.2,4.3,3.4v0.2c-0.5,0.7-0.9,1.1-1.5,1.7c-2.1-1.6-4.2-3.3-6.4-4.7
			c1.3-2,2.5-4,3.7-6c-3.3-2-6.5-3.7-9.9-5.1c-0.6,1.4-1.2,2.8-1.7,4.2l0,0.2c1.6,0.7,3.3,1.3,4.8,2.2c-0.2,0.8-0.7,1.4-1.1,2.1
			c-2.3-1-4.4-2-6.7-2.9c0.7-2.3,1.5-4.4,2.2-6.7c-3.3-1-6.7-2-10.1-2.5c-0.3,1.4-0.3,3-0.8,4.4c0.9,0.3,2,0.3,2.9,0.6
			c0.7,0.1,1.4,0.3,2,0.6l-0.5,2.2c-1,0-2-0.5-3-0.5c-1.3-0.3-2.7-0.5-4.1-0.7c0.1-2.3,0.5-4.7,0.7-7l-0.1-0.1
			c-3.4-0.3-7-0.4-10.4-0.1c-0.1,1.4,0.3,3,0.2,4.4c-0.1,0.2,0.2,0.2,0.3,0.2c1.5-0.1,3.3-0.2,4.7,0c0.1,0.7,0.1,1.6,0,2.3
			c-2.3,0.1-4.6,0.2-6.8,0.3c-0.4-2.3-0.4-4.8-0.8-7c-0.4-0.1-0.6,0-0.9,0c-3.3,0.4-6.5,1-9.6,1.9c0.4,1.4,0.9,2.9,1.3,4.3
			c1-0.1,1.9-0.5,2.9-0.7c0.7-0.2,1.4-0.3,2.2-0.4c0.3,0.7,0.3,1.5,0.5,2.3c-0.6,0.2-1.3,0.3-1.9,0.5c-1.7,0.4-3.4,0.9-5.1,1.4
			c-0.8-2.2-1.4-4.5-2.2-6.7c-3.5,1-6.8,2.6-10.1,4.3l-0.1,0.1c0.7,1.3,1.5,2.7,2.2,4c1.5-0.7,3.1-1.6,4.7-2.3
			c0.2,0,0.2,0.3,0.3,0.5l0.7,1.7c-2.1,1.1-4.2,2-6.3,3.3c-1.4-1.9-2.5-4.1-3.8-6c-3.1,1.8-6.1,4.1-8.9,6.5l0,0.2l2.8,3.2h0.3
			c1.1-1,2.4-2.1,3.6-3l0.2,0l1.4,1.8c-1.8,1.5-3.8,3.2-5.6,4.9l-5-5c-2.8,2.7-5.3,5.7-7.5,8.8l0.1,0.3l3.6,2.4
			c1.2-1.1,2.1-3.1,3.4-4.2h0.2l1.7,1.5c-1.7,2.1-3.3,4.2-4.6,6.5l-0.1,0.1c-2-1.2-4.1-2.3-6-3.6c-2.2,3.3-3.9,6.9-5.1,10.6
			c0.3,0.3,0.7,0.3,1,0.5c1,0.4,2.2,0.7,3.2,1.1c0.7-1.7,1.3-3.4,2.2-5c0.8,0,1.5,0.6,2.2,0.9c-1.1,2.5-2.1,5.1-3,7.7
			c-2.2-0.7-4.5-1.3-6.7-2c-1.4,4-2.1,8.5-2.5,12.8c1.5,0.1,3.1,0.3,4.5,0.3c0.2-2,0.3-4.1,0.9-6l0.1-0.1c0.8,0,1.6,0.3,2.3,0.5
			c-0.3,2.8-0.9,5.4-0.9,8.3l-0.1,1.9l-0.1,0.1l-6.5,0c-0.1,0.1-0.3,0-0.3,0.2c0,2.7,0.3,5.3,0.6,7.8c0.4,0,0.8,0.2,1.2,0.3
			c-0.2-1.1-0.3-2.3-0.4-3.4c0-1.2-0.3-2.4-0.1-3.6c2.3-0.2,4.6-0.1,6.9-0.2l0-1.8c0-3.6,0.5-7.1,1.3-10.5l-0.1-0.1
			c-1.5-0.2-3-0.5-4.5-0.9c-0.4,2.1-0.7,4.3-1.1,6.4c-0.8,0-1.6-0.1-2.3-0.3c0.3-3.5,1-6.7,1.9-9.9c2,0.3,3.9,1,5.8,1.5
			c0.4,0,0.8,0.5,1.2,0.1c0.7-3.3,2.2-6.4,3.7-9.4l-0.1-0.2l-4-2l-0.2,0c-0.9,1.7-1.6,3.5-2.4,5.3l-2.2-0.8c0.4-1.7,1.3-3.3,2-4.9
			c0.6-1.1,1.2-2.3,2-3.3h0.2l5.9,3.3l0.1-0.1c1.7-2.8,3.7-5.6,5.8-8.2l-3.5-3.1c-1.4,1.4-2.3,2.9-3.5,4.4c-0.7-0.3-1.3-0.8-2-1.3
			c1.6-2.4,3.6-4.9,5.6-6.9l0.3,0c1.8,1.6,3.3,3.3,5,4.8c2.2-2.1,4.4-4.2,6.9-5.9l0.2-0.3c-0.9-1.3-1.8-2.6-2.7-3.8
			c-1.3,1-2.8,2.1-4.2,3.2c-0.5-0.5-1-1.1-1.4-1.6V940c2-1.8,4.3-3.4,6.5-4.9h0.3c1.2,1.9,2.6,3.8,3.6,5.8l0.2,0.1
			c0.6-0.3,1.1-0.7,1.7-1c0.2-0.2,0.3-0.4,0.5-0.6c0.2-0.1,0.2-0.3,0.3-0.4c0-0.1,0.2-0.1,0.2-0.2c1-0.7,1.9-1.4,3.1-1.8
			c0.6-0.3,1.3-0.3,1.9-0.4l0.3,0c-0.5-1.4-1-2.9-1.7-4.2c-1.7,0.7-3.3,1.6-5,2.3l-1-2c0.4-0.5,1.1-0.7,1.6-1
			c1.9-0.9,3.9-1.8,5.9-2.5l0.2,0.1l2.3,6.5l0.1,0.1c1.5-0.5,3-1,4.5-1.4c1.4-0.4,2.9-0.6,4.4-0.9c-0.1-1.6-0.5-3.1-0.7-4.7
			l-0.1-0.1c-1.7,0.4-3.4,0.7-5.1,1.1c-0.2-0.8-0.5-1.5-0.6-2.3c2.6-0.8,5.2-1.3,8-1.6c0.3,2.3,0.6,4.7,0.9,7.1
			c2.8-0.3,5.9-0.4,8.8-0.3c0.2-1.6,0.2-3.2,0.2-4.7c-1.8-0.2-3.4,0-5.2,0c-0.1-0.7-0.3-1.6-0.1-2.3l0.1-0.1
			c2.5-0.1,5.2-0.1,7.8,0.2l0.2,0.2c-0.2,2.2-0.3,4.6-0.7,6.8l0.3,0.3c3,0.2,5.9,0.9,8.6,1.5c0.5-1.5,0.9-3,1.3-4.5l-0.2-0.2
			c-1.5-0.3-3.1-0.6-4.6-1c0.1-0.8,0.3-1.5,0.5-2.3c2.6,0.4,5.1,1,7.5,1.9v0.4c-0.6,2.2-1.5,4.2-2,6.4c1.4,0.5,2.7,1,4.1,1.6
			c0.3,0,0.6,0.1,1,0.1c0.5,0,1,0.4,1.5,0.5c0.7,0.3,1.4,0.7,2,1.2c0.7-1.3,1.4-2.6,2.1-4c-1.6-0.8-3.2-1.5-4.8-2.3
			c0.1-0.8,0.5-1.6,1-2.3c2.6,1.1,5.1,2.2,7.5,3.8c-1.1,2-2.4,4-3.6,6c2.4,1.7,4.9,3.2,7.1,5.2l0.9,0.8c1-1,2-2.2,3.1-3.4
			c-0.8-1-1.8-1.7-2.8-2.5c-0.5-0.5-1.3-0.9-1.8-1.4c0.4-0.7,0.9-1.2,1.4-1.8c2.6,1.7,4.9,3.7,7.2,6.1c-1.5,1.5-3.5,3.5-5,5
			c2.2,2.4,4.6,5.1,6.5,7.9h0.3c1.2-0.8,2.5-1.6,3.6-2.4v-0.2c-1.1-1.5-2.3-3.1-3.5-4.6c0.4-0.6,1-0.9,1.6-1.4h0.3
			c2,2.4,3.9,4.9,5.3,7.6l-5.9,3.5v0.3c1.8,2.8,3,5.8,4.2,8.7l0.1,0.1c1.4-0.6,2.9-1,4.3-1.6c-0.5-1.7-1.4-3.3-2.1-5
			c0.3-0.5,0.9-0.5,1.3-0.8c0.3-0.1,0.5-0.3,0.8-0.2c1.4,2.7,2.5,5.6,3.3,8.6c-2.2,0.7-4.5,1.4-6.7,2c0.9,3.3,1.6,6.5,1.9,10.1
			c0.4,0.1,1,0.1,1.5,0l3.1-0.3c0-1.9-0.5-3.8-0.7-5.7c0.7-0.3,1.4-0.3,2.2-0.5c0.6,1.8,0.8,3.9,1,5.8c0,1.2,0.3,2.4,0.1,3.6
			c-2.3,0.1-4.6,0.1-6.9,0.2L1019,986z M952.7,938.1c8.5-2.4,18.3-2.4,26.8-0.1c0.1,0,0.2-0.1,0.3-0.1c0.5-0.1,0.9-0.4,1.4-0.5
			c-8.5-2.7-17.7-3-27.1-0.9c-1,0.2-2,0.5-3.1,0.8C951.7,937.6,952.2,937.9,952.7,938.1L952.7,938.1z M917.3,987.3
			c-0.7-16.5,7.4-32.3,20.4-41.8c0-0.2,0.1-0.4,0.1-0.6c0-0.3,0-0.6,0.1-0.9c-8.2,5.7-15,14-18.3,23.1c-2,5.1-3.3,10.7-3.5,16.5H916
			c0,1.7,0,3.5,0.1,5.2c0.4-0.3,0.8-0.5,1.2-0.8L917.3,987.3z M1015.5,983.5c0.1,3.2,0,6.3-0.5,9.4c0.4,0,0.7,0.2,1.1,0.5
			c0.3-2,0.5-4,0.6-6.1h0.1c0.3-12.2-3.7-23.4-10.8-32.8c-3.5-4.4-7.6-8.1-12-11c0.1,0.2,0.2,0.4,0.3,0.6c0,0.4,0.2,0.7,0.3,1.1
			c0.8,0.6,1.6,1.1,2.3,1.7C1008.2,956.1,1014.7,969,1015.5,983.5L1015.5,983.5z M956.6,1033.6c-3.4-0.6-6.6-1.7-9.6-3.1
			c-0.3-0.1-0.5-0.2-0.8-0.3c-0.2,0.1-0.3,0.2-0.5,0.3c-0.1,0.1-0.2,0.2-0.3,0.3c-0.1,0-0.2,0.1-0.3,0.2c4.4,2.1,9.1,3.5,14,4.2
			c-0.7-0.3-1.3-0.7-1.9-1.1C957,1033.9,956.8,1033.7,956.6,1033.6L956.6,1033.6z M985.9,987.6c-0.3,0-0.4-0.2-0.6-0.4
			c0-0.1-0.1-0.2-0.2-0.3l-0.1-0.2c-0.6-0.6-1.2-1.2-2-1.3c-0.9,0.1-1.8,0.6-2.5,1.2c-0.1,0-0.3,0.1-0.5,0.2
			c-0.2,0.1-0.3,0.2-0.5,0.3c-1.4,1-3.3,0.7-4.9,0.5c-0.8,0-1.5-0.3-2.1-0.8c-0.2,0-0.4-0.2-0.6-0.3c-0.2-0.1-0.3-0.3-0.5-0.4
			c-0.1,0-0.1-0.1-0.2-0.2c-0.1-0.1-0.2-0.2-0.2-0.3l0-0.1c0,0,0-0.1,0-0.2c0-0.2,0.2-0.3,0.4-0.2l0.1,0l0.2,0.1l0.3-0.1l0,0.4
			c0,0,0,0,0.1,0.1c0.1,0,0.2,0.1,0.3,0.1c0.5,0.3,0.9,0.6,1.5,0.7c0.5,0.2,1.1,0.3,1.8,0.4c1.3,0,2.1-0.2,3-0.5
			c0.6-0.3,1.1-0.6,1.4-0.9l0.2-0.2l-0.2,0.1c-0.2,0.1-0.3,0.1-0.4,0.1c-1.5,0.5-3.1,0.8-4.8,0.6c-1.4-0.3-2.8-1-3.7-2
			c0,0,0,0-0.1-0.2c0-0.1-0.1-0.2-0.2-0.3c0-0.1,0-0.3,0-0.4c0,0-0.1,0-0.2-0.1c-0.1-0.1-0.1-0.3-0.1-0.4c0-0.1,0.1-0.2,0.1-0.3
			c0.1-0.3,0.3-0.4,0.5-0.4c0.1,0,0.1,0,0.2-0.1c0.1,0,0.1,0,0.3-0.1c0.9-0.2,1.8-0.5,2.7-0.7c1.7-0.5,3.7-0.3,5.3,0.5
			c0.9,0.4,1.7,0.9,2.5,1.5l0.2,0.2l0.2,0.1c0,0.1,0.1,0.1,0.2,0.2l0.1,0.2c0,0.2,0,0.3-0.1,0.4l-0.1,0.1l-0.2,0.1l-0.1,0.1
			l-0.2,0.1l-0.1,0.1c0.5,0,1.2,0,1.4,0c0.3,0.2,0.7,0.3,1,0.4c0.3,0.1,0.6,0.3,0.8,0.7c0,0,0.1,0.1,0.1,0.1l0.1,0.1
			c0.1,0.1,0.1,0.1,0.2,0.2c0.1,0.1,0.2,0.3,0.2,0.4c0.1,0.1,0.2,0.3,0.2,0.4C986.3,987.2,986.2,987.4,985.9,987.6L985.9,987.6z
			 M972.3,982.8c-0.1,0-0.3,0-0.4,0.1c-0.2,0.1-0.3,0.2-0.5,0.3l0.1,0.1c0.1,0.3,0.4,0.4,0.7,0.7l0.2,0.1c-0.1-0.2-0.1-0.5,0-0.7
			c0-0.2,0.1-0.4,0.1-0.6L972.3,982.8z M980,982.8c-0.1,0-0.1,0-0.2-0.1l-0.2-0.1c-0.1,0-0.1-0.1-0.2-0.1l-0.1,0
			c-1.3-0.9-3.1-0.7-4.8-0.4c-0.5,0.1-0.9,0.5-1.2,1c0,0.1,0,0.2,0,0.3c0,0.1,0,0.3,0,0.4c0,0.3,0,0.6-0.3,0.7
			c1.8,1.1,4.3,1,6.1,0.2c0.1-0.1,0.2-0.1,0.3-0.2c0.1,0,0.2-0.1,0.3-0.1c0.2-0.1,0.3-0.2,0.4-0.3c0-0.3,0.1-0.6,0.1-0.8
			C980.2,983,980.2,982.8,980,982.8L980,982.8z M981.2,983.4c-0.1-0.1-0.2,0-0.2,0.1c0,0.3,0.2,0.1,0.3,0.1
			C981.3,983.6,981.2,983.5,981.2,983.4L981.2,983.4z M986.3,989.3c-0.4,0-0.7-0.1-1.1-0.2c-0.4-0.1-0.7-0.1-1.1-0.1
			c-0.5,0-1.1,0.1-1.5,0.2c-0.2,0.1-0.3,0.2-0.5,0.2c-0.2,0.1-0.3,0.1-0.5,0.2c-0.3,0.1-0.7,0.2-1,0.4c-0.9,0.3-1.8,0.6-2.7,0.9
			c-0.7,0.1-1.3,0-2-0.1c-0.4-0.2-0.9-0.3-1.4-0.5c-0.5-0.2-0.9-0.3-1.4-0.7c-0.1-0.2-0.3-0.3-0.4-0.4l-0.1-0.1c0,0-0.1-0.1-0.1-0.1
			c-0.1-0.1-0.2-0.2-0.2-0.3c-0.3-0.3-0.7-0.6-1-0.9c-0.3-0.3-0.7-0.6-1.2-0.7c-0.1,0-0.2-0.1-0.3-0.3c0.1-0.2,0.3-0.2,0.5-0.2h0.3
			c0.1,0,0.2,0,0.3,0c0.4,0.1,0.7,0.3,1,0.6c0.3,0.3,0.6,0.6,0.8,0.8c0.6,0.6,1.2,1.2,2.1,1.4c0.3,0,0.5,0.1,0.7,0.2l0.3,0.2
			c0.1,0,0.2,0.1,0.3,0.1c0.2,0,0.4,0,0.6,0c0.2,0,0.4,0,0.6,0c0.4,0,0.8,0,1.1-0.2c0.8-0.1,1.4-0.4,2.2-0.7
			c0.2-0.1,0.4-0.2,0.7-0.3c0.2-0.1,0.4-0.2,0.6-0.3l0.1,0h0.1c0,0,0.1,0,0.2,0c0.7-0.1,1.3-0.2,2-0.3c0.6,0,1.2,0,1.9,0.3
			c0.1,0,0.2,0,0.2,0.1l0.1,0.1l0.1,0.1c0,0,0,0.1,0,0.1C986.4,989.2,986.4,989.3,986.3,989.3L986.3,989.3z M960,968
			c0.3,0.1,0.6,0.1,0.9,0.2c0.3,0.1,0.6,0.1,0.9,0.1c0.3,0.1,0.7,0,1,0c0.3-0.1,0.6-0.2,1-0.3c0.2,0,0.2,0.3,0.2,0.4
			c-0.1,0.1-0.2,0.3-0.4,0.3c-0.9,0.9-2.6,0.7-3.6,0.3c-0.2,0-0.4-0.1-0.6-0.1c-0.2,0-0.3,0-0.5,0.2c-0.3,0.2-0.3,0.6-0.3,0.9
			c-0.2,0.2-0.5,0.1-0.7,0c-0.2-0.6,0.1-1.1,0.4-1.5C958.9,967.9,959.5,967.9,960,968z M970.9,960.4c-1-0.3-2-0.6-3.1-0.7
			c-0.5-0.1-1-0.1-1.6,0c-0.5,0.1-1,0.2-1.6,0.3c-0.4,0-0.8,0-1.2,0c-0.4,0-0.7-0.1-1.1-0.1c-0.7-0.1-1.4-0.2-2.2,0
			c-0.2,0-0.4,0.1-0.6,0.2c-0.1,0.1-0.2,0.1-0.3,0.2c-0.1,0-0.2,0.1-0.3,0.1c-0.2,0.1-0.3-0.1-0.3-0.2c-0.1-0.1,0-0.3,0-0.3
			c0,0,0.1-0.1,0.1-0.1c0,0,0.1-0.1,0.1-0.1c1-0.8,2.6-0.9,3.8-0.6c0.4,0.2,0.9,0.2,1.4,0.2c0.5,0,1-0.1,1.4-0.1
			c0.9-0.3,1.8-0.2,2.7-0.1c0.9,0.1,1.8,0.4,2.6,0.6c0.2,0.1,0.4,0.1,0.5,0.2c0.2,0.1,0.3,0.2,0.4,0.5
			C971.6,960.4,971.2,960.7,970.9,960.4L970.9,960.4z M974.4,963.1c-0.1,0.1-0.2,0.2-0.3,0.3c-0.2,0.2-0.5,0.4-0.9,0.4l-0.1,0
			c-0.4-0.2-0.2-0.6-0.1-0.7l0.1-0.1c0,0,0-0.1,0-0.1c-0.5-0.2-1-0.4-1.6-0.5c-0.7-0.1-1.4,0-2.1,0.2c-0.3,0.1-0.7,0.2-1,0.3
			c-0.4,0.1-0.7,0.2-1.1,0.2c-0.4,0-0.8-0.2-1.1-0.3c-0.1-0.1-0.3-0.2-0.5-0.2c-0.1-0.1-0.3-0.1-0.4-0.1c-0.4,0.2-0.9,0.4-1.4,0.5
			c-0.5,0.1-1,0.2-1.6,0.1c-0.5-0.1-0.9-0.2-1.3-0.3c-0.4-0.1-0.8-0.2-1.2-0.3c-0.4,0-0.8-0.1-1.2,0c-0.3,0-0.6,0-0.8,0.3
			c0,0,0,0.1,0,0.2c0,0.1,0,0.2-0.2,0.3c-0.3,0.1-0.6,0.1-0.8-0.1c-0.1-0.1-0.2-0.1-0.3-0.2l-0.1-0.1l-0.1-0.1l-0.1-0.1
			c0-0.1-0.1-0.1-0.1-0.2c-0.1-0.1-0.1-0.1-0.2-0.2c-0.1-0.2-0.3-0.4-0.2-0.8c0.1-0.2,0.3-0.4,0.6-0.3l0.1,0
			c0.1,0.1,0.2,0.2,0.3,0.3c0.1,0.1,0.1,0.1,0.2,0.2c0.1,0,0.3,0,0.4-0.1c0.9-0.5,1.8-0.4,2.7-0.2c0.4,0.1,0.8,0.3,1.2,0.4
			c0.4,0.1,0.8,0.2,1.3,0.3c0.4,0.1,0.8,0,1.2-0.1c0.4-0.1,0.8-0.4,1.2-0.5c0.4-0.1,0.7-0.1,1.1,0c0.2,0.1,0.3,0.1,0.4,0.2
			c0.1,0.1,0.3,0.2,0.4,0.3c0.4,0.3,1.1,0.2,1.7,0c0.8-0.6,2.1-0.7,3.2-0.5c0.4,0.1,0.8,0.2,1.3,0.3c0.4,0.1,0.8,0.2,1.2,0.3
			l0.4-0.2c0.3-0.2,0.5,0,0.6,0.2l0,0.1c-0.1,0.2-0.2,0.5-0.4,0.7C974.6,962.9,974.5,963,974.4,963.1L974.4,963.1z M963.7,969.2
			c0.2-0.1,0.4-0.2,0.7-0.2c0.2-0.1,0.5-0.1,0.7-0.2c0.5,0,1,0.2,1.5,0.4l0.1,0.1c0,0,0,0.1,0,0.2c0,0.1,0,0.2-0.2,0.3
			c-0.3,0-0.6,0-0.9,0c-0.3,0-0.6,0-0.9,0c-0.8,0.1-1.3,0.7-1.6,1.4c-0.3,1.1-0.2,2,0,3c0.1,0.5,0.2,1,0.3,1.5
			c0.1,0.5,0.2,1,0.2,1.6c0,0.7-0.1,1.4-0.2,2.2c0,0.7,0,1.5,0.2,2.2c0,0.6,0,1.1,0,1.7c0,0.5,0,1.1,0,1.6c0.1,0.2,0.1,0.4,0,0.5
			c0,0.1,0,0.2-0.1,0.3c0,0.1,0,0.1,0,0.2l0,0.1c-0.1,0.1-0.1,0.1-0.1,0.2l0,0.1h-0.1c-0.1,0-0.2,0-0.3-0.1l-0.1-0.1l-0.3-0.1
			l0.2-0.1l0-0.1c-0.1-1.1,0.1-2.1,0-3c0-0.7-0.2-1.3-0.2-1.9c-0.1-0.6-0.1-1.2,0.1-1.9c0-0.4,0.1-0.8,0.1-1.2c0-0.4,0.1-0.8,0-1.2
			c-0.1-0.4-0.1-0.8-0.2-1.3c-0.1-0.4-0.2-0.8-0.3-1.2c-0.2-1.4-0.4-3,0.4-4.2C962.9,969.7,963.3,969.4,963.7,969.2L963.7,969.2z
			 M988.9,1030.5l0.2-0.2c1.3-1,2.7-1.7,4.2-2.4C991.9,1028.8,990.4,1029.7,988.9,1030.5L988.9,1030.5z M970.9,979.4
			c0.1-0.1,0.3,0,0.3,0.1c-0.1,0.2-0.1,0.4-0.1,0.6c-0.1,0.3-0.3,0.4-0.4,0.7c-0.5,0.8-0.7,1.7-1,2.6c-0.1,0.2-0.3,0.4-0.5,0.4
			c-0.1-0.1-0.1-0.1-0.2-0.2c0-0.7,0.2-1.5,0.5-2.2C969.8,980.8,970.1,979.8,970.9,979.4L970.9,979.4z M967.1,968.5
			c0,0,0.1-0.1,0.2,0c0.1,0.1,0.3,0.1,0.5,0.1c0.2,0,0.4,0,0.6,0c0.5,0,1,0,1.6,0.1c0.5,0.1,1,0.2,1.4,0.6c0.7,0.3,0.7,1.1,0.6,1.8
			l-0.2,0.2c-0.4,0-0.5-0.2-0.6-0.4c0-0.1-0.1-0.2-0.1-0.4c0-0.1,0-0.2-0.1-0.3c-0.6-0.8-1.7-0.9-2.7-0.8l-1.2-0.3
			c0,0-0.1,0-0.1-0.1l-0.1-0.1c-0.1-0.1-0.1-0.2,0-0.3L967.1,968.5z M964.9,966.9c-0.2,0-0.2-0.3-0.2-0.4c0.6-0.3,1.4-0.7,2-0.1
			c0.1,0.2,0.3,0.3,0.2,0.5c0,0.1-0.1,0.2-0.2,0.2C966.3,966.7,965.5,966.7,964.9,966.9z M968.8,965.2c-0.2,0.1-0.4,0.3-0.7,0.4
			c-0.2,0.1-0.5,0.2-0.8,0.2c-0.4,0.1-0.7,0-1.1-0.1c-0.1-0.1-0.3-0.1-0.4-0.2c-0.1-0.1-0.3-0.1-0.4-0.2c-0.7,0.4-1.4,0.3-2,0.1
			c-0.3-0.1-0.7-0.3-1-0.4c-0.3-0.1-0.6-0.3-1-0.4c-0.1-0.1-0.2-0.1-0.3-0.1c-0.1,0-0.2,0-0.3,0c-0.2,0-0.5,0.1-0.7-0.2
			c-0.1-0.1,0-0.2,0-0.2c0,0,0-0.1,0.1-0.2c0.6-0.3,1.3-0.3,1.9,0c0.2,0,0.4,0.1,0.5,0.2c0.2,0.1,0.3,0.2,0.5,0.2
			c0.3,0.1,0.6,0.3,1,0.3l0.1,0c0.1,0,0.2,0,0.3-0.1l0.2-0.1c0.1,0,0.1-0.1,0.2-0.1c0,0,0.1,0,0.2,0c0.1,0,0.1,0,0.2-0.1
			c0.1,0,0.3-0.1,0.5,0c0.7,0.5,1.3,0.4,1.9,0.2c0.3-0.1,0.7-0.3,1-0.4c0.3-0.1,0.7-0.2,1.1-0.2l0.1,0.1l0.1,0c0,0,0.1,0,0.2,0
			c0.1,0,0.1,0,0.2,0.1c0,0.2,0,0.4-0.3,0.5C969.7,964.7,969.3,964.9,968.8,965.2z M1027.3,995.4c0,0.8-0.3,1.7-0.4,2.5
			c-0.2,0.3-0.2,0.7-0.3,1c-0.1,0.8-0.6,1.4-0.8,2.2c-0.5,1.2-1,2.2-1.7,3.4c-0.1,0.9-0.2,1.6-0.4,2.4c-0.1,0.1-0.2,0.3-0.3,0.4
			c0,0.1-0.1,0.3-0.2,0.4c-0.1,0.1-0.1,0.2-0.2,0.3c-0.3,0.7-0.8,1.5-1.4,2.1c-0.6,1-1.5,1.8-2.2,2.6c-0.2,0.1-0.5,0.3-0.6,0.5
			c-0.9,0.9-1.9,1.6-2.9,2.4c-0.3,0.1-0.5,0.3-0.7,0.4c-0.6,0.4-1.2,0.7-1.9,1.1c-1.3,0.6-2.5,1.2-3.9,1.7c-0.8,0.3-1.6,0.6-2.4,0.8
			c-0.7,0.1-1.3,0.5-2,0.7c-0.6,0.2-1,0.7-1.5,1c-0.5,0.5-1.1,0.7-1.5,1.2c-0.4,0.3-0.9,0.5-1.2,0.9c-1.4,1.1-2.5,2.9-4.2,3.8
			c-1,0.3-2.2,0.8-3.2,0.7c-1.5,0.7-2.9,1.4-4.2,2.4c-0.4,0.4-0.9,0.7-1.3,1.1c-1.8,1.9-4.2,3.2-6.9,3.2c-0.4-0.1-0.9-0.2-1.3-0.1
			c-1.2,2-3.5,2.2-5.5,2.9c-1,0.4-1.5,1.3-2,2.3c0,0.3-0.2,0.5-0.2,0.8c-0.1,0.2-0.3,0.3-0.5,0.4c-0.3,0.1-0.6,0-0.8-0.2
			c-0.2-0.6-0.1-1.3-0.3-1.8c-0.2-0.4-0.5-0.9-0.7-1.3c-0.5-0.7-1.3-1.3-2-1.4c-0.6,0.4-1.4,0.5-2.1,0.6c-0.3,0-0.6,0-0.9,0.1
			c-1.6-0.1-3.2-0.3-4.5-1.1c-1-0.6-2-1-3-1.6c-0.8-0.8-1.9-1.1-2.7-1.9c-0.6-0.3-1-0.7-1.6-1c-1.4-1-3.3-1.8-5.1-1.6
			c-0.8-0.1-1.5,0.5-2.1,0.9c-0.1,0.1-0.2,0.2-0.3,0.3c-0.6,0.3-0.7,1-1,1.4c-0.3,0.1-0.1,0.5-0.3,0.7c-0.2,0.1-0.5,0.1-0.8,0
			c-1-0.9-2.1-1.6-2.6-2.8c-0.4-1.1-1-2.2-0.8-3.5c-0.4-0.4-1-0.6-1.5-0.9c-0.3-0.3-0.8-0.6-1.2-0.9c-0.4-0.5-0.9-0.9-1.2-1.5
			c0-0.1-0.1-0.1-0.2-0.2c-1.1,0-2.3,0-3.4-0.2c-1.6-0.2-3-0.9-4.5-1.4c-1.4-0.6-2.8-1.3-4.1-2.1c-0.6-0.3-1.2-0.8-1.7-1.2
			c-0.7-0.7-1.6-1.1-2.2-1.9c-0.5-0.4-0.9-0.9-1.2-1.5c0.2-0.4-0.3-0.9,0.1-1.2c-0.3-0.5-0.9-0.8-1.1-1.4c-2-0.8-3.6-2.1-5.3-3.4
			c-1.6-1.5-3.1-2.9-4.2-4.7c-0.2-0.1-0.1-0.4-0.3-0.5c0-0.1-0.2-0.2-0.3-0.3c-0.3-0.8-0.8-1.6-1.1-2.4c-0.2-0.3-0.2-0.6-0.3-0.9
			c0-0.1-0.1-0.3-0.1-0.5l-0.1-0.7c-0.1-0.2,0-0.4-0.1-0.5c-0.1-0.2-0.2-0.5-0.1-0.6c-0.1-0.5,0.1-0.9,0.3-1.2
			c0-0.3-0.3-0.6-0.5-0.8c-0.2-0.3-0.4-0.6-0.6-0.9c-0.1-0.5,0.3-0.8,0.6-1.1c0.7-0.2,1.4,0.1,2.1,0.3c0.9,0.2,1.7,0.7,2.6,1
			c0.3-1,0.5-2.2,1.5-2.9c0.5-0.3,1.1-0.4,1.7-0.3c0.6-0.2,1,0.2,1.4,0.4c0.1,0,0.1,0,0.1-0.1c-0.1-1.2,0.3-2.2,1-3.1
			c0.7-0.5,1.3-0.9,2-1.4c-0.1-0.6,0.1-1.1,0.2-1.6c0.2-0.3,0.2-0.7,0.4-1c0.7-1.4,2-2.3,3.4-3c1-0.3,1.8-0.5,2.9-0.2
			c0.1,0.1,0.2,0.1,0.3,0.1c0.2-0.8,0.5-1.5,0.8-2.2c0.2-0.2,0.4-0.5,0.5-0.7c0.2-0.5,0.6-0.8,0.8-1.2c0.4-0.6,1.1-0.8,1.5-1.4
			c0.3-0.9,1-1.7,2-2c0.1-0.2,0.4-0.1,0.4-0.3c-0.3-0.3-0.3-0.8-0.5-1.2c0-0.8,0-1.8,0.3-2.5c0-0.3,0.2-0.4,0.2-0.7
			c0,0,0.1-0.1,0.1-0.1c0.1-0.6,0.7-0.9,1-1.3c0.2-0.6,0.6-1.1,1.1-1.6c0.3-0.2,0.7-0.3,1.1-0.5c0-0.2,0-0.4,0.1-0.5
			c0.1-0.5,0.3-1.1,0.4-1.6c0.1-0.4,0.3-0.8,0.5-1.1c0.1-0.4,0.4-0.7,0.6-1c-0.2-0.3-0.4-0.8-0.6-1.1c-0.3-1-0.3-1.9-0.1-3
			c0.1-0.1,0.1-0.3,0.2-0.4c0.4-1.2,1.5-2.1,2.6-2.6c0.3-0.4,0.4-0.8,0.5-1.3c0.2-0.8-0.1-1.6-0.3-2.5c0-0.4-0.1-1-0.2-1.4
			c0-0.1,0-0.2,0-0.2c0-0.6-0.2-1.1-0.2-1.7c0-0.2,0-0.3-0.1-0.4c0-0.9-0.2-1.9,0.1-2.7c0-0.9,0.3-1.7,0.5-2.5c0.6-1,1.1-2,2-2.9
			c0.2,0,0.2-0.2,0.3-0.3c0-0.1,0.2-0.1,0.2-0.2c1-0.7,1.9-1.4,3.1-1.8c0.6-0.3,1.3-0.3,1.9-0.4c1.1-0.1,2.5-0.1,3.6,0.2
			c3.2,0.7,5.5,3,8.5,4.3c1,0.3,1.9,0.8,2.9,0.7c0.2-0.2,0.3-0.7,0.5-0.8c0.3-0.7,1-1.2,1.7-1.4c0.5-0.2,1.2-0.2,1.8-0.3
			c0.8,0,1.6,0.1,2.3,0.5c0.4,0.1,0.5,0.5,0.8,0.7c0.7-0.5,1.6-0.6,2.5-0.6c0.4-0.2,0.8-0.2,1.3-0.2c0.9,0.3,1.6,1,2,1.8
			c0.2,0.3,0.3,0,0.5-0.1c0.1-0.1,0.3-0.1,0.4-0.3c0.8-0.7,1.6-1.5,2.5-2.1l1.2-0.7c0.5-0.1,0.9-0.4,1.4-0.6
			c0.6-0.1,1.1-0.5,1.8-0.5c0.1,0,0.1-0.1,0.2,0c0.4-0.1,0.8-0.1,1.2-0.3c0.6,0,1.1-0.1,1.7-0.1c0.3,0,0.5,0,0.8,0
			c0.7,0,1.3,0.2,1.9,0.3c0.5,0,1,0.4,1.5,0.5c1.2,0.5,2.3,1.3,3.1,2.3c0.6,0.2,0.5,0.8,0.9,1.2c0.2,0.6,0.5,1.3,0.9,1.8
			c-0.1,0.1,0,0.1,0.1,0.1c0,0.4,0.2,0.6,0.3,1c0,0.5,0.3,1,0.3,1.5c0.3,1.3,0.4,3,0.4,4.2c0.2,0.6,0,1,0.1,1.7
			c-0.1,0.3-0.1,0.6-0.1,1c-0.1,0.4,0,0.8,0.1,1.1c0.1,0.4,0.3,0.7,0.5,1.1c0,0.2,0.2,0.3,0.2,0.6c0.5,0.7,0.8,1.4,1.3,2
			c0,0.3,0.2,0.5,0.3,0.7c0.2,0.4,0.4,0.8,0.4,1.3c0.1,0.1,0,0.4,0.1,0.5c0,0.6,0,1.4-0.1,2c0,0.7-0.3,1.2-0.4,1.8
			c0.4,0.5,0.6,1.1,0.8,1.7c0,0.5,0.2,1,0.1,1.5c0.2,0.3,0.4,0.4,0.6,0.8c0.2,0.9,0.4,1.9,0.2,2.8c0,0.3-0.2,0.6-0.2,1
			c0.3,0,0.6-0.1,1-0.2c0.9,0,1.7-0.2,2.6,0.1c0.4,0.3,0.8-0.1,1.3-0.1c0.5,0.1,0.8-0.2,1.3-0.1c0.3,0.1,0.3,0.4,0.3,0.6
			c-0.7,0.3-0.7,1-1.1,1.6c-0.4,0.9,0.3,1.7,0.3,2.6c0,0.1,0.1,0.2,0.1,0.3c0.4,0.6,0.6,1.4,0.8,2c0,0.1,0.2,0.3,0.2,0.4
			c0.3,0.4,0.5,0.9,0.6,1.4c0.2,0.5,0.3,1.1,0.4,1.6c0.2,0.8,0.2,1.5,0.1,2.4c0,0.7-0.3,1.4-0.5,2c-0.1,0.1-0.1,0.3-0.2,0.4
			c0.1-0.1,0.3,0.1,0.5,0c1.2,0,2,1,2.7,1.9c0,0.1,0.1,0.1,0.1,0.2c0,0.3,0.3,0.6,0.3,0.9c-0.2,0.6,0.5,0.7,0.8,1.1
			c0.4,1,0.8,2,0.7,3.2c0.1,0.3,0.3,0.3,0.5,0.5c0.1,0,0.2,0.1,0.3,0c0.1,0.1,0.3-0.1,0.4-0.1c0.6-0.6,1.2-1.6,2.2-1.2
			c0.7,0,1.3,0.4,1.7,0.9c0,0.3,0.3,0.3,0.3,0.6c0,0.2,0,0.4,0.2,0.5c0.2-0.2,0.4-0.4,0.5-0.6c0.7-0.6,1.4-1.5,2.2-1.8
			c0.3-0.3,0.9-0.1,1.3-0.3c0.4,0.1,0.9,0.1,1.3,0.3c0.3-0.3,0.7-0.6,1.1-0.6c0.2-0.1,0.6-0.2,0.8-0.3c0.4,0,0.8,0.2,1.3,0.2
			c0.2,0.2,0.6,0.2,0.8,0.4c0.1,0.1,0.2,0.3,0.3,0.4c0.2-0.2,0.4-0.4,0.7-0.4c0.2-0.2,0.3,0.1,0.5,0.1
			C1027.7,993.4,1027.3,994.3,1027.3,995.4L1027.3,995.4z M1004.2,1019.1c1-0.4,3.2,0,5-1c1.7-0.9,3.4-1.3,5-2.4
			c0.9-0.7,1.9-1.3,2.8-2c0.7-0.7,1.7-1.7,2.5-2.2c0.8-0.7,1.3-1.8,2-2.5c0.1-0.5,0.6-0.8,0.7-1.3c0.2-0.1,0.1-0.4,0.3-0.6
			c0.3-0.4,0.4-0.9,0.4-1.4c-3.2,2.7-5.7,6-9.7,7.8c-6.6,4-20.3,1.9-23.6,6.8v0.2c3.3-2.1,6.5-1.4,10.3-1.3c0.7,0,1.3-0.1,2,0
			C1002.6,1019.4,1003.7,1019.3,1004.2,1019.1L1004.2,1019.1z M1002.8,1020.3c-1.9-0.3-13-1.1-12.8,2.1c2.5,0.7,5.1,1.2,7.8,0.9
			C998.7,1023.5,1002.3,1021,1002.8,1020.3z M998.2,1024.6c-0.9-0.3-1.9,0-2.9-0.1c-1.3-0.1-2.6-0.5-3.9-0.6c-0.3,0-2.6-0.6-2.7-0.7
			c-0.1-0.1,0.3-1.1,0.4-1.3c-0.7-0.8-3-1.8-4.1-1.6c-1.3-0.1-2.4,0.6-3.7,0.6c-2.6-0.1-4.4-1.6-6.6-2c0.9,1.4,2.6,2.8,3.9,3.9
			c5.4,4.5,5.9,0.7,11.6,3.1C993.4,1027.2,995.5,1027.4,998.2,1024.6L998.2,1024.6z M1008.8,1005c-0.2-0.2-0.6-0.2-0.8-0.4
			c-0.3,0.9-1,0.8-1.5,1.4c0.7,0,2.9-0.2,3.4-0.8C1009.5,1005.3,1009.2,1005,1008.8,1005L1008.8,1005z M1013.8,1000.1
			c-3,0-4.1-2.6-6.6-3.6c-0.1,1.9-1.6,3.4,0.1,5.9c0.3,0.5,0.8,0.9,1.4,1.1C1011.6,1005.3,1012.9,1002.5,1013.8,1000.1
			L1013.8,1000.1z M1003.1,1007.6c0,0-0.2,0.1-0.2,0c-0.8,0.3-3,0.3-3.8,0.1c-4.9-1.3-9.2,1.9-12.3,5.3c-0.4,0.5-1,0.7-1.4,1.1
			c1.6,0.4,3.2,1.1,4.9,1.2c1.7,0.1,3.6-0.6,5.3-0.8c1.8-0.2,3.5-0.1,5.3-0.3c1.4-0.1,3.6-0.6,4.7-1.4c0.5-0.4,1.3-0.8,1.7-1.2
			c1-1.1,1.7-2.3,2.9-3.1C1008.5,1006.5,1005.4,1007,1003.1,1007.6L1003.1,1007.6z M989.1,1009.1c0.6-0.5,1.3-0.8,1.9-1.3
			c1.6-0.9,6.5-2.2,8.1-1.2c0-0.1,0.1,0,0.1,0.1c2.7,0.8,6.4-0.3,7.7-2.8c-1.3-1.2-2.4-6.7-0.6-7.6c-2.9-2.2-3.8,3.5-7.6,3
			c-0.5,0.6-2.6,2.3-3.5,2.1c-0.4-0.1-0.7-0.7-1.1-0.9c-0.9-0.5-4-0.2-4.8,0.5c-0.3,0.3-0.2,0.9-0.2,1.3c-0.1,1-2,6.6-2.5,7.5
			c-0.7,1.4-1.7,2.3-2.6,3.5C985.7,1012.8,987.8,1010.3,989.1,1009.1L989.1,1009.1z M990.3,996.9c-0.7,0.1-1,0.8-1.6,1
			c0,0.5,0.3,1.3,0.5,1.8c1.9-1,5-1.1,6.6,0.5c0.3-0.1,1.8-1.3,2.1-1.6c0-0.3,0.3-0.4,0.4-0.7c0.2-0.2,0.2-0.5,0.4-0.6
			c0.1-0.4,0.2-0.9,0.2-1.4l-0.1-0.1c-0.7,0.7-1,1.5-1.8,2.1c-0.3,0.3-0.7,0.4-0.8,0.8l-0.5,0.2c-0.4-0.2-0.4-0.7-0.6-1
			C995.2,996.6,991.2,996.1,990.3,996.9z M990.3,961.6c0.2,0,0.4,0,0.5,0.1c0.8,0.7,1.1,1.7,1.8,2.4c0.3-0.2-0.1-0.3-0.1-0.6
			c-0.1-0.5-0.4-0.8-0.6-1.3c-0.3-0.6-0.7-1-0.9-1.7c-0.9-1.2-1.9-2.3-2.8-3.4c-0.3-0.4-0.7-0.9-1.1-1.3c-0.1-0.1-0.2-0.3-0.3-0.4
			c-0.2-0.3-0.4-0.4-0.6-0.7c-0.1-0.2,0.1-0.4,0.2-0.6c0.2-0.1,0.4-0.1,0.6,0c1.3,1.5,2.4,3.1,3.7,4.6c0.5,0.3,0.6,0.9,1,1.3
			c0.3,0.6,0.9,1.2,1.2,1.9c0.1,0,0.1-0.3,0.1-0.4c-0.1-0.4-0.3-0.6-0.5-0.9c-0.4-0.6-0.9-1.3-1.2-1.9c-0.6-0.9-1.4-1.5-1.9-2.4
			c-0.7-0.8-1.2-1.7-1.9-2.3c-0.5-0.6-1-1.3-1.6-1.8c-0.9-0.9-1.8-2-2.7-2.7c-0.3-0.3-0.7-0.6-1-0.9c-0.5-0.7-1.3-1-1.8-1.6
			c-0.4-0.1-0.7,0.2-1.1,0.3c-0.2,0.2-0.6,0.2-0.7,0.6c0.7,0.5,1.5,1.1,2.1,1.7c0.6,0.7,1.4,1.4,2,2.1c0,0.2,0.3,0.4,0.1,0.6
			c-0.1,0.2-0.3,0.3-0.5,0.2c-0.8-0.7-1.6-1.7-2.5-2.4c-0.3-0.2-0.5-0.4-0.8-0.6c0-0.2-0.2-0.2-0.3-0.3c-0.4-0.4-0.8-0.7-1.2-1
			c-0.4-0.1-1,0.1-1.3,0.3c-0.3,0.1-0.8,0.2-1,0.4c1,0.6,1.7,1.4,2.6,2c1.1,0.7,1.8,2,2.9,2.8c1.8,1.9,3.2,3.7,4.8,5.7
			c1.1,1.6,2.1,3.1,3.1,4.8c0.1,0.2,0.2,0.5,0.3,0.7c0.1,0.3,0.2,0.5,0.3,0.8c0.2,0.3,0.3,0.7,0.5,1.1c0.1,0.2,0.1,0.4,0.4,0.5
			c0.2-0.1,0.2-0.3,0.4-0.5c0.4-0.6,1-1,1.4-1.6c-0.1-0.4-0.3-0.7-0.5-1c-0.5-0.8-1-1.6-1.4-2.4
			C990.1,961.8,990.1,961.6,990.3,961.6L990.3,961.6z M990,949.7c0-1.2-0.3-2.3-0.5-3.5c-0.1-0.1-0.2-0.3-0.2-0.5
			c0-0.1-0.1-0.2-0.2-0.4c-0.2-0.5-0.6-1-1.1-1.2c-0.9-0.1-2-0.1-2.7,0.3c-0.4,0.1-0.7,0.3-1,0.4c-0.8,0.5-1.9,1-2.7,1.6
			c0.6,0.6,1.2,0.9,1.7,1.5c1.5,1.2,2.8,2.7,4.2,4c0.9,1,1.8,2,2.6,3.1c0.4,0.5,0.9,1.1,1.2,1.6c0-0.3-0.3-0.4-0.3-0.8
			c-0.2-0.5-0.4-1-0.5-1.5c-0.1-0.7-0.3-1.5-0.3-2.2C990,951.2,990.1,950.4,990,949.7z M949.1,949c0.2-0.4,0.5-0.8,0.9-1.1
			c0.8-0.7,1.5-1.5,2.3-2.2c0-0.2-0.2-0.3-0.4-0.3c-0.4,0-0.7,0.3-1.1,0.5c-0.6,0.6-1.3,0.7-1.7,1.4c-0.3,0.3-0.6,0.6-0.9,0.9
			c0,0.2-0.1,0.1-0.1,0.2c-0.2,0.3-0.6,0.6-0.9,0.9c-0.3,0.3-0.5,0.7-0.9,1c0,0.1-0.2,0.2-0.2,0.3c-0.3,0.5-0.7,0.7-1,1.2
			c-0.4,0.3-0.6,0.8-0.9,1.2c-0.2,0.6-0.7,1.1-0.9,1.6c-0.1,0.2-0.2,0.3-0.2,0.6c-0.2,0.1-0.1,0.4-0.3,0.5c-0.1,0.5-0.5,0.9-0.6,1.5
			c-0.2,0.4-0.3,0.8-0.4,1.3c-0.1,0.5-0.4,1-0.5,1.4c0.1,0.3,0.3,0.6,0.5,0.8h0.2c0.2-0.9,0.7-1.6,0.9-2.5c0.4-0.9,0.8-1.9,1.3-2.8
			c0.3-0.1,0.3-0.6,0.7-0.4c0.2,0.1,0.3,0.3,0.4,0.5c-0.1,0.4-0.2,0.7-0.3,1c-0.1,0.4-0.3,0.8-0.5,1.2c0,0.2-0.3,0.3-0.2,0.5
			c-0.1,0.3-0.3,0.6-0.3,0.9c-0.2,0.5-0.4,1.1-0.7,1.6c0,0.4-0.2,0.8-0.3,1.2c0.6,0.5,1.2,1.1,1.7,1.6c0.2-0.2,0.1-0.6,0.3-0.8
			c0.4-1.8,1.4-3.3,2.1-4.9c1.3-2,2.7-4.1,4.5-5.9c1-1.1,2.1-2.2,3.3-3.2c0.5-0.4,1-0.7,1.4-1.1c0-0.1,0-0.1-0.1-0.1
			c-0.5-0.3-1.1-0.6-1.7-0.9c-0.1,0-0.1,0-0.1-0.1c-0.2,0.1-0.1-0.2-0.3-0.1c-0.2-0.1-0.5,0-0.7,0.1c-0.7,0.4-1.2,0.9-1.9,1.5
			c-0.2,0.3-0.5,0.4-0.8,0.6c-0.2,0.2-0.5,0.4-0.7,0.6c-0.3,0.1-0.6,0.2-0.9,0.2C949.1,949.3,949,949.2,949.1,949z M942.9,950.7
			c0,0.7-0.2,1.3-0.1,2.1l0.1,0.1c0.8-1.1,1.6-2.3,2.6-3.4c0.5-0.6,1-1.2,1.6-1.7c0.9-1,1.8-2,3-2.8c0.2-0.2,0.4-0.3,0.6-0.5
			c-0.3-0.4-0.8-0.5-1.2-0.7c-0.1-0.2-0.4-0.2-0.6-0.3c-0.9-0.3-1.6-0.9-2.6-1.1l-0.2-0.2c-0.7-0.3-1.6-0.3-2.3,0.1
			c-0.2,0.1-0.2,0.2-0.3,0.3c-0.1,0.1-0.2,0.2-0.3,0.3c-0.5,1.1-0.4,2.4-0.4,3.7C942.9,947.9,942.7,949.4,942.9,950.7z M939.1,960.2
			c0.1,0.4,0.3,0.8,0.3,1.2c0.3,0.6,0.4,1,0.8,1.6c0,0.1,0.1,0.2,0.2,0.3c1,1.4,2.2,2.6,3.7,3.5l0.1-0.1v-1c0-0.2-0.1-0.3-0.2-0.5
			v-0.1c-0.1-0.1-0.2-0.2-0.1-0.3c-1-1.3-2.6-2.2-3.5-3.6c-0.3-0.3-0.5-0.7-0.6-1.2c-0.2-0.2,0-0.5-0.2-0.6c0-0.1,0-0.3,0-0.4
			c-0.1,0-0.1-0.1-0.2-0.2C938.8,958.9,939.2,959.7,939.1,960.2z M955.7,949.7c-1.4,1.1-2.6,2.5-3.9,3.8c-1.3,1.7-2.6,3.2-3.6,5
			c-0.6,1.3-1.2,2.3-1.7,3.6c-0.1,0.5-0.3,1-0.5,1.5c-0.3,0.8-0.6,1.6-0.3,2.6c0,0.4,0,0.7-0.1,1.1c0.1,0.2-0.2,0.3-0.1,0.7l0.1-0.1
			l0,0c0.1-0.1,0-0.2,0.1-0.3c0.1-0.1,0.2-0.2,0.2-0.4c0.4-1.2,1.2-2.2,1.7-3.3c0.5-1,1.1-1.9,1.7-2.8c0.2-0.3,0.4-0.6,0.7-0.8
			c0.4,0,0.4-0.5,0.7-0.7c1.5-1.6,3.2-2.6,4.8-3.9c0.6-0.7,1.4-1.1,1.9-1.8c0.8-0.6,1.3-1.4,2.2-2c1.6-1.6,4-1.2,6.2-1.3
			c1.8,0.1,3.5,0.4,5.1,1.1c0.7,0,1.2,0.4,1.8,0.7c0.6,0.5,1.1,1,1.5,1.6l0.2,0.1c0.7,0.6,1.4,1.4,2.1,2.1c0.9,0.7,1.7,1.5,2.6,2.3
			c0.8,0.4,1.3,1.2,1.9,1.7c1,0.8,1.8,2.1,2.6,3.1c0.4,0.6,0.8,1.2,1.1,1.8c0.3,0.4,0.4,1,0.8,1.3c0.2-0.1,0.1-0.4,0.3-0.6
			c0.1-0.2,0.1-0.5,0.4-0.6c0.1-0.3,0.2-0.6,0.3-0.8c0-0.4,0.5-0.8,0-1.1c-0.8-1.4-1.8-2.6-2.7-3.9c-0.6-0.7-1.2-1.4-1.8-2.2
			c-1-1.2-2-2.3-3.2-3.3c-1-1.3-2.3-2.2-3.5-3.3c-0.4-0.3-0.6-0.6-1.1-0.7c-0.4-0.2-0.7-0.6-1.2-0.7c-1.6-0.1-3.3-0.5-4.7-1.4
			c-0.5,0.1-0.9,0.3-1.3,0.4c-0.8,0.2-1.7,0.2-2.4-0.2c-0.3,0-0.6,0.3-0.9,0.5c-1,0.4-2,0.6-3,0.4c-0.7-0.1-1.5-0.2-2.2-0.4
			c-0.4-0.2-0.8,0.2-1.2,0.3C956.8,948.9,956.3,949.4,955.7,949.7L955.7,949.7z M988.9,967.6C988.8,967.6,988.9,967.5,988.9,967.6
			c-0.2-0.3-0.3-0.5-0.4-0.8c-0.2-0.4-0.3-0.7-0.5-1.1c0-0.2-0.3-0.4-0.4-0.6c-0.3,0.2-0.5,0.5-0.6,0.8c-0.2,0.4-0.3,0.8-0.3,1.2
			c-0.3,0.5,0.1,1-0.1,1.5c0.2,0.5,0.4,1.1,0.7,1.6c0.1,0.3,0.2,0.6,0.4,0.8l0-0.1c0.1,0,0.1-0.2,0.2-0.3c0.3-0.8,0.9-1.5,1.4-2.2
			C989.1,968.1,988.9,967.9,988.9,967.6L988.9,967.6z M987.9,979.6c0-1-0.3-2.2-0.4-3.3c-0.1-0.7-0.3-1.3-0.5-2
			c-0.1-0.9-0.5-1.8-0.7-2.7l-0.4-1.4c-0.1-0.3-0.3-0.6-0.3-0.9c-0.2-0.4-0.4-0.9-0.7-1.3c0-0.2-0.2-0.3-0.2-0.5
			c-0.4-0.7-1-1.3-1.2-2c-0.1-0.1-0.2-0.2-0.2-0.3c-0.1-0.1-0.2-0.2-0.3-0.4c0-0.1-0.2-0.3-0.3-0.4c-1-1.4-1.9-2.7-3.3-3.8
			c-0.3-0.4-0.7-0.7-1-1c-0.2-0.1-0.3-0.2-0.5-0.3c-0.8-0.9-1.8-1.5-2.7-2.4c-1.2-1-2.4-2.2-3.6-3.2c-0.8-0.7-1.8-1.2-2.9-1.4
			c-2.3-0.7-4.7-0.6-7-0.4c-1.1,0.1-1.8,0.9-2.5,1.6c-0.4,0.5-1.1,1.1-1.6,1.7c-0.6,0.7-1.6,1.3-2.2,2c-0.3,0.2-0.5,0.3-0.8,0.5
			c-0.3,0.3-0.7,0.5-1,0.8c-1.3,0.9-2.3,1.9-3.4,3.1c-0.4,0.1-0.4,0.5-0.7,0.8c-0.1,0.3-0.4,0.5-0.5,0.9c-0.1,0.3-0.4,0.6-0.5,1
			c0,0.2-0.1,0.2-0.2,0.4c-0.4,0.7-0.8,1.6-1.2,2.3c-0.3,0.5-0.4,1.1-0.7,1.7c-0.2,0.5-0.4,1-0.6,1.4c-0.2,0.5-0.4,1-0.6,1.5
			c-0.6,2.1-1.3,4.2-1.5,6.4c-0.1,0.1,0,0.3-0.1,0.4c-0.1,1.1-0.3,1.9-0.3,2.9c-0.2,1.1-0.1,2.6,0,3.6c0.8,0.3,1.7,0.7,2.3,1.4
			c0.3,0.2,0.6,0.6,1,0.8c0.2,0.1,0.5,0.1,0.7,0.1c-0.1-0.3-0.3-0.6-0.5-0.9c-0.4-0.7-1-1.4-1-2.3c0.2-0.3,0.4-0.5,0.7-0.5
			c0.4-0.1,0.7-0.1,1.2,0c-0.2-0.1-0.1-0.2-0.1-0.4c0.2-0.2,0.5-0.1,0.7-0.1c0-0.1,0-0.3,0-0.4c1.4-1.6,3.3-2.4,5.5-2.4
			c0.1-0.2,0.3,0,0.5,0c0.1,0.1,0.2,0,0.3,0c1.8,0.3,3.5,1,5.2,1.6c0.4,0.3,1,0.5,0.9,1c-0.7,1-1.8,1.5-2.7,2.1
			c-0.6,0.2-1.3,0.5-2,0.6c-1.2,0.2-2.7,0.1-3.9-0.2c-1.3-0.5-2.4-1.1-3.6-1.5c-0.1,0-0.2-0.1-0.3-0.1c0,0.1,0.1,0.2,0.2,0.2
			c0.9,0.6,0.9,0.6,1.7,1.2c0.1,0,1.2,0.8,1.4,0.8c1.1,0.5,1.7,0.8,3.2,0.7c0.5-0.2,1-0.3,1.4-0.5c0.1,0,0.2,0,0.3,0.1
			c0,0.5-0.2,0.7-0.6,1c-0.7,0.2-1.3,0.4-2.3,0.3c-0.7-0.1-1.4-0.2-2-0.6c-0.4-0.1-0.7-0.3-1-0.5c-0.6-0.3-0.7-0.6-1.4-0.9
			c-0.3-0.3-0.9-0.6-1.2-0.9c-0.3-0.1-0.8-0.3-1.1-0.3c0,0.3,0.3,0.4,0.3,0.8c0.1,0.1,0.2,0.1,0.2,0.3c0.3,0.3,0.6,0.7,0.7,1
			c0.6,0.5,1,1,1.8,1.4c1.3,0.5,2.6,0.5,3.6,0.5c2.3-0.2,3.6-0.5,5.1-0.5c1,0.2,2.1,0.3,2.9,0.9c0.1,0.1,0.1,0.4,0.2,0.5
			c-0.2,0.2-0.4,0.2-0.6,0.1c-1.3-0.7-1.8-0.5-3-0.6c-1.1,0-2,0.1-2.8,0.1c-1.2,0.1-2.1,0.5-3.3,0.3c-0.4,0.1-1.2-0.4-1.5-0.3
			c0,1.2,1.1,2.3,1.8,3.4c0.7,0.5,1.5,1.1,2.3,1.4c0.5,0.4,1.2,0.7,1.6,1.3c0.5,0.4,0.8,1,1.2,1.5c0.1,0.3,0.1,0.6,0.1,0.9l0,0.1
			c0.9,0.5,1.7,1.1,2.6,1.7c0.1,0.1,0.3,0.2,0.3,0.3c0.4,0.3,0.9,0.7,1.2,1.2c0.3,0.3,0.4-0.1,0.6-0.2c0.1-0.3,0.5-0.3,0.8-0.5
			c0.5-0.2,1-0.3,1.5-0.4c1.5-0.1,3.2-0.3,4.8-0.3h0.1c1-0.1,2.1-0.1,3.1-0.3c1.5-0.3,3-0.4,4.5-0.9c1.2-0.3,2.4-0.7,3.6-1.2
			c0.5-0.3,1.1-0.5,1.6-0.9c0.9-0.6,1.8-1.3,2.6-2.1c0.2-0.3,0.4-0.5,0.5-0.7c0.4-0.4,0.7-0.9,1-1.3c0.2-0.4,0.5-0.7,0.6-1.1
			c0.2-0.2,0-0.5,0.3-0.7c0-0.2,0.2-0.3,0.3-0.4l0.3,0c0-1.2,0.2-2.5,0.2-3.8c0.2-2-0.1-3.8-0.2-5.8
			C987.9,980,987.9,979.7,987.9,979.6L987.9,979.6z M943.2,987.9c0.3,1,2.1,4.8,3.2,4.9c0.2,0,0.1-0.3,0.1-0.4
			c-0.2-0.6-0.3-1.1-0.4-1.7c-0.1-0.7-0.1-1.4,0-2.2c0.1-0.8-1.2-1.5-1.3-1.9c-0.3-0.2-1.2-0.8-1.2-0.2l-0.1,0.2
			C943.6,987.2,943.1,987.3,943.2,987.9L943.2,987.9z M942,980.6c-0.1,0,0,0.2-0.1,0.3c-0.2,0.5-0.4,1-0.6,1.5
			c-0.2,0-0.1,0.2-0.2,0.3c0,0.3,0.2,0.4,0.3,0.6c0.1,0,0.1,0.1,0.2,0.1l0.1,0c0-0.1,0-0.1,0-0.2c0,0,0,0.1,0.1,0.1
			c-0.1,0,0,0.1,0,0.1c0,0,0,0,0,0c0,0,0,0,0,0c0,0,0.1,0,0.1,0c0-0.1,0.1,0,0.2-0.1c0.2-0.1,0-0.5,0.2-0.7c0-0.9,0-1.6,0.1-2.4
			c0.1-0.2,0-0.6,0.1-0.8c0-0.1-0.2-0.1-0.2-0.1C942,979.8,942.2,980.3,942,980.6L942,980.6z M941.7,986.5c-0.5-0.2-0.7-0.9-1.3-0.9
			c-4.6,0-1.9,4.5,0.3,4.3c0.6,0,1.2-0.3,1.8-0.1l0.1-0.2C942.2,988.9,942,986.8,941.7,986.5z M942.6,996.9
			c-0.6-0.8-1.1-1.7-1.6-2.6c0,0-0.1,0-0.1,0c0,0.3-0.1,0.7,0.1,1c0.7,5.3,8.3,5.1,12.2,5.3c1.1,0,2.3,0.4,3.4,0.2
			c1.5-0.2,2.6,0.5,4,0.8c-0.1-0.4-0.4-0.7-0.7-1l-0.2-0.1c-0.2-0.1-0.9-0.6-1-0.8C953.9,994.8,946.1,1002,942.6,996.9L942.6,996.9z
			 M956.2,996.8c-0.9-1.5-2.3-1.9-3.7-2.9c-1.5,0.4-3.1-5.5-5.1-5.4l-0.2,0.2c-0.3,3,1.3,7.5,4.8,8c1.4,0.2,2.6-0.3,4.1,0.3
			L956.2,996.8z M943.2,1000.2c-3-2-8.8-4.8-11.9-1.4c2.4,0.3,3.3,0.2,5.4,1.6c2.8,1.9,7.2,6,10.9,4.2l0.1-0.1
			c1.2-0.1,3.6-1.7,4.8-2.3C950.6,1001,946.5,1002.4,943.2,1000.2z M941.7,991.2c-0.4,0.3,0.1,1.6,0.2,1.9c1.5,4,2.7,4.2,6.6,4.3v0
			c0.4,0,0.8-0.1,1.2-0.2c-0.1-0.2-0.4-0.3-0.7-0.4c-0.6-0.3-0.8-0.9-1.3-1.2c-1.8-1.2-2.8-2.6-4.3-4.1
			C942.9,991.6,942.3,990.8,941.7,991.2L941.7,991.2z M949.2,983c0.2,0,0.5,0.3,0.7,0.1v-0.6c-0.1,0-0.2,0-0.2,0.1
			C949.5,982.7,949.3,982.8,949.2,983z M957.4,982.8c0-0.3,0-0.6-0.1-0.8c-0.1-0.1-0.1-0.2-0.1-0.2c-0.2-0.3-0.4-0.3-0.7-0.4
			c-0.3-0.1-0.6-0.1-0.8-0.2c-1.2-0.4-2.8-0.1-4,0.2c-0.2,0.1-0.3,0.1-0.5,0.2c-0.1,0-0.2,0.1-0.2,0.2c0,0.1,0.1,0.3,0,0.4
			c-0.1,0.2-0.1,0.4-0.2,0.7c0,0.1,0,0.2,0,0.3c0,0.1,0.1,0.2,0.1,0.3c1,0.6,2.1,1.1,3.4,1.1c0.6,0,1.1,0,1.7-0.2
			c0.5-0.1,1-0.3,1.5-0.4c-0.1-0.1-0.2-0.2-0.2-0.3C957.3,983.5,957.4,983.1,957.4,982.8z M958.3,983.3c0,0.1,0,0.3-0.1,0.5
			c0.6-0.3,1.1-0.7,1.6-1.2c0,0-0.1,0-0.1-0.1c0,0-0.1,0-0.2-0.1c0,0-0.1,0-0.2-0.1c-0.1-0.1-0.3-0.1-0.4-0.1
			c-0.1,0-0.3-0.1-0.4-0.1c0,0.2,0,0.3,0,0.5C958.4,982.9,958.4,983.1,958.3,983.3z M973.8,1003.7c4.1-2,8.5-0.7,11.7-4.5
			c1.1-1.4,2-3.2,1.8-5.1l0-0.3l0-0.3l-0.1-0.2c-0.7,0.5-1.1,1.2-1.7,1.8c-4.2,3.8-8.6,4.6-14.1,5.3c-1.2,0.1-8.3,0.4-8.4,1.4
			c0,0.1,1.8,3.4,2,4c0.1,0.3,0.3,0.6,0.3,0.9c0.1,0.4,0.3,0.7,0.3,1.1l0.2,0.6c1.6-0.8,3.3-4.2,7-3.8
			C972.9,1004.2,973.5,1004.1,973.8,1003.7L973.8,1003.7z M973.4,1006.4c5.4-0.4,6.2,1.8,12-0.8c1-0.5,2.2-1.4,2.5-2.6
			c0.3-1.1,0.5-3.8-0.4-4.7c-0.4,0.8-1.3,1.7-1.9,2.5C983.1,1004.1,973.9,1002.6,973.4,1006.4L973.4,1006.4z M984.3,1011.1
			c0.4-0.4,0.8-0.8,1.1-1.3c0.3-0.5,1.4-3.1,1.3-3.6c-2.7,1.1-4.9,2.3-7.9,1.7c-3.3-0.6-8.3-1.2-9.8,2.7c-0.4,0.9-1.1,4.3-1.1,4.4
			c0,0.6,0,1.2,0.1,1.8c0.4-0.4,0.6-1,1.2-1.3c0.7-0.7,1.5-1.2,2.4-1.5c3.9-1.1,8.8,1.7,12-1.9
			C983.8,1011.9,984,1011.5,984.3,1011.1L984.3,1011.1z M968.4,1018.4c0,0.2-0.3,0.4-0.2,0.6c0.7,1.6,1.6,2.7,2.1,4.4
			c0.8,3.3,0.2,3.6,0,6.6c1.6,0.7,4.9-2.6,5.1-4.2c-0.1-1-0.3-1.9-0.3-2.9C975,1020.2,971.4,1015.2,968.4,1018.4z M988.5,1029.3
			c0.9-0.7,1.8-1.1,2.7-1.7l-0.2-0.1c-2.3-1-5.3-2.4-7.9-1.4c-2.2-0.4-3.6-0.9-5.2-2.6c-0.6-0.4-1-1-1.7-1.3
			c0.4,2.5,0.3,5.2,1.1,7.6C980,1036.9,984.6,1032.2,988.5,1029.3z M971,1037.2c0.2,0.3,0.2,0.6,0.4,0.8c0.3-0.1,0.4-0.4,0.6-0.6
			c1.9-2,5-1.1,6.4-3.5c0,0-0.1-0.2-0.1-0.2c-1.1-0.8-1.9-2.1-2.1-3.5l-0.6-1.4c-0.3-0.1-0.4,0.2-0.5,0.3c-1,1-3.1,2.1-4.5,2.3
			c-0.7,0.1-1.4-0.1-2,0.1C964.3,1032.7,970.3,1036,971,1037.2L971,1037.2z M966.5,1035.2l0-0.1c-0.3-0.9-0.7-1-0.7-2.2
			c0-1.1,1.9-3.1,3.1-2.8c1.5-2.1-0.1-7.3-1.2-9.4c-0.8-0.9-2.5-0.5-3.2,0.3c-0.1,0.3-0.3,0.5-0.5,0.7c-0.5,1.2-1.3,1.9-2.6,2.2
			c-0.9,0.4-1.7-0.1-2.3,1c-0.5,0.8-0.8,1.8-1.4,2.5c-1.1,1.5-4.5,1.5-4.7,2.3C957.7,1032.8,960.6,1036.1,966.5,1035.2L966.5,1035.2
			z M952.5,1028c0.1,0.2,0.3,0.1,0.4,0c0.8-0.3,1.5-0.4,2.3-0.6c2-0.5,2.4-2.9,4-4.4c0.5-0.5,1.3-0.3,1.8-0.3l-0.1-0.3
			c-1.3-0.9-3.6-1.6-4.5,0.4c-0.6,1.3-3.3,0.7-3.8,3.4C952.5,1026.7,952.3,1027.6,952.5,1028z M951.2,1028.8l0-0.7
			c0-0.1-0.1-0.2-0.2-0.3c-0.1,0.1-0.3,0.2-0.5,0.3c-0.2,0.1-0.3,0.2-0.5,0.2C950.4,1028.6,950.8,1028.7,951.2,1028.8z M941,1025.2
			c0.5,0.3,0.5,1.1,0.2,1.5c0,0.6,0,1.1,0.1,1.7l0,0.1c0.4,1.4,1.2,1.8,2.2,2.7c0.4-0.3,0.5-0.9,0.9-1.2c1.3-1.1,2.8-1.5,4.2-2.4
			c0.3-0.3,2.3-1.1,2.7-1.2c0.2-0.7,0.2-1.6,0.7-2.2c1.2-1.4,1.7-1.5,3.2-2.2c1-2,3.6-2.8,5.5-1.5c0.3,0.2,1.5,1.2,1.6,1.2
			c0.4-0.4,1.2-0.5,1.2-1.2c0.8-1.6,2.1-2,3.9-1.9c0-0.2,0-0.4-0.1-0.6c0-0.3-0.1-0.5-0.2-0.8c-0.5-2.5,0.4-7.1,2.3-9
			c1-1.1,1.9-1.3,3.3-1.7c-0.1-0.3,0.2-0.6-0.1-0.8c-3.5,0.5-5.2,3.4-5.6,3.5c-0.4,0.4-0.7,0.8-0.6,1.4c0.5,4.8-6.2,5.5-8.6,2.2
			c-0.3-0.5-2.3,0.3-2.9,0.5c-0.5,1-3.1,2.1-4.1,2.7c0.1,3.9-5.5,9.7-9.5,7c-0.2-0.4-0.8-0.9-1-1.3c0,0-1.9,1-2.4,1.1l-0.1,0.2
			C938.6,1024.3,939.4,1024.5,941,1025.2L941,1025.2z M952.4,1012c1.2,0.2,2.5,0,3.7-0.5c0.5-0.2,0.9-1.3,1.5-0.6
			c0.2,0.3,0.4,0.6,0.6,0.8c1,1.4,4.2,2.5,5.6,1.2c0.2-0.2,0.7-0.7,0.7-1c0,0-0.1,0-0.1,0l0-0.1c-0.5,0.1-1,0-1.5-0.2
			c-5.4-1.5-2.9-7.9-12-4.3c-0.5,0.2-2.6,1.1-2.9,1.4C949.4,1010,950.4,1011.6,952.4,1012z M947.8,1010.5c-1.4-0.9-5.7,1.6-7.5,1.9
			c0.6,1,2.8,2.2,3.9,2.1c1.6-0.2,4.5,0.9,5.7,0.4c0.9-0.4,1.8-0.9,2.7-1.4C948.9,1012.4,949.9,1011.7,947.8,1010.5L947.8,1010.5z
			 M939.9,1018.7l-0.3-0.1c-1.3,0.3-2.4,0.8-3.7,1c-3.1,0.3-6.8,0-9.7-1.2c-1.4-0.6-2.7-1.4-4.1-2
			C923.2,1019.1,938.1,1025.6,939.9,1018.7z M935.5,1018.4c0.9-0.1,4.1-1.2,4.4-1.2l0-0.3c-3.4-5.9-10.4-4.4-16.2-4.1
			c-1.3,0.1-2.6,0-3.9,0C924.4,1016.9,929.2,1018.9,935.5,1018.4z M906.9,997.8c0,2.4,1.7,4.9,3.1,6.8c1.8,2.5,5.5,5.5,8.4,6.6
			c6.2,2.4,17.4-4.2,22.4,5c0,0.9,0.6,1.7,0.4,2.7c-0.1,0.8-0.6,1.3-0.7,2c0.9,0.1,0.9,1.3,1.9,1.4c3.6,0.5,6-3,7-6
			c-1.4,0-2.7-0.6-4-0.6c-2.4,0-4.7-0.5-6.2-2.7c-0.2-0.1-1.3-1.4-1.3-1.6c-0.4-0.3,0.1-1,0.6-0.9c1,0.2,1.6,0.6,2.6,0.4
			c1.5-0.3,2.9-1.3,4.4-1.7c0-0.4,0.2-1,0.6-1.1c0.9-0.4,1.9-0.4,2.8-0.9c2.4-1.5,7.1-3.3,9.5-1.2c0.9,0.8,5.7,6.6,6.9,3.9l-0.1-0.5
			c-0.9-3.9-4.1-7.6-8.5-7c-5.6,0.7-7.9,6-14.7,2.9c-4-1.8-5.9-5.9-10.9-5c-0.8,0.1-1.8,0.5-2.5,1.1c1.2,3.4,2.5,6.1,5.9,7.7
			c0.8,0.4,2.1,1,2.9,0.9c0.2,0.1,0.2,0.5,0.2,0.7l-0.4,0.3c-1.6-0.1-2.3-0.7-3.6-1.1c-0.6-0.6-1.7-0.7-2.4-1.2
			c-0.2-0.1-1.5-0.7-1.7-0.7c-2.3,0-3.6,1.4-6.8,0.8c-0.9-0.2-2.2-0.4-3-0.9c-2.1-1.3-4.2-2.3-6.2-3.7
			C911.1,1002.9,907.3,998,906.9,997.8z M913.3,993.2c-0.5,0-1.3-0.1-1.5,0.4c-0.4,0.6-0.5,1.4-0.6,2.2c0.4,0.2,0.6,0.7,0.9,1
			c0.2,0.2,0.4,0.5,0.6,0.8c0.3,0.2,0.3,0.5,0.6,0.7c-0.4-1-0.4-2-0.4-3C912.9,994.5,913.2,993.9,913.3,993.2z M914.5,994.8
			c-0.7,4.5,2.7,3.7,3.3,4.3c0.6-0.6,0.8-1.3,1.5-1.9c-2,1.1-4.2-1.9-2.7-2.3c0.8-0.2,1,1.4,2,0.9c1.2-0.7-0.7-3-2.2-2.8
			C915.6,993.1,914.6,993.9,914.5,994.8L914.5,994.8z M917.2,1000.7c-0.9-0.2-1.9-0.4-2.6-1.1c-0.1,0.1-0.1-0.1-0.1-0.1
			c0.4,0.6,0.9,1.1,1.4,1.6c0.4,0.3,0.8,0.7,1.2,1l0,0C917.1,1001.7,917.1,1001.2,917.2,1000.7L917.2,1000.7z M916,991.5
			c3.3-0.4,5.2,2.8,3.5,5.6c1.3-0.7,3.6-1.6,4-3C924.9,987.8,916.1,987.2,916,991.5z M924.3,983.2c-2.2-0.6-5.6,1.7-5.2,4.1
			c5-0.8,7.5,6.9,4,9.4c-1.2,0.9-2.9,1.2-3.9,2.4c-3.5,4.5,2.8,5.4,2.9,5.8c0.1,0.2,0,0.7-0.2,0.8c-1.2,1-6.7-3.3-7.8-4.2
			c-0.1-0.4-0.6-0.6-0.7-0.9c-1.9-1.7-3.4-5.3-6.5-5.4c2.3,4.9,12.1,13.4,17.9,12.4c1.5-0.3,3.2-1,4.7-1v-0.2
			c-0.6-0.7-2.3-4.2-2.3-5c-1.1-0.9,1.5-2,2-2.2c0.2-0.5,0.7-0.8,1-1.2c-3.2-0.7-3.9,4.1-5.7,2.3c-0.7-0.7-0.4-1.3-0.6-2.2
			c-0.1-0.8,0.7-1.9,1-2.5c1-0.8,1.3-2.1,2-3.1c0.1-2.1,1.3-2.1,0-5.6c-0.1-0.3-0.3-0.6-0.3-1C926.1,985.1,925.4,983.5,924.3,983.2
			L924.3,983.2z M929.5,977.3c-1.2,1.1-3.8,3.6-3.3,5.5c0.2,0.5,1.3,1.7,1.6,2.7c0.8,2.3,1.4,4,0.6,6.5c-0.7,2.3-2.4,3.9-3.2,6.1
			c0.2,0.4,0,0.9,0.3,1.2l0.1,0.2c0.7-0.7,0.9-1.6,1.8-2.2c1-0.6,3-1.1,4-0.3c2.2-1.3,6.3-1.6,8.6-0.2h0.1c-0.4-2.3-0.7-3.1,0-5.4
			c-3.4-0.9-4.7-6.1-1.7-7.1c0.3-0.5,0.9-0.3,1.4-0.5c0-0.3-0.4-0.9-0.6-1.1c-0.9-1.5-0.8-4.7-3.4-4.8c-1.9,0-1.5,5-4.1,4.1
			c-2.9-1.1-0.6-4.6,2-4.9c0.3,0,0.5,0.1,0.8,0c0.1-1.4-1.5-2.6-2.7-1.8C930.3,975.3,930.3,976.6,929.5,977.3z M933.4,978.6
			c-0.1-0.1-0.2-0.1-0.3,0c-0.6,0.3-1,1-1.2,1.6c0.1,0.3,0.3,0.5,0.6,0.7c0.6-0.1,0.4-0.8,0.6-1.2
			C933.1,979.3,933.2,978.9,933.4,978.6L933.4,978.6z M932.5,971.2c-0.1-0.2-0.1-0.3-0.2-0.4c-0.1-0.1-0.1-0.2-0.2-0.3
			c0,0-0.2,0.2-0.2,0.4c-0.3,0.8-0.2,1.9,0.2,2.7c0,0.2,0.1,0.3,0.2,0.4c0.7,0.1,1.6-0.1,2.2,0.2c0.5,0.3,0.9,0.7,1.1,1.3
			c0,0.2,0.1,0.2,0.2,0.4c0.1,0,0.1,0.2,0.2,0.3c0,0.2-0.1,0.5,0.1,0.6c0.8,0.1,1.7,0.2,2.3,0.8c0.9,0.8,1.5,2,1.8,3.1
			c0.1,0.1,0.1,0.3,0.2,0.5c0,0.1,0.1-0.1,0.1,0c0-0.3,0.2-0.4,0.2-0.7c0.1-0.9,0-1.5-0.4-2.2c-0.4-0.7-1.3-1.3-1.9-2
			c-0.4-0.4-0.9-0.6-1.3-0.9c-0.9-0.7-1.8-1.4-2.7-2C933.8,972.7,933.1,972,932.5,971.2L932.5,971.2z M934.9,969.2
			c-0.2-0.3-0.2-0.8-0.4-1.1c0-0.1-0.1-0.3-0.1-0.4c-0.2-0.1-0.4,0.1-0.6,0.2c-0.1,0.2-0.2,0.2-0.2,0.5c-0.3,0.5-0.3,1-0.3,1.5
			c0.4,1.2,1.4,1.9,2.3,2.7c0.9,0.7,1.8,1.4,2.7,2.1c0.4,0.1,0.6,0.4,0.9,0.6c0.7,0.7,1.3,1.3,2,2c0.3,0.3,0.5,0.7,0.7,1.1
			c0.5,0,0.7-0.4,0.9-0.7c0.3-0.8,0.4-1.7,0-2.4c-0.1-0.1-0.2-0.1-0.2-0.2c-0.7-0.9-1.9-1.1-2.9-1.7c-0.9-0.3-1.8-0.7-2.4-1.4
			C936.3,971.1,935.2,970.4,934.9,969.2L934.9,969.2z M935.9,964.5c-0.1,0.2-0.1,0.4-0.2,0.6c0,0.6-0.3,1.2-0.1,1.8
			c0,0.5,0.3,0.9,0.3,1.3c0,0,0.1,0,0.1,0.1c0.1,0.2,0.1,0.4,0.3,0.6c0.9,1.2,2.1,2.4,3.6,3c0.9,0.3,1.5,0.8,2.4,1.1
			c0.1,0.2,0.4,0.2,0.5,0.4c0.3,0.2,0.4,0.5,0.6,0.6c0.1-0.1,0.2-0.3,0.3-0.5c0.1-0.8,0.4-1.6,0.7-2.3c0.1-0.5,0.4-1,0.2-1.6
			c0-0.5-0.1-1-0.4-1.3c-0.3-0.5-0.6-0.7-1.1-0.9c0-0.1-0.2-0.1-0.3-0.2c-1.8-1.2-3.3-2.8-4.3-4.8v-0.1c0-0.1-0.1-0.2-0.2-0.3
			c-0.2-0.4-0.3-0.8-0.3-1.2c-0.1,0-0.1-0.1-0.1-0.1c0-0.1-0.1,0,0-0.1c-0.2,0.2-0.2,0.5-0.3,0.9c-0.2,0.5,0.1,1.4-0.7,1.7
			C936.3,963.5,936,964,935.9,964.5z M960.7,945.9c-0.7-0.1-1.4-0.5-2-0.7c-0.5-0.3-1.2-0.5-1.8-0.9c-0.8-0.3-1.6-0.8-2.3-1.3
			c-0.6-0.3-1.1-0.7-1.8-0.9c0-0.1-0.1-0.1-0.1-0.1c-0.6-0.3-1.1-0.6-1.7-0.8c-0.2-0.2-0.4-0.3-0.7-0.3c-0.2,0-0.4-0.1-0.7-0.2
			c-0.2-0.1-0.4,0-0.6-0.1c-0.6,0-1.2-0.3-1.8-0.4c-0.2-0.1-0.4-0.2-0.3-0.4c0,0,0.1-0.1,0.1,0c0.4-0.3,0.9-0.4,1.4-0.3
			c0.9,0.1,1.9,0.3,2.6,0.7c1.1,0.6,2.3,1.1,3.5,1.7c0.2,0,0.4,0.3,0.6,0.3c0.1,0.1,0.4,0.2,0.5,0.4c1.2,0.8,2.7,1.3,3.9,2
			c0.3,0,0.5,0.3,0.9,0.2c0-0.1-0.1-0.2-0.1-0.3c-0.1-0.3-0.3-0.6-0.2-0.8v-0.4c-0.7-0.2-1.3-0.5-2-0.7c-0.7-0.3-1.3-0.6-2-1
			c-0.1-0.2-0.4-0.2-0.4-0.3c-1-0.5-1.8-1.1-2.8-1.6c-0.1-0.2-0.3-0.1-0.4-0.2c-0.4-0.2-0.8-0.5-1.2-0.6c-0.6-0.3-1.1-0.5-1.7-0.7
			c-1.5-0.4-3.2-0.4-4.8-0.1c-0.7,0.1-1.3,0.5-2,0.7c-0.8,0.7-1.9,1-2.3,2c-0.3,0.2-0.5,0.6-0.8,0.8c0,0.2-0.2,0.2-0.2,0.3
			c-0.6,0.6-0.6,1.5-0.8,2.3c0,1-0.4,2-0.1,2.9c0,0.5,0.1,1.2,0.2,1.7c0.2,0.8,0.3,1.6,0.4,2.3c0.1,0,0,0.2,0.1,0.3
			c0,0.3,0.2,0.6,0.1,1c0.1,0.2,0.1,0.3,0.1,0.5c0,0,0.1,0,0.1,0.1c0.2-0.2,0.5-0.5,0.8-0.4c0.2,0.1,0.4,0.3,0.4,0.6
			c0,0-0.1,0.1,0,0.1c-0.1,0.1,0,0.3-0.1,0.4c-0.2,1.2-1.6,1.9-2.6,2.6c-1.2,0.5-2.1,1.5-2,3c0,0.2,0,0.5,0.1,0.8
			c0-0.1,0.1,0,0.1-0.1c0.1-0.4,0.5-1.1,1-1.5c0.3-0.2,0.5-0.6,0.9-0.7c0.7-0.6,1.7-0.8,2.2-1.7c0.4-0.5,0.6-1,0.9-1.6
			c0.2-0.7,0.2-1.4,0.3-2.1c0-0.7,0.2-1.5,0-2.3c0-0.2,0-0.3,0-0.5c-0.2-0.1,0-0.3,0-0.5c0-0.4,0-0.9-0.1-1.3
			c0.2-1.3-0.3-2.8,0.2-4.1c0-0.3,0.3-0.5,0.2-0.9c0.2-0.4,0.3-0.8,0.7-1c0.1-0.1,0.1-0.4,0.3-0.3c0.2-0.1,0.2-0.3,0.5-0.3
			c0.6-0.1,1.1-0.3,1.7-0.3c2,0.4,3.8,1.5,5.7,2.3c1.4,0.8,2.7,1.7,4.2,2.3c1.1,0.7,2.4,1.1,3.7,1.7c0.7,0.3,1.3,0.3,2,0.5
			c0.7,0,1.5,0.2,2.2-0.2c0.4-0.1,0.8-0.3,1.2-0.4c0-0.5,0.1-1,0.1-1.4C962.9,945.5,961.9,946.2,960.7,945.9L960.7,945.9z
			 M963,941.3c-0.3,0.2-0.6,0.4-0.8,0.7c-0.4,0.5-0.7,1.1-0.8,1.7c0.9,0.7,2.2,0.6,3.3,0.5c0.3-0.3,0.3-0.8,0.6-1
			c0-0.1,0.2-0.3,0.3-0.4c0.3-0.5,0.8-0.9,1.3-1.3C965.8,940.7,964.1,940.8,963,941.3z M972.8,942.5c-0.2-0.2-0.2-0.4-0.3-0.6
			c-0.3-0.4-0.8-0.7-1.4-0.6c-1.7,0-3.2,0.8-4.3,2c-0.6,0.6-1,1.2-1.3,2c-0.2,0.5-0.5,1.1-0.2,1.5c0.7,0.2,1.3,0.1,1.9-0.2
			c0.2,0,0.1-0.1,0.3-0.1c1.1-0.5,1.7-1.9,2.9-2.5c0.1-0.1,0.2-0.2,0.3-0.3c0.7-0.3,1.4-0.7,2.1-1
			C973,942.8,972.8,942.6,972.8,942.5z M994.9,956.4c-0.6-0.7-0.7-1.5-1.1-2.3c-0.1-0.6-0.4-1.2-0.2-1.9c0.1-1.6-0.1-2.9-0.1-4.6
			c-0.1-1.1-0.4-2.2-0.7-3.2c-0.3-0.8-0.5-1.6-1.1-2.3c-0.3-0.9-0.9-1.5-1.6-2.2c-0.4-0.3-1-0.6-1.4-0.9c-1.2-0.5-2.6-0.9-4-0.6
			c-1.2-0.1-2.3,0.3-3.6,0.5c-0.9,0.4-2,0.8-2.9,1.2c-0.6,0.4-1.3,0.8-1.7,1.3c-0.9,0.7-1.5,1.7-2.6,2.1c-0.8,0.6-1.5,1.2-2.5,1.5
			c-0.1,0.1-0.2,0.2-0.3,0.3c0,0.1,0.3,0,0.4,0c0.3,0.2,0.6-0.1,0.9-0.1c0.1-0.1,0.2,0,0.3-0.1c0.7-0.2,1.3-0.5,1.9-0.8
			c0.1-0.1,0.3-0.3,0.5-0.3c0.3-0.4,0.7-0.7,1.2-0.9c0.5-0.4,1-0.7,1.5-1.1c0.5-0.4,1.2-0.8,1.7-1.1c0.4-0.1,0.6-0.4,1.1-0.5
			c1.6-0.7,3.5-1.2,5.4-1.1c0.5,0,1.1-0.1,1.6,0.2c0.4,0.4,1.1,0.6,1.1,1.3c-0.4,0.3-0.8-0.2-1.3-0.1c-1.3-0.2-2.7-0.1-3.9,0.2
			c-0.5,0-1,0.3-1.5,0.4c-0.4,0.2-1,0.3-1.5,0.6c-0.8,0.4-1.6,0.9-2.4,1.5c-0.6,0.4-1.2,0.7-1.7,1.2c-0.5,0.4-1,0.8-1.5,1
			c-1,0.6-2.2,1-3.4,0.9c-0.6,0-1.2,0-1.7-0.2c-0.2,0.1-0.5,0.3-0.6,0.5c0,0,0,0.1,0,0.1c0.5,0.2,1,0.4,1.6,0.5
			c0.5,0.3,1.1,0.3,1.6,0.4c1.3,0.2,2.5-0.3,3.7-0.6c1.3-0.5,2.7-1.1,4-1.7c2-0.9,3.8-2.3,6.1-2.7c0-0.1,0-0.1,0.1-0.1
			c0.2,0,0.3,0,0.5,0c0.3,0,0.4-0.2,0.7,0c0.2-0.1,0.5,0.1,0.7,0.1c0.4,0.1,1,0.1,1.2,0.6c0.2,0.7,0.7,1.2,1,1.8
			c0.2,0.3,0,0.7,0.3,0.9c0.5,1.5,0.5,3.3,0.6,4.9c-0.1,0.3,0,0.7,0,1c0.1,0.4,0,0.7,0,1.1c0.1,0.3,0.2,0.6,0.3,0.9
			c0.1,1,0.7,1.9,1.1,2.9c0.3,0.8,0.5,1.6,0.8,2.4c0,0.2,0,0.3,0.2,0.4c0.3,0.4,0.5,0.9,1,1c0.6,0.5,1.1,1,1.6,1.5
			c0-0.1,0.1-0.3,0.1-0.5C996.8,959.6,995.9,957.9,994.9,956.4L994.9,956.4z M996.3,964.3c-0.3-0.4-0.6-1-0.9-1.3
			c-0.3-0.3-0.7-0.6-1-0.9c-0.1,0.1,0,0.3,0,0.5c-0.1,0.5-0.3,1-0.4,1.5c-0.4,1.3-1.4,2.3-2.3,3.4c-1.2,1.2-2.3,2.5-3,4.1
			c-0.3,0.6-0.5,1.3-0.6,2c0.3,1.4,0.7,2.8,0.9,4.3c0.1,0.6,0.3,1.3,0.2,1.9c0,0,0.1,0.1,0,0.1c0.1,0,0.1,0.1,0.1,0.1l0-0.1v-0.1
			c0-0.5,0.2-0.8,0.2-1.3c0.2-0.4,0-0.8,0.3-1.2c0-0.4,0.2-0.7,0.3-1c0.3-0.8,1-1.5,1.6-2.2c0.4-0.4,0.8-0.9,1.3-1.2
			c0.8-0.9,1.8-1.8,2.6-2.9c0.6-0.6,1-1.3,1.2-2.1C997.4,966.7,997.2,965.1,996.3,964.3z M996.3,981.1c-0.1-0.2,0.2-0.7-0.2-0.7
			c-1.1,0-2.4,1.1-3.3,1.7c-0.6-0.3-1.3-2.3-1.2-3c0-0.6-0.3-1.3-0.2-1.9c-0.1,0,0-0.1-0.1-0.2c-1.4,1.9,0.2,6.6-1.2,8.4
			c0.9,2,1.3,1.3,2,2.2c2.5,0,3.8-1.2,5-3.2c-0.4-0.4-0.5-1.1-1.1-1.4C995.9,982.4,996,981.6,996.3,981.1L996.3,981.1z M997.8,968.8
			c0,0-0.1,0-0.2,0c-0.5,1.4-3,3.8-4.1,5c-0.1,0.6-1.3,2.6-0.8,3C994.7,974.6,998.6,972.4,997.8,968.8z M997.8,973.4
			c-0.7,1.6-3.3,2.7-4.6,5.2c0,0.4-0.2,0.6,0,1c0.1,0.4-0.3,0.3-0.2,0.7c0.8-0.2,1.4-0.8,2.2-1c0.6-0.2,1.2-0.1,1.9-0.2
			c0.8,0.5,0.3,1.4,0.5,2c2.9-0.5,2.3-4.4,2.7-6.4c0.2-1,0.8-1.5,1.1-2.4C1000.4,972.1,998.3,972.3,997.8,973.4z M1005.6,982.4
			c-0.3-1.8-1.4-3.2-1.7-4.8c-0.2-1.7-1.7-3-0.8-4.8c-1.6,0.2-1.6,4.7-1.8,5.9c-0.1,0.7-0.4,1.4-0.8,2c-0.3,0.5-1.5,1.3-2,1.5
			c-0.5,0.2-0.9,0.1-1.2,0.4c0.2,0.6,0.7,1,0.9,1.6c1,2-0.7,2.6,1.9,4.2C1003.1,989.3,1006.2,985.5,1005.6,982.4L1005.6,982.4z
			 M999.6,989.5c-0.5-0.4-0.9-0.4-1.3-0.9c-0.2-0.3-0.4-0.7-0.7-0.9c0-0.2,0-0.3-0.2-0.3l-0.2-0.3l-0.2-0.3c-0.3,0-0.6,0.3-0.8,0.5
			c-0.5,0.9-3.7,1.8-4.6,1.6c-0.6-0.1-1.7-1.3-2.2-1.6l-0.2,0.1l0,0.3l0-0.1c-0.2,1.9-0.4,6.6-0.9,8.2c0.1,0.1,0.2,0.3,0.2,0.5
			c0.3-0.1,0.5-0.4,0.9-0.4c1.8-1.2,5-0.6,6.2,1.3c0.2-0.1,0.6-0.2,0.7-0.4c0.8-0.5,1.2-1.6,1.7-2.4c-0.1-0.4,0.3-0.7,0.2-1l0.3-0.3
			c0.7,0.2,0.7,1,1.1,1.5c0.3,1.5,0.2,2.3-0.3,3.7c0.9,0.1,2.6-1.2,2.5-2.1c-0.1-1.6,1.5-5.9,3.2-6.3c0.2-0.2,0.5-0.1,0.6-0.4
			c0.4-0.2,0.9-0.1,1.3-0.3c0.3,0.2,0.8,0,1.1,0.2C1006,985.4,1002.7,991,999.6,989.5L999.6,989.5z M1014.6,994.1
			c-0.9-0.3-1.3,1.4-2.3,1.5c-0.6,0.1-1.7-0.4-1.9-1c-0.3-0.9,0-2.4-0.6-3.2c-1.9-2.3-4.9-1.6-5.9,1.1c-0.4,1-0.7,1.3-0.8,2.5
			c2.1-0.4,2.5-0.9,4.7,0.4c1.7,1,4.7,4.4,6.8,3.1c0.3,0,1.2-1.8,1.4-2.1C1015.8,995.5,1016.2,994.3,1014.6,994.1z M1024.6,992.8
			c-1.7,0.2-1.2,0.8-3.2,0.6l-0.4,0c-2.6,0.1-6.6,7.9-7.7,10.1c-0.9,1.7-3.4,2.5-4,3.2c0.4,0.2,2.6,1.8,2.5,2.1
			c-2.5,1.5-2.5,2.5-4.3,3.9c3.6-0.6,7.5-6.2,9.2-9.3c0.7-1.2,2.3-2.9,2.8-4.1c1-0.7,1.8-1.9,2.8-2.7c1-0.8,2.1-1.6,3.1-2.4
			C1026,993.6,1025.2,992.7,1024.6,992.8L1024.6,992.8z M1026.1,994.9c-0.3,0.1-2.1,1.7-2.3,2c-0.2,0.2-0.6,0.2-0.8,0.5
			c-0.3,0.1-0.4,0.3-0.7,0.4c-0.2,0.4-0.7,0.5-0.8,1c-1.4,0.8-1.7,2.6-2.9,3.4c-0.1,0.2-1.5,2.5-1.6,2.6c-0.1,0.5-0.7,0.6-0.6,1.1
			c-0.5,0.4-0.4,1.3-1.2,1.5c-2.1,2.9-4.1,5.1-7.7,6.1c-1,0.3-1.7,0.5-2.7,0.9c-2,0.6-3.6,0.9-5.6,0.9c-3.1,0.1-6.8,1.1-9.3,0.9
			c-1.7-0.1-6.3-1.9-6.9-1.9c-0.5-0.3-0.9,0.2-1.3,0.4c-2.2,0.8-11.2-0.7-11.8,1.8c0.4-0.2,1-0.2,1.5-0.2c3,0.1,5.9,2.5,9,3.1
			c2.7,0.5,4.2-2,8.2,0.5c9.4-8.6,19.1,0.7,32.8-13.9c2.9-3.1,4.6-6.4,4.9-10.7L1026.1,994.9"/>
		<path id="path18" fill="#231F20" d="M982,910.6l3.2-5.5c0.5-0.8,1-1.6,1.4-2.4l-5.7-1.3l0,0.2l0.6,4.3L982,910.6z M996.6,894.7
			c-1.1,1.9-2.2,3.8-3.4,5.8l-2.5,4.2l-3.3,5.7l-2.5,4.1l-0.8,1.4l-0.2,0.2l-3.4-0.8l0-0.2c-0.2-1.9-0.5-3.8-0.8-5.8l-0.8-6.6
			l-0.7-5.5c-0.3-2.3-0.6-4.6-0.9-7l2.2,0.5c0.2,1.1,0.3,2.3,0.4,3.3l0.6,4.6l0.1,0.2l7.2,1.6c1.4-2.4,2.7-4.7,4.1-7L996.6,894.7"/>
		<path id="path20" fill="#231F20" d="M948.9,914.1c1.6-0.4,3.5-0.6,4.3-2.2c0.3-0.6,0.5-1.4,0.5-2.1c0-0.6,0-1.2-0.2-1.7
			c-0.2-0.7-0.5-1.3-0.7-1.9c-0.6-1.1-1.8-2.2-3.2-2.4c-1-0.2-2,0.2-3.1,0.4L948.9,914.1L948.9,914.1z M952.6,901.8
			c1,0.3,2,0.6,2.8,1.2c2,1.4,3,4.2,2.8,6.6c-0.4,3.4-3.6,5-6.6,5.7l-6.9,1.6l-5.3-23.1l4.6-1.1l2.2,9.7l2-0.5l0,0l1.4-6.4l0.9-4.3
			l4.6-1.1c-0.8,3.8-1.7,7.6-2.5,11.4C952.6,901.6,952.5,901.8,952.6,901.8"/>
		<path id="path22" fill="#231F20" d="M931.7,911.1l3.4,7.5l7-3.1l0.9,2.1l-11.3,5.1l-9.7-21.6l11.2-5l0.9,2.1l-6.9,3.1l3.5,7.8
			l5.4-2.4l0.9,2.1L931.7,911.1"/>
		<path id="path24" fill="#231F20" d="M910.8,908c2.5,1.9,5.2,4,7.7,5.9l4.4,3.4l7.2,5.6l0.2,0.2l-1.8,1.3l-4.9-3.9l-5.1-4.1l-5-4
			c0,0-0.1-0.1-0.1,0l2,5c1.1,2.6,2.1,5.2,3.2,7.7l2,4.9l-3.9,2.8c-0.4-1.2-0.9-2.4-1.4-3.6l-1.6-4.1l-0.4-0.9l-2.5-6.5l-2.1-5.5
			c-0.3-0.7-0.6-1.6-0.8-2.3L910.8,908"/>
		<path id="path26" fill="#231F20" d="M997.5,921.7c-1.6-0.7-3.1-1.6-4.3-2.9c-1.3-1.3-2-3.3-2-5.1c0-3,1.3-6,2.8-8.8
			c1.4-2.6,3.1-4.9,5.6-6.1c2.4-1.2,5.1-0.9,7.5,0.3c1.7,0.9,3.3,2,4.3,3.6c1,1.8,0.9,3.8-0.1,5.6l-2.7-1.4c0.7-1.5,0.9-3,0.2-4.5
			c-0.3-0.6-0.9-1.1-1.5-1.4c-0.5-0.3-1.1-0.5-1.6-0.6c-2.5-0.4-4.2,1.7-5.5,3.5c-1.7,2.6-3.2,5.5-4.3,8.3c-0.6,1.8-1.2,3.6-0.9,5.5
			c0.2,1,0.9,1.7,1.8,2.2c0.6,0.3,1.1,0.4,1.6,0.4c0.8,0,1.4-0.4,1.9-0.9c0.9-0.8,1.5-1.8,2.1-2.9l3.7,1.9c-1,2-2.6,3.6-4.8,3.8
			c-0.4,0.1-0.7,0-1.1,0c-0.7,0-1.2-0.1-1.9-0.3L997.5,921.7"/>
		<path id="path28" fill="#231F20" d="M973.9,911.2c-1,1-2.3,1.8-3.5,2.4c-1,0.4-2.1,0.4-3.1,0.4c-1.1,0-2.1-0.3-3.1-0.7
			c-2.2-0.8-3.7-3.1-3.9-5.4c-0.3-2.4,0.1-4.9,1.8-6.4c1.9-1.8,4.6-1.6,6.8-2.8c1.4-0.7,2.5-2,2.4-3.6c0-0.6-0.1-1.2-0.3-1.8
			c-0.4-0.9-1.2-1.5-2-1.8c-0.2-0.1-0.4-0.1-0.6-0.1c-0.6-0.1-1.4-0.1-2,0.1c-1.9,0.5-3.3,2.2-4.2,3.9l-2.7-2.7
			c1.3-1.6,3.2-2.7,5.2-3c0.9-0.2,2-0.3,3.1-0.3c2.8,0,5.5,1.5,6.6,4.2c1,2.2,1,5.2-0.1,7.3c-1.1,1.9-3.2,2.8-5.2,3.3
			c-2.1,0.6-4.9,1.2-5.4,3.7c-0.1,0.8,0,1.6,0.3,2.3c0.6,1.3,1.8,1.7,3.2,1.8c2.1,0.1,3.4-1.8,4.4-3.3L973.9,911.2"/>
		<path id="path30" fill="#231F20" d="M1019.4,923.1l1.4-1.8l-4.8-3.5l5.1-6.9l6.1,4.5l1.4-1.8l-9.9-7.2l-14,19.1l9.9,7.3l1.4-1.8
			l-6.2-4.5l4.9-6.6L1019.4,923.1"/>
	</g>
</g>
</svg>
