<svg style="position: absolute; width: 0; height: 0;" width="0" height="0" version="1.1" xmlns="http://www.w3.org/2000/svg" xmlns:xlink="http://www.w3.org/1999/xlink">
<defs>
<symbol id="icon-arrow-down-s" viewBox="0 0 32 32">
<title>arrow-down-s</title>
<path class="path1" d="M28.133 6l4 4.133-16 15.867-16-15.867 4-4.133 12 12 12-12z"></path>
</symbol>
<symbol id="icon-arrow-up-s" viewBox="0 0 32 32">
<title>arrow-up-s</title>
<path class="path1" d="M4.133 26l-4-4.133 16-15.867 16 15.867-4 4.133-12-12-12 12z"></path>
</symbol>
<symbol id="icon-arrow-down" viewBox="0 0 32 32">
<title>arrow-down</title>
<path class="path1" d="M24.667 20.133l-7.333 7.333v-27.467h-2.4v27.467l-7.467-7.333-1.733 1.6 10.4 10.267 10.267-10.267z"></path>
</symbol>
<symbol id="icon-arrow-left" viewBox="0 0 32 32">
<title>arrow-left</title>
<path class="path1" d="M12 24.267l-7.467-7.467h27.6v-2.4h-27.6l7.467-7.333-1.733-1.733-10.133 10.267 10.133 10.267z"></path>
</symbol>
<symbol id="icon-arrow-right" viewBox="0 0 32 32">
<title>arrow-right</title>
<path class="path1" d="M20.267 7.067l7.333 7.333h-27.467v2.4h27.467l-7.333 7.467 1.6 1.6 10.267-10.267-10.267-10.267z"></path>
</symbol>
<symbol id="icon-check" viewBox="0 0 32 32">
<title>check</title>
<path class="path1" d="M12 28.047l-12-11.517 3.721-3.827 8.208 7.832 16.28-16.581 3.791 3.756z"></path>
</symbol>
<symbol id="icon-fb-l" viewBox="0 0 32 32">
<title>fb-l</title>
<path class="path1" d="M12 10.667h-4v5.333h4v16h6.667v-16h4.856l0.477-5.333h-5.333v-2.223c0-1.273 0.256-1.777 1.487-1.777h3.847v-6.667h-5.077c-4.795 0-6.923 2.111-6.923 6.153v4.513z"></path>
</symbol>
<symbol id="icon-fb-s" viewBox="0 0 32 32">
<title>fb-s</title>
<path class="path1" d="M16 2.667c7.352 0 13.333 5.981 13.333 13.333s-5.981 13.333-13.333 13.333-13.333-5.981-13.333-13.333 5.981-13.333 13.333-13.333zM16 0c-8.836 0-16 7.164-16 16s7.164 16 16 16 16-7.164 16-16-7.164-16-16-16zM13.333 13.333h-2.667v2.667h2.667v8h4v-8h2.427l0.24-2.667h-2.667v-1.111c0-0.637 0.128-0.889 0.744-0.889h1.923v-3.333h-3.205c-2.397 0-3.461 1.056-3.461 3.077v2.256z"></path>
</symbol>
<symbol id="icon-gplus-l" viewBox="0 0 32 32">
<title>gplus-l</title>
<path class="path1" d="M9.333 14.667h8.813c0.080 0.467 0.148 0.933 0.148 1.547 0 5.333-3.575 9.12-8.961 9.12-5.16 0-9.333-4.173-9.333-9.333s4.173-9.333 9.333-9.333c2.52 0 4.627 0.92 6.253 2.44l-2.533 2.44c-0.693-0.667-1.907-1.44-3.72-1.44-3.187 0-5.787 2.64-5.787 5.893 0 3.255 2.6 5.893 5.787 5.893 3.693 0 5.080-2.655 5.293-4.027h-5.293v-3.2zM9.333 14.667l22.667 2.667h-4v4h-2.667v-4h-4v-2.667h4v-4h2.667v4h4v2.667z"></path>
</symbol>
<symbol id="icon-gplus-s" viewBox="0 0 32 32">
<title>gplus-s</title>
<path class="path1" d="M16 2.667c7.352 0 13.333 5.981 13.333 13.333s-5.981 13.333-13.333 13.333-13.333-5.981-13.333-13.333 5.981-13.333 13.333-13.333zM16 0c-8.836 0-16 7.164-16 16s7.164 16 16 16 16-7.164 16-16-7.164-16-16-16zM12.667 15.333v1.6h2.647c-0.107 0.685-0.801 2.013-2.647 2.013-1.592 0-2.893-1.32-2.893-2.947s1.301-2.947 2.893-2.947c0.908 0 1.513 0.387 1.861 0.721l1.265-1.221c-0.813-0.76-1.868-1.22-3.127-1.22-2.581 0-4.667 2.087-4.667 4.667s2.085 4.667 4.667 4.667c2.693 0 4.479-1.892 4.479-4.559 0-0.307-0.032-0.54-0.073-0.773h-4.405zM12.667 15.333l11.333 1.333h-2v2h-1.333v-2h-2v-1.333h2v-2h1.333v2h2v1.333z"></path>
</symbol>
<symbol id="icon-twitter-s" viewBox="0 0 32 32">
<title>twitter-s</title>
<path class="path1" d="M16 2.667c7.352 0 13.333 5.981 13.333 13.333s-5.981 13.333-13.333 13.333-13.333-5.981-13.333-13.333 5.981-13.333 13.333-13.333zM16 0c-8.836 0-16 7.164-16 16s7.164 16 16 16 16-7.164 16-16-7.164-16-16-16zM24.667 11.704c-0.588 0.261-1.221 0.437-1.885 0.517 0.679-0.407 1.197-1.049 1.444-1.816-0.635 0.376-1.337 0.649-2.085 0.796-0.597-0.639-1.452-1.037-2.395-1.037-2.12 0-3.677 1.977-3.199 4.031-2.727-0.137-5.147-1.444-6.765-3.429-0.86 1.475-0.445 3.405 1.016 4.383-0.537-0.017-1.043-0.165-1.485-0.411-0.036 1.52 1.055 2.943 2.633 3.26-0.461 0.125-0.968 0.155-1.483 0.056 0.417 1.304 1.632 2.252 3.067 2.279-1.383 1.083-3.12 1.567-4.863 1.361 1.453 0.932 3.177 1.475 5.031 1.475 6.096 0 9.539-5.148 9.331-9.765 0.643-0.461 1.199-1.040 1.639-1.699z"></path>
</symbol>
<symbol id="icon-linkedin-s" viewBox="0 0 32 32">
<title>linkedin-s</title>
<path class="path1" d="M16 2.667c7.352 0 13.333 5.981 13.333 13.333s-5.981 13.333-13.333 13.333-13.333-5.981-13.333-13.333 5.981-13.333 13.333-13.333zM16 0c-8.836 0-16 7.164-16 16s7.164 16 16 16 16-7.164 16-16-7.164-16-16-16zM13.333 10.667c0 0.743-0.596 1.344-1.333 1.344s-1.333-0.6-1.333-1.344c0-0.743 0.596-1.344 1.333-1.344s1.333 0.603 1.333 1.344zM13.333 13.333h-2.667v8h2.667v-8zM17.333 13.333h-2.667v8h2.667v-3.815c0-2.296 2.669-2.508 2.669 0v3.815h2.664v-4.479c0-4.379-4.171-4.219-5.333-2.064v-1.457z"></path>
</symbol>
<symbol id="icon-linkedin-l" viewBox="0 0 32 32">
<title>linkedin-l</title>
<path class="path1" d="M6.64 4.667c0 1.841-1.48 3.333-3.307 3.333s-3.307-1.492-3.307-3.333c0-1.84 1.48-3.333 3.307-3.333s3.307 1.493 3.307 3.333zM6.667 10.667h-6.667v21.333h6.667v-21.333zM17.309 10.667h-6.624v21.333h6.625v-11.199c0-6.227 8.039-6.736 8.039 0v11.199h6.651v-13.508c0-10.507-11.896-10.124-14.691-4.952v-2.873z"></path>
</symbol>
<symbol id="icon-twitter-l" viewBox="0 0 32 32">
<title>twitter-l</title>
<path class="path1" d="M32 6.076c-1.177 0.523-2.443 0.875-3.771 1.033 1.356-0.812 2.397-2.099 2.887-3.632-1.268 0.752-2.673 1.299-4.169 1.593-1.196-1.276-2.904-2.073-4.792-2.073-4.239 0-7.353 3.955-6.396 8.060-5.455-0.273-10.292-2.887-13.531-6.859-1.72 2.951-0.892 6.811 2.031 8.765-1.075-0.035-2.088-0.329-2.972-0.821-0.072 3.041 2.108 5.887 5.265 6.52-0.924 0.251-1.936 0.309-2.965 0.112 0.835 2.608 3.259 4.505 6.133 4.559-2.76 2.164-6.237 3.131-9.72 2.72 2.905 1.863 6.357 2.949 10.064 2.949 12.189 0 19.076-10.295 18.66-19.528 1.283-0.927 2.396-2.083 3.276-3.399z"></path>
</symbol>
</defs>
</svg>
